<svg width="128" height="128" viewBox="0 0 128 128" fill="none" xmlns="http://www.w3.org/2000/svg">
<path fill-rule="evenodd" clip-rule="evenodd" d="M51.7323 65.1073H63.9978C63.942 65.174 69.3308 77.9615 69.3308 78.0835H80.7078C80.7248 78.1175 63.3645 38.5203 63.287 38.4423C63.4585 38.309 51.843 65.14 51.7323 65.1073ZM26.3123 14.1253C26.3398 14.0805 26.4008 77.9058 26.4008 77.9953C26.4895 78.0785 53.054 14.1085 52.9765 14.1253H26.3123V14.1253ZM73.2745 14.1253C73.2745 14.1253 100.844 78.2348 100.827 78.0278C100.827 78.1173 100.847 14.2863 100.847 14.1253H73.2745V14.1253Z" fill="black"/>
<path fill-rule="evenodd" clip-rule="evenodd" d="M32.9941 88.0878L27.0703 113.437H31.3858L32.3733 108.693H37.7328L38.7486 113.437H43.0648L37.1408 88.0878H32.9941ZM33.1913 104.384L35.0531 94.896L36.9151 104.384H33.1913ZM52.3753 96.3078C51.3033 94.896 50.5983 94.3523 49.1031 94.3523C44.8153 94.3523 43.6306 99.4588 43.6306 104.167C43.6306 109.671 45.2383 114.125 49.0466 114.125C50.6548 114.125 51.9236 112.967 52.5163 111.228H52.6571L52.7701 113.437H56.1833V88.0878H52.3753V96.3078V96.3078ZM50.0623 110.467C47.8901 110.467 47.5798 106.629 47.5798 104.239C47.5798 99.0963 49.0186 98.082 50.0623 98.082C51.0776 98.082 52.5443 99.0963 52.5443 104.239C52.5441 107.028 52.1498 110.467 50.0623 110.467ZM65.3256 94.3523C60.8406 94.3523 58.8656 98.5173 58.8656 104.203C58.8656 109.961 60.8688 114.125 65.3256 114.125C69.7548 114.125 71.7853 109.961 71.7853 104.203C71.7853 98.5173 69.7826 94.3523 65.3256 94.3523ZM65.3256 110.431C64.1693 110.431 62.8151 109.599 62.8151 104.203C62.8151 98.9153 64.1691 98.046 65.3256 98.046C66.7921 98.046 67.8366 99.2053 67.8366 104.203C67.8366 108.911 66.9616 110.431 65.3256 110.431ZM81.4871 94.3523C80.5276 94.3523 79.0326 94.7148 78.2431 96.5253V88.0875H74.4066V113.437H77.8198L77.9323 111.227H78.0446C78.8628 113.292 79.8503 114.125 81.5148 114.125C85.5493 114.125 86.9876 109.707 86.9876 104.166C86.9878 98.5898 85.5206 94.3523 81.4871 94.3523ZM80.5556 110.431C78.3836 110.431 78.0741 106.593 78.0741 104.203C78.0741 99.0603 79.5123 98.046 80.5556 98.046C81.5718 98.046 83.0381 99.0603 83.0381 104.203C83.0378 106.991 82.6426 110.431 80.5556 110.431ZM101.688 104.566C101.688 95.7653 98.1053 94.3523 95.5658 94.3523C91.5326 94.3523 88.9376 97.9008 88.9376 104.203C88.9376 113.256 92.9431 114.125 95.2843 114.125C97.3718 114.125 100.474 113.691 101.434 108.114H97.5978C97.2303 110.179 96.3273 110.431 95.4536 110.431C94.3816 110.431 92.8863 109.925 92.8863 105.579H101.688V104.566ZM92.8863 102.501C92.9141 101.124 93.2816 98.046 95.4536 98.046C96.7226 98.046 97.6256 98.771 97.7381 102.501H92.8863Z" fill="#1B1B1B"/>
</svg>
