<svg width="128" height="128" viewBox="0 0 128 128" fill="none" xmlns="http://www.w3.org/2000/svg">
<path d="M123.651 27.3493L88.5535 4.1875L64.0007 24.905L99.3875 46.9837L123.651 27.3493Z" fill="black"/>
<path d="M39.4471 4.1875L4.34937 27.3425L28.6201 46.9835L64.0006 24.905L39.4471 4.1875Z" fill="black"/>
<path d="M64.0006 69.068L39.4471 89.786L4.34937 66.6237L28.6119 46.9835L64.0006 69.068L99.3806 46.9835L123.651 66.6237L88.5534 89.786L64.0006 69.068Z" fill="black"/>
<path d="M90.3285 97.5613C89.7098 97.9728 88.9925 98.1743 88.285 98.1743C87.427 98.1743 86.577 97.876 85.885 97.3L64.0003 78.8335L42.1153 97.3C40.8538 98.3618 39.0435 98.4663 37.663 97.5613L26.7178 90.3388V101.383L64.0733 123.813L101.282 101.383V90.332L90.3285 97.5613Z" fill="black"/>
</svg>
