<svg width="128" height="128" viewBox="0 0 128 128" fill="none" xmlns="http://www.w3.org/2000/svg">
<path d="M0 0H128V128H0V0ZM11.2 112H59.2V104H11.2V112V112ZM17.6 36.8H19.2C22.9333 36.2667 25.6 33.0667 25.6 28.8V16H19.7333V29.3333C19.7333 31.4667 19.2 32 17.6 32C16 32 14.9333 31.4667 14.4 30.4L10.6667 33.6C12.2667 36.2667 14.9333 37.3333 17.6 36.8V36.8ZM44.2667 36.8V32H33.0667V28.8H42.6667V24H33.0667V20.8H44.2667V16H27.2V37.3333H44.2667V36.8ZM51.2 36.8H57.0667V20.8H63.4667V16H45.3333V20.8H51.7333V36.8H51.2ZM29.8667 57.0667C29.8667 54.4 28.2667 52.2667 25.6 52.2667C27.7333 51.7333 28.8 49.6 28.8 47.4667C28.8 46.4 28.2667 44.8 27.7333 43.7333C26.1333 42.1333 24 41.6 21.8667 41.6H11.2V62.4H21.8667C26.6667 62.4 29.8667 60.2667 29.8667 57.0667ZM16.5333 46.4H20.2667C21.8667 46.4 22.9333 46.9333 22.9333 48C22.9333 49.6 21.8667 50.1333 20.2667 50.1333H16.5333V46.4V46.4ZM16.5333 57.6V53.8667H20.8C22.9333 53.8667 24 54.4 23.4667 55.4667C23.4667 56.5333 22.4 57.6 20.8 57.6H16.5333V57.6ZM56 41.6L48 60.2667L44.8 55.4667C47.4667 54.4 49.0667 51.7333 49.0667 49.0667C49.0667 47.4667 48.5333 45.3333 47.4667 44.2667C45.3333 42.1333 42.6667 41.6 40.5333 41.6H30.4V62.4H36.2667V56H38.9333L43.2 62.4H52.8L54.4 58.6667H62.4L64 62.4H70.4L61.8667 41.0667H56V41.6ZM40 51.7333H36.2667V46.9333H40C41.6 46.9333 43.2 47.4667 43.2 49.6C43.2 50.6667 42.1333 51.7333 40 51.7333ZM60.8 54.4H56.5333L58.6667 48.5333L60.8 54.4ZM70.9333 62.4H76.8V41.6H70.9333V62.4ZM92.2667 52.8L83.7333 41.6H78.4V62.4H84.2667V51.2L93.3333 62.9333H98.1333V41.6H92.2667V52.8V52.8ZM108.8 49.6C106.133 49.0667 105.067 48.5333 105.067 47.4667C105.067 46.9333 105.6 46.4 107.2 46.4C109.333 46.4 111.467 47.4667 113.067 48.5333L116.267 44.2667C113.6 42.1333 110.933 41.6 107.733 41.6C102.933 41.6 99.7333 44.8 99.7333 48.5333C99.7333 52.8 102.933 53.8667 107.733 54.9333C110.4 55.4667 111.467 56 111.467 57.0667C111.467 58.1333 110.4 58.6667 108.8 58.6667C106.133 58.6667 104 57.6 101.867 56L98.6667 59.7333C101.333 61.8667 105.067 62.9333 108.267 62.9333C113.6 62.9333 116.8 60.2667 116.8 56C116.8 52.2667 113.6 50.6667 108.8 49.6Z" fill="black"/>
</svg>
