<svg id="Layer_1" data-name="Layer 1" xmlns="http://www.w3.org/2000/svg" xmlns:xlink="http://www.w3.org/1999/xlink" viewBox="0 0 280 300"><defs><style>.cls-1{fill:#4b7bbe;}.cls-2{fill:url(#linear-gradient);}.cls-3{fill:url(#linear-gradient-2);}</style><linearGradient id="linear-gradient" x1="15.56" y1="44.65" x2="12.42" y2="47.78" gradientTransform="translate(-36 -392.18) scale(11.03)" gradientUnits="userSpaceOnUse"><stop offset="0.18" stop-color="#325ba9"/><stop offset="1" stop-color="#4b7bbe"/></linearGradient><linearGradient id="linear-gradient-2" x1="16.39" y1="53.65" x2="19.51" y2="50.52" xlink:href="#linear-gradient"/></defs><title>Jira Logo</title><path class="cls-1" d="M219,145.32l-72-72-7-7-54.2,54.2L61,145.32a6.65,6.65,0,0,0,0,9.36l49.52,49.52L140,233.66l54.2-54.2.84-.84L219,154.72a6.63,6.63,0,0,0,0-9.37l0,0Zm-79,29.42L115.25,150,140,125.26,164.72,150Z"/><path class="cls-2" d="M140,125.26a41.64,41.64,0,0,1-.18-58.72L85.68,120.65l29.46,29.46Z"/><path class="cls-3" d="M164.79,149.93,140,174.74a41.65,41.65,0,0,1,0,58.91l54.29-54.26Z"/></svg>