<svg width="100" height="100" viewBox="0 0 100 100" fill="none" xmlns="http://www.w3.org/2000/svg">
<path d="M36.6602 64.2578H34.4336V74.2773H36.6602C37.7539 74.2773 38.6328 73.9063 39.2773 73.1641C39.9219 72.4219 40.2539 71.4648 40.2539 70.3125V68.2227C40.2539 67.0703 39.9219 66.1328 39.2773 65.3906C38.6328 64.6289 37.7539 64.2578 36.6602 64.2578Z" fill="black"/>
<path d="M71.4063 55.8398H7.87109V81.9922H61.8359L71.4063 55.8398ZM28.1055 69.7656C27.2461 70.5469 26.0742 70.918 24.5703 70.918H21.6211V76.0938H19.3359V62.4219H24.5703C26.0742 62.4219 27.2656 62.8125 28.1055 63.5938C28.9648 64.375 29.3945 65.3906 29.3945 66.6602C29.3945 67.9687 28.9648 68.9844 28.1055 69.7656ZM42.5195 70.3125C42.5195 72.0313 41.9727 73.418 40.8984 74.4922C39.8047 75.5664 38.3984 76.1133 36.6602 76.1133H32.1484V62.4414H36.6602C38.3984 62.4414 39.8047 62.9883 40.8984 64.0625C41.9922 65.1367 42.5195 66.543 42.5195 68.2422V70.3125ZM54.3555 64.2578H47.8906V68.4375H53.3984V70.2734H47.8906V76.1133H45.6055V62.4414H54.3555V64.2578V64.2578Z" fill="black"/>
<path d="M24.5703 64.2578H21.6211V69.082H24.5703C25.4102 69.082 26.0547 68.8477 26.4844 68.3984C26.9141 67.9492 27.1289 67.3828 27.1289 66.6797C27.1289 65.9766 26.9141 65.4102 26.4844 64.9414C26.0547 64.4922 25.4102 64.2578 24.5703 64.2578Z" fill="black"/>
<path d="M68.9258 1.17188H20.9766C19.5508 1.17188 18.3789 2.34375 18.3789 3.76953V53.9258H23.5742V6.36719H68.9258V24.375H86.9336V93.6328H23.5742V83.9063H18.3789V96.2305C18.3789 97.6563 19.5508 98.8281 20.9766 98.8281H89.5312C90.957 98.8281 92.1289 97.6563 92.1289 96.2305V24.375L68.9258 1.17188Z" fill="black"/>
<path d="M80 33.4766H30.5078V37.3047H80V33.4766Z" fill="black"/>
<path d="M72.168 40.918H30.5078V44.7461H72.168V40.918Z" fill="black"/>
</svg>
