<svg width="24" height="24" viewBox="0 0 24 24" fill="none" xmlns="http://www.w3.org/2000/svg">
<path fill-rule="evenodd" clip-rule="evenodd" d="M0 12C0 21.6782 2.32181 24 12 24C21.6782 24 24 21.6782 24 12C24 2.32181 21.6782 0 12 0C2.32181 0 0 2.32181 0 12ZM4.839 14.4928L8.60306 5.93887C9.23812 4.497 10.4603 3.71494 12 3.71494C13.5397 3.71494 14.7617 4.49681 15.3971 5.93869L19.161 14.4928C19.332 14.9083 19.4786 15.4461 19.4786 15.9103C19.4786 18.0366 17.9878 19.5274 15.8614 19.5274C15.1373 19.5274 14.562 19.3427 13.9798 19.1556C13.3832 18.9639 12.7793 18.7699 12 18.7699C11.2298 18.7699 10.611 18.9656 10.0026 19.1582C9.41419 19.3444 8.83537 19.5274 8.13862 19.5274C6.01237 19.5274 4.52138 18.0368 4.52138 15.9105C4.52138 15.4461 4.66819 14.9083 4.83919 14.4928H4.839ZM12 7.42969L8.28506 15.8372C9.38494 15.3238 10.6558 15.0795 12 15.0795C13.2954 15.0795 14.6151 15.3238 15.666 15.837L12 7.42987V7.42969Z" fill="black"/>
</svg>
