<svg width="24" height="24" viewBox="0 0 24 24" fill="none" xmlns="http://www.w3.org/2000/svg">
<path d="M4.49844 7.74375V7.725V7.74375ZM23.5859 11.0625L23.5484 11.0438V10.9688L23.5297 10.8937L23.4922 10.8375L23.4172 10.8L23.3984 10.7812L23.3422 10.725L23.2859 10.6875L23.2109 10.6688H23.1922L23.1172 10.6125L23.0234 10.5562L22.9109 10.5L22.7984 10.4625H22.7797L22.6859 10.3687L22.5734 10.2938L22.4609 10.2375L22.3484 10.2H22.3297L22.2172 10.125L22.0672 10.0688L21.9922 10.05L21.8984 9.99375L21.8047 9.95625H21.7859L21.6922 9.9375L21.5984 9.91875H21.5047L21.3734 9.9375L21.3172 9.84375L21.1859 9.75L21.0172 9.7125H20.8484L20.6609 9.75L20.6047 9.76875L20.4734 9.7125L20.3234 9.675L20.1734 9.65625H20.0234L19.8734 9.675H19.8547L19.6859 9.61875L19.5172 9.5625L19.3484 9.54375H19.2359L19.0859 9.39375L18.9172 9.28125L18.7672 9.20625L18.6172 9.16875H18.4672L18.3734 9.1875L18.2797 9.1125L18.1484 9.05625L17.9984 9.0375L17.9047 9.05625L17.7734 9L17.6234 8.98125L17.4922 8.9625H17.4359L17.2484 8.8875L17.0234 8.8125H16.7797L16.5734 8.7L16.3484 8.64375H16.1984L15.8609 8.56875L15.6547 8.55H15.5609L15.4484 8.4375L15.2984 8.34375L15.1297 8.30625L14.9609 8.325L14.8484 8.3625L14.6984 8.34375H14.4359V8.325L14.1172 8.26875L13.8359 8.23125L13.5922 8.2125H13.4984L13.3109 8.19375L13.1234 8.175H13.1047L12.9172 8.0625L12.7109 8.00625L12.5234 7.9875H12.3734L12.1859 7.89375L12.0172 7.85625L11.8484 7.8375H11.8109L11.6047 7.70625L11.4359 7.65L11.3047 7.63125L11.1547 7.55625L10.9484 7.5H10.7609L10.5547 7.40625L10.3672 7.36875H10.2734L10.0672 7.25625L9.87969 7.2L9.69219 7.18125H9.65469L9.37344 7.05L9.18594 6.975L8.97969 6.95625H8.96094L8.82969 6.8625L8.71719 6.80625L8.60469 6.76875L8.47344 6.75L8.36094 6.76875L8.22969 6.675L8.09844 6.61875L7.92969 6.6H7.77969L7.61094 6.6375L7.59219 6.65625L7.40469 6.58125L7.21719 6.525H7.04844L6.89844 6.43125L6.72969 6.375L6.57969 6.35625L6.44844 6.375L6.31719 6.4125L6.20469 6.3L6.09219 6.225L5.94219 6.20625L5.81094 6.24375L5.69844 6.3L5.62344 6.24375L5.56719 6.20625L5.51094 6.1875L5.43594 6.16875H5.34219L5.28594 6.1875L5.19219 6.24375L5.17344 6.2625L5.00469 6.225H4.85469L4.72344 6.2625L4.62969 6.375L4.55469 6.46875L4.49844 6.61875L4.44219 6.75L4.40469 6.9L4.38594 7.05L4.36719 7.35L4.42344 7.59375L4.47969 7.725L4.46094 7.35L4.47969 7.06875L4.49844 6.91875L4.53594 6.7875L4.57344 6.65625L4.62969 6.54375L4.70469 6.45L4.79844 6.375L4.91094 6.3375H5.04219L5.13594 6.35625L5.07969 6.43125L5.02344 6.50625L4.92969 6.69375L4.81719 7.0125L4.68594 7.44375L4.61094 7.78125L4.49844 7.74375V7.7625C4.31094 7.725 4.29219 7.70625 4.19844 7.66875L4.17969 7.55625V7.44375L4.19844 6.975V6.8625L4.17969 6.6375L4.16094 6.54375L4.12344 6.45L4.08594 6.35625L4.04844 6.2625L4.01094 6.1875L3.95469 6.1125L3.78594 6V5.98125L3.80469 5.85L3.82344 5.79375L3.86094 5.68125L3.76719 5.625L3.67344 5.7375L3.61719 5.86875L3.56094 6L3.54219 6.13125L3.52344 6.2625V6.39375L3.54219 6.525L3.56094 6.5625L3.54219 6.525L3.48594 6.45L3.41094 6.28125L3.37344 6.1875L3.35469 6.075L3.33594 5.85L3.16719 6L3.11094 6.1125L3.07344 6.24375V6.35625L3.09219 6.46875L3.12969 6.58125L3.18594 6.69375H3.16719L3.05469 6.675L3.03594 6.75L3.11094 6.7875L3.37344 6.975L3.42969 7.03125L3.84219 7.5L3.86094 7.51875C2.82969 7.125 1.70469 6.61875 0.335938 5.98125C0.617187 6.45 1.64844 6.9375 2.07969 7.25625C2.51094 7.48125 3.11094 7.74375 3.63594 7.95L3.20469 8.04375L2.94219 8.1L2.67969 8.19375L2.54844 8.25L2.43594 8.2875L2.32344 8.3625L2.22969 8.4375L2.13594 8.53125L2.06094 8.625L2.00469 8.7375L1.96719 8.86875L2.04219 8.90625L2.07969 8.86875L2.21094 8.7375L2.37969 8.625L2.54844 8.53125L2.62344 8.5125L2.67969 8.49375L2.94219 8.4375L3.05469 8.4L3.52344 8.11875L3.61719 8.0625L3.69219 8.025L3.74844 8.00625L3.72969 7.96875C3.76719 7.9875 3.80469 7.9875 3.82344 8.00625L3.80469 8.025L3.35469 8.25L3.11094 8.4L2.88594 8.56875L2.77344 8.6625L2.67969 8.775L2.62344 8.8875L2.58594 9L2.56719 9.13125L2.58594 9.2625L2.66094 9.46875L2.77344 9.24375L2.84844 9.13125L2.92344 9.0375L2.99844 8.9625L3.07344 8.90625L3.26094 8.79375V8.8125L3.24219 8.9625V9.13125L3.26094 9.31875L3.31719 9.525H3.39219L3.41094 9.43125L3.48594 9.15L3.52344 9.05625L3.63594 8.79375L3.82344 8.45625L4.04844 8.1C4.10469 8.11875 4.17969 8.1375 4.23594 8.175L4.06719 8.49375L4.01094 8.60625L3.93594 8.71875L3.89844 8.85L3.86094 8.98125L3.84219 9.1125V9.24375L3.86094 9.35625L3.91719 9.46875L4.01094 9.58125L4.16094 9.675L4.29219 9.7125L4.32969 9.80625L4.40469 9.9L4.47969 9.975L4.55469 10.0312L4.62969 10.0688L4.70469 10.1063L4.87344 10.125H4.91094L4.98594 10.2375L5.09844 10.3312L5.22969 10.3875H5.37969L5.51094 10.35L5.52969 10.3875L5.64219 10.5L5.75469 10.575L5.86719 10.6313L6.01719 10.65H6.12969L6.24219 10.725L6.37344 10.7812L6.52344 10.8188L6.63594 10.9125L6.78594 10.9875L6.97344 11.025L7.17969 11.0438L7.19844 11.0625L7.32969 11.175L7.47969 11.25L7.61094 11.3062L7.77969 11.325L7.92969 11.2875L8.00469 11.325L8.11719 11.3813L8.22969 11.4H8.34219L8.45469 11.3813L8.51094 11.4188L8.69844 11.475L8.90469 11.4937L9.14844 11.475L9.20469 11.5125L9.37344 11.5688L9.56094 11.5875L9.82344 11.5688L9.99219 11.625L10.1797 11.6437L10.3859 11.625L10.4609 11.6812L10.6484 11.7563L10.8547 11.775L11.0609 11.7563V11.7375L11.1734 11.7563H11.3609L11.5672 11.7188L11.6797 11.7563L11.8297 11.7938L11.9797 11.8125H12.1672L12.2047 11.8312L12.3922 11.8875L12.5797 11.925L12.7859 11.9438L12.9922 11.925V11.9062L13.1047 11.9438L13.2734 11.9625L13.4422 11.9813V11.9625L13.5547 12L13.7797 12.0187L14.0234 12L14.2859 12.0187L14.3234 12.0375L14.4922 12.075L14.6422 12.0938H14.8109L14.8297 12.1125L14.9797 12.1688L15.1297 12.1875H15.1484L15.0172 12.1312L14.8672 12.0563L14.7172 11.9625L14.5672 11.8312L14.4172 11.7L14.3984 11.6812L13.8734 10.9875L13.5359 10.6313L13.3672 10.4625L13.2922 10.4062H13.3672L13.7609 10.4813L14.0234 10.7062L14.3984 11.0812L14.7172 11.4188L14.8484 11.55L14.9984 11.6812L15.1484 11.7938L15.2984 11.9062L15.3734 11.9438L15.4484 11.9813L15.5609 12.0375L15.5797 12.0563L15.5234 12.0938L15.3734 12.1875L15.5234 12.1688L15.6547 12.0938L15.8234 12.15L16.0297 12.1875H16.2547L16.3109 12.2062L16.5172 12.2438L16.7234 12.225L16.9297 12.15L17.1172 12.1688H17.3422L17.5109 12.15L17.6234 12.1688H17.7547L18.0359 12.1312L18.1297 12.1688L18.2422 12.1875L18.3547 12.1688L18.4484 12.1125H18.4672L18.6172 12.1688L18.7672 12.1875H18.9172L19.0859 12.15L19.2359 12.075L19.4047 11.9625H19.5359L19.7047 11.9438L19.8547 11.925L19.9484 11.9625L20.0984 11.9813L20.2484 12L20.3984 11.9813L20.5484 11.9438L20.6234 12L20.7922 12.0187L20.9422 12H20.9609L20.8109 11.9813L20.6422 11.925L20.4734 11.8312L20.3047 11.7375L20.1359 11.625L19.2547 10.95L19.7609 10.9875L19.8922 11.0625L19.9672 11.1L20.6047 11.55L20.6984 11.6063L20.9234 11.7563L21.0922 11.8687L21.1672 11.925L21.2047 11.9438L21.1672 11.9813L21.0734 12L21.2047 12.0187L21.2984 11.9625L21.3547 12L21.4484 12.0375L21.5422 12.0563H21.6359L21.7297 12.0375L21.8047 12.0187L21.9359 12.0375L22.0859 12.0187L22.2172 11.9625H22.3484L22.4609 11.9438L22.5734 11.8875L22.6672 11.8125H22.7797L22.8922 11.7938L22.9859 11.7375L23.0984 11.6625H23.0797L23.0234 11.6437L23.0047 11.625L22.9297 11.6063L22.7422 11.55L22.6859 11.5312L22.5547 11.4562L22.4984 11.4188L22.4797 11.4L22.4422 11.3813L22.3297 11.2687L22.3109 11.25L22.5359 11.2687L22.5922 11.325L22.6672 11.3813L22.7797 11.4562L22.8734 11.4375L22.9109 11.475L23.0797 11.5688L23.1547 11.6063L23.1734 11.625L23.1547 11.6437L23.2297 11.6625H23.2859L23.3047 11.6437L23.3609 11.625L23.4172 11.5875L23.4547 11.5125L23.4734 11.4375H23.5109L23.5859 11.3813L23.6047 11.325H23.6234V11.1375L23.5859 11.0625V11.0625ZM3.22344 8.2125L2.99844 8.34375L2.90469 8.38125L2.77344 8.4L2.51094 8.475L2.32344 8.56875L2.15469 8.68125L2.13594 8.7L2.21094 8.56875L2.28594 8.475L2.37969 8.4L2.47344 8.325L2.58594 8.26875L2.69844 8.2125L2.94219 8.1375L3.42969 8.025L3.22344 8.2125V8.2125ZM2.99844 8.85L2.92344 8.925L2.84844 9L2.77344 9.09375L2.69844 9.20625L2.67969 9.2625L2.66094 9.24375L2.64219 9.13125L2.66094 9.0375L2.69844 8.94375L2.75469 8.85L2.82969 8.75625L2.92344 8.6625L3.14844 8.49375L3.39219 8.34375L3.76719 8.1375L3.74844 8.19375L3.59844 8.2875L3.52344 8.34375L3.44844 8.41875L3.37344 8.49375L3.31719 8.5875L3.27969 8.68125L2.99844 8.85V8.85ZM3.65469 8.34375L3.56094 8.475L3.42969 8.5875L3.44844 8.55L3.50469 8.475L3.57969 8.4L3.65469 8.34375V8.34375ZM3.78594 8.30625L3.57969 8.6625L3.41094 9.01875L3.31719 9.3V9.31875L3.27969 9.13125V8.98125L3.29844 8.85L3.33594 8.7375L3.44844 8.6625L3.61719 8.53125L3.78594 8.30625L3.82344 8.23125L3.84219 8.2125L3.78594 8.30625V8.30625ZM3.84219 6.20625L3.86094 6.31875L3.87969 6.43125L3.89844 6.54375L3.87969 6.4875L3.82344 6.3L3.80469 6.16875V6.01875L3.84219 6.20625V6.20625ZM3.29844 6.73125L3.26094 6.65625L3.20469 6.54375L3.16719 6.43125L3.14844 6.3375V6.225L3.16719 6.13125L3.22344 6.0375L3.24219 6.01875V6.075L3.26094 6.20625L3.29844 6.31875L3.39219 6.50625L3.44844 6.58125L3.57969 6.75V6.76875L3.61719 6.9L3.63594 6.9375L3.56094 6.84375L3.48594 6.7875L3.39219 6.75L3.29844 6.73125V6.73125ZM3.76719 7.275L3.59844 7.0875L3.48594 6.975L3.39219 6.84375L3.42969 6.8625L3.50469 6.9L3.63594 6.99375L3.69219 7.05L3.78594 7.18125L3.80469 7.2375L3.84219 7.35L3.76719 7.275ZM3.86094 6.99375L3.82344 6.9L3.71094 6.75L3.67344 6.73125L3.61719 6.525L3.56094 6.375V6.24375L3.59844 6.13125L3.63594 6.01875L3.69219 5.90625L3.71094 5.86875V6.05625L3.72969 6.2625L3.74844 6.3375L3.80469 6.525L3.84219 6.6375L3.86094 6.675L3.87969 6.73125L3.89844 6.84375L3.91719 7.05V7.14375L3.89844 7.10625L3.86094 6.99375V6.99375ZM3.89844 8.1L3.91719 8.04375H3.93594L3.89844 8.1V8.1ZM4.02969 7.6125L4.01094 7.55625H4.02969V7.3125L4.08594 7.63125C4.04844 7.63125 4.02969 7.6125 4.02969 7.6125V7.6125ZM4.10469 7.3875L4.04844 6.99375L4.02969 6.9L3.99219 6.61875L3.97344 6.50625L3.93594 6.3L3.91719 6.20625L3.99219 6.3L4.02969 6.375L4.06719 6.46875L4.08594 6.5625L4.10469 6.65625L4.12344 6.975L4.10469 7.3875V7.3875ZM22.6859 10.5375L22.7609 10.5562L22.8734 10.5938L22.9672 10.6313L23.0047 10.65H22.8172L22.6859 10.6875H22.6672L22.5734 10.725H22.5547L22.4984 10.7437L22.4047 10.7812L22.3109 10.875L22.2547 10.9312L22.2172 10.9875L22.0672 10.9688H21.9922L21.8422 10.95H21.7859L21.7109 10.9312L21.7297 10.8937L21.7859 10.8188L21.8609 10.7437L21.9359 10.6875L22.0297 10.6313L22.1234 10.5938L22.1609 10.575L22.2922 10.5375L22.3672 10.5187H22.5359L22.6859 10.5375V10.5375ZM22.2172 10.275H22.3297L22.4234 10.2938L22.5172 10.35L22.6109 10.425L22.6297 10.4438H22.4422L22.3297 10.4625L22.2172 10.4813L22.1609 10.5H22.1234L22.0484 10.5187L21.8984 10.5938L21.8422 10.6313L21.8047 10.65L21.7859 10.6688L21.7297 10.7437L21.7109 10.7625L21.6547 10.8563L21.6172 10.9125L21.2047 10.8563L21.1109 10.8375H21.0922L21.2047 10.7625L21.2234 10.7437L21.5422 10.5375L21.6734 10.4438L21.8984 10.3312L22.0109 10.2938L22.1234 10.275H22.2172ZM21.6922 10.1437L21.8234 10.125H21.9172L22.0484 10.1437L22.1797 10.1812H22.1422L22.0484 10.2L21.9547 10.2188L21.8609 10.2563L21.6734 10.35L21.5047 10.4625L21.3734 10.5562L21.2797 10.6125L21.0734 10.7625L20.9984 10.8188L20.9422 10.8563L20.4734 10.8L20.4922 10.7812L20.8297 10.5375L20.9422 10.4625L21.1859 10.3125L21.3172 10.2563L21.4484 10.2L21.5797 10.1625L21.6922 10.1437V10.1437ZM19.8734 9.76875L20.0234 9.75H20.1734L20.3234 9.76875L20.4547 9.80625L20.4734 9.825L20.3234 9.88125L19.9297 10.0688L19.5172 10.2938L19.1797 10.5L19.0484 10.5938L19.0297 10.6125L18.4672 10.5562L18.5047 10.5187L18.5984 10.425L18.8422 10.2375L19.1234 10.05L19.4047 9.9L19.5547 9.84375L19.7047 9.80625L19.8734 9.76875V9.76875ZM19.2359 9.6375H19.3109L19.4609 9.65625L19.6297 9.69375L19.6672 9.7125L19.5172 9.76875L19.3859 9.825L19.2547 9.88125L19.1234 9.95625L19.0109 10.0312L18.8047 10.1812L18.5609 10.3875L18.5422 10.4062L18.4859 10.4625L18.3734 10.5187V10.5L17.6797 10.4438H17.6984L17.8484 10.2563L17.9609 10.1437L18.0734 10.0312L18.1859 9.9375L18.3172 9.8625L18.4484 9.7875L18.5797 9.73125L18.6734 9.69375L18.8422 9.65625L19.0109 9.6375H19.2359V9.6375ZM18.3359 9.2625L18.4297 9.24375H18.5609L18.7109 9.28125L18.8609 9.35625L19.0109 9.46875L19.0859 9.54375H18.9922L18.8422 9.5625L18.6922 9.6L18.6547 9.61875H18.6359L18.5422 9.65625L18.4297 9.69375L18.3172 9.75L18.2234 9.80625L18.1109 9.88125L17.9984 9.975L17.8859 10.0688L17.7734 10.1812L17.6609 10.3125L17.6422 10.35L17.5672 10.4438L17.2109 10.3875L17.0422 10.3687L17.3609 9.975L17.5859 9.73125L17.7172 9.61875L17.8109 9.54375L17.9984 9.4125L18.1109 9.35625L18.2234 9.3L18.3359 9.2625V9.2625ZM17.8859 9.15L17.9984 9.13125H18.1109L18.2047 9.16875L18.2422 9.20625L18.1297 9.24375L17.9984 9.31875L17.8484 9.4125L17.7172 9.525L17.5859 9.65625L17.5672 9.675L17.5297 9.7125L17.4359 9.825L17.3047 9.9375L17.2109 10.05L16.9109 10.3875L16.4609 10.3312L16.4984 10.3125L16.6859 10.1437L17.0422 9.7875L17.1172 9.7125L17.3234 9.525L17.4172 9.45L17.5109 9.375L17.6047 9.3L17.8109 9.1875L17.8859 9.15V9.15ZM17.3609 9.0375L17.4734 9.05625V9.0375H17.4922L17.6047 9.05625L17.7359 9.09375L17.7734 9.1125L17.7359 9.13125L17.6047 9.20625L17.5672 9.225L17.4359 9.3L17.3609 9.375L17.3047 9.4125L17.2297 9.46875L17.1359 9.54375L17.0609 9.6375L17.0047 9.69375L16.8922 9.80625L16.6484 10.0688L16.4422 10.275L16.3484 10.3125L15.9359 10.2563L15.7672 10.2375L16.0484 9.88125L16.1984 9.7125L16.3484 9.5625L16.4984 9.43125L16.5922 9.35625L16.7047 9.28125L16.8359 9.20625H16.8547L16.9672 9.15L16.9859 9.13125L17.0234 9.1125L17.1359 9.075L17.2672 9.05625L17.3609 9.0375V9.0375ZM16.8172 8.8875L17.0234 8.90625L17.2297 8.9625L17.0984 9L17.0234 9.0375H17.0047L16.9859 9.05625H16.9672L16.9484 9.075L16.8734 9.1125L16.8359 9.13125L16.7609 9.16875L16.6297 9.2625L16.5922 9.28125L16.5734 9.3L16.4422 9.4125L16.1984 9.6375L15.8797 9.975L15.6922 10.2188L14.9797 10.1437L14.9234 10.125H14.8672L14.9422 10.0688L15.0734 9.95625L15.3172 9.75L15.4484 9.61875L15.5234 9.54375L15.8234 9.28125L15.9734 9.16875L16.1234 9.075L16.1609 9.05625L16.2922 9L16.4422 8.94375L16.6109 8.8875L16.7047 8.86875L16.8172 8.8875V8.8875ZM16.1422 8.71875H16.3297L16.5359 8.75625L16.6297 8.8125H16.6109L16.4234 8.85L16.2359 8.925L16.0672 9.01875H16.0484L15.9547 9.075L15.8422 9.15L15.7297 9.225L15.6359 9.31875L15.4109 9.525L15.1484 9.76875L14.8484 10.0125L14.6984 10.125H14.5297L14.4172 10.1063L14.3047 10.0875L14.1172 10.05L14.1734 10.0312L14.2859 9.95625L14.3984 9.8625L14.5859 9.69375L15.1484 9.20625L15.3359 9.05625L15.5422 8.925L15.7484 8.8125L15.9547 8.7375L16.1422 8.71875ZM14.3797 8.4H14.7172L14.6234 8.4375L14.4547 8.55L14.2672 8.68125L14.1359 8.79375L14.0984 8.8125L13.9672 8.925L13.3297 9.46875L13.1047 9.65625L12.8984 9.80625L12.8047 9.8625H12.7859L12.4859 9.7875L12.4109 9.76875H12.3922L12.4672 9.61875L12.5797 9.43125L12.7109 9.2625L12.8422 9.1125L12.9922 8.9625L13.1609 8.83125L13.3297 8.71875L13.4422 8.64375L13.7047 8.5125L13.8547 8.45625L13.8922 8.4375L14.0234 8.4L14.1922 8.3625L14.3797 8.4V8.4ZM13.4234 8.2875L13.6109 8.26875L13.8359 8.2875L14.0797 8.325L14.1734 8.34375L14.0047 8.4L13.8734 8.41875L13.8359 8.4375L13.6484 8.5125L13.4609 8.60625L13.4047 8.625L13.3859 8.64375L13.2547 8.71875L13.1047 8.8125L12.9734 8.90625L12.8609 9L12.7484 9.1125L12.6359 9.24375L12.5234 9.375L12.4297 9.50625L12.3359 9.65625L12.2609 9.7875H12.1859L12.0734 9.75H11.9984L11.9234 9.73125H11.8859L11.9609 9.58125L12.0359 9.45L12.1859 9.1875L12.2422 9.09375L12.3547 8.94375L12.4672 8.79375L12.5984 8.6625L12.7297 8.55L12.8797 8.45625L12.9922 8.4L13.1422 8.34375L13.3109 8.2875H13.4234V8.2875ZM13.0859 8.23125H13.2359L13.1797 8.25L12.9922 8.325L12.9547 8.34375L12.8234 8.4L12.7109 8.475L12.5984 8.55L12.4859 8.625L12.3922 8.71875L12.3172 8.8125L12.1672 9.05625L12.0734 9.225L11.9797 9.39375L11.9234 9.525L11.8109 9.69375L11.4922 9.6375H11.4359L11.4734 9.50625L11.5859 9.24375L11.6609 9.1125L11.7359 9L11.8297 8.8875L11.9234 8.775L12.0359 8.68125L12.1484 8.5875L12.2797 8.5125L12.4109 8.4375L12.5422 8.38125L12.6922 8.325L12.8422 8.2875L12.9922 8.26875L13.0859 8.23125V8.23125ZM12.5047 8.0625L12.6922 8.08125L12.8797 8.1375L12.9172 8.15625L12.7859 8.175L12.6172 8.2125L12.4484 8.26875L12.2984 8.34375L12.1484 8.4375L11.9984 8.53125L11.8672 8.64375L11.7547 8.775L11.6234 8.925L11.5297 9.09375L11.4359 9.2625L11.3609 9.45L11.3234 9.58125L10.8547 9.50625L10.9109 9.35625L10.9859 9.16875L11.0797 8.98125L11.1922 8.8125L11.3047 8.6625L11.4172 8.53125L11.5484 8.4L11.6797 8.2875L11.7922 8.2125H11.8109L11.9609 8.1375L12.0922 8.1L12.1484 8.08125L12.3172 8.0625H12.5047ZM11.8484 7.93125L11.9984 7.95L12.1484 7.9875L12.1672 8.00625H12.1297L11.9609 8.0625L11.8109 8.11875L11.7734 8.1375L11.6422 8.2125L11.5109 8.30625L11.3984 8.4L11.2109 8.60625L11.1359 8.71875L11.0609 8.83125L10.9484 9.05625L10.8359 9.31875L10.7609 9.4875L10.4609 9.4125L10.3109 9.39375L10.3484 9.31875L10.4047 9.1875L10.5172 8.94375L10.6672 8.7L10.6859 8.6625L10.7797 8.55L10.8922 8.41875L11.0234 8.2875L11.1547 8.175L11.2859 8.08125L11.4172 8.00625L11.5484 7.96875L11.6984 7.93125H11.8484V7.93125ZM11.3422 7.74375V7.725H11.4172L11.5672 7.78125L11.6609 7.8375L11.4734 7.89375L11.3422 7.95L11.2109 8.025L11.0984 8.1L10.9859 8.19375L10.8734 8.30625L10.7797 8.41875L10.6859 8.53125L10.6297 8.625L10.5922 8.6625L10.4797 8.8125L10.2922 9.20625L10.2172 9.375L9.93594 9.28125L10.1797 8.79375L10.3297 8.53125L10.4797 8.30625L10.5734 8.175L10.6859 8.0625L10.7984 7.95L10.8734 7.875L10.9859 7.8L11.0984 7.7625L11.2109 7.74375H11.3422V7.74375ZM10.7609 7.59375H10.9484L11.1172 7.63125L11.1547 7.65L11.0984 7.66875L10.9484 7.74375L10.7984 7.8375L10.6672 7.95L10.5359 8.1L10.4047 8.25L10.2922 8.41875L10.2547 8.49375L10.2172 8.55L9.97344 8.9625L9.82344 9.2625L9.33594 9.16875L9.37344 9.075L9.42969 8.9625L9.59844 8.6625L9.71094 8.49375L9.80469 8.3625L9.87969 8.25L10.0859 8.025L10.1984 7.9125L10.3109 7.81875L10.4234 7.74375L10.4984 7.6875L10.5922 7.65L10.7609 7.59375V7.59375ZM10.3484 7.4625L10.5172 7.5L10.6109 7.5375L10.4984 7.59375L10.4609 7.6125L10.3859 7.65L10.2172 7.78125L10.0484 7.93125L9.89844 8.1L9.74844 8.26875L9.72969 8.30625L9.71094 8.325L9.52344 8.5875L9.44844 8.71875L9.31719 8.9625L9.26094 9.075L9.24219 9.15L8.84844 9.05625L8.92344 8.8875L9.11094 8.5125L9.20469 8.34375L9.37344 8.0625L9.46719 7.93125L9.50469 7.875L9.63594 7.74375L9.76719 7.63125L9.89844 7.5375L10.0297 7.48125L10.1797 7.44375L10.3484 7.4625V7.4625ZM9.67344 7.275H9.84219L10.0109 7.33125L10.1047 7.36875L10.0109 7.3875L9.91719 7.425L9.82344 7.4625L9.72969 7.51875L9.63594 7.59375L9.56094 7.70625L9.46719 7.8L9.41094 7.875L9.33594 7.96875L9.22344 8.1375L9.12969 8.30625L8.94219 8.64375L8.81094 8.85L8.75469 9.0375L8.28594 8.94375L8.39844 8.7L8.47344 8.55L8.64219 8.19375L8.73594 8.025L8.84844 7.85625L8.96094 7.70625L9.09219 7.575L9.22344 7.4625L9.35469 7.3875L9.37344 7.36875L9.50469 7.3125L9.67344 7.275V7.275ZM8.82969 7.0875L8.97969 7.06875L9.14844 7.0875L9.33594 7.14375L9.48594 7.21875L9.35469 7.29375H9.33594L9.31719 7.3125H9.29844L9.18594 7.3875L9.07344 7.48125L8.97969 7.575L8.81094 7.78125L8.71719 7.875L8.51094 8.23125L8.24844 8.79375L8.19219 8.90625L8.07969 8.8875L7.77969 8.8125H7.76094L8.15469 7.8375L8.24844 7.66875L8.30469 7.575L8.36094 7.5L8.43594 7.3875L8.52969 7.29375L8.60469 7.21875L8.69844 7.1625L8.82969 7.0875V7.0875ZM8.47344 6.88125H8.58594L8.69844 6.91875L8.79219 6.95625L8.81094 6.975L8.66094 7.05L8.54844 7.125L8.52969 7.14375L8.49219 7.1625L8.37969 7.29375L8.26719 7.44375L8.22969 7.51875L8.19219 7.55625L8.13594 7.6875L7.92969 8.1L7.64844 8.75625L7.10469 8.5875L6.97344 8.56875L7.08594 8.2875L7.27344 7.9125L7.42344 7.65L7.51719 7.51875L7.61094 7.3875L7.72344 7.275L7.83594 7.1625L7.94844 7.06875L8.07969 6.99375L8.17344 6.9375L8.24844 6.9L8.37969 6.8625L8.47344 6.88125V6.88125ZM7.66719 6.73125L7.76094 6.7125H7.91094L8.06094 6.73125L8.19219 6.7875L8.24844 6.825L8.17344 6.8625L8.13594 6.88125H8.06094L7.91094 6.95625L7.76094 7.06875L7.61094 7.2L7.49844 7.36875L7.36719 7.55625L7.23594 7.7625L7.10469 8.00625L6.99219 8.2875L6.93594 8.45625L6.89844 8.55L6.42969 8.41875L6.44844 8.23125L6.48594 8.08125L6.54219 7.89375L6.57969 7.8L6.67344 7.6125L6.78594 7.425L6.89844 7.25625L7.02969 7.10625L7.17969 6.975L7.32969 6.8625L7.46094 6.7875L7.66719 6.73125V6.73125ZM7.02969 6.61875H7.17969L7.34844 6.65625L7.44219 6.69375L7.42344 6.7125L7.34844 6.75L7.17969 6.84375L7.02969 6.95625L6.89844 7.0875L6.78594 7.21875L6.67344 7.36875L6.59844 7.51875L6.52344 7.66875L6.46719 7.81875L6.44844 7.875L6.41094 7.9875L6.39219 8.0625V8.08125L6.37344 8.19375L6.35469 8.2875L6.33594 8.3625V8.4L6.26094 8.38125L6.09219 8.325L5.97969 8.2875L6.01719 8.19375L6.07344 8.025L6.12969 7.85625L6.26094 7.51875L6.37344 7.25625L6.42969 7.14375L6.50469 7.03125L6.57969 6.91875L6.65469 6.825L6.72969 6.75L6.78594 6.7125L6.87969 6.675L7.02969 6.61875V6.61875ZM6.35469 6.50625L6.48594 6.46875L6.59844 6.45L6.72969 6.46875L6.84219 6.50625L6.89844 6.54375L6.78594 6.6L6.74844 6.61875H6.72969L6.61719 6.7125L6.50469 6.825L6.41094 6.95625L6.33594 7.125L6.31719 7.2L6.24219 7.3125L5.96094 7.9875L5.92344 8.11875L5.88594 8.2125L5.81094 8.19375L5.75469 8.175L5.62344 8.11875L5.47344 8.08125L5.49219 7.93125L5.52969 7.74375L5.58594 7.55625L5.66094 7.3875L5.73594 7.21875L5.81094 7.0875L5.94219 6.9L6.09219 6.73125L6.26094 6.58125H6.27969L6.35469 6.50625V6.50625ZM5.71719 6.375L5.82969 6.31875L5.94219 6.3L6.05469 6.31875L6.14844 6.375L6.24219 6.46875L6.18594 6.4875H6.16719L6.03594 6.58125L5.92344 6.69375L5.81094 6.825L5.69844 6.975L5.66094 7.03125L5.64219 7.125L5.58594 7.2375L5.49219 7.4625L5.41719 7.70625L5.36094 7.96875L5.34219 8.0625L5.21094 8.025L4.96719 7.93125L4.98594 7.8375V7.8L5.07969 7.44375L5.11719 7.33125L5.19219 7.125L5.28594 6.9375L5.34219 6.84375L5.45469 6.675L5.52969 6.6L5.66094 6.45L5.71719 6.375V6.375ZM4.72344 7.70625L4.77969 7.44375L4.83594 7.21875L4.91094 6.975L4.98594 6.76875L5.06094 6.6L5.13594 6.46875L5.21094 6.375L5.26719 6.31875L5.34219 6.28125L5.39844 6.2625H5.49219L5.54844 6.28125L5.60469 6.3L5.64219 6.3375L5.56719 6.39375L5.45469 6.50625L5.36094 6.65625L5.24844 6.825L5.15469 6.99375L5.07969 7.1625L5.00469 7.35L4.94844 7.5L4.91094 7.66875L4.89219 7.78125L4.87344 7.875H4.81719L4.72344 7.8375H4.70469L4.72344 7.70625V7.70625ZM4.31094 8.53125L4.27344 8.8125L4.25469 9.0375V9.24375L4.27344 9.43125L4.31094 9.58125L4.32969 9.61875L4.25469 9.6L4.12344 9.525L4.04844 9.43125L3.99219 9.3375L3.93594 9.24375V9.13125L3.95469 9.01875L3.99219 8.8875L4.08594 8.64375L4.14219 8.53125L4.19844 8.4375L4.29219 8.25L4.36719 8.26875L4.40469 8.2875L4.38594 8.4V8.41875L4.31094 8.53125V8.53125ZM4.76094 10.0125L4.68594 9.99375L4.62969 9.95625L4.57344 9.91875L4.51719 9.8625L4.46094 9.7875L4.44219 9.73125L4.40469 9.61875L4.36719 9.45L4.34844 9.35625V9.16875L4.38594 8.775L4.40469 8.68125L4.42344 8.5875L4.44219 8.53125L4.46094 8.475L4.49844 8.325L4.83594 8.4375L4.77969 8.625L4.74219 8.85L4.72344 9.075V9.1875L4.74219 9.4125L4.77969 9.65625L4.79844 9.7125L4.85469 9.9L4.89219 10.0125H4.76094V10.0125ZM5.37969 10.2938H5.26719L5.15469 10.2563L5.06094 10.1812L4.98594 10.0875L4.91094 9.95625L4.85469 9.80625L4.81719 9.65625V9.6375L4.79844 9.46875L4.77969 9.3V9.1125L4.79844 8.775L4.81719 8.625L4.85469 8.49375L4.87344 8.41875L5.22969 8.55L5.21094 8.625L5.17344 8.85L5.15469 9.09375V9.31875L5.17344 9.43125L5.21094 9.65625L5.26719 9.88125L5.36094 10.0875L5.43594 10.2188V10.2375L5.37969 10.2938V10.2938ZM6.07344 10.5562L5.94219 10.5375L5.82969 10.4813L5.71719 10.4062L5.62344 10.3125L5.54844 10.2L5.52969 10.1625L5.47344 10.05L5.39844 9.9L5.34219 9.75L5.30469 9.58125L5.28594 9.4125L5.26719 9.24375V9.075L5.28594 8.90625L5.32344 8.7375L5.36094 8.625L5.79219 8.75625L5.81094 9.54375L5.82969 9.65625V9.76875L5.84844 9.91875L5.86719 10.0688L5.90469 10.2L5.94219 10.3312L5.99844 10.4438L6.05469 10.5375L6.09219 10.575L6.07344 10.5562V10.5562ZM6.33594 10.6313L6.31719 10.6125H6.35469L6.18594 10.5187L6.14844 10.4813L6.07344 10.3875L6.03594 10.2938L5.99844 10.2L5.96094 10.0688L5.92344 9.7875L5.90469 9.6V9.375L5.88594 8.85V8.7375L5.97969 8.775L6.03594 8.79375L6.22344 8.85V9.16875L6.18594 9.58125V9.65625L6.22344 9.84375L6.26094 10.0125L6.27969 10.125V10.1812L6.31719 10.35V10.3875L6.35469 10.5L6.41094 10.6125L6.44844 10.6688L6.33594 10.6313V10.6313ZM7.04844 10.9125L6.87969 10.875L6.72969 10.8188L6.63594 10.7437L6.59844 10.7062L6.52344 10.6125L6.44844 10.4813L6.39219 10.35L6.33594 10.1437L6.31719 10.0125V9.6L6.33594 9.31875V9.15L6.29844 8.90625L6.61719 9L6.57969 9.16875L6.56094 9.375V9.6375L6.57969 9.7875L6.59844 9.95625L6.65469 10.125L6.71094 10.2938L6.76719 10.3875L6.78594 10.425L6.87969 10.6125L6.99219 10.7812L7.10469 10.9312L7.12344 10.95L7.04844 10.9125V10.9125ZM7.81719 11.175H7.68594L7.55469 11.1375L7.42344 11.0625L7.31094 10.95L7.27344 10.9125L7.12344 10.7625L6.99219 10.5938L6.87969 10.4062L6.86094 10.3125L6.80469 10.1625L6.74844 9.95625L6.71094 9.75L6.65469 9.5625V9.35625L6.67344 9.15L6.69219 9.01875L7.10469 9.15V9.4125L7.12344 9.675L7.17969 9.975L7.21719 10.125L7.27344 10.275L7.31094 10.3125L7.32969 10.3687L7.40469 10.5562L7.42344 10.5938L7.46094 10.65L7.49844 10.725L7.55469 10.8L7.59219 10.875L7.70469 11.0063L7.81719 11.1187L7.87344 11.1562L7.81719 11.175V11.175ZM8.39844 11.2687H8.30469L8.19219 11.25L8.07969 11.2125L7.96719 11.1375L7.87344 11.0438L7.77969 10.95L7.66719 10.8188L7.62969 10.7625L7.59219 10.6875L7.53594 10.5938L7.49844 10.5187L7.40469 10.2938L7.36719 10.2L7.34844 10.1063L7.31094 9.9L7.27344 9.65625L7.25469 9.39375V9.16875L7.36719 9.20625L7.47969 9.24375L7.59219 9.28125L7.70469 9.31875L7.91094 9.375H7.94844L7.98594 9.8625L8.00469 9.95625V9.975L8.04219 10.3312L8.06094 10.5187L8.09844 10.6875L8.15469 10.8563L8.22969 11.0063L8.32344 11.1375L8.39844 11.1938L8.41719 11.2125L8.39844 11.2687V11.2687ZM8.96094 11.3813L8.77344 11.3625L8.60469 11.3062L8.47344 11.2313L8.43594 11.175L8.37969 11.1L8.30469 11.0063L8.24844 10.9125L8.21094 10.8L8.17344 10.6688L8.13594 10.5375L8.11719 10.4062L8.07969 10.125L8.06094 9.99375V9.76875L8.04219 9.45V9.375L8.11719 9.39375L8.17344 9.4125L8.47344 9.4875L8.51094 9.88125L8.52969 10.0125L8.54844 10.1437L8.56719 10.275L8.62344 10.5187L8.66094 10.6313L8.69844 10.7437L8.71719 10.7812L8.79219 10.95L8.88594 11.1L8.99844 11.2313L9.09219 11.325L8.96094 11.3813V11.3813ZM9.63594 11.4937L9.46719 11.475L9.31719 11.4188L9.22344 11.3625L9.14844 11.2875L9.05469 11.1938L8.97969 11.0812L8.90469 10.9688L8.81094 10.7812L8.75469 10.6313V10.6125L8.71719 10.4438L8.67969 10.275L8.62344 9.91875L8.58594 9.54375L8.73594 9.58125L8.79219 9.6L8.84844 9.61875H8.90469L8.97969 9.6375H9.01719L9.03594 9.80625L9.07344 10.0125V10.0312L9.09219 10.0875L9.14844 10.35L9.18594 10.5L9.24219 10.65L9.26094 10.7062V10.725L9.27969 10.7812V10.8L9.31719 10.8937L9.37344 11.025L9.42969 11.1375L9.56094 11.3062L9.63594 11.3813L9.71094 11.4375L9.74844 11.475L9.63594 11.4937V11.4937ZM10.2547 11.5688L10.0859 11.55L9.93594 11.4937L9.78594 11.4188L9.67344 11.3062L9.56094 11.175L9.46719 11.025L9.39219 10.875L9.37344 10.8188L9.29844 10.6875L9.24219 10.5375L9.18594 10.3687L9.11094 10.0875L9.09219 10.0125L9.05469 9.7875L9.03594 9.675L9.44844 9.7875V9.8625L9.48594 10.0875L9.56094 10.35L9.67344 10.6313L9.72969 10.7812L9.76719 10.8563L9.80469 10.9312L9.91719 11.1187L10.0297 11.3062L10.1234 11.4188L10.1609 11.475L10.1797 11.4937L10.1984 11.5125L10.2922 11.5875L10.2547 11.5688V11.5688ZM10.9109 11.7L10.7422 11.6812L10.5734 11.625L10.4234 11.5312L10.3109 11.4188L10.2547 11.3438L10.1047 11.1187L9.95469 10.875L9.91719 10.8L9.84219 10.6875L9.76719 10.5L9.71094 10.3125L9.65469 10.1437L9.57969 9.80625V9.7875L9.89844 9.8625L10.0859 9.9L10.1984 10.3312L10.2922 10.6313L10.3297 10.7625L10.4047 10.9312L10.4797 11.1L10.5172 11.175L10.5359 11.2125L10.6109 11.3438L10.6859 11.4562L10.7797 11.5688L10.8734 11.6625L10.9297 11.7H10.9109V11.7ZM11.4172 11.625H11.1172L10.9859 11.5688L10.8734 11.475L10.7609 11.3625L10.6672 11.2125L10.6297 11.1375L10.5734 11.025L10.5172 10.875L10.4047 10.575L10.3109 10.2375L10.1984 9.9375L10.5172 9.99375L10.5359 10.0875L10.5547 10.2188L10.6109 10.4625L10.6484 10.5938L10.6859 10.725L10.7422 10.8375L10.7984 10.9312L10.8547 11.0438V11.0812L10.9297 11.1938L10.9484 11.2313L11.0234 11.3438L11.1359 11.4562L11.2484 11.5688L11.2859 11.5875L11.4172 11.625V11.625ZM11.9047 11.7375L11.7547 11.7L11.6234 11.6437L11.4922 11.5688L11.4172 11.5125L11.3984 11.4937L11.3047 11.4188L11.2109 11.325L11.1359 11.2313L11.0609 11.175L11.0422 11.1562L10.9484 11.025L10.8922 10.9125L10.8734 10.8563L10.7797 10.6875L10.7234 10.5187L10.6672 10.3312L10.6109 10.1437L10.5922 10.0125L10.8734 10.0688L10.9484 10.0875L11.0047 10.1063L11.0422 10.125L11.0797 10.275V10.3125L11.1172 10.5L11.1734 10.6875L11.1922 10.725L11.2109 10.7812L11.3047 11.0063L11.4359 11.2313L11.5109 11.3438L11.6047 11.4562L11.7172 11.55L11.7922 11.625L11.9422 11.7375L11.9984 11.775L12.0359 11.7938L11.9047 11.7375V11.7375ZM12.8609 11.8687L12.6734 11.85L12.4859 11.8125L12.3172 11.7563L12.1484 11.6812L12.0547 11.625L11.9047 11.5125L11.7734 11.4188L11.7172 11.3625L11.6234 11.2687L11.5109 11.1187L11.4172 10.9688L11.3422 10.8L11.2859 10.65L11.1734 10.275L11.1547 10.2L11.1359 10.125L11.5672 10.2L11.5859 10.3125V10.3875L11.6047 10.4438L11.6234 10.4813L11.6422 10.5H11.6234V10.575L11.6984 10.7062L11.7922 10.875L11.8859 11.025L11.9984 11.175L12.1109 11.3062L12.2422 11.4375L12.3734 11.55L12.5234 11.6437L12.6734 11.7375L12.7297 11.775H12.7484L12.8609 11.8312V11.8687V11.8687ZM13.1984 11.8687L13.0297 11.8312L12.8609 11.775L12.7672 11.7375L12.6359 11.6625L12.5047 11.5875L12.3922 11.4937L12.2797 11.4L12.1672 11.3062L11.9797 11.0812L11.9047 10.9688L11.8297 10.8375L11.8109 10.6688L11.7547 10.5375L11.7359 10.4438L11.7172 10.35V10.3125L11.6984 10.2L12.0547 10.2563L12.1859 10.575L12.2609 10.7437L12.3547 10.8937L12.4297 11.0438L12.4859 11.1562L12.6359 11.3625L12.8234 11.55L12.8797 11.5875L12.9359 11.6437L13.0859 11.7563L13.2547 11.85L13.3109 11.8687H13.1984V11.8687ZM14.1172 11.9625L13.8734 11.9438L13.6672 11.9062L13.4797 11.85L13.3672 11.8125L13.2172 11.7375L13.0859 11.6625L12.9734 11.5688L12.9359 11.5312L12.8609 11.4562L12.7297 11.325L12.6172 11.175L12.5234 11.025L12.4672 10.9312L12.1484 10.275L12.4297 10.3125L12.5984 10.3312L12.6734 10.5L12.7297 10.6125L12.8984 10.8937L13.0859 11.1375L13.1797 11.25L13.2922 11.3625L13.4047 11.4562L13.6484 11.6437L13.7797 11.7375L13.9109 11.8125L14.0047 11.85L14.0984 11.9062L14.1547 11.925L14.1922 11.9438L14.1172 11.9625V11.9625ZM13.3297 10.5562L13.5359 10.7437L13.7422 10.9688L14.0609 11.325L14.4547 11.7188L14.4734 11.7375L14.4922 11.7563L14.5297 11.7938L14.7734 12L14.7922 12.0187L14.6047 12L14.4547 11.9625L14.2859 11.9062L14.1734 11.8687L14.0234 11.7938L13.9672 11.7563L13.7984 11.6625L13.6297 11.55L13.4797 11.4188L13.3297 11.2875L13.1797 11.1375L13.0484 10.9875L12.9359 10.8188L12.8234 10.65L12.7297 10.4813L12.7109 10.4625L12.6734 10.35L13.0109 10.3875L13.1234 10.4062L13.3297 10.5562V10.5562ZM13.1797 9.91875L12.9172 9.9L12.9359 9.88125L13.0109 9.825L13.1984 9.675L13.3859 9.525L13.9109 9.075L14.1547 8.86875L14.4359 8.6625L14.5672 8.56875L14.7172 8.49375L14.8484 8.41875L14.9797 8.38125L15.1297 8.3625L15.2609 8.4L15.3922 8.41875H15.4484L15.2609 8.5125V8.55L15.2422 8.56875L15.0922 8.625L14.9422 8.68125L14.8109 8.775L14.6797 8.85L14.4359 9.0375L13.8172 9.6L13.5359 9.825L13.4047 9.91875H13.1797V9.91875ZM13.6484 9.95625L13.5734 9.975H13.4797L13.7234 9.80625L14.0234 9.54375L14.3234 9.2625L14.6234 9.01875L14.7734 8.90625L14.9422 8.8125L15.1109 8.7375L15.2797 8.68125L15.4109 8.6625L15.6547 8.64375L15.8609 8.6625L15.9359 8.68125L15.8609 8.7L15.6734 8.79375L15.4859 8.8875L15.3172 9L15.1484 9.1125L14.9984 9.24375L14.7172 9.4875L14.4172 9.75L14.3984 9.76875L14.2672 9.88125L14.1359 9.975L14.0422 10.0125L14.0047 9.975L13.9297 9.9375H13.8734L13.6484 9.95625V9.95625ZM15.8609 12.075L15.6734 12.0187L15.5047 11.9438L15.4109 11.9062L15.3734 11.8875L15.2609 11.8125L15.1484 11.7375L14.9234 11.5312L14.4922 11.1L14.2297 10.8188L14.0984 10.6688L13.9484 10.5375L13.9109 10.5L14.2484 10.5375H14.2672L14.3234 10.5562L14.3797 10.575H14.3984L14.4922 10.6313L14.6047 10.7437L14.7359 10.875L15.1859 11.3813L15.3547 11.55L15.5422 11.7188L15.7297 11.8875L15.9172 12.0187L16.0672 12.0938L15.8609 12.075V12.075ZM16.7234 12.1312L16.5359 12.15L16.3484 12.1125L16.2359 12.0563L16.1047 12L15.9359 11.8875L15.7672 11.775L15.6172 11.6437L15.4672 11.5125L15.3359 11.3813L15.0922 11.1187L14.9797 10.9875L14.7734 10.7625L14.6797 10.6688L14.5859 10.5938L14.5484 10.575L14.8672 10.6125H15.0172L15.1484 10.725L15.2797 10.8563L15.8047 11.4375L15.9359 11.5688L15.9547 11.5875L16.1609 11.775L16.1797 11.7938L16.2172 11.8125L16.3859 11.925L16.5547 12.0187L16.7422 12.0938L16.7984 12.1125L16.7234 12.1312V12.1312ZM17.1359 12.075L16.9484 12.0563L16.8547 12.0375L16.7609 12L16.6109 11.925L16.4797 11.85L16.3484 11.775L16.2547 11.7L16.0109 11.4937L15.9547 11.4375L15.7672 11.2313L15.4484 10.8563L15.3359 10.7437L15.1672 10.5938H15.2609L15.3734 10.6125L15.6172 10.6313L15.6734 10.65L15.8609 10.6688H15.9547L16.0859 10.875L16.2359 11.0625L16.3672 11.25L16.4984 11.4188L16.7422 11.6812L16.8734 11.7938L17.0047 11.8875L17.0797 11.9438L17.0984 11.9625L17.1172 11.9813L17.2109 12.0375L17.2859 12.075H17.1359V12.075ZM17.7547 12.075H17.6422L17.5859 12.0563V12.0375H17.5109L17.4172 12.0187L17.3047 11.9813L17.1922 11.925L17.1547 11.8875L17.0422 11.8125L16.9297 11.7188L16.6859 11.4937L16.5734 11.3813L16.2734 11.0063L16.1984 10.8937L16.0672 10.6688L16.4984 10.6875H16.6859L16.7609 10.7812L17.0797 11.1562L17.1547 11.2687L17.2297 11.3625L17.3047 11.4562L17.6234 11.8125L17.9047 12.0563L17.7547 12.075V12.075ZM18.3734 12.075L18.2797 12.0938L18.1859 12.075L18.0734 12.0375L17.9609 11.9625L17.8484 11.8687L17.7359 11.7563L17.6234 11.625L17.3797 11.3625L17.0422 10.95L16.9484 10.8375L16.8547 10.725L17.2859 10.7625L17.7172 11.325L17.7547 11.3813L17.7734 11.4L17.7922 11.4375L17.8109 11.4562L17.9797 11.6625L18.2422 11.9062L18.3734 12L18.4109 12.0187L18.3734 12.075V12.075ZM19.2359 12L19.0859 12.075L18.9359 12.1125H18.8047L18.6734 12.0938L18.5422 12.0563L18.4672 12.0187L18.3172 11.9062L18.0547 11.6625L17.8484 11.4375L17.8109 11.3813L17.7734 11.325L17.3984 10.7437L17.6234 10.6875H17.6609L17.7922 10.7625L17.8859 10.9312L18.0922 11.2125L18.2047 11.325L18.2797 11.4L18.3359 11.4562L18.3922 11.5125L18.4297 11.55L18.4672 11.5875L18.5609 11.6625L18.5984 11.6812L18.6547 11.7188L18.8234 11.8125L18.8609 11.8312L19.0672 11.9062L19.1609 11.9438L19.2547 11.9625H19.2922L19.2359 12V12ZM19.5922 11.8875L19.4422 11.8687L19.2922 11.85L19.1609 11.8125L19.0297 11.775L18.8984 11.7188L18.6922 11.5875L18.5422 11.475L18.4672 11.4188L18.3734 11.3813L18.2797 11.2875L18.1859 11.175L17.9797 10.9125L17.9422 10.8375L18.5234 10.8937L18.6922 11.1L18.9172 11.325L19.0297 11.4375L19.1609 11.5312L19.4234 11.7188L19.5734 11.8125L19.7047 11.8875L19.7422 11.9062L19.5922 11.8875V11.8875ZM19.2922 11.1L19.4047 11.1938L19.5359 11.3062L19.8734 11.55L20.0609 11.6812L20.2297 11.7938L20.3234 11.85L20.4359 11.925L20.2859 11.9438L20.1547 11.925L20.0234 11.9062L19.9859 11.8875L19.8172 11.8125L19.6859 11.7563L19.4422 11.6063L19.3297 11.5312L19.0109 11.2687L18.9172 11.175L18.6547 10.8937H18.8609L19.1047 10.9125H19.1234L19.1984 10.9875L19.2172 11.0063L19.2922 11.1V11.1ZM19.7609 10.7062L19.5922 10.6875L19.2922 10.6688L19.1609 10.65L19.5547 10.3875L19.9109 10.1812L20.1172 10.0875L20.3047 9.99375L20.5109 9.91875L20.6797 9.8625L20.7547 9.84375L20.8672 9.825H21.0172L21.1484 9.84375L21.2422 9.9L21.2797 9.95625L21.2234 9.975L21.1297 10.0125L20.9984 10.0688L20.9047 10.125L20.7359 10.2L20.2297 10.4813L20.0047 10.5938L19.7609 10.7062V10.7062ZM20.2297 10.575L20.4359 10.4625L20.6047 10.3687L21.0172 10.1625L21.1109 10.125L21.2047 10.0875L21.3922 10.0312L21.4859 10.0125H21.6359L21.5984 10.0312L21.4297 10.1063L21.2797 10.1812L21.1297 10.2563L20.8484 10.425L20.5109 10.65L20.3609 10.7812L20.0984 10.7437L19.9859 10.725L20.2297 10.575V10.575ZM21.5609 11.9625L21.4859 11.9438L21.3922 11.925L21.2984 11.8875L21.2047 11.8312L21.1672 11.8125L20.6609 11.475L20.3422 11.2687L20.2859 11.2313L20.1547 11.1562L20.0234 11.0625L19.9484 10.95L19.9672 10.875H20.0609L20.3234 10.9688L20.3797 11.0438L20.6797 11.3438L20.9234 11.55L21.2047 11.7563L21.3547 11.85L21.5047 11.925L21.5797 11.9438H21.5984L21.6547 11.9625H21.5609V11.9625ZM21.9547 11.9062H21.8047L21.6922 11.8687L21.6172 11.85L21.5234 11.8125L21.4109 11.7563L21.1672 11.6063L20.8297 11.3625L20.5672 11.1375L20.5109 11.0812L20.4922 11.0625L20.6984 11.0812L21.0172 11.1L21.4109 11.4562L21.7109 11.7L21.8609 11.7938L22.0297 11.8687L22.0672 11.8875L21.9547 11.9062V11.9062ZM22.4609 11.8125L22.3672 11.8312H22.2734L22.1797 11.8125L22.0859 11.775L21.9922 11.7375L21.8797 11.6812L21.7484 11.625L21.5422 11.4562L21.1484 11.1L21.3547 11.1187L21.5797 11.1375L21.5984 11.175L21.6547 11.2687L21.6734 11.3062L21.7484 11.3813L21.8234 11.4562L21.9172 11.5312L22.0109 11.5875L22.0484 11.6063L22.0672 11.625L22.1047 11.6437L22.1234 11.6625L22.1609 11.6812L22.2359 11.7188L22.3109 11.7375L22.4797 11.775H22.5359L22.4609 11.8125V11.8125ZM22.3672 11.3625L22.4047 11.4L22.4234 11.4188L22.5172 11.4937L22.5734 11.5312L22.7422 11.6063L22.7797 11.625L22.9484 11.6625H22.9109L22.8172 11.6437H22.7047L22.6484 11.6812L22.5547 11.7H22.4797L22.2547 11.6437L22.1797 11.6063L22.1422 11.5875L22.0859 11.5688L21.9922 11.5125H21.9734L21.8047 11.3625L21.7672 11.3062L21.7484 11.2687L21.7109 11.2125L21.6922 11.1938L21.8234 11.2125L22.1797 11.2313L22.2172 11.2875L22.2734 11.3625H22.3672V11.3625ZM22.6484 11.0063L22.5922 11.025L22.5734 11.0438H22.5547L22.3109 11.0063L22.3297 10.9875L22.4047 10.9125L22.4609 10.875L22.5359 10.8375L22.5734 10.8188L22.6672 10.7812L22.8172 10.7437L23.0047 10.725H23.0797L23.1734 10.7437L23.2297 10.7625L23.2859 10.7812H23.1547L23.0609 10.8H23.0422L22.9859 10.8188L22.8547 10.8563L22.7797 10.8937L22.6484 11.0063V11.0063ZM22.7422 11.0438L23.0609 10.9312L23.1359 10.9125L23.2297 10.8937H23.3984L23.4359 10.9125L23.4547 10.95L23.4734 11.0063V11.0438H23.3797L23.3047 11.0625L23.0234 11.1375L23.0047 11.1562L22.7234 11.1L22.7422 11.0438V11.0438ZM23.4172 11.4937L23.3984 11.5312L23.3797 11.55H23.3422L23.2297 11.5125L23.0984 11.4562L22.9109 11.3438L22.7234 11.2125L22.9859 11.25L23.2859 11.4L23.3234 11.4188L23.3609 11.4375L23.3984 11.4562L23.4172 11.475H23.4359L23.4172 11.4937V11.4937ZM23.5297 11.3625L23.5109 11.3813H23.4547L23.3234 11.3438L23.2109 11.2875L23.4359 11.3062H23.4547L23.5484 11.325L23.5297 11.3625V11.3625ZM23.5484 11.2313L23.4547 11.2125L23.1922 11.1562L23.3797 11.1187H23.4734L23.5297 11.1375L23.5672 11.1938L23.5484 11.2313ZM2.77344 13.3125L1.38594 17.0625H2.36094L2.62344 16.3125H4.02969L4.29219 17.0625H5.30469L3.91719 13.3125H2.77344V13.3125ZM2.86719 15.5625L3.33594 14.2125L3.80469 15.5625H2.86719ZM7.64844 14.1C7.46094 14.1 7.31094 14.1375 7.16094 14.2125C7.01094 14.2875 6.93594 14.3812 6.74844 14.475V14.25H5.81094V18H6.74844V16.8937C6.74844 16.95 6.95469 17.0063 7.06719 17.0438C7.17969 17.0813 7.31094 17.1 7.46094 17.1C7.62969 17.1 7.79844 17.0625 7.94844 17.0062C8.09844 16.95 8.22969 16.8375 8.36094 16.7062C8.47344 16.575 8.56719 16.425 8.64219 16.2375C8.71719 16.05 8.75469 15.825 8.75469 15.6C8.75469 15.15 8.66094 14.7937 8.45469 14.5312C8.24844 14.2688 8.00469 14.1 7.64844 14.1V14.1ZM7.64844 16.2375C7.53594 16.3875 7.34844 16.4437 7.10469 16.4437C7.02969 16.4437 6.99219 16.4437 6.91719 16.425C6.84219 16.425 6.74844 16.4063 6.74844 16.3875V14.9625C6.74844 14.9063 6.89844 14.8687 6.99219 14.85C7.08594 14.8312 7.16094 14.8125 7.25469 14.8125C7.46094 14.8125 7.61094 14.8688 7.70469 15C7.79844 15.1312 7.83594 15.3187 7.83594 15.6C7.81719 15.8812 7.76094 16.0875 7.64844 16.2375V16.2375ZM11.6797 14.3438C11.4547 14.175 11.0797 14.1 10.5734 14.1C10.3484 14.1 10.1047 14.1187 9.87969 14.1562C9.65469 14.1938 9.56094 14.2312 9.37344 14.25V15H9.54219C9.61719 15 9.74844 14.9062 9.91719 14.85C10.0859 14.7937 10.2547 14.7562 10.4047 14.7562C10.6484 14.7562 10.7984 14.775 10.9297 14.8312C11.0609 14.8875 11.0609 15 11.0609 15.15V15.1688C10.8734 15.1875 10.5734 15.2063 10.3297 15.2438C10.0859 15.2813 9.89844 15.3375 9.72969 15.4125C9.56094 15.4875 9.42969 15.6 9.35469 15.7313C9.26094 15.8625 9.22344 16.0312 9.22344 16.2375C9.22344 16.5 9.31719 16.7063 9.50469 16.875C9.69219 17.0437 9.91719 17.1188 10.1797 17.1188C10.2922 17.1188 10.4047 17.1 10.4984 17.0812C10.5922 17.0625 10.6859 17.025 10.7797 16.9875C10.8359 16.95 10.8734 16.9125 10.9484 16.8563C11.0234 16.8 11.0797 16.7625 11.0797 16.725V17.0625H12.0172V15.0938C11.9984 14.7563 11.9047 14.5125 11.6797 14.3438V14.3438ZM11.0609 16.2938C11.0609 16.35 10.9484 16.4062 10.8547 16.4437C10.7609 16.4812 10.6859 16.5 10.5922 16.5C10.4797 16.5 10.4047 16.5 10.3484 16.4813C10.2922 16.4625 10.2547 16.4438 10.2172 16.4062C10.1797 16.3687 10.1609 16.3313 10.1422 16.2938C10.1234 16.2563 10.1234 16.2 10.1234 16.1437C10.1234 16.05 10.1422 15.975 10.1984 15.9188C10.2547 15.8625 10.3109 15.825 10.4047 15.7875C10.4797 15.7687 10.5359 15.75 10.6859 15.7313L11.0422 15.6937V16.2938H11.0609ZM14.3422 14.1C14.1172 14.1 13.9109 14.1187 13.7234 14.175C13.5172 14.2312 13.3484 14.325 13.1984 14.4375C13.0484 14.5687 12.9172 14.7187 12.8234 14.925C12.7297 15.1312 12.6922 15.3563 12.6922 15.6188C12.6922 15.8625 12.7297 16.0875 12.8234 16.275C12.9172 16.4625 13.0297 16.6125 13.1797 16.7438C13.3297 16.875 13.5172 16.95 13.7234 17.025C13.9297 17.0813 14.1547 17.1188 14.3984 17.1188C14.5859 17.1188 14.7734 17.1 14.9234 17.0625C15.0734 17.025 15.2047 16.9687 15.3922 16.8937V16.125H15.2422C15.2047 16.125 15.1672 16.2 15.1297 16.2375C15.0922 16.275 15.0359 16.3125 14.9797 16.35C14.9234 16.3875 14.8484 16.4062 14.7547 16.4437C14.6609 16.4625 14.5672 16.4813 14.4359 16.4813C14.1922 16.4813 14.0047 16.4063 13.8734 16.275C13.7422 16.1438 13.6672 15.9187 13.6672 15.6562C13.6672 15.3938 13.7234 15.1875 13.8547 15.0187C13.9859 14.8687 14.1734 14.7938 14.4172 14.7938C14.5297 14.7938 14.6234 14.8125 14.6984 14.8312C14.7734 14.85 14.8484 14.8875 14.9234 14.925C14.9984 14.9625 15.0547 15.0375 15.1109 15.075C15.1672 15.1125 15.2047 15.0375 15.2422 15.225H15.3734V14.3812C15.1859 14.3062 15.0734 14.25 14.9047 14.2125C14.7359 14.1375 14.5484 14.1 14.3422 14.1V14.1ZM17.8297 14.1C17.6422 14.1 17.4922 14.1375 17.3422 14.1937C17.1922 14.2687 17.0609 14.3625 16.8734 14.4938V13.125H15.9359V17.0625H16.8734V15.0187C17.0609 14.9625 17.0609 14.925 17.1547 14.8875C17.2484 14.8688 17.3234 14.85 17.3984 14.85C17.5109 14.85 17.6047 14.8688 17.6797 14.8875C17.7359 14.925 17.7922 14.9625 17.8297 15.0187C17.8672 15.075 17.8297 15.15 17.8484 15.2625C17.8672 15.375 17.8297 15.4875 17.8297 15.6V17.0625H18.7672V15.1875C18.7672 14.8313 18.7109 14.5687 18.5422 14.3812C18.3547 14.1937 18.1484 14.1 17.8297 14.1ZM21.0734 14.1C20.5672 14.1 20.1734 14.2313 19.8922 14.5125C19.6109 14.7938 19.4609 15.1688 19.4609 15.6375C19.4609 16.1063 19.6109 16.4813 19.9109 16.7438C20.2109 17.0063 20.6609 17.1375 21.2234 17.1375C21.4484 17.1375 21.6922 17.1187 21.8797 17.0812C22.0672 17.0437 22.1422 16.9875 22.5172 16.8937V16.1437H22.3297C22.2172 16.3312 22.0859 16.3125 21.8984 16.3688C21.7109 16.4438 21.5234 16.4813 21.3359 16.4813C21.0359 16.4813 20.7922 16.4063 20.6422 16.2938C20.4922 16.1813 20.3984 15.9562 20.3797 15.7687H22.4984V15.4875C22.4984 15.0562 22.3672 14.7187 22.1234 14.475C21.8984 14.2125 21.5234 14.1 21.0734 14.1V14.1ZM20.3609 15.1875C20.3797 15 20.4359 14.8688 20.5484 14.775C20.6609 14.6813 20.8109 14.6437 20.9797 14.6437C21.1672 14.6437 21.3172 14.6625 21.3922 14.775C21.4859 14.8688 21.5234 15 21.5422 15.1875H20.3609Z" fill="black"/>
</svg>
