<svg width="24" height="24" viewBox="0 0 24 24" fill="none" xmlns="http://www.w3.org/2000/svg">
<path fill-rule="evenodd" clip-rule="evenodd" d="M7.24243 12.5595C7.0913 12.8734 6.95968 13.1387 6.83462 13.4074C6.20874 14.7531 5.6903 16.1361 5.42274 17.6012C5.27387 18.4161 5.19249 19.2369 5.4053 20.055C5.58812 20.7579 5.96855 21.1189 6.61937 21.1487C6.90418 21.162 7.20212 21.1016 7.47943 21.0234C8.21368 20.8155 8.85249 20.4139 9.4703 19.9789C9.6203 19.8731 9.77368 19.8071 9.9608 19.8767C10.2923 20.0001 10.4123 20.4396 10.1327 20.6483C9.1238 21.3999 8.05599 22.0481 6.74855 22.0883C5.67774 22.1213 4.90262 21.5469 4.56099 20.5262C4.30599 19.7646 4.29099 18.9812 4.38455 18.1952C4.66243 15.8556 5.56543 13.7299 6.64974 11.6693C6.74293 11.4923 6.74855 11.3516 6.68255 11.1624C6.4118 10.3849 6.15999 9.60057 5.91268 8.81513C5.8658 8.66625 5.8178 8.62388 5.65618 8.65932C4.5938 8.89294 3.54718 9.17813 2.6048 9.73632C2.24087 9.95194 1.89174 10.2197 1.60074 10.5253C1.1168 11.0334 1.10762 11.5958 1.50305 12.1759C1.84805 12.6823 2.33424 13.0286 2.84724 13.3416C3.00774 13.4398 3.17705 13.5234 3.33868 13.6198C3.57362 13.7603 3.65405 14.0325 3.53349 14.259C3.41255 14.4857 3.14124 14.5755 2.89487 14.4488C2.17412 14.0783 1.50193 13.6386 0.962866 13.0217C0.632491 12.6437 0.390428 12.2188 0.310366 11.7152C0.210616 11.0871 0.390616 10.5336 0.767866 10.0363C1.15693 9.52388 1.66787 9.15825 2.22568 8.8545C3.21493 8.31582 4.28087 7.99407 5.37587 7.75688C5.45087 7.74057 5.52512 7.72032 5.62674 7.695C5.57518 7.40288 5.51987 7.11938 5.47562 6.83382C5.29618 5.67244 5.21349 4.51013 5.49868 3.3525C5.61155 2.89463 5.78874 2.46188 6.09699 2.09719C6.72624 1.35338 7.53549 1.18782 8.44299 1.40944C9.33999 1.62863 10.0932 2.12532 10.7956 2.70338C10.9943 2.86688 10.9997 3.16219 10.8376 3.3525C10.672 3.54657 10.4146 3.57188 10.1892 3.41832C9.83518 3.17738 9.49093 2.91994 9.12305 2.70225C8.70155 2.45307 8.24893 2.27625 7.74455 2.27382C7.32793 2.27175 7.00412 2.44125 6.76674 2.77875C6.46599 3.20682 6.35855 3.70069 6.30174 4.20713C6.18155 5.27832 6.32424 6.33132 6.53293 7.37925C6.55524 7.49063 6.59799 7.53 6.71518 7.51819C7.5608 7.43382 8.40662 7.34963 9.25355 7.27894C9.43768 7.26375 9.55787 7.19719 9.67205 7.05282C10.7727 5.6625 11.9792 4.37513 13.3986 3.30094C14.1893 2.70263 15.0248 2.181 15.9861 1.89619C16.5884 1.71788 17.1979 1.65188 17.8045 1.86507C18.562 2.13132 18.9854 2.70694 19.2036 3.44982C19.435 4.23844 19.3988 5.04244 19.3049 5.84625C19.2792 6.05218 19.2462 6.25712 19.2059 6.46069C19.1532 6.73782 18.9477 6.88463 18.6709 6.85238C18.4193 6.82313 18.2551 6.62082 18.2815 6.33994C18.3181 5.95257 18.4064 5.56725 18.4103 5.18063C18.415 4.72313 18.4052 4.25382 18.31 3.80944C18.1114 2.88544 17.4722 2.523 16.5267 2.7315C15.8174 2.88769 15.1883 3.22144 14.5894 3.61613C13.3592 4.42688 12.3091 5.44069 11.3341 6.53682C11.1527 6.74063 10.9784 6.95082 10.8021 7.15894C10.7914 7.17132 10.7922 7.19344 10.7787 7.24613H11.0339C13.5447 7.27144 16.0186 7.56994 18.4362 8.26575C19.5874 8.59725 20.6987 9.02925 21.7214 9.66544C22.2655 10.0039 22.765 10.3956 23.1601 10.9067C23.9657 11.9492 23.8981 13.1196 22.9712 14.0531C22.3454 14.6837 21.5746 15.0819 20.7535 15.3913C20.5212 15.4785 20.2654 15.3504 20.1766 15.1279C20.0789 14.8834 20.1848 14.6304 20.4334 14.5099C20.8126 14.3261 21.2069 14.1669 21.5654 13.9487C21.8649 13.7671 22.139 13.5465 22.3804 13.2926C22.8824 12.7584 22.9009 12.1746 22.4753 11.5768C22.1566 11.1291 21.7283 10.8017 21.2678 10.5156C20.1316 9.80944 18.8847 9.372 17.6009 9.03057C16.2625 8.6745 14.9027 8.42607 13.5218 8.32782C12.4214 8.24963 11.317 8.22713 10.2145 8.17482C10.0553 8.16713 9.94655 8.21419 9.85805 8.35069C9.21174 9.34744 8.55812 10.3395 7.91518 11.3385C7.8683 11.4113 7.84843 11.5421 7.88049 11.6192C8.96893 14.2093 10.3474 16.6269 12.1742 18.7733C12.9434 19.6764 13.7798 20.5118 14.7955 21.1438C15.2721 21.4403 15.7696 21.6876 16.3465 21.726C16.8692 21.7613 17.2506 21.5424 17.5101 21.0988C17.7546 20.6809 17.8527 20.2185 17.8966 19.7434C18.0383 18.2102 17.7351 16.7314 17.3331 15.2678C16.9214 13.7685 16.3386 12.3326 15.6709 10.9298C15.6171 10.8169 15.5731 10.6828 15.5789 10.5613C15.5896 10.3403 15.7639 10.1829 15.982 10.1488C16.1736 10.1188 16.3754 10.2242 16.4712 10.4297C16.7101 10.9412 16.9525 11.4518 17.1713 11.9721C17.8467 13.5791 18.3904 15.228 18.6777 16.9526C18.8781 18.1564 18.9739 19.3644 18.6957 20.5703C18.6324 20.8417 18.542 21.1062 18.4259 21.3596C17.9521 22.3954 16.9913 22.8634 15.8781 22.62C14.9731 22.4218 14.2092 21.9489 13.4965 21.384C12.1857 20.3451 11.1222 19.0783 10.1603 17.7212C9.0638 16.1753 8.13774 14.5313 7.36187 12.8023C7.3328 12.738 7.29943 12.6756 7.24243 12.5595V12.5595ZM6.76843 8.44388L7.36768 10.3496C7.84112 9.627 8.28249 8.9535 8.75724 8.22844L6.76843 8.44388ZM12.0886 13.3635C11.3354 13.3626 10.7224 12.7521 10.7239 12.0043C10.7252 11.2446 11.3374 10.6391 12.1032 10.6393C12.8558 10.6397 13.4674 11.2496 13.468 11.9996C13.4684 12.7584 12.8554 13.3644 12.0886 13.3635Z" fill="black"/>
</svg>
