<svg width="24" height="24" viewBox="0 0 24 24" fill="none" xmlns="http://www.w3.org/2000/svg">
<path d="M18.7505 11.3502C18.4852 11.3478 18.2208 11.321 17.9605 11.2702C17.7102 11.2176 17.4657 11.1406 17.2305 11.0402L17.0605 11.0002H16.9405C16.8405 11.0002 16.7905 11.0702 16.7905 11.2102V11.5402C16.7763 11.6027 16.7763 11.6676 16.7905 11.7302C16.8407 11.8124 16.9136 11.8784 17.0005 11.9202C17.241 12.0405 17.4966 12.128 17.7605 12.1802C18.0881 12.2585 18.4236 12.2988 18.7605 12.3002C19.0993 12.3103 19.4374 12.263 19.7605 12.1602C20.0273 12.0902 20.2762 11.964 20.4905 11.7902C20.693 11.6337 20.86 11.436 20.9805 11.2102C21.0951 10.9663 21.1532 10.6997 21.1505 10.4302C21.1541 10.0958 21.0488 9.76938 20.8505 9.50017C20.5838 9.19721 20.2373 8.97542 19.8505 8.86017L18.9005 8.56017C18.635 8.49148 18.3865 8.36894 18.1705 8.20017C18.1071 8.1394 18.0567 8.06642 18.0224 7.98564C17.988 7.90486 17.9703 7.81796 17.9705 7.73017C17.9633 7.61152 17.9883 7.49313 18.0429 7.38752C18.0975 7.28191 18.1795 7.193 18.2805 7.13017C18.5572 6.99594 18.8633 6.93402 19.1705 6.95017C19.608 6.93955 20.0423 7.02845 20.4405 7.21017C20.5218 7.25167 20.6098 7.27874 20.7005 7.29017C20.8005 7.29017 20.8505 7.21017 20.8505 7.07017V6.71017C20.8535 6.63243 20.8325 6.55563 20.7905 6.49017C20.737 6.42211 20.6686 6.36734 20.5905 6.33017C20.5013 6.28108 20.4075 6.24088 20.3105 6.21017C20.186 6.16625 20.0591 6.12952 19.9305 6.10017L19.4905 6.00017C19.3273 5.98839 19.1636 5.98839 19.0005 6.00017C18.7199 5.99534 18.4401 6.03241 18.1705 6.11017C17.918 6.18386 17.6809 6.30242 17.4705 6.46017C17.2752 6.60262 17.1146 6.78718 17.0005 7.00017C16.8778 7.22725 16.8158 7.48213 16.8205 7.74017C16.8145 8.10119 16.9308 8.45362 17.1505 8.74017C17.425 9.07093 17.7953 9.30849 18.2105 9.42017L19.2105 9.72017C19.4579 9.77799 19.6877 9.89462 19.8805 10.0602C20.0002 10.1869 20.0649 10.3559 20.0605 10.5302C20.0626 10.6567 20.0314 10.7815 19.97 10.8921C19.9085 11.0027 19.819 11.0952 19.7105 11.1602C19.4136 11.3095 19.0818 11.3752 18.7505 11.3502V11.3502ZM12.9405 6.50017C12.925 6.40215 12.8796 6.31132 12.8105 6.24017C12.7357 6.18501 12.6428 6.16002 12.5505 6.17017H12.0005C11.9085 6.16507 11.8174 6.18961 11.7405 6.24017C11.6676 6.3086 11.6215 6.4008 11.6105 6.50017L10.6105 10.9002L9.47046 6.50017C9.45227 6.40095 9.40328 6.30997 9.33046 6.24017C9.33046 6.24017 9.20046 6.17017 9.07046 6.17017H8.42046C8.31046 6.17017 8.26046 6.23017 8.26046 6.34017C8.27016 6.43216 8.29029 6.52274 8.32046 6.61017L9.88046 11.7502C9.90073 11.8416 9.94179 11.9272 10.0005 12.0002C10.0791 12.046 10.1697 12.0669 10.2605 12.0602H10.8305C10.9244 12.0665 11.0181 12.0457 11.1005 12.0002C11.1635 11.9223 11.2049 11.8292 11.2205 11.7302L12.2205 7.45017L13.2205 11.7402C13.2288 11.8382 13.2712 11.9302 13.3405 12.0002C13.4191 12.0551 13.515 12.08 13.6105 12.0702H14.1805C14.2692 12.0745 14.3569 12.05 14.4305 12.0002C14.5057 11.9322 14.5551 11.8404 14.5705 11.7402L16.1805 6.60017C16.1863 6.547 16.1863 6.49335 16.1805 6.44017C16.1843 6.40361 16.1843 6.36674 16.1805 6.33017C16.1838 6.30707 16.1817 6.2835 16.1744 6.26135C16.167 6.23919 16.1546 6.21906 16.1381 6.20255C16.1216 6.18604 16.1014 6.17362 16.0793 6.16626C16.0571 6.1589 16.0336 6.15682 16.0105 6.16017H15.3905C15.2987 6.15642 15.2079 6.18085 15.1305 6.23017C15.0689 6.30646 15.0245 6.39515 15.0005 6.49017L14.0005 11.0002L12.9405 6.50017ZM5.77046 8.63017C5.53501 8.59928 5.29791 8.58258 5.06046 8.58017C4.47193 8.54925 3.89235 8.73415 3.43046 9.10017C3.23376 9.26863 3.07764 9.47932 2.97375 9.71654C2.86986 9.95376 2.82088 10.2114 2.83046 10.4702C2.81882 10.7059 2.85638 10.9414 2.94074 11.1617C3.02511 11.3821 3.15442 11.5825 3.32046 11.7502C3.49891 11.9149 3.70852 12.0422 3.93694 12.1246C4.16535 12.207 4.40796 12.2429 4.65046 12.2302C5.03215 12.2411 5.41122 12.1638 5.75813 12.0043C6.10504 11.8447 6.41042 11.6071 6.65046 11.3102C6.70891 11.4442 6.77571 11.5745 6.85046 11.7002C6.92164 11.81 7.00193 11.9137 7.09046 12.0102C7.11464 12.0347 7.14345 12.0541 7.1752 12.0674C7.20696 12.0807 7.24104 12.0875 7.27546 12.0875C7.30987 12.0875 7.34395 12.0807 7.37571 12.0674C7.40747 12.0541 7.43627 12.0347 7.46046 12.0102L7.88046 11.7302C7.91551 11.7085 7.94535 11.6793 7.96782 11.6447C7.99029 11.6101 8.00485 11.571 8.01046 11.5302C8.02662 11.4781 8.02662 11.4223 8.01046 11.3702C7.92942 11.2187 7.85925 11.0616 7.80046 10.9002C7.74688 10.7049 7.72328 10.5026 7.73046 10.3002V8.19017C7.75435 7.89383 7.71793 7.59572 7.6234 7.31385C7.52887 7.03198 7.37819 6.77219 7.18046 6.55017C6.92632 6.33649 6.63093 6.17738 6.31266 6.08276C5.99439 5.98814 5.66006 5.96003 5.33046 6.00017C4.9929 6.00005 4.65676 6.04375 4.33046 6.13017C4.0399 6.19772 3.75806 6.29838 3.49046 6.43017C3.41987 6.46136 3.35805 6.50944 3.31046 6.57017C3.28602 6.64489 3.28602 6.72545 3.31046 6.80017V7.13017C3.31046 7.27017 3.31046 7.33017 3.45046 7.33017C3.4867 7.33802 3.52421 7.33802 3.56046 7.33017L3.79046 7.25017C3.99358 7.15047 4.20423 7.06688 4.42046 7.00017C4.65593 6.94115 4.8977 6.91093 5.14046 6.91017C5.52702 6.86968 5.91422 6.98082 6.22046 7.22017C6.4586 7.51929 6.5699 7.89988 6.53046 8.28017V8.77017L5.77046 8.63017ZM6.55046 9.53017V9.80017C6.55123 9.99566 6.52772 10.1905 6.48046 10.3802C6.43825 10.5394 6.3595 10.6867 6.25046 10.8102C6.08372 11.0062 5.86551 11.1516 5.62046 11.2302C5.40187 11.3071 5.17216 11.3476 4.94046 11.3502C4.81361 11.3596 4.68617 11.3432 4.56585 11.302C4.44552 11.2607 4.33483 11.1955 4.24046 11.1102C4.15287 11.0153 4.08623 10.903 4.04488 10.7807C4.00353 10.6584 3.98839 10.5287 4.00046 10.4002C3.99219 10.2565 4.01774 10.1129 4.07506 9.98092C4.13237 9.84893 4.21985 9.73222 4.33046 9.64017C4.6219 9.43587 4.97579 9.34032 5.33046 9.37017H5.95046C6.15323 9.41251 6.35353 9.46592 6.55046 9.53017V9.53017ZM19.7605 15.0002C17.3699 16.006 14.804 16.5294 12.2105 16.5402C8.739 16.5408 5.32715 15.6379 2.31046 13.9202C2.07046 13.7702 1.88046 14.0202 2.09046 14.2102C4.80576 16.6648 8.34014 18.0165 12.0005 18.0002C14.887 18.0073 17.709 17.1467 20.1005 15.5302C20.4405 15.2202 20.1305 14.8102 19.7605 15.0002Z" fill="black"/>
<path d="M18.3804 14.0591C18.1904 14.1991 18.2204 14.3891 18.4304 14.3591C19.1404 14.2691 20.7104 14.0891 20.9904 14.4491C21.2704 14.8091 20.6804 16.2791 20.4104 16.9391C20.3304 17.1391 20.5104 17.2191 20.6904 17.0691C21.1457 16.6499 21.4948 16.1284 21.7086 15.5476C21.9225 14.9668 21.9951 14.3435 21.9204 13.7291C21.3458 13.5028 20.726 13.4148 20.1111 13.4721C19.4961 13.5294 18.9033 13.7305 18.3804 14.0591V14.0591Z" fill="black"/>
</svg>
