<svg width="24" height="24" viewBox="0 0 24 24" fill="none" xmlns="http://www.w3.org/2000/svg">
<path d="M8.24681 0.872389C8.47872 0.872429 8.70478 0.945219 8.89315 1.08051C9.08151 1.21579 9.22269 1.40676 9.29681 1.62651L16.0299 21.5758C16.0862 21.7425 16.102 21.9203 16.076 22.0944C16.0499 22.2685 15.9828 22.4338 15.8801 22.5768C15.7774 22.7198 15.6422 22.8363 15.4855 22.9166C15.3289 22.9969 15.1554 23.0387 14.9794 23.0386H22.7381C22.914 23.0385 23.0874 22.9965 23.2439 22.9161C23.4004 22.8357 23.5355 22.7193 23.6381 22.5764C23.7408 22.4334 23.808 22.268 23.834 22.0939C23.86 21.9198 23.8441 21.742 23.7877 21.5752L17.0552 1.62595C16.9811 1.40612 16.8398 1.2151 16.6514 1.0798C16.4629 0.944502 16.2368 0.87176 16.0048 0.871826L8.24681 0.872389ZM7.99631 0.962014C7.76397 0.962008 7.53749 1.03491 7.34878 1.17043C7.16007 1.30596 7.01864 1.49729 6.94443 1.71745L0.212245 21.6656C0.155979 21.8323 0.140216 22.01 0.166262 22.184C0.192307 22.358 0.259411 22.5233 0.362022 22.6662C0.464633 22.8091 0.599801 22.9256 0.756343 23.0059C0.912886 23.0862 1.0863 23.1281 1.26224 23.1281H6.67968C6.91199 23.1281 7.13831 23.0512 7.32693 22.9194C7.5156 22.7839 7.65705 22.5927 7.73137 22.3726L9.04743 18.4895L6.53287 16.0788C6.48674 16.0276 6.27918 15.6524 6.46368 15.3284C6.67143 15.0174 7.01774 15.0174 7.01774 15.0174H10.2587L11.9601 10.1152L9.05137 1.56014C9.04349 1.5217 8.87999 1.3042 8.62368 1.13264C8.36681 0.961076 7.99649 0.962201 7.99649 0.962201L7.99631 0.962014ZM7.08131 15.1633C6.97866 15.1631 6.87835 15.1939 6.79346 15.2516C6.70856 15.3093 6.64301 15.3912 6.60537 15.4867C6.56772 15.5822 6.55972 15.6868 6.58241 15.7869C6.6051 15.887 6.65742 15.978 6.73256 16.0479L13.8257 22.6685C14.0321 22.8616 14.2948 22.9743 14.577 22.9743C14.577 22.9743 14.8174 22.9871 14.9623 22.9681C15.303 22.9169 15.6232 22.6366 15.7292 22.52C16.0024 22.1564 15.8781 21.5919 15.8781 21.5919L13.7312 15.1644L7.08131 15.1633Z" fill="black"/>
</svg>
