<svg width="24" height="24" viewBox="0 0 24 24" fill="none" xmlns="http://www.w3.org/2000/svg">
<path d="M14.1939 12.3006C13.7563 12.1566 13.1263 12.1875 12.3039 12.1875H9V16.5H12.5333C13.0853 16.5 13.473 16.4409 13.6963 16.3997C14.0899 16.3292 14.4189 16.1927 14.6833 16.0281C14.9475 15.8638 15.1648 15.6146 15.3354 15.3004C15.5057 14.9861 15.591 14.6184 15.591 14.2073C15.591 13.7258 15.4676 13.356 15.2207 13.0005C14.9739 12.645 14.6317 12.4446 14.1939 12.3006V12.3006ZM13.7404 10.3288C14.1748 10.1998 14.5024 9.97444 14.7227 9.675C14.9432 9.37537 15.0532 8.99419 15.0532 8.54175C15.0532 8.11312 14.9503 7.73287 14.7446 7.40662C14.5389 7.08037 14.2455 6.95419 13.8636 6.83362C13.4816 6.71344 12.8267 6.75 11.8986 6.75H9V10.5H12.1101C12.8679 10.5 13.4111 10.4288 13.7404 10.3288V10.3288ZM23.625 3.49219C23.625 1.77056 22.2294 0.375 20.5078 0.375H3.30469C1.58306 0.375 0.1875 1.77056 0.1875 3.49219V20.6953C0.1875 22.4169 1.58306 23.8125 3.30469 23.8125H20.5078C22.2294 23.8125 23.625 22.4169 23.625 20.6953V3.49219ZM16.9787 15.8897C16.7233 16.4096 16.4074 16.8105 16.0314 17.0925C15.6553 17.3745 15.1838 17.6138 14.6169 17.7578C14.0503 17.9019 13.3554 18 12.5333 18H7.3125V5.0625H12.4537C13.4407 5.0625 14.2322 5.17669 14.8284 5.43788C15.4249 5.69944 15.8917 6.09356 16.2298 6.63694C16.5675 7.18031 16.7364 7.7445 16.7364 8.33775C16.7364 8.88994 16.5864 9.408 16.287 9.8955C15.9874 10.3834 15.5349 10.7756 14.9301 11.0753C15.7112 11.3044 16.3119 11.6948 16.7319 12.2468C17.1519 12.7989 17.3619 13.4509 17.3619 14.2028C17.3619 14.8078 17.2343 15.3699 16.9787 15.8897V15.8897Z" fill="black"/>
</svg>
