<svg width="24" height="24" viewBox="0 0 24 24" fill="none" xmlns="http://www.w3.org/2000/svg">
<path d="M22.0312 6.28281L22.0875 6.24531C21.975 6.03906 21.8063 5.85156 21.6375 5.75781L12.5812 0.545313C12.4312 0.451563 12.225 0.414062 12 0.414062C11.775 0.414062 11.5688 0.470313 11.4188 0.545313L2.41875 5.77656C2.1 5.96406 1.875 6.43281 1.875 6.78906V17.2328C1.875 17.4391 1.9125 17.6641 2.04375 17.8703L2.00625 17.8891C2.1 18.0391 2.23125 18.1703 2.3625 18.2453L11.4 23.4766C11.55 23.5703 11.7563 23.6078 11.9813 23.6078C12.2063 23.6078 12.4125 23.5516 12.5625 23.4766L21.5625 18.2453C21.8813 18.0578 22.1063 17.5891 22.1063 17.2328V6.77031C22.125 6.62031 22.1063 6.45156 22.0312 6.28281ZM12 19.4078C7.9125 19.4078 4.59375 16.0891 4.59375 12.0016C4.59375 7.91406 7.9125 4.59531 12 4.59531C14.7562 4.59531 17.1563 6.11406 18.4313 8.34531L15.9938 9.75156C15.2063 8.34531 13.7063 7.40781 12 7.40781C9.46875 7.40781 7.40625 9.47031 7.40625 12.0016C7.40625 14.5328 9.46875 16.5953 12 16.5953C13.7063 16.5953 15.2063 15.6578 15.9938 14.2703L18.4125 15.6953C17.1375 17.9078 14.7375 19.4078 12 19.4078V19.4078ZM21.5625 11.6266H20.9625L20.7938 12.3766H21.5625V13.3141H20.625L20.4 14.4391H19.4813L19.7062 13.3141H18.9938L18.7687 14.4391H17.8688L18.0938 13.3141H17.625V12.3766H18.2812L18.45 11.6266H17.625V10.6891H18.6188L18.8438 9.56406H19.7625L19.5375 10.6891H20.25L20.475 9.56406H21.375L21.15 10.6891H21.5625V11.6266ZM19.1813 12.3766H19.8937L20.0625 11.6266H19.35L19.1813 12.3766Z" fill="black"/>
</svg>
