<svg width="24" height="24" viewBox="0 0 24 24" fill="none" xmlns="http://www.w3.org/2000/svg">
<path d="M1.64258 0.1875L3.52789 21.3531L11.9875 23.7118L20.4708 21.3444L22.3576 0.1875H1.64258ZM18.4409 5.03662L17.8133 12.0876L17.8152 12.1256L17.8126 12.2132V12.2124L17.3667 17.1426L17.3176 17.5806L12.0001 19.0513V19.0515L11.996 19.0551L6.68764 17.5761L6.3282 13.5H8.93127L9.11595 15.5726L12.0008 16.3545L12.0001 16.356V16.3556L14.8956 15.5627L15.2016 12.1875H9.14858L9.09664 11.6169L8.97833 10.2802L8.91627 9.5625H15.4317L15.6687 6.9375H5.74508L5.69314 6.36731L5.57502 5.03025L5.51277 4.3125H18.503L18.4409 5.03662V5.03662Z" fill="black"/>
</svg>
