<svg width="24" height="24" viewBox="0 0 24 24" fill="none" xmlns="http://www.w3.org/2000/svg">
<path d="M16.2367 4.6875L16.7992 4.70625C17.0055 4.725 17.2117 4.7625 17.4367 4.8L16.968 3.4125L14.193 0.656249C13.5555 0.0187489 12.693 -0.168751 12.243 0.224999L5.47422 4.70625L16.2367 4.6875ZM17.3805 5.3625C17.1555 5.325 16.9492 5.2875 16.7617 5.26875L16.218 5.25L5.71797 5.26875L20.4555 20.0062L21.5992 17.4187L17.3805 5.3625V5.3625ZM5.41797 17.2875L17.4742 21.5437L20.0617 20.4L5.32422 5.6625V16.1812L5.34297 16.6875C5.34297 16.8562 5.36172 17.0625 5.41797 17.2875V17.2875Z" fill="black"/>
<path d="M20.0432 6.43164C19.5557 5.94414 18.7307 5.47539 17.9244 5.21289L22.1994 17.4379L20.9057 20.3816L23.8682 19.4066V10.2754L20.0432 6.43164ZM17.5119 22.1441L5.32443 17.8504C5.58693 18.6566 6.03693 19.4816 6.54318 19.9879L10.5369 23.9629L19.4619 23.9816L20.4557 20.8504L17.5119 22.1441ZM4.78068 16.7066L4.76193 16.2004V5.41914L0.318179 12.2066C-0.0755708 12.6191 0.130679 13.5004 0.749429 14.1566L3.50568 16.9316L4.87443 17.4191C4.81818 17.1754 4.78068 16.9504 4.78068 16.7066Z" fill="black"/>
</svg>
