<svg width="24" height="24" viewBox="0 0 24 24" fill="none" xmlns="http://www.w3.org/2000/svg">
<path d="M17.0438 11.55L17.0625 11.175V11.0625H16.9125C16.6875 11.0625 16.4438 11.1188 16.275 11.2313C16.0125 11.3813 15.8625 11.6625 15.8625 12.0563C15.8625 12.6188 16.1437 12.9375 16.6312 12.9375C16.7812 12.9375 16.875 12.9187 17.0625 12.8625V12.0563L17.0438 11.55V11.55ZM3.05625 12.0375C3.05625 12.6375 3.35625 12.9562 3.9375 12.9562C4.06875 12.9562 4.125 12.9563 4.3125 12.9188V11.1375C4.125 11.1 4.0875 11.0812 3.9375 11.0812C3.375 11.0812 3.05625 11.4375 3.05625 12.0375ZM8.60625 12.7687C8.60625 12.9937 8.7375 13.0875 9.0375 13.0875C9.20625 13.0875 9.375 13.0688 9.5625 13.0312V12.2812C8.8125 12.3563 8.60625 12.4687 8.60625 12.7687V12.7687ZM20.4188 11.0625C19.9875 11.0625 19.725 11.4187 19.725 12.0375C19.725 12.6562 19.9688 13.0125 20.4188 13.0125C20.85 13.0125 21.0938 12.6562 21.0938 12.0375C21.0938 11.4375 20.85 11.0625 20.4188 11.0625V11.0625ZM23.625 8.23125C23.625 7.51875 23.0437 6.9375 22.3312 6.9375H1.48125C0.76875 6.9375 0.1875 7.51875 0.1875 8.23125V15.75C0.1875 16.4813 0.76875 17.0625 1.48125 17.0625H22.3125C23.025 17.0625 23.6063 16.4812 23.6063 15.7687V8.23125H23.625ZM1.93125 12.0563C1.93125 10.9313 2.68125 10.1812 3.84375 10.1812C4.03125 10.1812 4.14375 10.2 4.33125 10.2375V8.625H5.45625V13.6875C4.89375 13.8 4.4625 13.8375 4.0125 13.8375C2.64375 13.8375 1.93125 13.2375 1.93125 12.0563V12.0563ZM7.125 12.8438C7.125 13.725 7.0875 14.1562 6.9 14.5312C6.7125 14.8875 6.50625 15.1125 6.01875 15.3563L4.9875 14.8688C5.475 14.6438 5.68125 14.4375 5.83125 14.1188C5.98125 13.8 6 13.425 6 12.4688V10.3125H7.125V12.8438V12.8438ZM7.125 9.75H6V8.625H7.125V9.75ZM10.5 13.7438C10.125 13.8188 9.4125 13.875 8.94375 13.875C8.00625 13.875 7.6125 13.5563 7.6125 12.825C7.6125 12.0375 8.23125 11.6813 9.54375 11.5688V11.325C9.54375 11.1188 9.45 11.0438 9.16875 11.0438C8.75625 11.0438 8.23125 11.1563 7.85625 11.3813V10.5187C8.41875 10.2937 8.8125 10.1812 9.31875 10.1812C9.88125 10.1812 10.2188 10.3313 10.3875 10.6313C10.4813 10.8 10.4813 11.0063 10.4813 11.475V13.7438H10.5ZM14.4375 13.875H13.3125V11.6625C13.3125 11.2313 13.125 11.0812 12.7313 11.0812C12.5813 11.0812 12.375 11.1 12.1875 11.1562V13.875H11.0625V10.4438C11.8125 10.275 12.2813 10.2 12.825 10.2C13.3875 10.2 13.8375 10.3313 14.0812 10.575C14.325 10.8188 14.4375 11.0625 14.4375 11.625V13.875ZM18.0563 11.7L18.1875 12.75V13.0687C18.1875 14.025 18.075 14.475 17.8312 14.8312C17.4937 15.375 16.875 15.6375 16.0125 15.6375C15.5813 15.6375 15.1688 15.5812 14.7938 15.4125V14.3812C15.1688 14.5875 15.5813 14.6813 15.9938 14.6813C16.725 14.6813 17.0438 14.3813 17.0438 13.6875V13.6688C16.8563 13.7813 16.5938 13.8187 16.3125 13.8187C15.3375 13.8187 14.7188 13.1813 14.7188 12.1688C14.7188 10.9125 15.6375 10.2 17.25 10.2C17.7188 10.2 18.1687 10.2563 18.6937 10.35L18.2625 11.1562C17.9625 11.1 18.5062 11.1562 18.1312 11.1187L18.0563 11.7ZM20.4 13.8937C19.2938 13.8937 18.6 13.2 18.6 12.075C18.6 10.9125 19.3125 10.1812 20.4375 10.1812C21.5438 10.1812 22.2188 10.875 22.2188 12.0187C22.2375 13.1625 21.525 13.8937 20.4 13.8937Z" fill="black"/>
</svg>
