<svg width="24" height="24" viewBox="0 0 24 24" fill="none" xmlns="http://www.w3.org/2000/svg">
<path d="M23.3997 9.76875C22.5935 9.3 21.5247 9.24375 20.6247 9.50625C20.5122 8.53125 19.8747 7.6875 19.1247 7.0875L18.8247 6.84375L18.5622 7.14375C18.056 7.725 17.906 8.7 17.981 9.45C18.0372 9.99375 18.206 10.5563 18.5435 11.0063C18.281 11.1563 17.9997 11.3625 17.7372 11.4562C17.2122 11.6437 16.631 11.8312 16.0685 11.8312H14.8122V9.1875H12.3747V4.5H9.56223V6.75H4.87473V9.1875H2.43723V11.8125H0.33723L0.29973 12.0938C0.20598 13.2938 0.35598 14.4562 0.86223 15.5625L1.06848 15.975L1.08723 16.0125C2.56848 18.525 5.15598 19.575 7.98723 19.575C13.4622 19.575 17.981 17.1187 20.0435 11.9625C21.431 12.0375 22.856 11.625 23.531 10.2938L23.6997 9.95625L23.3997 9.76875V9.76875ZM5.24973 7.3125H7.12473V9.375H5.24973V7.3125ZM7.70598 15.6C7.70598 15.9187 7.44348 16.1813 7.12473 16.1813C6.80598 16.1813 6.54348 15.9187 6.54348 15.6C6.54348 15.2812 6.80598 15.0187 7.12473 15.0187C7.44348 15.0375 7.70598 15.2812 7.70598 15.6ZM5.24973 9.75H7.12473V11.8125H5.24973V9.75ZM2.81223 9.75H4.87473V11.8125H2.81223V9.75ZM8.00598 19.1625C5.04348 19.1437 3.44973 18.15 2.13723 16.8375C2.53098 16.8563 2.90598 16.875 3.24348 16.875C3.54348 16.875 3.84348 16.875 4.12473 16.8563C4.85598 16.8188 5.49348 16.725 6.01848 16.575C6.44973 17.5688 7.23723 18.4875 8.64348 19.1625H8.00598ZM9.56223 11.8125H7.49973V9.75H9.56223V11.8125ZM9.56223 9.375H7.49973V7.3125H9.56223V9.375ZM11.9997 11.8125H9.93723V9.75H11.9997V11.8125ZM11.9997 9.375H9.93723V7.3125H11.9997V9.375ZM11.9997 6.9375H9.93723V4.875H11.9997V6.9375ZM14.4372 11.8125H12.3747V9.75H14.4372V11.8125ZM7.27473 15.225C7.23723 15.2062 7.18098 15.1875 7.12473 15.1875C6.89973 15.1875 6.71223 15.375 6.71223 15.6C6.71223 15.825 6.89973 16.0125 7.12473 16.0125C7.34973 16.0125 7.53723 15.825 7.53723 15.6C7.53723 15.5437 7.51848 15.4875 7.49973 15.45C7.46223 15.5063 7.42473 15.5438 7.34973 15.5438C7.25598 15.5438 7.18098 15.4688 7.18098 15.375C7.19973 15.3 7.23723 15.2437 7.27473 15.225V15.225Z" fill="black"/>
</svg>
