<svg width="24" height="24" viewBox="0 0 24 24" fill="none" xmlns="http://www.w3.org/2000/svg">
<path fill-rule="evenodd" clip-rule="evenodd" d="M15.3953 14.7068C15.4851 14.4758 15.5869 14.2484 15.6629 14.0129C16.0919 12.6822 16.5168 11.3504 16.9388 10.0175C17.101 9.50539 17.2788 9.0012 17.5979 8.56114C18.1026 7.8657 18.8058 7.50139 19.6379 7.37407C19.9657 7.32537 20.2965 7.29994 20.6279 7.29795C21.6154 7.28857 22.6034 7.29514 23.5911 7.29607C23.6436 7.29607 23.6961 7.30151 23.7706 7.30582C23.7464 7.36282 23.7333 7.40426 23.7123 7.44157C23.3457 8.0967 22.9863 8.75576 22.6088 9.40433C21.9516 10.5335 21.2933 11.6622 20.6155 12.779C20.1807 13.495 19.7091 14.189 19.1742 14.8366C18.7795 15.3143 18.364 15.7711 17.8343 16.106C17.4734 16.3341 17.0879 16.4676 16.6503 16.4654C15.0981 16.457 13.546 16.4631 11.9939 16.4609C11.5324 16.4601 11.1374 16.2845 10.8021 15.9728C10.3216 15.5264 10.0347 14.9581 9.79994 14.3588C9.37169 13.2648 9.13188 12.118 8.85663 10.9812C8.72763 10.4491 8.58101 9.92108 8.44132 9.39158C8.43232 9.35726 8.41469 9.3252 8.39444 9.27589L8.28626 9.37751C7.68101 9.97883 7.14794 10.6415 6.67094 11.3459C6.54101 11.5379 6.49732 11.791 6.42476 12.0192C6.15776 12.8573 5.91438 13.7035 5.62526 14.5338C5.34832 15.3291 4.85182 15.9618 4.07576 16.3356C3.62576 16.5538 3.13404 16.6724 2.63407 16.6835C1.88782 16.7 1.14119 16.7018 0.394756 16.7086C0.216256 16.7103 0.208006 16.6956 0.254506 16.523C0.574568 15.3346 0.980131 14.1766 1.48826 13.0557C2.01213 11.8994 2.62919 10.7967 3.40657 9.78964C3.93588 9.10395 4.52051 8.47132 5.25213 7.99301C5.62319 7.75057 6.01769 7.55895 6.46657 7.50851C6.54044 7.50007 6.61526 7.49482 6.68951 7.49482C8.27913 7.49407 9.86876 7.5102 11.4582 7.48751C12.3108 7.47532 12.928 7.83532 13.3902 8.52157C13.6776 8.94833 13.8833 9.41426 14.0564 9.89558C14.4053 10.8665 14.6223 11.8731 14.8673 12.8727C15.0076 13.4448 15.1638 14.0129 15.3134 14.5827C15.3246 14.6255 15.3428 14.6663 15.358 14.708L15.3953 14.7068V14.7068Z" fill="black"/>
</svg>
