<svg width="24" height="24" viewBox="0 0 24 24" fill="none" xmlns="http://www.w3.org/2000/svg">
<path d="M11.4741 0H12.4028C14.8249 0.100313 17.2193 0.916875 19.1608 2.37675C21 3.74344 22.437 5.64619 23.2346 7.79663C23.6923 8.99419 23.9216 10.2679 24 11.5451V12.3347C23.9224 14.4521 23.313 16.5572 22.1756 18.3501C20.9004 20.3929 19.0027 22.0494 16.7893 23.0053C15.3403 23.6336 13.782 23.9716 12.2029 24H11.8009C9.60056 23.9642 7.4115 23.3138 5.55769 22.1265C3.45844 20.7928 1.78631 18.7918 0.864937 16.4796C0.354563 15.2231 0.0826875 13.8787 0 12.5272V11.5978C0.0945 8.89969 1.11619 6.23362 2.88937 4.19231C4.344 2.49562 6.28125 1.215 8.41631 0.550688C9.40725 0.238125 10.4392 0.076875 11.4741 0ZM4.72331 7.03556C4.71769 9.31425 4.72125 11.5927 4.72125 13.8707C4.98938 13.8727 5.2575 13.8727 5.52619 13.8727C5.51212 11.9166 5.54513 9.96094 5.50631 8.00531C5.59631 8.17537 5.67844 8.35031 5.781 8.51288C6.94406 10.2956 8.08219 12.0938 9.24544 13.875C9.57131 13.8707 9.89719 13.8707 10.2231 13.8757C10.2225 11.5957 10.2218 9.31575 10.2238 7.03575C9.9582 7.03317 9.69256 7.03242 9.42694 7.0335C9.441 8.9685 9.40144 10.9035 9.45038 12.8364C8.23031 10.8954 6.99394 8.9655 5.75756 7.03425C5.41281 7.03212 5.06805 7.03256 4.72331 7.03556V7.03556ZM12.0066 7.0335C11.9824 9.3135 12.0058 11.5935 11.9977 13.8727C13.2107 13.8699 14.4236 13.8773 15.6371 13.869C15.6328 13.622 15.6343 13.3749 15.6416 13.128C14.7019 13.125 13.7616 13.1293 12.8211 13.1243C12.8072 12.3349 12.8203 11.5444 12.8136 10.7548C13.6376 10.7402 14.4617 10.7571 15.2848 10.746C15.2827 10.5066 15.2828 10.2671 15.2812 10.0275C14.4587 10.0539 13.6363 10.0174 12.813 10.0298C12.8152 9.27544 12.8168 8.52038 12.8168 7.76513C13.6978 7.76513 14.5789 7.76137 15.4592 7.76737C15.4577 7.52344 15.4592 7.27875 15.4622 7.035C14.31 7.032 13.1578 7.0335 12.0066 7.0335V7.0335ZM16.2444 7.04363C16.2452 7.281 16.2452 7.51762 16.2459 7.75425C16.8999 7.74675 17.5532 7.77469 18.2072 7.76081C18.2029 9.79762 18.2079 11.8329 18.2051 13.8684C18.4789 13.8765 18.7545 13.875 19.0283 13.8516C19.0058 12.7281 19.0504 11.6038 18.999 10.4809C19.0116 9.97481 18.9859 9.4695 19.0209 8.964C19.0408 8.56275 18.969 8.16206 19.0144 7.76081C19.6736 7.76962 20.3334 7.76362 20.9925 7.76362C20.9895 7.52404 20.9942 7.28441 21.0066 7.04513C19.4186 7.02544 17.8309 7.0275 16.2444 7.04363V7.04363ZM2.54063 12.9551C2.16994 13.1258 2.14575 13.7094 2.51269 13.8977C2.83519 14.1189 3.31988 13.8281 3.30525 13.4458C3.33019 13.0701 2.87588 12.7543 2.54063 12.9551ZM8.02125 15.8218C7.21931 16.4723 7.22887 17.9209 8.115 18.4937C8.61525 18.8115 9.25912 18.7457 9.78787 18.534C9.79012 18.4176 9.79294 18.3017 9.79725 18.1852C9.29644 18.4468 8.59537 18.5002 8.17069 18.0709C7.61475 17.4639 7.74 16.3329 8.47312 15.9191C8.88769 15.7009 9.39319 15.7646 9.80175 15.9639C9.80044 15.8402 9.801 15.7164 9.80175 15.5927C9.22106 15.3866 8.50387 15.3977 8.02125 15.8218V15.8218ZM11.2476 16.3299C10.8932 16.3712 10.5429 16.5587 10.3789 16.8861C10.1439 17.3541 10.1709 17.9861 10.5409 18.3786C10.9224 18.8092 11.6556 18.8136 12.0746 18.4343C12.5293 18.0015 12.5807 17.2215 12.2166 16.716C12.0013 16.4106 11.6029 16.3067 11.2476 16.3301V16.3299ZM14.6014 16.8405C14.2901 17.3811 14.3516 18.1999 14.901 18.5676C15.3103 18.7963 15.8259 18.7236 16.2274 18.5098C16.2266 18.3941 16.2281 18.2783 16.2332 18.1633C15.9169 18.3639 15.495 18.5113 15.1434 18.309C14.898 18.1736 14.8239 17.8858 14.7846 17.6293C15.3236 17.622 15.8619 17.6139 16.4017 17.6154C16.3877 17.2727 16.3796 16.8853 16.1299 16.6202C15.7176 16.1646 14.8841 16.3095 14.6014 16.8405ZM13.0237 16.4025V18.654C13.146 18.654 13.2697 18.654 13.3937 18.6547C13.398 18.2432 13.3862 17.8309 13.398 17.4184C13.401 17.1803 13.4968 16.9388 13.6763 16.7783C13.8264 16.6648 14.0293 16.7276 14.2014 16.7321C14.1992 16.6129 14.1977 16.494 14.1971 16.3755C13.8609 16.3009 13.5716 16.4978 13.4017 16.7724C13.398 16.6538 13.3943 16.5351 13.3922 16.4173C13.2692 16.4128 13.146 16.4078 13.0237 16.4025V16.4025Z" fill="black"/>
<path d="M11.017 16.7294C11.3268 16.5785 11.7714 16.6526 11.9442 16.9732C12.1411 17.327 12.1368 17.795 11.9185 18.1378C11.6335 18.5664 10.8822 18.4726 10.6955 17.9986C10.5065 17.5753 10.5798 16.9704 11.017 16.7293V16.7294ZM14.8199 17.3278C14.8285 17.0326 15.0344 16.7396 15.331 16.6753C15.514 16.6445 15.7242 16.6766 15.851 16.8239C15.977 16.9578 16.0034 17.1453 16.0347 17.3189C15.6297 17.3212 15.2247 17.3131 14.8197 17.3278H14.8199Z" fill="black"/>
</svg>
