<svg width="24" height="24" viewBox="0 0 24 24" fill="none" xmlns="http://www.w3.org/2000/svg">
<path d="M9.20006 6.12406C6.50569 5.63281 4.37756 6.14656 3.52819 7.62406C2.89444 8.72094 3.07631 10.1759 3.96694 11.7303C3.98503 11.7618 4.00916 11.7895 4.03794 11.8117C4.06673 11.8339 4.0996 11.8502 4.13468 11.8597C4.16976 11.8691 4.20637 11.8716 4.24241 11.867C4.27846 11.8623 4.31323 11.8506 4.34475 11.8325C4.37627 11.8144 4.40391 11.7903 4.4261 11.7615C4.4483 11.7327 4.4646 11.6998 4.47409 11.6648C4.48358 11.6297 4.48606 11.5931 4.48141 11.557C4.47675 11.521 4.46503 11.4862 4.44694 11.4547C3.64444 10.0541 3.48694 8.79781 4.00631 7.89219C4.71131 6.67156 6.61069 6.20469 9.10069 6.66594C9.17279 6.67911 9.24718 6.66311 9.30748 6.62144C9.36779 6.57977 9.40907 6.51585 9.42225 6.44375C9.43543 6.37164 9.41942 6.29725 9.37775 6.23695C9.33608 6.17665 9.27217 6.13536 9.20006 6.12219V6.12406ZM5.36756 13.6147C6.56894 14.9022 7.95999 15.9986 9.49256 16.8659C13.4001 19.1159 17.5551 19.7253 19.6176 18.3266C19.678 18.2853 19.7195 18.2217 19.7331 18.1498C19.7466 18.0779 19.731 18.0035 19.6897 17.9431C19.6485 17.8827 19.5849 17.8412 19.513 17.8276C19.4411 17.8141 19.3667 17.8297 19.3063 17.8709C17.4576 19.1253 13.4994 18.5478 9.76256 16.3859C8.28165 15.5466 6.93744 14.4863 5.77631 13.2416C5.72658 13.1874 5.65736 13.1551 5.58387 13.152C5.51038 13.1488 5.43864 13.175 5.38444 13.2247C5.33023 13.2744 5.298 13.3436 5.29484 13.4171C5.29167 13.4906 5.31783 13.5624 5.36756 13.6166V13.6147Z" fill="black"/>
<path d="M18.9481 13.2771C20.7124 11.194 21.3274 9.09773 20.4799 7.63148C19.8574 6.55148 18.5393 5.98148 16.7881 5.95898C16.7147 5.95898 16.6444 5.98812 16.5925 6.03999C16.5406 6.09185 16.5115 6.1622 16.5115 6.23555C16.5115 6.3089 16.5406 6.37924 16.5925 6.43111C16.6444 6.48297 16.7147 6.51211 16.7881 6.51211C18.3631 6.53273 19.4974 7.02398 20.0093 7.90898C20.7124 9.12773 20.1631 10.9971 18.5337 12.9227C18.5103 12.9504 18.4926 12.9825 18.4816 13.017C18.4706 13.0516 18.4665 13.0879 18.4695 13.1241C18.4726 13.1602 18.4827 13.1954 18.4993 13.2276C18.516 13.2598 18.5388 13.2884 18.5665 13.3118C18.5942 13.3352 18.6262 13.3529 18.6608 13.3639C18.6953 13.3749 18.7317 13.379 18.7678 13.376C18.804 13.3729 18.8391 13.3628 18.8713 13.3461C18.9035 13.3295 18.9322 13.3067 18.9556 13.279L18.9481 13.2771ZM14.4162 6.21586C12.685 6.60873 11.0248 7.26647 9.49431 8.16586C5.46118 10.5002 2.82869 13.9296 3.18681 16.4196C3.1921 16.4565 3.20462 16.4921 3.22365 16.5242C3.24267 16.5563 3.26783 16.5843 3.29769 16.6067C3.32755 16.629 3.36153 16.6453 3.39767 16.6546C3.43382 16.6638 3.47144 16.6658 3.50837 16.6605C3.54531 16.6553 3.58084 16.6427 3.61293 16.6237C3.64503 16.6047 3.67307 16.5795 3.69544 16.5497C3.71781 16.5198 3.73409 16.4858 3.74333 16.4497C3.75257 16.4135 3.7546 16.3759 3.74931 16.339C3.41744 14.1284 5.91119 10.8752 9.76993 8.64586C11.2504 7.77267 12.8568 7.13327 14.5324 6.75023C14.5679 6.7426 14.6015 6.72806 14.6313 6.70744C14.6612 6.68682 14.6867 6.66052 14.7063 6.63005C14.726 6.59958 14.7395 6.56554 14.746 6.52986C14.7525 6.49418 14.7519 6.45757 14.7443 6.42211C14.7367 6.38665 14.7221 6.35305 14.7015 6.32321C14.6809 6.29337 14.6546 6.26789 14.6241 6.24821C14.5937 6.22854 14.5596 6.21506 14.5239 6.20854C14.4883 6.20203 14.4516 6.2026 14.4162 6.21023V6.21586Z" fill="black"/>
<path d="M7.87531 18.1462C8.81281 20.7206 10.3128 22.3125 12.0097 22.3125C13.2472 22.3125 14.3909 21.4687 15.2834 19.9837C15.3227 19.9213 15.3356 19.8459 15.3193 19.7739C15.3029 19.702 15.2587 19.6396 15.1963 19.6003C15.1338 19.561 15.0584 19.5481 14.9865 19.5645C14.9146 19.5808 14.8521 19.6251 14.8128 19.6875C14.0103 21.0225 13.0259 21.75 12.0116 21.75C10.6016 21.75 9.25719 20.3362 8.40406 17.955C8.3792 17.8861 8.32799 17.8299 8.26171 17.7988C8.19543 17.7677 8.1195 17.7642 8.05063 17.789C7.98175 17.8139 7.92558 17.8651 7.89446 17.9314C7.86334 17.9977 7.85982 18.0736 7.88469 18.1425L7.87531 18.1462ZM16.3128 17.6418C16.8116 15.9818 17.0587 14.2564 17.0459 12.5231C17.0459 7.94622 15.4447 4.00309 13.1628 2.98872C13.1296 2.97394 13.0937 2.96586 13.0574 2.96493C13.021 2.96401 12.9848 2.97025 12.9509 2.98331C12.9169 2.99637 12.8859 3.01598 12.8595 3.04104C12.8331 3.0661 12.812 3.0961 12.7972 3.12934C12.7674 3.19648 12.7654 3.27271 12.7918 3.34128C12.8181 3.40985 12.8707 3.46513 12.9378 3.49497C14.9722 4.39872 16.5003 8.14122 16.5003 12.5231C16.5128 14.2005 16.2739 15.8703 15.7916 17.4768C15.7807 17.5114 15.7768 17.5478 15.78 17.5839C15.7833 17.62 15.7936 17.6552 15.8104 17.6873C15.8272 17.7194 15.8502 17.7479 15.878 17.7712C15.9058 17.7944 15.9379 17.8119 15.9725 17.8228C16.0071 17.8336 16.0435 17.8375 16.0796 17.8343C16.1157 17.8311 16.1508 17.8208 16.1829 17.804C16.2151 17.7872 16.2436 17.7642 16.2668 17.7364C16.2901 17.7086 16.3076 17.6764 16.3184 17.6418H16.3128ZM21.5084 17.3718C21.5084 17.1104 21.4309 16.8548 21.2857 16.6375C21.1404 16.4201 20.934 16.2506 20.6924 16.1506C20.4509 16.0505 20.1851 16.0244 19.9287 16.0754C19.6723 16.1264 19.4367 16.2523 19.2519 16.4371C19.067 16.622 18.9411 16.8575 18.8901 17.114C18.8391 17.3704 18.8653 17.6362 18.9653 17.8777C19.0654 18.1192 19.2348 18.3257 19.4522 18.4709C19.6696 18.6162 19.9251 18.6937 20.1866 18.6937C20.3602 18.6937 20.532 18.6595 20.6924 18.5931C20.8528 18.5267 20.9985 18.4293 21.1213 18.3066C21.244 18.1838 21.3414 18.0381 21.4078 17.8777C21.4742 17.7173 21.5084 17.5454 21.5084 17.3718V17.3718ZM20.9553 17.3718C20.9553 17.5239 20.9102 17.6725 20.8258 17.7989C20.7413 17.9254 20.6212 18.0239 20.4808 18.0821C20.3403 18.1403 20.1857 18.1555 20.0366 18.1258C19.8875 18.0962 19.7505 18.0229 19.643 17.9154C19.5355 17.8079 19.4622 17.6709 19.4326 17.5218C19.4029 17.3727 19.4181 17.2181 19.4763 17.0777C19.5345 16.9372 19.633 16.8171 19.7595 16.7327C19.8859 16.6482 20.0345 16.6031 20.1866 16.6031C20.3904 16.6031 20.586 16.6841 20.7302 16.8283C20.8743 16.9724 20.9553 17.168 20.9553 17.3718V17.3718ZM3.81406 18.6937C4.0755 18.6937 4.33108 18.6162 4.54846 18.4709C4.76584 18.3257 4.93527 18.1192 5.03532 17.8777C5.13537 17.6362 5.16154 17.3704 5.11054 17.114C5.05953 16.8575 4.93364 16.622 4.74877 16.4371C4.5639 16.2523 4.32837 16.1264 4.07195 16.0754C3.81553 16.0244 3.54974 16.0505 3.3082 16.1506C3.06666 16.2506 2.86021 16.4201 2.71496 16.6375C2.56971 16.8548 2.49219 17.1104 2.49219 17.3718C2.49219 17.7224 2.63146 18.0587 2.87936 18.3066C3.12726 18.5545 3.46348 18.6937 3.81406 18.6937V18.6937ZM3.81406 18.1406C3.66202 18.1406 3.51339 18.0955 3.38697 18.011C3.26055 17.9266 3.16201 17.8065 3.10383 17.666C3.04565 17.5256 3.03042 17.371 3.06008 17.2219C3.08975 17.0727 3.16296 16.9358 3.27047 16.8283C3.37799 16.7207 3.51496 16.6475 3.66409 16.6179C3.81321 16.5882 3.96778 16.6034 4.10825 16.6616C4.24872 16.7198 4.36878 16.8183 4.45325 16.9447C4.53773 17.0712 4.58281 17.2198 4.58281 17.3718C4.58281 17.5757 4.50182 17.7713 4.35765 17.9154C4.21348 18.0596 4.01795 18.1406 3.81406 18.1406V18.1406Z" fill="black"/>
<path d="M12.0094 4.33711C12.2708 4.33711 12.5264 4.25958 12.7438 4.11433C12.9611 3.96908 13.1306 3.76264 13.2306 3.52109C13.3307 3.27955 13.3569 3.01377 13.3059 2.75735C13.2548 2.50093 13.1289 2.2654 12.9441 2.08053C12.7592 1.89566 12.5237 1.76976 12.2673 1.71876C12.0108 1.66775 11.7451 1.69393 11.5035 1.79398C11.262 1.89403 11.0555 2.06346 10.9103 2.28084C10.765 2.49822 10.6875 2.75379 10.6875 3.01524C10.6875 3.36582 10.8268 3.70204 11.0747 3.94994C11.3226 4.19784 11.6588 4.33711 12.0094 4.33711V4.33711ZM12.0094 3.78399C11.8573 3.78399 11.7087 3.7389 11.5823 3.65443C11.4559 3.56996 11.3573 3.44989 11.2991 3.30942C11.241 3.16895 11.2257 3.01438 11.2554 2.86526C11.2851 2.71614 11.3583 2.57916 11.4658 2.47165C11.5733 2.36414 11.7103 2.29092 11.8594 2.26126C12.0085 2.23159 12.1631 2.24682 12.3036 2.305C12.444 2.36319 12.5641 2.46172 12.6486 2.58814C12.733 2.71456 12.7781 2.86319 12.7781 3.01524C12.7781 3.21912 12.6971 3.41465 12.553 3.55882C12.4088 3.70299 12.2133 3.78399 12.0094 3.78399V3.78399ZM12.2119 13.4571C12.0271 13.4985 11.8341 13.484 11.6576 13.4156C11.481 13.3472 11.3287 13.2278 11.22 13.0728C11.1113 12.9177 11.0511 12.7338 11.047 12.5445C11.043 12.3551 11.0952 12.1689 11.1971 12.0093C11.2991 11.8497 11.4461 11.7239 11.6196 11.648C11.7931 11.572 11.9852 11.5493 12.1716 11.5827C12.358 11.616 12.5303 11.704 12.6667 11.8354C12.803 11.9669 12.8973 12.1358 12.9375 12.3209C12.9911 12.5677 12.9449 12.8257 12.809 13.0386C12.673 13.2515 12.4584 13.402 12.2119 13.4571V13.4571Z" fill="black"/>
</svg>
