<svg width="24" height="24" viewBox="0 0 24 24" fill="none" xmlns="http://www.w3.org/2000/svg">
<g clip-path="url(#clip0)">
<path d="M10.81 1.49935C10.1 1.60935 9.86 1.79935 9.18 2.80935C8.33 4.07935 3.15 13.4693 0.93 17.7593L0 19.5693L0.1 20.0893C0.3 21.1493 1.08 22.1693 1.88 22.4093C2.21 22.4993 2.33 22.4993 2.63 22.3493C3.05 22.1593 3.03 22.1893 6 17.3493C8.41 13.4393 10.17 10.6993 10.94 9.65935C11.53 8.85935 11.82 8.68935 12.25 8.87935C12.69 9.07935 14.69 12.1193 18.76 18.7393C19.8 20.4393 20.77 21.9493 20.92 22.0993C21.84 23.0293 23.46 21.8993 23.8 20.0793L23.9 19.5693L22.96 17.7593C21.38 14.6993 17.66 7.87935 15.74 4.49935C14.63 2.55935 14.18 1.92935 13.7 1.68935C13.29 1.47935 11.64 1.36935 10.81 1.49935Z" fill="black"/>
</g>
<defs>
<clipPath id="clip0">
<rect width="24" height="24" fill="white"/>
</clipPath>
</defs>
</svg>
