<svg version="1.2" baseProfile="tiny-ps" xmlns="http://www.w3.org/2000/svg" viewBox="0 0 240 240" width="128" height="128">
	<title>expo-svg</title>
	<style>
		tspan { white-space:pre }
		.shp0 { fill: #000000 } 
	</style>
	<g id="Layer">
		<path id="Layer" class="shp0" d="M108.1 15C101 16.1 98.6 18 91.8 28.1C83.3 40.8 31.5 134.7 9.3 177.6L0 195.7L1 200.9C3 211.5 10.8 221.7 18.8 224.1C22.1 225 23.3 225 26.3 223.5C30.5 221.6 30.3 221.9 60 173.5C84.1 134.4 101.7 107 109.4 96.6C115.3 88.6 118.2 86.9 122.5 88.8C126.9 90.8 146.9 121.2 187.6 187.4C198 204.4 207.7 219.5 209.2 221C218.4 230.3 234.6 219 238 200.8L239 195.7L229.6 177.6C213.8 147 176.6 78.8 157.4 45C146.3 25.6 141.8 19.3 137 16.9C132.9 14.8 116.4 13.7 108.1 15Z" />
	</g>
</svg>