<svg width="24" height="24" viewBox="0 0 24 24" fill="none" xmlns="http://www.w3.org/2000/svg">
<path d="M23.7491 18.4562C22.8941 18.6737 22.3653 18.4655 21.8909 17.753C20.8259 16.1574 19.6503 14.6349 18.5159 13.0843C18.3697 12.8837 18.2178 12.6868 18.0284 12.4374C16.6859 14.2487 15.3453 15.9737 14.0872 17.768C13.6372 18.4093 13.1647 18.6887 12.3247 18.4618L17.3722 11.6874L12.6734 5.56928C13.4816 5.41178 14.0403 5.49241 14.5353 6.21616C15.6284 7.81366 16.8341 9.33428 18.0359 10.943C19.2453 9.33991 20.4359 7.81741 21.5609 6.23491C22.0128 5.59366 22.4984 5.34991 23.3103 5.58616C22.6953 6.40178 22.0934 7.20428 21.4878 8.00116C20.6703 9.07553 19.8678 10.163 19.0203 11.2149C18.7184 11.5899 18.7672 11.8337 19.0372 12.188C20.6047 14.2487 22.1534 16.3299 23.7491 18.4562ZM0.247813 11.5749C0.382813 10.898 0.472813 10.208 0.660313 9.54428C1.78531 5.52616 6.39781 3.85553 9.56656 6.34553C11.4228 7.80616 11.8841 9.86491 11.7922 12.1862H1.32969C1.17219 16.3505 4.17031 18.8649 7.99156 17.5824C9.33219 17.1324 10.1216 16.0824 10.5172 14.7699C10.7178 14.1118 11.0497 14.0087 11.6684 14.1962C11.3516 15.8387 10.6334 17.2112 9.13344 18.0699C6.88344 19.3562 3.67156 18.9399 1.98219 17.153C0.984687 16.103 0.560938 14.7962 0.373438 13.3843C0.345313 13.1593 0.287187 12.938 0.242188 12.7149C0.245937 12.3349 0.247813 11.9549 0.247813 11.5749V11.5749ZM1.34844 11.2955H10.8041C10.7422 8.28428 8.86719 6.14491 6.30406 6.12616C3.49156 6.10366 1.47031 8.19241 1.34844 11.2955V11.2955Z" fill="black"/>
</svg>
