<svg width="24" height="24" viewBox="0 0 24 24" fill="none" xmlns="http://www.w3.org/2000/svg">
<path d="M5.12781 15.0967L7.13031 2.26416C7.19969 1.82728 7.78656 1.72228 7.99281 2.11416L10.1453 6.14166L5.12781 15.0967V15.0967ZM19.3666 18.2148L17.4559 6.39478C17.3978 6.02728 16.9384 5.87728 16.6741 6.14166L4.63281 18.2148L11.2966 21.9554C11.5028 22.0689 11.7343 22.1284 11.9697 22.1284C12.2051 22.1284 12.4366 22.0689 12.6428 21.9554L19.3666 18.2148V18.2148ZM13.9572 7.90228L12.4141 4.96791C12.2416 4.63416 11.7691 4.63416 11.5966 4.96791L4.81844 17.0523L13.9572 7.90228V7.90228Z" fill="black"/>
</svg>
