<svg width="24" height="24" viewBox="0 0 24 24" fill="none" xmlns="http://www.w3.org/2000/svg">
<path d="M23.3885 10.9462L13.054 0.612359C12.4593 0.0172344 11.494 0.0172344 10.8983 0.612359L8.75277 2.75848L11.4749 5.48061C12.1077 5.26705 12.833 5.4103 13.3371 5.91448C13.5774 6.15498 13.7452 6.45824 13.8212 6.78958C13.8972 7.12093 13.8785 7.46698 13.7671 7.78817L16.3906 10.412C17.0253 10.1932 17.7578 10.3346 18.2645 10.8424C18.9732 11.5505 18.9732 12.6986 18.2645 13.4072C18.096 13.5757 17.8961 13.7094 17.6759 13.8006C17.4558 13.8918 17.2199 13.9387 16.9817 13.9387C16.7434 13.9387 16.5075 13.8918 16.2874 13.8006C16.0673 13.7094 15.8673 13.5757 15.6989 13.4072C15.4458 13.154 15.2733 12.8316 15.2031 12.4805C15.1329 12.1295 15.1681 11.7656 15.3042 11.4345L12.8577 8.9878L12.8573 15.4267C13.0348 15.5141 13.1969 15.6299 13.3371 15.7695C14.0457 16.4777 14.0457 17.6254 13.3371 18.335C12.6286 19.0432 11.4801 19.0432 10.7723 18.335C10.064 17.6255 10.0058 16.4779 10.714 15.7695C10.8891 15.5945 11.0618 15.4624 11.2493 15.3739V8.8753C11.0618 8.7868 10.8893 8.65555 10.7138 8.47948C10.1774 7.94323 10.0771 7.15573 10.3523 6.49648L7.68365 3.8128L0.60477 10.8984C0.00945754 11.4941 0.0132075 12.4594 0.60852 13.0547L10.9446 23.3885C11.5396 23.9837 12.5056 23.9837 13.1015 23.3885L23.3877 13.1027C23.983 12.5072 23.9836 11.5414 23.3885 10.9462V10.9462Z" fill="black"/>
</svg>
