<svg width="24" height="24" viewBox="0 0 24 24" fill="none" xmlns="http://www.w3.org/2000/svg">
<path fill-rule="evenodd" clip-rule="evenodd" d="M12.0005 0.957031C5.74792 0.957031 0.677734 6.02609 0.677734 12.2798C0.677734 17.2827 3.92205 21.5267 8.42092 23.0241C8.98661 23.1291 9.19436 22.7785 9.19436 22.4794C9.19436 22.2094 9.18386 21.3175 9.17898 20.3713C6.02898 21.0563 5.3643 19.0354 5.3643 19.0354C4.84923 17.7267 4.10711 17.3787 4.10711 17.3787C3.07961 16.6759 4.18455 16.6905 4.18455 16.6905C5.32136 16.7702 5.92023 17.8573 5.92023 17.8573C6.93011 19.588 8.56905 19.0877 9.21517 18.7986C9.3168 18.0668 9.61023 17.5671 9.93405 17.2843C7.41911 16.9984 4.77517 16.0273 4.77517 11.6888C4.77517 10.4526 5.21767 9.44253 5.94198 8.64941C5.82423 8.36441 5.43667 7.21278 6.05148 5.65316C6.05148 5.65316 7.00211 5.34884 9.16586 6.81378C10.0692 6.56272 11.038 6.43653 12.0005 6.43222C12.9624 6.43653 13.9317 6.56234 14.8368 6.81341C16.9979 5.34847 17.9474 5.65278 17.9474 5.65278C18.5637 7.21222 18.1762 8.36403 18.0586 8.64903C18.7846 9.44216 19.2239 10.4522 19.2239 11.6884C19.2239 16.0373 16.5751 16.9947 14.0538 17.2752C14.4601 17.6265 14.822 18.3158 14.822 19.372C14.822 20.887 14.8089 22.1063 14.8089 22.4792C14.8089 22.7805 15.0129 23.1336 15.5866 23.0224C20.0829 21.5235 23.3234 17.2808 23.3234 12.2798C23.3232 6.02647 18.2536 0.957219 12.0005 0.957219V0.957031Z" fill="black"/>
<path d="M4.96555 17.2132C4.94061 17.2694 4.85211 17.2863 4.77149 17.2478C4.68899 17.2111 4.64305 17.1344 4.66968 17.078C4.69405 17.0198 4.78274 17.0039 4.86468 17.0427C4.94718 17.0797 4.99405 17.1571 4.96536 17.2133L4.96555 17.2132ZM5.42418 17.7248C5.37036 17.7749 5.2648 17.7517 5.19318 17.6723C5.11893 17.5936 5.10505 17.488 5.15999 17.4372C5.21586 17.3873 5.31824 17.411 5.39249 17.4897C5.46636 17.5696 5.48099 17.6742 5.42436 17.725L5.42418 17.7248ZM5.8708 18.3768C5.80142 18.4252 5.6878 18.38 5.61767 18.2793C5.5483 18.1784 5.5483 18.0575 5.61955 18.0093C5.68949 17.9609 5.80142 18.0046 5.87267 18.1043C5.94167 18.2065 5.94167 18.3275 5.8708 18.3766V18.3768ZM6.48224 19.007C6.42036 19.0754 6.28799 19.057 6.19124 18.9638C6.09242 18.8725 6.06486 18.7426 6.12692 18.6743C6.18992 18.6057 6.32286 18.6248 6.42017 18.7175C6.51899 18.8086 6.5488 18.9387 6.48261 19.0068L6.48224 19.007ZM7.32599 19.3728C7.29842 19.4615 7.1713 19.5018 7.04286 19.4639C6.9148 19.4251 6.83099 19.3214 6.85724 19.2318C6.88349 19.1423 7.01155 19.1005 7.14074 19.1408C7.2688 19.1795 7.35261 19.2826 7.32599 19.3728ZM8.2528 19.4405C8.25599 19.5338 8.14724 19.6111 8.0128 19.613C7.87724 19.6162 7.76755 19.5404 7.76624 19.4485C7.76624 19.3542 7.87274 19.2779 8.00811 19.2753C8.14255 19.2728 8.25299 19.3478 8.25299 19.4403L8.2528 19.4405ZM9.11492 19.2938C9.13105 19.3848 9.03749 19.4783 8.9038 19.5033C8.77255 19.5276 8.65067 19.471 8.6338 19.3808C8.61767 19.2875 8.71292 19.1939 8.84417 19.1697C8.97805 19.1466 9.09805 19.2016 9.11492 19.294V19.2938Z" fill="black"/>
</svg>
