<svg width="24" height="24" viewBox="0 0 24 24" fill="none" xmlns="http://www.w3.org/2000/svg">
<path d="M23.7408 13.5593L22.4219 9.5007L19.8081 1.45657C19.7069 1.14495 19.3506 1.06845 19.123 1.22595C19.048 1.2777 18.9873 1.38589 18.9539 1.48807L16.3399 9.5637H7.66094L5.92919 4.20307L5.04738 1.47251C5.03175 1.42124 5.00822 1.37272 4.97763 1.3287C4.96301 1.3092 4.94388 1.29232 4.92701 1.2762C4.75132 1.10932 4.46482 1.11195 4.29701 1.2897C4.24995 1.33691 4.2143 1.39424 4.19276 1.45732L1.57901 9.50107L1.02663 11.2013L0.260131 13.5593C0.21409 13.702 0.204554 13.8539 0.232397 14.0011C0.26024 14.1484 0.324572 14.2863 0.419506 14.4023C0.468256 14.4618 0.522631 14.5173 0.586381 14.5636L12.0004 22.8565L23.4143 14.5639C23.5679 14.4525 23.6823 14.2953 23.7409 14.1148C23.7995 13.9343 23.7994 13.7399 23.7406 13.5595L23.7408 13.5593Z" fill="black"/>
</svg>
