<?xml version="1.0" encoding="utf-8"?>
<!-- Generator: Adobe Illustrator 24.2.0, SVG Export Plug-In . SVG Version: 6.00 Build 0)  -->
<svg version="1.0" id="Layer_1" xmlns="http://www.w3.org/2000/svg" xmlns:xlink="http://www.w3.org/1999/xlink" x="0px" y="0px"
	 viewBox="0 0 300 280" enable-background="new 0 0 300 280" xml:space="preserve">
<g>
	<path fill="#56C2F0" d="M58.07,124.05c-0.42,0-0.53-0.21-0.32-0.53l2.21-2.85c0.21-0.32,0.74-0.53,1.16-0.53h37.64
		c0.42,0,0.53,0.32,0.32,0.63l-1.79,2.74c-0.21,0.32-0.74,0.63-1.05,0.63L58.07,124.05z M42.15,133.74c-0.42,0-0.53-0.21-0.32-0.53
		l2.21-2.85c0.21-0.32,0.74-0.53,1.16-0.53h48.08c0.42,0,0.63,0.32,0.53,0.63l-0.84,2.53c-0.11,0.42-0.53,0.63-0.95,0.63
		L42.15,133.74z M67.66,143.44c-0.42,0-0.53-0.32-0.32-0.63l1.48-2.64c0.21-0.32,0.63-0.63,1.05-0.63h21.09
		c0.42,0,0.63,0.32,0.63,0.74l-0.21,2.53c0,0.42-0.42,0.74-0.74,0.74L67.66,143.44z M177.1,122.15c-6.64,1.69-11.18,2.95-17.71,4.64
		c-1.58,0.42-1.69,0.53-3.06-1.05c-1.58-1.79-2.74-2.95-4.96-4.01c-6.64-3.27-13.07-2.32-19.08,1.58
		c-7.17,4.64-10.86,11.49-10.75,20.03c0.11,8.43,5.9,15.39,14.23,16.55c7.17,0.95,13.18-1.58,17.92-6.96
		c0.95-1.16,1.79-2.42,2.85-3.9h-20.35c-2.21,0-2.74-1.37-2-3.16c1.37-3.27,3.9-8.75,5.38-11.49c0.32-0.63,1.05-1.69,2.64-1.69
		h38.38c-0.21,2.85-0.21,5.69-0.63,8.54c-1.16,7.59-4.01,14.55-8.65,20.66c-7.59,10.02-17.5,16.24-30.05,17.92
		c-10.33,1.37-19.93-0.63-28.36-6.96c-7.8-5.9-12.23-13.71-13.39-23.41c-1.37-11.49,2-21.82,8.96-30.89
		c7.49-9.81,17.4-16.03,29.52-18.24c9.91-1.79,19.4-0.63,27.94,5.17c5.59,3.69,9.59,8.75,12.23,14.87
		C178.79,121.3,178.37,121.83,177.1,122.15z"/>
	<path fill="#56C2F0" d="M212,180.45c-9.59-0.21-18.35-2.95-25.73-9.28c-6.22-5.38-10.12-12.23-11.39-20.35
		c-1.9-11.91,1.37-22.46,8.54-31.84c7.7-10.12,16.97-15.39,29.52-17.61c10.75-1.9,20.88-0.84,30.05,5.38
		c8.33,5.69,13.5,13.39,14.87,23.51c1.79,14.23-2.32,25.83-12.12,35.74c-6.96,7.06-15.5,11.49-25.3,13.5
		C217.59,180.03,214.74,180.13,212,180.45L212,180.45z M237.09,137.86c-0.11-1.37-0.11-2.42-0.32-3.48
		c-1.9-10.44-11.49-16.34-21.51-14.02c-9.81,2.21-16.13,8.43-18.45,18.35c-1.9,8.22,2.11,16.55,9.7,19.93
		c5.8,2.53,11.6,2.21,17.19-0.63C232.03,153.67,236.57,146.92,237.09,137.86L237.09,137.86z"/>
</g>
</svg>
