<svg width="24" height="24" viewBox="0 0 24 24" fill="none" xmlns="http://www.w3.org/2000/svg">
<path d="M4.64539 10.6343C4.61179 10.6343 4.60299 10.6163 4.61979 10.5889L4.79659 10.3446C4.81339 10.3171 4.85579 10.2991 4.88939 10.2991H7.90059C7.93419 10.2991 7.94299 10.3266 7.92619 10.3531L7.78299 10.588C7.76619 10.6154 7.72379 10.642 7.69899 10.642L4.64539 10.6343ZM3.37179 11.4649C3.33819 11.4649 3.32939 11.4469 3.34619 11.4194L3.52299 11.1751C3.53979 11.1477 3.58219 11.1297 3.61579 11.1297H7.46219C7.49579 11.1297 7.51259 11.1571 7.50459 11.1837L7.43739 11.4006C7.42859 11.4366 7.39499 11.4546 7.36139 11.4546L3.37179 11.4649ZM5.41259 12.2963C5.37899 12.2963 5.37019 12.2689 5.38699 12.2423L5.50539 12.016C5.52219 11.9886 5.55579 11.962 5.58939 11.962H7.27659C7.31019 11.962 7.32699 11.9894 7.32699 12.0254L7.31019 12.2423C7.31019 12.2783 7.27659 12.3057 7.25099 12.3057L5.41259 12.2963ZM14.1678 10.4714C13.6366 10.6163 13.2734 10.7243 12.751 10.8691C12.6246 10.9051 12.6158 10.9146 12.5062 10.7791C12.3798 10.6257 12.287 10.5263 12.1094 10.4354C11.5782 10.1551 11.0638 10.2366 10.583 10.5709C10.0094 10.9686 9.71419 11.5557 9.72299 12.2877C9.73179 13.0103 10.195 13.6069 10.8614 13.7063C11.435 13.7877 11.9158 13.5709 12.295 13.1097C12.371 13.0103 12.4382 12.9023 12.523 12.7754H10.895C10.7182 12.7754 10.6758 12.658 10.735 12.5046C10.8446 12.2243 11.047 11.7546 11.1654 11.5197C11.191 11.4657 11.2494 11.3749 11.3766 11.3749H14.447C14.4302 11.6191 14.4302 11.8626 14.3966 12.1069C14.3038 12.7574 14.0758 13.354 13.7046 13.8777C13.0974 14.7366 12.3046 15.2697 11.3006 15.4137C10.4742 15.5311 9.70619 15.3597 9.03179 14.8171C8.40779 14.3114 8.05339 13.642 7.96059 12.8106C7.85099 11.8257 8.12059 10.9403 8.67739 10.1629C9.27659 9.322 10.0694 8.78886 11.039 8.59943C11.8318 8.446 12.591 8.54543 13.2742 9.04258C13.7214 9.35886 14.0414 9.79257 14.2526 10.3171C14.303 10.3986 14.2694 10.444 14.1678 10.4714Z" fill="black"/>
<path d="M16.9614 15.4685C16.1942 15.4505 15.4934 15.2157 14.903 14.6731C14.4054 14.212 14.0934 13.6248 13.9918 12.9288C13.8398 11.908 14.1014 11.0037 14.675 10.1997C15.291 9.33226 16.0326 8.88055 17.0366 8.69026C17.8966 8.52741 18.707 8.61826 19.4406 9.1514C20.107 9.63912 20.5206 10.2991 20.6302 11.1665C20.7734 12.3863 20.4446 13.3805 19.6606 14.23C19.1038 14.8351 18.4206 15.2148 17.6366 15.3871C17.4086 15.4325 17.1806 15.4411 16.9614 15.4685ZM18.9686 11.818C18.9598 11.7005 18.9598 11.6105 18.943 11.5197C18.791 10.6248 18.0238 10.1191 17.2222 10.318C16.4374 10.5074 15.9318 11.0405 15.7462 11.8908C15.5942 12.5954 15.915 13.3094 16.5222 13.5991C16.9862 13.816 17.4502 13.7885 17.8974 13.5451C18.5638 13.1731 18.927 12.5945 18.9686 11.818Z" fill="black"/>
</svg>
