<svg width="24" height="24" viewBox="0 0 24 24" fill="none" xmlns="http://www.w3.org/2000/svg">
<path d="M15.1141 7.55619H15.1891L15.1516 7.51869L17.7766 4.89369V4.83744C15.5641 2.88744 12.5078 2.21244 9.67656 3.05619C6.84531 3.89994 4.67031 6.14994 3.88281 8.99994C3.92031 8.98119 3.97656 8.96244 4.03281 8.96244C5.00781 8.32494 6.17031 7.94994 7.38906 7.94994C7.80156 7.94994 8.19531 7.98744 8.58906 8.06244C8.60781 8.04369 8.62656 8.04369 8.64531 8.04369C10.3328 6.18744 13.1828 5.96244 15.1328 7.55619H15.1141Z" fill="black"/>
<path d="M20.2691 8.96211C19.8379 7.36836 18.9379 5.92461 17.6816 4.81836L15.0004 7.48086C16.1254 8.39961 16.7816 9.78711 16.7441 11.2309V11.6996C19.9129 11.6996 19.9129 16.4246 16.7441 16.4246H11.9816V20.1746H11.9629L11.9816 20.2121H16.7441C19.4816 20.2309 21.9004 18.4684 22.7066 15.8809C23.5129 13.2934 22.5191 10.4809 20.2691 8.96211V8.96211Z" fill="black"/>
<path d="M7.31172 20.232H12.243V16.4445H7.31172C6.95547 16.4445 6.61797 16.3695 6.29922 16.2383L3.44922 18.9758V19.0133C4.57422 19.8195 5.92422 20.2508 7.33047 20.2508L7.31172 20.232Z" fill="black"/>
<path d="M7.53772 7.85547C4.74397 7.87422 2.26897 9.59922 1.36897 12.1305C0.46897 14.6805 1.36897 17.4742 3.58147 19.1242L6.50647 16.3305C4.89397 15.6367 4.51897 13.6117 5.75647 12.4305C6.99397 11.2305 9.09397 11.6055 9.82522 13.143L12.7502 10.3492C11.5127 8.79297 9.58147 7.87422 7.53772 7.89297V7.85547Z" fill="black"/>
</svg>
