<svg width="24" height="24" viewBox="0 0 24 24" fill="none" xmlns="http://www.w3.org/2000/svg">
<path d="M19.1437 0.375H4.85625C3.61875 0.375 2.625 1.36875 2.625 2.60625V21.4125C2.625 22.65 3.61875 23.6437 4.85625 23.6437H19.1625C20.4 23.6437 21.3937 22.65 21.3937 21.4125V2.60625C21.375 1.36875 20.3812 0.375 19.1437 0.375ZM6.9375 20.3812V15.0938L9.58125 17.7375L6.9375 20.3812ZM16.875 20.4375H14.4188L14.4375 20.4V11.1375C14.4375 11.1375 15.0187 8.925 6.99375 12.0375C6.975 12.075 6.95625 3.46875 6.95625 3.46875L9.5625 3.45V8.9625C9.5625 8.9625 16.875 6.075 16.875 11.1562V20.4375ZM15.9 6.75H13.125C14.1188 5.625 15.0375 3.5625 15.0375 3.5625H17.9062C17.9062 3.5625 17.4188 4.875 15.9 6.75Z" fill="black"/>
</svg>
