<svg width="24" height="24" viewBox="0 0 24 24" fill="none" xmlns="http://www.w3.org/2000/svg">
<g clip-path="url(#clip0_504:7)">
<path d="M0 12V0H12H24V12V24H12H0V12ZM11.4286 19.95V19.2H6.91729H2.40601V19.95V20.7H6.91729H11.4286V19.95ZM14.3721 13.2224C15.5217 12.9675 16.2942 12.2133 16.6696 10.9796C16.8047 10.5355 16.8067 10.483 16.8275 6.67366L16.8486 2.81733L15.7175 2.83366L14.5865 2.85L14.5564 6.57L14.5263 10.29L14.3837 10.579C14.2941 10.7605 14.1504 10.9278 13.9971 11.029C13.7801 11.1722 13.6963 11.19 13.2375 11.19C12.6128 11.19 12.3462 11.0782 11.8047 10.5895L11.4405 10.2607L10.7729 11.0246C10.4057 11.4448 10.1053 11.8118 10.1053 11.8401C10.1053 11.9364 10.8167 12.5691 11.154 12.7726C12.0582 13.3184 13.212 13.4796 14.3721 13.2224L14.3721 13.2224ZM8.42105 12.21V11.22H7.66917H6.91729V8.01V4.8H7.66917H8.42105V3.81V2.82H5.86466H3.30827V3.81V4.8H4.06015H4.81203V8.01V11.22H4.06015H3.30827V12.21V13.2H5.86466H8.42105V12.21Z" fill="black"/>
</g>
<defs>
<clipPath id="clip0_504:7">
<rect width="24" height="24" fill="white"/>
</clipPath>
</defs>
</svg>
