<svg width="24" height="24" viewBox="0 0 24 24" fill="none" xmlns="http://www.w3.org/2000/svg">
<path d="M11.9994 16.5163C14.4929 16.5163 16.5144 14.4949 16.5144 12.0013C16.5144 9.50776 14.4929 7.48633 11.9994 7.48633C9.50581 7.48633 7.48438 9.50776 7.48438 12.0013C7.48438 14.4949 9.50581 16.5163 11.9994 16.5163Z" fill="black"/>
<path d="M21.2143 4.34017C21.2148 4.04241 21.1295 3.75082 20.9686 3.50024C20.8078 3.24966 20.5782 3.05068 20.3073 2.9271C20.0364 2.80351 19.7356 2.76054 19.441 2.80331C19.1463 2.84608 18.8702 2.97279 18.6456 3.1683C16.4084 1.48495 13.6163 0.712444 10.8321 1.00655C8.04783 1.30065 5.47868 2.63949 3.64264 4.7531C1.80661 6.86671 0.840257 9.59786 0.938453 12.3958C1.03665 15.1938 2.19208 17.8505 4.17178 19.8302C6.15147 21.8099 8.80816 22.9653 11.6061 23.0635C14.4041 23.1617 17.1353 22.1954 19.2489 20.3593C21.3625 18.5233 22.7013 15.9542 22.9954 13.1699C23.2895 10.3857 22.517 7.59354 20.8337 5.35642C21.0793 5.07484 21.2145 4.7138 21.2143 4.34017V4.34017ZM12.0006 22.6889C10.3073 22.6903 8.63788 22.2893 7.12994 21.519C5.622 20.7487 4.31868 19.6311 3.32734 18.2584C2.33601 16.8856 1.68505 15.2969 1.4281 13.6232C1.17115 11.9495 1.31556 10.2388 1.84943 8.63182C2.38329 7.02489 3.29135 5.56781 4.49876 4.38063C5.70618 3.19345 7.1784 2.31015 8.79413 1.80352C10.4099 1.29688 12.1228 1.18141 13.7919 1.46661C15.461 1.75182 17.0385 2.42953 18.3943 3.44392C18.1825 3.74259 18.0831 4.1066 18.114 4.47148C18.1448 4.83636 18.3037 5.17856 18.5626 5.43749C18.8216 5.69641 19.1638 5.85535 19.5286 5.88616C19.8935 5.91696 20.2575 5.81765 20.5562 5.6058C21.7425 7.19407 22.4637 9.08099 22.6391 11.0556C22.8146 13.0303 22.4373 15.0148 21.5496 16.7873C20.6619 18.5598 19.2986 20.0506 17.6123 21.0928C15.926 22.135 13.983 22.6876 12.0006 22.6889Z" fill="black"/>
</svg>
