<svg width="24" height="24" viewBox="0 0 24 24" fill="none" xmlns="http://www.w3.org/2000/svg">
<path d="M8.92816 18.3968C5.32966 19.4022 11.1176 21.4791 15.6997 19.516C14.9492 19.2242 14.4109 18.8877 14.4109 18.8877C12.3677 19.2739 11.4198 19.3043 9.5651 19.0924C8.03435 18.9171 8.92816 18.3968 8.92816 18.3968V18.3968ZM15.1511 16.4356C12.4428 16.9566 10.8785 16.9399 8.89722 16.7356C7.36516 16.5771 8.3681 15.8346 8.3681 15.8346C4.40491 17.1501 10.5744 18.6428 16.1135 17.0226C15.5248 16.8153 15.1511 16.4356 15.1511 16.4356V16.4356ZM17.2734 5.07775C17.2736 5.07775 9.26135 7.07819 13.0879 11.4878C14.2174 12.7881 12.7916 13.9572 12.7916 13.9572C12.7916 13.9572 15.6583 12.4776 14.342 10.624C13.1122 8.89619 12.1695 8.03781 17.2734 5.07775ZM19.148 20.2922C19.148 20.2922 19.8097 20.8379 18.419 21.2596C15.7749 22.0606 7.41166 22.3021 5.08872 21.2916C4.25435 20.9283 5.81979 20.4244 6.31235 20.3181C6.82591 20.2069 7.11916 20.2272 7.11916 20.2272C6.19066 19.5734 1.11672 21.5116 4.54254 22.0675C13.884 23.5818 21.5707 21.3856 19.148 20.2922V20.2922ZM15.9375 14.6048C16.3865 14.2984 17.0068 14.0324 17.0068 14.0324C17.0068 14.0324 15.2398 14.3483 13.4793 14.4963C11.3242 14.677 9.01254 14.7126 7.8521 14.5574C5.10485 14.1901 9.35829 13.1796 9.35829 13.1796C9.35829 13.1796 7.70604 13.0679 5.67504 14.0504C3.27279 15.2119 11.6171 15.7414 15.9375 14.6048ZM16.9892 17.4445C16.9689 17.4989 16.9014 17.56 16.9014 17.56C22.7651 16.0186 20.6092 12.1264 17.8055 13.1116C17.5595 13.1986 17.4305 13.4009 17.4305 13.4009C17.4305 13.4009 17.586 13.3382 17.9327 13.2659C19.35 12.9706 21.3806 15.1632 16.9892 17.4445ZM12.0339 13.1373C11.1688 11.1818 8.23516 9.47106 12.0352 6.46994C16.7735 2.72987 14.3422 0.296875 14.3422 0.296875C15.3228 4.16087 10.8827 5.32806 9.27991 7.73444C8.18847 9.37412 9.8156 11.1361 12.0339 13.1373V13.1373ZM17.1478 22.84C13.5502 23.5173 9.11266 23.4383 6.48148 23.0039C6.48148 23.0039 7.02035 23.4501 9.7901 23.6284C14.0044 23.8979 20.4776 23.4784 20.6306 21.4842C20.6308 21.4842 20.3362 22.2402 17.1478 22.84Z" fill="black"/>
</svg>
