<svg width="24" height="24" viewBox="0 0 24 24" fill="none" xmlns="http://www.w3.org/2000/svg">
<path d="M12.2395 20.0496C12.0842 20.0145 11.9333 19.9659 11.7818 19.9211L11.6676 19.8864C11.5198 19.8411 11.3728 19.7933 11.2266 19.743L11.166 19.7211C11.0357 19.675 10.906 19.6269 10.7772 19.5769L10.668 19.5339C10.527 19.4782 10.3868 19.4201 10.2484 19.3594L10.1646 19.3223C10.0459 19.2686 9.92785 19.2137 9.81041 19.1574L9.70803 19.1083C9.61597 19.0635 9.52485 19.0159 9.4341 18.969C9.37335 18.9369 9.31147 18.9067 9.25128 18.8734C9.14078 18.8139 9.03133 18.7525 8.92297 18.6892L8.81216 18.6274C8.66821 18.5425 8.52569 18.4551 8.38466 18.3654L8.26935 18.2886C8.16678 18.2228 8.06533 18.1554 7.96503 18.0862L7.86697 18.0174C7.7704 17.9491 7.67452 17.8798 7.57935 17.8095L7.45203 17.7131C7.36465 17.6466 7.27814 17.579 7.19253 17.5103L7.07685 17.4174C6.9679 17.3281 6.86014 17.2372 6.7536 17.145L6.71835 17.1152C6.60355 17.014 6.49029 16.911 6.3786 16.8064L6.28297 16.7143C6.20028 16.6356 6.11891 16.5562 6.03885 16.4749L5.94322 16.3794C5.8416 16.2754 5.74165 16.1698 5.64341 16.0626L5.62878 16.0468C5.52533 15.9335 5.424 15.8182 5.32485 15.7011L5.24535 15.6066C5.17117 15.5174 5.09823 15.4273 5.02653 15.3362L4.94647 15.2364C4.86068 15.1255 4.77649 15.0134 4.69391 14.9001C2.41578 11.7924 1.59716 7.50656 3.41816 3.98681L1.8036 6.0345C-0.264341 9.00656 -0.00690368 12.8737 1.57278 16.032C1.61028 16.1077 1.64985 16.1822 1.68847 16.2566L1.76253 16.3989L1.80847 16.4809L1.89078 16.6282C1.93991 16.7147 1.99016 16.8007 2.04172 16.8868L2.1276 17.0286C2.1846 17.1206 2.24291 17.2116 2.30272 17.3023L2.37735 17.4174C2.45947 17.5402 2.54385 17.6629 2.63085 17.7833L2.63816 17.7926L2.68091 17.8504C2.75591 17.9541 2.83353 18.0564 2.91191 18.1577L2.99872 18.2683C3.06866 18.3562 3.13972 18.4436 3.21228 18.5306L3.29385 18.6281C3.39115 18.743 3.49029 18.8562 3.59122 18.9679L3.59722 18.9741L3.60885 18.9868C3.708 19.0945 3.80876 19.2007 3.9111 19.3054L4.00803 19.4031C4.08735 19.4829 4.16797 19.5615 4.24935 19.6397L4.34797 19.7334C4.45672 19.836 4.5666 19.9365 4.67872 20.0347L4.68397 20.0389L4.74153 20.088C4.84016 20.1735 4.94066 20.2584 5.0421 20.3417L5.1666 20.4409C5.24928 20.5072 5.33291 20.5725 5.4171 20.6366L5.55097 20.7384C5.64378 20.8069 5.73753 20.8742 5.83203 20.94L5.93441 21.0126L5.96253 21.0326C6.05216 21.0943 6.14385 21.1538 6.23553 21.2132L6.35366 21.2919C6.4941 21.3808 6.63678 21.4687 6.78078 21.5537L6.89891 21.6202C7.00505 21.6816 7.112 21.7415 7.21972 21.8001C7.27822 21.8316 7.33822 21.8614 7.3971 21.8916C7.47341 21.9315 7.54916 21.972 7.62678 22.0108L7.67985 22.0365L7.77378 22.0819C7.89397 22.1392 8.0151 22.1957 8.13753 22.2501L8.21441 22.2846C8.35476 22.346 8.49622 22.4048 8.63872 22.461L8.74203 22.5017C8.87403 22.5525 9.00791 22.6027 9.14235 22.65L9.1926 22.6674C9.33997 22.719 9.48903 22.7668 9.63903 22.8135L9.74685 22.8458C9.89947 22.8917 10.0502 22.9466 10.2077 22.9757C20.2088 24.7995 23.1139 16.9658 23.1139 16.9658C20.6738 20.1446 16.3429 20.9831 12.2395 20.0496V20.0496ZM8.63685 11.9437C8.86091 12.2649 9.10935 12.6471 9.40653 12.9051C9.51527 13.0242 9.62719 13.1403 9.74216 13.2534L9.83066 13.3406C9.94237 13.4494 10.0567 13.5556 10.1734 13.659L10.1873 13.671L10.1907 13.6744C10.3213 13.7881 10.4548 13.8986 10.591 14.0057L10.6817 14.0766C10.8187 14.1821 10.9583 14.284 11.1004 14.3824L11.1126 14.3916C11.1756 14.4351 11.2399 14.4756 11.3038 14.5176L11.3942 14.5774C11.4962 14.6428 11.5997 14.7066 11.7047 14.7677L11.7486 14.7932C11.8392 14.8453 11.931 14.8967 12.0229 14.9466L12.1206 14.9974C12.1842 15.0306 12.2477 15.0645 12.3126 15.0967L12.3417 15.1099C12.4733 15.1747 12.6062 15.2374 12.7422 15.2964L12.8307 15.3328C12.9392 15.3792 13.0486 15.4236 13.1588 15.4659L13.2994 15.5175C13.3993 15.5546 13.4997 15.5884 13.6009 15.6223L13.7372 15.666C13.881 15.7106 14.0232 15.7671 14.173 15.792C21.8948 17.0713 23.6773 11.1259 23.6773 11.1259C22.0705 13.4402 18.9583 14.5446 15.6375 13.6824C15.4907 13.6438 15.3449 13.6017 15.2001 13.5561L15.0688 13.5135C14.9662 13.4803 14.8642 13.4452 14.7628 13.4081L14.6248 13.3568C14.5144 13.3143 14.4046 13.2701 14.2956 13.224L14.2069 13.1865C14.0711 13.1274 13.9368 13.0649 13.8042 12.9992C13.7359 12.966 13.669 12.9309 13.602 12.8964L13.4854 12.8364C13.3994 12.7898 13.3142 12.7417 13.2298 12.6921L13.1687 12.6574C13.0643 12.5965 12.9612 12.5335 12.8593 12.4684L12.766 12.4061C12.6987 12.3626 12.6319 12.3184 12.5655 12.2736C12.424 12.1751 12.2849 12.0733 12.1482 11.9683L12.0542 11.8942C10.6007 10.7467 9.44853 9.17812 8.90066 7.39969C8.32653 5.55544 8.45047 3.48506 9.44497 1.80469L8.22303 3.52969C6.72735 5.68181 6.80872 8.56294 7.97535 10.839C8.17046 11.2219 8.39147 11.591 8.63685 11.9437V11.9437ZM16.7757 9.28144C16.8392 9.30487 16.9028 9.32587 16.9673 9.34781L17.0518 9.37462C17.1426 9.40312 17.233 9.43631 17.3269 9.45412C21.5905 10.278 22.7472 7.26619 23.0548 6.82275C22.0418 8.28131 20.3395 8.63137 18.2505 8.12437C18.0855 8.08444 17.904 8.02481 17.745 7.96837C17.5408 7.89581 17.3404 7.81263 17.1448 7.71919C16.7737 7.54055 16.4212 7.3255 16.0926 7.07719C14.2234 5.65875 13.0622 2.95331 14.2819 0.75L13.6219 1.65956C12.7403 2.95706 12.6537 4.56844 13.2655 6.00131C13.9107 7.52231 15.2327 8.71537 16.7757 9.28144V9.28144Z" fill="black"/>
</svg>
