<svg width="128" height="128" viewBox="0 0 128 128" fill="none" xmlns="http://www.w3.org/2000/svg">
<g clip-path="url(#clip0)">
<path d="M64.2288 127.829C66.7835 127.808 69.3115 127.675 71.8341 127.328C77.5941 126.592 83.2635 125.019 88.6128 122.725C96.1275 119.515 103.002 114.88 108.842 109.163C114.191 103.888 118.666 97.6907 121.855 90.8854C124.57 85.0347 126.49 78.7574 127.295 72.3467C128.09 66.1601 128.015 59.8347 127.055 53.6854C126.261 48.5654 124.821 43.5734 122.826 38.8161C121.546 35.8241 120.026 32.9441 118.271 30.1921C112.042 20.3947 103.013 12.5174 92.6181 7.2534C88.9221 5.36007 85.0288 3.8134 81.0341 2.61873H81.0075C81.6421 2.95473 82.2875 3.32273 82.8475 3.69073C83.4875 4.0854 84.1221 4.4694 84.7195 4.89073C87.7541 6.94407 90.5541 9.3014 93.0341 11.9841C98.7035 18.0907 102.618 25.5734 104.863 33.5361C106.378 38.7734 107.178 44.1921 107.503 49.6267C107.738 53.5894 107.738 57.5787 107.253 61.5147C106.458 68.2881 104.298 74.9014 100.703 80.6934C98.0635 84.9761 94.6235 88.7947 90.5541 91.8081C83.9195 96.7574 75.2101 99.7121 66.8955 97.7494C65.5408 97.4241 64.1755 96.9707 62.9061 96.3734C61.4608 95.7121 60.0261 94.8961 58.7515 93.9787C56.2715 92.3201 54.0315 90.3254 52.1168 88.0801C49.7968 85.3067 47.8821 82.1547 46.5221 78.7627C44.8475 74.4641 43.9675 69.8454 43.8875 65.2161C43.7275 58.4267 45.0875 51.6001 48.4421 45.6427C50.6821 41.6747 53.7168 38.1974 57.3115 35.4134C58.5115 34.4641 59.7861 33.6374 61.0661 32.8587L61.1515 32.8214C58.6661 32.2614 56.0315 32.0161 53.4661 32.1814C51.2368 32.3361 49.0768 32.7414 46.9168 33.4561C45.0021 34.0961 43.1621 34.9014 41.4821 35.8561C40.1221 36.6507 38.7728 37.5361 37.5728 38.4961C36.4475 39.4561 35.3328 40.4107 34.2928 41.4561C28.3035 47.6054 24.8635 55.7601 23.5088 64.1547C22.7088 69.3441 22.7088 74.6134 23.0235 79.8934C23.5835 87.3281 25.1088 94.7521 28.0635 101.552C29.8981 105.787 32.2928 109.696 35.2528 113.141C39.8075 118.405 45.5675 122.491 51.9568 125.04C55.5568 126.485 59.3915 127.52 63.2261 127.92C63.6208 128 64.0208 128 64.3408 128L64.2288 127.829ZM48.5808 125.707C47.7061 125.333 46.9061 124.912 46.1808 124.491C45.3861 124.048 44.5808 123.595 43.7861 123.109C40.6661 121.179 37.8768 118.912 35.3115 116.309C29.4768 110.24 25.5675 102.619 23.3275 94.5441C21.8128 89.0294 21.0075 83.3334 20.6875 77.6267C20.4528 73.8774 20.5328 70.1974 20.9328 66.5227C21.6528 59.8187 23.5728 53.1841 26.9275 47.4294C29.3221 43.1947 32.5968 39.4401 36.4368 36.4801C39.0715 34.4854 42.0315 32.8001 45.1461 31.6801C49.5408 30.0854 54.2555 29.6054 58.8155 30.2401C60.5755 30.4801 62.3248 30.8854 63.9301 31.4401C64.0848 31.4401 64.0848 31.4401 64.1701 31.6001C64.2501 31.6801 64.4101 31.6801 64.4901 31.7601C64.7301 31.8454 65.0448 32.0001 65.3701 32.1547C66.6448 32.7947 67.9248 33.6001 69.1248 34.3947C73.9195 37.7494 77.8341 42.3841 80.3088 47.7387C82.5488 52.6134 83.5888 58.0534 83.6741 63.4081C83.7488 69.1627 82.7141 74.9121 80.2341 80.1867C77.2741 86.5014 72.2448 91.8561 66.1648 95.2907C66.6448 95.4507 67.1248 95.5307 67.6101 95.6907C68.8101 95.9254 70.0048 96.0854 71.2795 96.0854C79.1088 96.3254 86.7035 92.5707 92.2928 87.3014C93.3328 86.3414 94.2928 85.3014 95.1728 84.1814C96.3728 82.7414 97.4928 81.3067 98.4475 79.7921C99.7221 77.7921 100.767 75.7921 101.722 73.6374C102.927 70.7627 103.877 67.8027 104.437 64.7627C105.482 59.4081 105.562 53.9787 105.231 48.6241C104.511 37.8401 101.642 27.0507 95.4075 18.0961C94.4475 16.7414 93.4928 15.4614 92.4475 14.2614C90.6928 12.2614 88.7728 10.4267 86.7781 8.74673C84.5381 6.90673 82.0581 5.23207 79.5088 3.86673C76.8795 2.6774 73.7595 1.48273 70.4848 0.677398L68.8848 0.357398C67.7701 0.197398 66.6448 0.122732 65.5035 0.0373984C63.7701 -0.0426016 61.9355 -0.0159349 60.0901 0.122732C56.3355 0.362732 52.5595 0.976065 48.8261 1.92007C30.9275 6.53873 15.2688 19.0134 6.9328 35.5627C4.2608 40.8374 2.3728 46.4747 1.2688 52.2667C-0.00586367 58.8961 -0.171197 65.7227 0.714136 72.4001C1.35414 77.8401 2.7088 83.1894 4.86347 88.2774C6.07414 91.3174 7.5888 94.2721 9.26347 97.0667C15.0981 106.576 23.5728 114.325 33.3168 119.68C36.9861 121.765 40.8261 123.36 44.8208 124.72C46.0261 125.115 47.2208 125.515 48.4955 125.835L48.5808 125.707V125.707Z" fill="black"/>
</g>
<defs>
<clipPath id="clip0">
<rect width="128" height="128" fill="white"/>
</clipPath>
</defs>
</svg>
