<svg width="24" height="24" viewBox="0 0 24 24" fill="none" xmlns="http://www.w3.org/2000/svg">
<g clip-path="url(#clip0)">
<path d="M12.0443 23.9693C12.5234 23.9654 12.9974 23.9404 13.4703 23.8754C14.5503 23.7374 15.6134 23.4424 16.6163 23.0123C18.0254 22.4104 19.3143 21.5414 20.4093 20.4694C21.4123 19.4804 22.2513 18.3184 22.8493 17.0424C23.3583 15.9454 23.7183 14.7684 23.8693 13.5664C24.0183 12.4064 24.0043 11.2204 23.8243 10.0674C23.6754 9.10739 23.4054 8.17139 23.0313 7.27939C22.7913 6.71839 22.5063 6.17839 22.1773 5.66239C21.0093 3.82538 19.3164 2.34839 17.3673 1.36139C16.6743 1.00639 15.9443 0.716386 15.1953 0.492385H15.1904C15.3093 0.555385 15.4304 0.624385 15.5354 0.693385C15.6554 0.767386 15.7743 0.839386 15.8864 0.918385C16.4553 1.30339 16.9803 1.74539 17.4453 2.24839C18.5084 3.39338 19.2423 4.79639 19.6633 6.28939C19.9473 7.27139 20.0973 8.28739 20.1583 9.30638C20.2023 10.0494 20.2023 10.7974 20.1114 11.5354C19.9623 12.8054 19.5573 14.0454 18.8833 15.1314C18.3884 15.9344 17.7434 16.6504 16.9803 17.2154C15.7364 18.1434 14.1033 18.6974 12.5444 18.3294C12.2903 18.2684 12.0344 18.1834 11.7963 18.0714C11.5253 17.9474 11.2563 17.7944 11.0174 17.6224C10.5524 17.3114 10.1324 16.9374 9.77335 16.5164C9.33835 15.9964 8.97934 15.4054 8.72434 14.7694C8.41035 13.9634 8.24536 13.0974 8.23036 12.2294C8.20036 10.9564 8.45536 9.67639 9.08434 8.55938C9.50434 7.81538 10.0733 7.16339 10.7474 6.64139C10.9724 6.46339 11.2113 6.30839 11.4513 6.16238L11.4674 6.15539C11.0013 6.05039 10.5074 6.00439 10.0263 6.03539C9.60835 6.06439 9.20335 6.14039 8.79835 6.27439C8.43934 6.39439 8.09434 6.54539 7.77934 6.72439C7.52434 6.87338 7.27135 7.03939 7.04635 7.21939C6.83536 7.39939 6.62635 7.57838 6.43135 7.77439C5.30836 8.92739 4.66336 10.4564 4.40935 12.0304C4.25935 13.0034 4.25935 13.9914 4.31836 14.9814C4.42336 16.3754 4.70935 17.7674 5.26336 19.0424C5.60734 19.8364 6.05635 20.5694 6.61135 21.2153C7.46536 22.2023 8.54535 22.9684 9.74335 23.4464C10.4183 23.7173 11.1374 23.9114 11.8563 23.9864C11.9303 24.0014 12.0053 24.0014 12.0653 24.0014L12.0443 23.9693ZM9.11035 23.5714C8.94634 23.5013 8.79634 23.4224 8.66035 23.3434C8.51134 23.2604 8.36035 23.1754 8.21134 23.0843C7.62634 22.7224 7.10335 22.2974 6.62236 21.8093C5.52835 20.6714 4.79536 19.2424 4.37536 17.7284C4.09135 16.6944 3.94036 15.6264 3.88036 14.5564C3.83635 13.8534 3.85135 13.1634 3.92635 12.4744C4.06135 11.2174 4.42135 9.97339 5.05036 8.89439C5.49934 8.10038 6.11335 7.39639 6.83335 6.84139C7.32735 6.46739 7.88236 6.15139 8.46634 5.94139C9.29035 5.64239 10.1744 5.55239 11.0294 5.67139C11.3594 5.71639 11.6873 5.79239 11.9883 5.89639C12.0173 5.89639 12.0173 5.89639 12.0333 5.92639C12.0483 5.94139 12.0783 5.94139 12.0933 5.95639C12.1383 5.97239 12.1973 6.00139 12.2583 6.03038C12.4973 6.15038 12.7373 6.30139 12.9623 6.45038C13.8614 7.07939 14.5953 7.94839 15.0593 8.95238C15.4793 9.86639 15.6743 10.8864 15.6903 11.8904C15.7043 12.9694 15.5103 14.0474 15.0453 15.0364C14.4903 16.2204 13.5473 17.2244 12.4073 17.8684C12.4973 17.8984 12.5873 17.9134 12.6783 17.9434C12.9033 17.9874 13.1273 18.0174 13.3664 18.0174C14.8343 18.0624 16.2584 17.3584 17.3063 16.3704C17.5013 16.1904 17.6813 15.9954 17.8463 15.7854C18.0713 15.5154 18.2813 15.2464 18.4604 14.9624C18.6993 14.5874 18.8953 14.2124 19.0743 13.8084C19.3003 13.2694 19.4784 12.7144 19.5834 12.1444C19.7793 11.1404 19.7943 10.1224 19.7323 9.11839C19.5973 7.09639 19.0593 5.07338 17.8904 3.39439C17.7104 3.14039 17.5313 2.90039 17.3354 2.67539C17.0063 2.30039 16.6463 1.95638 16.2723 1.64139C15.8523 1.29639 15.3873 0.982386 14.9093 0.726385C14.4164 0.503386 13.8314 0.279385 13.2173 0.128385L12.9173 0.0683854C12.7083 0.0383854 12.4973 0.0243855 12.2834 0.00838549C11.9583 -0.00661451 11.6144 -0.00161451 11.2683 0.0243855C10.5644 0.0693855 9.85635 0.184385 9.15634 0.361386C5.80036 1.22739 2.86435 3.56639 1.30135 6.66938C0.80035 7.65839 0.44635 8.71538 0.23935 9.80138C0.000350195 11.0444 -0.0306498 12.3244 0.13535 13.5764C0.255351 14.5964 0.50935 15.5994 0.91335 16.5534C1.14035 17.1234 1.42435 17.6774 1.73835 18.2014C2.83234 19.9844 4.42135 21.4373 6.24835 22.4414C6.93634 22.8323 7.65634 23.1314 8.40535 23.3864C8.63134 23.4604 8.85535 23.5354 9.09435 23.5954L9.11035 23.5714Z" fill="black"/>
</g>
<defs>
<clipPath id="clip0">
<rect width="24" height="24" fill="white"/>
</clipPath>
</defs>
</svg>
