<svg width="128" height="128" viewBox="0 0 128 128" fill="none" xmlns="http://www.w3.org/2000/svg">
<path fill-rule="evenodd" clip-rule="evenodd" d="M11.5095 79.3495C16.0577 79.402 20.0289 79.4334 20.3331 79.4282L20.8892 79.4124L20.9311 78.038C20.9521 77.2826 20.9207 76.6164 20.8577 76.5587C20.8 76.4957 17.6577 76.4118 13.8807 76.3593C10.1036 76.3121 6.94033 76.2492 6.85115 76.2229C6.74098 76.1862 6.68852 74.3606 6.6623 69.6761C6.64131 66.0984 6.58885 62.3003 6.54164 61.2302L6.45246 59.2892L0 59.2157L0.0052459 63.9003C0.0157377 70.0695 0.20459 75.7665 0.424918 76.6374C0.64 77.4715 1.5318 78.4315 2.56 78.9246L3.24197 79.2551L11.5095 79.3495ZM27.4833 79.3443C29.1252 79.3862 30.5154 79.3967 30.5679 79.3705C30.6256 79.3495 30.6728 77.6498 30.6728 75.5934V71.8583L40.1102 71.7797L40.1207 72.1259C40.1889 75.3416 40.383 78.977 40.4826 79.082C40.5613 79.1606 41.7993 79.1974 43.5252 79.1764L46.4262 79.1397L46.5049 76.9154C46.6361 73.1698 46.5469 63.9423 46.379 63.1764C45.9698 61.3718 45.0046 60.2911 43.3416 59.777C41.7521 59.2839 40.1154 59.2052 32.1311 59.2472L24.4984 59.2892V79.2761L27.4833 79.3443ZM40.1102 66.8905V69.2144H30.6571L30.699 65.8465C30.7252 63.9947 30.7934 62.4052 30.8564 62.3056C31.0085 62.0747 38.5416 62.059 39.0557 62.2951C39.8269 62.6413 40.1049 63.8636 40.1102 66.8905ZM51.0059 79.2446C51.4308 79.3495 54.8721 79.3547 55.3705 79.2551C56.2885 79.0715 56.2728 79.2236 56.3515 70.2531L56.4197 62.2059L57.1174 62.0433C58.2295 61.7862 59.3207 61.8177 59.6931 62.1115C60.1285 62.4682 60.1862 63.3862 60.223 70.72C60.2597 77.2931 60.3489 78.741 60.7371 79.0242C60.8734 79.1239 61.3928 79.2131 61.8964 79.2288C63.6118 79.2656 65.9987 79.1869 66.0931 79.0924C66.2033 78.9823 66.3187 75.0793 66.3607 70.0485C66.4131 64.4249 66.5862 62.6046 67.1371 62.0538C67.4046 61.7862 68.1967 61.8492 69.0938 62.2111C69.5292 62.3842 69.7128 62.5626 69.9069 63.0138C70.1377 63.5436 70.1639 64.2518 70.2321 71.2918L70.3003 78.9875L70.7882 79.0977C71.7692 79.3233 74.8485 79.3705 75.8505 79.1816L76.8262 78.9928L76.821 71.5698C76.8157 63.7797 76.7685 63.1187 76.1757 61.9541C75.8033 61.2197 74.9954 60.3593 74.3816 60.0446C72.9915 59.3364 71.381 59.2315 60.2754 59.1265C52.3698 59.0583 50.4918 59.0741 50.3134 59.221C50.1193 59.3836 50.1036 60.3174 50.1718 68.2597C50.24 76.4957 50.3344 78.8092 50.6177 79.0767C50.6807 79.1344 50.8538 79.2079 51.0059 79.2446ZM81.6682 79.2183C82.0354 79.381 87.1397 79.2918 87.3075 79.1187C87.4649 78.9613 87.5541 77.6183 87.6538 73.7259C87.701 72.0524 87.7482 70.6675 87.7639 70.657C87.7797 70.6465 89.9462 70.5941 92.5797 70.5416C97.9043 70.4367 100.018 70.2898 100.606 69.9908C101.188 69.6865 101.98 68.7475 102.148 68.1495C102.374 67.3784 102.578 64.6977 102.494 63.7324C102.316 61.7757 102.028 61.0151 101.172 60.2806C100.066 59.3364 99.7561 59.3102 89.962 59.2262C85.2039 59.1843 81.28 59.1947 81.2485 59.2472C81.1541 59.4046 81.1908 76.2124 81.2905 77.7285C81.3692 78.9351 81.4111 79.1082 81.6682 79.2183ZM94.7987 67.8452C94.379 67.8977 92.6164 67.9449 90.88 67.9502L87.722 67.9659V62.1324H96.0892L96.0157 64.5456C95.9266 67.5515 95.8636 67.7193 94.7987 67.8452ZM106.303 78.977C106.591 79.3285 107.394 79.2603 109.492 78.7042C119.245 76.1285 124.968 70.9613 127.003 62.9036C127.633 60.4223 127.738 59.3469 127.654 56.3305C127.58 53.6079 127.475 52.8839 126.767 50.0616C126.148 47.5698 124.48 43.9134 122.911 41.5947C120.026 37.3246 114.675 31.9475 110.369 28.9888C107.31 26.8852 103.764 24.939 103.496 25.2065C103.323 25.3797 103.565 26.3134 104.257 28.1285C105.128 30.4315 105.889 32.9023 106.114 34.1928C106.66 37.3456 106.051 40.1049 104.546 41.2643C103.916 41.7469 102.862 42.1718 100.475 42.901C98.5285 43.4938 97.2643 44.2754 95.8269 45.7705C93.8859 47.7902 91.7194 51.7088 92.0603 52.5902C92.1128 52.7265 92.5482 52.9049 93.2039 53.057C94.6518 53.398 94.7987 53.3088 95.743 51.4465C97.579 47.8531 99.2472 46.4629 102.919 45.482C105.049 44.9102 105.731 44.5377 107.011 43.2524C108.286 41.9777 108.9 40.9705 109.162 39.7167C109.461 38.2793 109.561 35.7351 109.377 34.3764C109.288 33.7259 109.178 32.918 109.13 32.577L109.052 31.958L109.456 32.2151C111.622 33.6052 116.223 37.9016 118.164 40.341C119.302 41.7731 120.803 43.9764 121.479 45.1987C122.628 47.2813 123.551 50.0249 124.176 53.1829C124.548 55.082 124.511 59.0846 124.108 60.9941C122.754 67.3102 119.9 70.9298 114.041 73.7783C112.005 74.7646 110.893 75.1738 108.894 75.6616C106.46 76.2597 106.135 76.5167 106.119 77.8702C106.114 78.421 106.182 78.8302 106.303 78.977ZM105.904 72.4092C107.2 72.7292 113.065 70.4839 115.342 68.7947C118.232 66.6544 119.906 63.8426 120.556 60.0551C120.876 58.2033 120.766 54.3685 120.346 52.6951C119.591 49.6682 118.573 47.4072 116.737 44.6898C115.53 42.8957 114.146 41.1961 113.605 40.8446C113.212 40.5823 113.285 40.4879 111.717 43.179C109.818 46.4367 107.913 47.8059 103.402 49.1436C101.98 49.5633 101.068 50.1403 100.317 51.0898C99.6826 51.8872 98.6859 53.8492 98.6859 54.2951C98.6859 54.8039 99.2367 55.1502 100.412 55.3915C101.854 55.6852 102.867 56.2046 103.816 57.1383C105.264 58.5547 105.7 59.6983 105.889 62.5731C106.035 64.8446 105.957 68.9259 105.747 70.1272C105.652 70.6518 105.569 71.3652 105.563 71.7062C105.558 72.2518 105.595 72.3305 105.904 72.4092Z" fill="black"/>
</svg>
