<svg width="24" height="24" viewBox="0 0 24 24" fill="none" xmlns="http://www.w3.org/2000/svg">
<path fill-rule="evenodd" clip-rule="evenodd" d="M2.15803 14.8791C3.01082 14.8889 3.75542 14.8948 3.81246 14.8939L3.91673 14.8909L3.92458 14.6332C3.92852 14.4916 3.92263 14.3666 3.91082 14.3558C3.9 14.344 3.31082 14.3283 2.60263 14.3184C1.89443 14.3096 1.30131 14.2978 1.28459 14.2929C1.26393 14.286 1.2541 13.9437 1.24918 13.0653C1.24525 12.3945 1.23541 11.6824 1.22656 11.4817L1.20984 11.1178L0 11.104L0.000983606 11.9824C0.00295082 13.1391 0.0383606 14.2073 0.0796721 14.3706C0.12 14.527 0.287212 14.707 0.48 14.7994L0.607869 14.8614L2.15803 14.8791ZM5.15312 14.8781C5.46097 14.886 5.72164 14.888 5.73148 14.883C5.7423 14.8791 5.75115 14.5604 5.75115 14.1748V13.4745L7.52066 13.4598L7.52263 13.5247C7.53542 14.1276 7.57181 14.8093 7.59049 14.8289C7.60524 14.8437 7.83737 14.8506 8.16097 14.8466L8.70491 14.8398L8.71967 14.4227C8.74427 13.7204 8.72754 11.9903 8.69606 11.8466C8.61934 11.5083 8.43836 11.3057 8.12655 11.2093C7.82852 11.1168 7.52164 11.102 6.02458 11.1099L4.59345 11.1178V14.8653L5.15312 14.8781ZM7.52066 12.543V12.9788H5.74821L5.75606 12.3473C5.76097 12.0001 5.77376 11.702 5.78557 11.6834C5.81409 11.6401 7.22655 11.6371 7.32294 11.6814C7.46754 11.7463 7.51967 11.9755 7.52066 12.543ZM9.56361 14.8594C9.64328 14.8791 10.2885 14.8801 10.382 14.8614C10.5541 14.827 10.5512 14.8555 10.5659 13.1735L10.5787 11.6647L10.7095 11.6342C10.918 11.586 11.1226 11.5919 11.1925 11.647C11.2741 11.7139 11.2849 11.886 11.2918 13.2611C11.2987 14.4935 11.3154 14.765 11.3882 14.8181C11.4138 14.8368 11.5112 14.8535 11.6056 14.8565C11.9272 14.8634 12.3748 14.8486 12.3925 14.8309C12.4131 14.8103 12.4348 14.0784 12.4426 13.1352C12.4525 12.0807 12.4849 11.7394 12.5882 11.6362C12.6384 11.586 12.7869 11.5978 12.9551 11.6657C13.0367 11.6981 13.0711 11.7316 13.1075 11.8162C13.1508 11.9155 13.1557 12.0483 13.1685 13.3683L13.1813 14.8112L13.2728 14.8319C13.4567 14.8742 14.0341 14.883 14.222 14.8476L14.4049 14.8122L14.4039 13.4204C14.4029 11.9598 14.3941 11.8358 14.2829 11.6175C14.2131 11.4798 14.0616 11.3184 13.9465 11.2594C13.6859 11.1266 13.3839 11.107 11.3016 11.0873C9.81934 11.0745 9.46721 11.0775 9.43376 11.105C9.39737 11.1355 9.39442 11.3106 9.40721 12.7998C9.42 14.344 9.4377 14.7778 9.49082 14.828C9.50263 14.8388 9.53509 14.8526 9.56361 14.8594ZM15.3128 14.8545C15.3816 14.885 16.3387 14.8683 16.3702 14.8358C16.3997 14.8063 16.4164 14.5545 16.4351 13.8247C16.4439 13.5109 16.4528 13.2512 16.4557 13.2493C16.4587 13.2473 16.8649 13.2375 17.3587 13.2276C18.3571 13.208 18.7534 13.1804 18.8636 13.1243C18.9728 13.0673 19.1213 12.8912 19.1528 12.7791C19.1951 12.6345 19.2334 12.1319 19.2176 11.9509C19.1843 11.584 19.1302 11.4414 18.9697 11.3037C18.7624 11.1266 18.7043 11.1217 16.8679 11.106C15.9757 11.0981 15.24 11.1001 15.2341 11.1099C15.2164 11.1394 15.2233 14.2909 15.242 14.5752C15.2567 14.8014 15.2646 14.8339 15.3128 14.8545ZM17.7748 12.722C17.6961 12.7319 17.3656 12.7407 17.04 12.7417L16.4479 12.7447V11.6509H18.0167L18.0029 12.1034C17.9862 12.667 17.9744 12.6984 17.7748 12.722ZM19.9318 14.8093C19.9858 14.8752 20.1364 14.8624 20.5297 14.7581C22.3584 14.2752 23.4315 13.3063 23.8131 11.7955C23.9312 11.3303 23.9509 11.1286 23.9351 10.563C23.9212 10.0526 23.9016 9.9168 23.7688 9.38762C23.6527 8.92041 23.34 8.23483 23.0458 7.80008C22.5049 6.99943 21.5016 5.99123 20.6942 5.43647C20.1206 5.04205 19.4558 4.67713 19.4055 4.72729C19.3731 4.75977 19.4184 4.93483 19.5482 5.27517C19.7115 5.70698 19.8542 6.17025 19.8964 6.41222C19.9987 7.00337 19.8846 7.52074 19.6024 7.73813C19.4842 7.82862 19.2866 7.90828 18.8391 8.04501C18.4741 8.15616 18.2371 8.30271 17.9675 8.58304C17.6036 8.96173 17.1974 9.69647 17.2613 9.86173C17.2712 9.88729 17.3528 9.92074 17.4757 9.94926C17.7472 10.0132 17.7748 9.99647 17.9518 9.64729C18.2961 8.97353 18.6088 8.71287 19.2973 8.52895C19.6967 8.42173 19.8246 8.35189 20.0646 8.1109C20.3036 7.87189 20.4188 7.68304 20.4679 7.44795C20.5239 7.17844 20.5427 6.7014 20.5082 6.44665C20.4915 6.32468 20.4709 6.1732 20.4619 6.10926L20.4473 5.9932L20.523 6.0414C20.9291 6.30205 21.7918 7.10762 22.1558 7.56501C22.3691 7.83353 22.6506 8.24665 22.7773 8.47583C22.9927 8.86632 23.1658 9.38074 23.283 9.97287C23.3528 10.3289 23.3458 11.0794 23.2703 11.4375C23.0164 12.6217 22.4813 13.3004 21.3827 13.8345C21.0009 14.0194 20.7924 14.0962 20.4176 14.1876C19.9612 14.2998 19.9003 14.348 19.8973 14.6017C19.8964 14.705 19.9091 14.7817 19.9318 14.8093ZM19.857 13.5778C20.1 13.6378 21.1997 13.2168 21.6266 12.9001C22.1685 12.4988 22.4824 11.9716 22.6042 11.2614C22.6642 10.9142 22.6436 10.1952 22.5649 9.8814C22.4233 9.31386 22.2324 8.88992 21.8882 8.38041C21.6619 8.04402 21.4024 7.72534 21.3009 7.65943C21.2273 7.61025 21.2409 7.59255 20.9469 8.09713C20.5909 8.70795 20.2337 8.96468 19.3879 9.2155C19.1213 9.29419 18.9503 9.40238 18.8094 9.58041C18.6905 9.72992 18.5036 10.0978 18.5036 10.1814C18.5036 10.2768 18.6069 10.3417 18.8273 10.387C19.0976 10.442 19.2876 10.5394 19.4655 10.7145C19.737 10.9801 19.8187 11.1945 19.8542 11.7335C19.8816 12.1594 19.8669 12.9247 19.8276 13.1499C19.8098 13.2483 19.7942 13.382 19.7931 13.446C19.7921 13.5483 19.7991 13.563 19.857 13.5778Z" fill="black"/>
</svg>
