<svg width="24" height="24" viewBox="0 0 24 24" fill="none" xmlns="http://www.w3.org/2000/svg">
<path fill-rule="evenodd" clip-rule="evenodd" d="M3.17513 0.322266C2.96381 0.338766 2.75625 0.336141 2.55169 0.392203C2.10413 0.515016 1.70644 0.711328 1.35563 1.01395C1.14938 1.1917 0.969375 1.38333 0.816563 1.60908C0.580688 1.95764 0.42 2.33227 0.339375 2.75395C0.371625 2.81039 0.405563 2.86964 0.441563 2.92983C0.670125 3.31195 0.898875 3.69145 1.128 4.0732L1.73025 5.07464C1.9155 5.38327 2.10038 5.69208 2.28525 6.0007L3.14925 7.4422L3.73856 8.42545C4.02488 8.90264 4.31194 9.37945 4.59788 9.85683L5.64956 11.6139C5.95275 12.12 6.2565 12.6256 6.56025 13.1313L6.60075 13.1902C6.64481 13.2043 6.67988 13.1923 6.71625 13.1836C7.11638 13.0876 7.5165 12.9922 7.91663 12.8966C8.56556 12.7415 9.2145 12.587 9.86344 12.4318L10.8799 12.1886C11.5359 12.0318 12.1922 11.8755 12.8483 11.7183C13.5114 11.5597 14.1744 11.4003 14.8378 11.2415C15.1731 11.1611 15.5083 11.081 15.8438 11.001C16.4927 10.8461 17.1416 10.6916 17.7906 10.5371L19.9108 10.0321L20.0254 10.0012L19.9941 9.93914L19.4154 9.12127L18.8439 8.3122L18.2327 7.44895L17.6484 6.62152L17.0694 5.80383L16.4717 4.95877C16.2765 4.68314 16.0809 4.40789 15.8856 4.13245L15.5768 3.69633C15.5292 3.62992 15.4921 3.55664 15.4667 3.47902C15.4056 3.28945 15.4753 3.16327 15.5859 3.07008C15.6576 3.00952 15.7401 2.96508 15.8293 2.93883C15.9533 2.90074 16.0791 2.86882 16.2062 2.8432C16.461 2.79502 16.7175 2.75414 16.9733 2.71158L17.8403 2.5702C18.0231 2.54002 18.2057 2.50833 18.3885 2.47739C18.6369 2.43539 18.8854 2.3932 19.134 2.35177C19.3753 2.31127 19.6166 2.27114 19.8579 2.23139L20.6479 2.1022L21.1961 2.01014C21.4046 1.97527 21.6129 1.94058 21.8213 1.90645C22.0811 1.86408 22.3408 1.82133 22.6007 1.78064C22.7556 1.75645 22.9104 1.74802 23.0642 1.79227C23.1782 1.82604 23.2857 1.87885 23.3822 1.94845L23.5174 2.04277C23.5309 2.01164 23.5114 1.99477 23.5024 1.97695C23.3105 1.58574 23.0383 1.23934 22.7036 0.960328C22.393 0.699387 22.0339 0.50248 21.6469 0.380953C21.4164 0.308016 21.1796 0.341953 20.9385 0.323766L3.17513 0.322266ZM10.4417 23.8125C10.4301 23.8125 10.4198 23.7281 10.4066 23.7058C10.1254 23.2258 9.84113 22.7105 9.56325 22.2288C9.21338 21.6215 8.86607 21.0128 8.52131 20.4026C8.15288 19.7505 7.78763 19.0965 7.422 18.4428C7.07457 17.8214 6.72776 17.1997 6.38156 16.5776C6.1725 16.2016 5.96475 15.825 5.75588 15.4488L5.70038 15.3628L5.59875 15.3828C5.39775 15.4348 5.19713 15.4871 4.9965 15.54C4.71713 15.6135 4.43794 15.6883 4.15838 15.7612C3.53081 15.9245 2.90325 16.0869 2.27569 16.2496C1.63744 16.4154 0.972375 16.5815 0.333938 16.7465C0.295125 16.7565 0.375 16.7598 0.1875 16.7664V20.7311C0.26475 20.8541 0.257438 20.7961 0.262313 20.8366C0.277125 20.954 0.301125 21.0723 0.32175 21.1886C0.399 21.6217 0.572813 22.0183 0.824063 22.3794C1.1925 22.9093 1.68319 23.288 2.28431 23.5198C2.499 23.6023 2.72306 23.6604 2.95219 23.6885L3.18488 23.75" fill="black"/>
<path fill-rule="evenodd" clip-rule="evenodd" d="M0.933 14.5759C1.67156 14.4002 2.41031 14.2247 3.14888 14.0494C3.47325 13.9725 3.79781 13.8966 4.12219 13.8193C4.28438 13.7807 4.44694 13.7439 4.60781 13.7004C4.75106 13.6618 4.76869 13.6144 4.695 13.4852C4.5885 13.2984 4.48013 13.1128 4.37231 12.9266L3.42281 11.2916L2.47369 9.65643C2.15175 9.10181 1.82944 8.54718 1.50731 7.99274L0.680063 6.56962C0.560813 6.36449 0.416063 6.15881 0.29625 5.95387C0.273938 5.91656 0.375 5.87193 0.1875 5.85206V14.7388C0.1875 14.7328 0.272437 14.7277 0.301125 14.7208L0.933 14.5759V14.5759ZM23.667 20.928C23.3775 21.0309 23.0878 21.1346 22.7985 21.2383L20.8213 21.9472C20.4551 22.0787 20.0897 22.2116 19.7233 22.3425C18.9767 22.6089 18.2297 22.8744 17.4829 23.1403C17.0501 23.2944 16.6172 23.4849 16.1846 23.6398C16.0661 23.6824 15.9493 23.8117 15.8319 23.8117H20.7988L20.9057 23.7504C21.0321 23.745 21.1564 23.7075 21.2805 23.6848C21.7903 23.5916 22.2469 23.3711 22.6513 23.0488C22.962 22.8011 23.2148 22.4983 23.4128 22.1529C23.6164 21.7974 23.7373 21.4129 23.7954 21.009C23.8005 20.9741 23.8114 20.9346 23.7821 20.8986C23.7409 20.8954 23.7045 20.9147 23.667 20.928V20.928ZM23.2404 14.2584C23.0214 13.9588 22.8019 13.6597 22.5833 13.3599C22.2816 12.9461 21.9804 12.5319 21.6791 12.1179C21.5567 11.9499 21.4326 11.7832 21.3131 11.6134C21.2771 11.5622 21.2361 11.5485 21.18 11.5637L21.1479 11.5729C20.5933 11.7077 20.0385 11.8421 19.4837 11.9766L18.4896 12.2179L16.5448 12.6902C15.9038 12.846 15.2627 13.002 14.6214 13.1574L12.6223 13.6416C11.9666 13.8007 11.3113 13.9605 10.6558 14.1199L8.75419 14.5815C8.41913 14.6629 8.08406 14.7439 7.74938 14.8256C7.70006 14.8376 7.647 14.8406 7.5945 14.8804L7.63931 14.9657C8.23754 15.9997 8.83742 17.0328 9.43894 18.0649C9.79031 18.6673 10.1426 19.2694 10.4946 19.8716C10.6969 20.2176 10.8979 20.5639 11.1019 20.9089C11.3281 21.2923 11.5564 21.6745 11.7868 22.0554C11.856 22.1692 11.9346 22.278 12.0137 22.3852C12.0667 22.4573 12.1333 22.5183 12.2098 22.5647C12.2897 22.6129 12.3758 22.6281 12.4665 22.6076C12.5134 22.5969 12.5593 22.5816 12.6047 22.5658L12.7716 22.5039C13.3785 22.2964 13.9853 22.0888 14.5924 21.882C15.066 21.7207 15.5402 21.5602 16.0142 21.3999C16.4846 21.2404 16.9554 21.0816 17.4261 20.9227L18.8274 20.4495C19.3052 20.2881 19.7828 20.1266 20.2603 19.9648C20.8464 19.7659 21.4324 19.5662 22.0189 19.3676C22.5842 19.1764 23.1501 18.9862 23.7156 18.7954C23.7503 18.7837 23.7885 18.7789 23.8172 18.7408L23.8208 18.6585C23.8209 17.4857 23.8206 16.3127 23.8219 15.1399C23.8231 15.0807 23.8039 15.0229 23.7677 14.9762C23.5899 14.7382 23.4158 14.4979 23.2404 14.2584V14.2584ZM23.1431 3.20756C23.0115 3.04087 22.8439 2.988 22.6384 3.04162C22.5489 3.06506 22.4571 3.07987 22.3659 3.09656C22.0671 3.15131 21.7678 3.20512 21.4689 3.25931C21.0313 3.33881 20.5939 3.41906 20.1563 3.49781C19.8098 3.56006 19.4631 3.62137 19.1164 3.68212L17.7255 3.9255C17.6672 3.93562 17.6083 3.94574 17.5521 3.96374C17.4701 3.98999 17.4465 4.04137 17.484 4.11843C17.5146 4.18143 17.5526 4.24162 17.5939 4.29825C17.8815 4.69462 18.1704 5.09006 18.4594 5.48568C18.8576 6.03112 19.2561 6.57637 19.6545 7.12143C19.9916 7.58268 20.3291 8.04393 20.6664 8.50499C20.9316 8.86724 21.1967 9.22949 21.4622 9.59156L21.5145 9.65493L23.8153 9.08624L23.8208 8.96699C23.8209 7.37118 23.8206 5.77537 23.8219 4.17937C23.8219 4.10887 23.8048 4.05225 23.7604 3.99637C23.5669 3.75206 23.3769 3.50493 23.1855 3.25893L23.1431 3.20756V3.20756ZM23.7621 10.9402C23.4141 11.0239 23.0648 11.1034 22.7083 11.1977C22.746 11.2646 23.7236 12.5842 23.7804 12.6469L23.8161 12.6666L23.82 12.5861L23.8202 12.0306C23.8204 11.7082 23.8211 11.3859 23.8204 11.0636C23.8204 11.0244 23.8314 10.9822 23.8044 10.9425L23.7621 10.9402V10.9402Z" fill="black"/>
</svg>
