<svg width="24" height="24" viewBox="0 0 24 24" fill="none" xmlns="http://www.w3.org/2000/svg">
<path fill-rule="evenodd" clip-rule="evenodd" d="M22.9314 10.9953C22.8189 10.7517 22.7646 10.4636 22.7529 10.1922C22.7241 9.52456 22.7486 8.85443 22.7184 8.18675C22.6914 7.58881 22.4781 7.04993 21.9039 6.74168C21.3984 6.47037 20.8125 6.44337 20.25 6.437V7.50406C20.4375 7.51043 20.3914 7.51625 20.4371 7.51868C21.1926 7.55581 21.4457 7.79543 21.4553 8.54487C21.4624 9.10212 21.4575 9.65975 21.4665 10.2168C21.4776 10.8927 21.5784 11.5379 22.1966 11.9647C22.2071 11.972 22.2062 11.9988 22.2122 12.0299C21.8976 12.2534 21.6486 12.5412 21.5762 12.9341C21.5183 13.2531 21.4844 13.5761 21.4749 13.9002C21.4569 14.4849 21.4755 15.0708 21.4588 15.6554C21.4457 16.1133 21.2288 16.3282 20.7831 16.4302C20.6153 16.4688 20.4375 16.4825 20.25 16.5063V17.5707C20.625 17.5482 20.8157 17.5334 21.0726 17.5057C22.0393 17.4011 22.5836 16.898 22.6952 15.9601C22.7301 15.6661 22.7261 15.3665 22.7327 15.0695C22.7451 14.5128 22.7387 13.9535 22.7886 13.4002C22.8394 12.8356 23.25 12.5236 23.8125 12.5547V11.4389C23.4375 11.5061 23.0919 11.3439 22.9314 10.9953V10.9953ZM5.30887 13.2702C5.30869 11.1048 5.25 8.93937 5.25 6.77412V6.43343C4.6875 6.43343 4.08262 6.428 3.48919 6.43606C3.24825 6.43925 3.03581 6.45987 2.79694 6.4925C1.8825 6.617 1.44169 7.04618 1.27969 7.95725C1.23281 8.22012 1.24219 8.49331 1.23825 8.76218C1.23094 9.27331 1.24556 9.78462 1.23731 10.2956C1.227 10.9391 0.923813 11.4378 0.267563 11.4757C0.244313 11.477 0.375 11.5038 0.1875 11.5199V12.5146C0.9375 12.6324 1.17619 12.9352 1.22606 13.6319C1.23394 13.7429 1.236 13.8549 1.23713 13.9664C1.2435 14.5889 1.23637 15.2124 1.2645 15.8337C1.29094 16.4137 1.41975 16.9319 1.96781 17.2362C2.47969 17.5205 3.1875 17.5436 3.5625 17.5584V16.4964C3.5625 16.4874 3.52312 16.4791 3.48656 16.4769C2.673 16.4272 2.48962 16.2063 2.48475 15.3922C2.48156 14.8531 2.50463 14.3141 2.496 13.775C2.48513 13.0977 2.38613 12.4554 1.773 12.0267C1.76363 12.0202 1.77281 11.9924 1.76981 11.9549C2.18213 11.6943 2.40131 11.2957 2.46094 10.8123C2.49394 10.5457 2.505 10.2753 2.50969 10.0062C2.51906 9.44881 2.50913 8.89081 2.52431 8.33375C2.535 7.94225 2.78494 7.65687 3.10388 7.59275C3.40613 7.53181 3.5625 7.53368 4.125 7.50537V7.89087C4.125 9.824 4.05619 11.7569 4.06631 13.6901C4.06988 14.3521 4.14319 15.0048 4.85287 15.2907C5.23875 15.4462 5.65219 15.494 6.09544 15.5986C6.1695 15.1651 6.19369 14.8055 6.25425 14.4496C5.43731 14.2152 5.30887 14.0937 5.30887 13.2702ZM10.3102 9.54031C8.934 8.88218 7.26375 9.45762 6.62287 10.838C6.14025 11.8775 6.1575 12.9474 6.58237 14.0015C6.81281 14.573 7.22925 15.0009 7.79606 15.2525C8.90306 15.7439 10.0234 15.6245 11.1396 15.2795C11.1997 15.2607 11.2766 15.1449 11.2693 15.0834C11.2313 14.7719 11.1681 14.4635 11.1116 14.1419C10.8459 14.2089 10.6239 14.2773 10.3971 14.3199C9.79763 14.4326 9.19687 14.4324 8.61356 14.2004C8.03756 13.9717 7.65075 13.3136 7.74694 12.7511H11.6604C11.7082 12.1886 11.6893 11.4151 11.4499 10.7756C11.2361 10.2039 10.8671 9.80675 10.3102 9.54031V9.54031ZM10.302 11.8137H7.73025C7.73156 11.0637 8.34225 10.3906 9.14344 10.406C9.84712 10.4195 10.3339 11.0637 10.302 11.8137ZM20.8223 14.1161C20.9145 13.1684 20.6284 12.6352 19.7846 12.2234C19.4854 12.0774 19.1677 11.9692 18.8629 11.8338C18.6347 11.7326 18.405 11.63 18.1916 11.5017C17.9839 11.3771 17.8969 11.1701 17.9276 10.9276C17.9578 10.6882 18.1117 10.5303 18.3341 10.4853C18.6036 10.4306 18.8859 10.3837 19.1569 10.4058C19.5397 10.4371 19.9174 10.5352 20.3124 10.6074L20.5622 9.5165C20.0276 9.43512 19.5293 9.32993 19.0256 9.29018C18.4656 9.24612 17.9201 9.33912 17.4075 9.60331C16.3243 10.1615 16.3044 11.8751 17.2999 12.4376C17.5972 12.6056 17.9154 12.7368 18.2248 12.8838C18.5505 13.0389 18.888 13.1737 19.1996 13.3533C19.4363 13.4896 19.5208 13.7276 19.4574 14.0049C19.3988 14.2627 19.2036 14.3776 18.9742 14.3996C18.6255 14.4327 18.2677 14.4646 17.9226 14.4236C17.5069 14.3741 17.1 14.2479 16.6742 14.1515L16.4571 15.2371C17.457 15.6125 18.4464 15.674 19.4454 15.4526C20.2815 15.2673 20.7578 14.7783 20.8223 14.1161V14.1161ZM15.4944 12.3438C15.1271 12.149 14.7321 12.0069 14.3529 11.8332C14.1176 11.7254 13.8684 11.6319 13.6611 11.4824C13.2623 11.195 13.3365 10.6439 13.8009 10.4966C14.0674 10.4118 14.3687 10.3856 14.6486 10.4066C15.03 10.4352 15.4063 10.5339 15.804 10.6059L16.0399 9.566C15.8379 9.51106 15.6551 9.45124 15.4678 9.41187C14.7233 9.25512 13.9748 9.19437 13.2414 9.45218C12.6114 9.67381 12.1744 10.0882 12.0879 10.7853C11.9912 11.5638 12.2494 12.1784 12.9684 12.5482C13.2563 12.6963 13.5647 12.8037 13.8585 12.941C14.1518 13.0779 14.4512 13.2086 14.7236 13.3803C14.9319 13.5116 15.0141 13.7337 14.9554 13.9906C14.8971 14.2452 14.7114 14.3735 14.4804 14.3973C14.1317 14.4331 13.7737 14.4663 13.4284 14.426C13.011 14.3772 12.6028 14.2507 12.1695 14.1532C12.1056 14.4556 12.0306 14.7603 11.9839 15.0691C11.9738 15.1362 12.0486 15.2652 12.1116 15.2872C13.1211 15.6371 14.1486 15.6873 15.1753 15.3849C15.7884 15.2045 16.2173 14.8128 16.3037 14.1431C16.4018 13.3827 16.2204 12.7286 15.4944 12.3438V12.3438Z" fill="black"/>
</svg>
