<svg width="128" height="128" viewBox="0 0 128 128" fill="none" xmlns="http://www.w3.org/2000/svg">
<path d="M42.5886 14.3684C40.2389 14.8131 36.5251 15.9068 34.3377 16.8022C32.1563 17.6976 29.2658 19.1519 27.9257 20.0353C26.5796 20.9247 24.296 22.6314 22.8537 23.8392C21.4055 25.0411 18.6892 27.9497 16.8203 30.2993C14.9454 32.655 12.3794 36.6392 11.1114 39.1632C9.84943 41.6811 8.17281 45.8036 7.3976 48.3275C6.21976 52.1495 5.98539 54.2227 6.00943 60.8511C6.02745 66.0973 6.38201 70.1957 7.05506 72.9179C7.60792 75.1895 8.47929 77.8697 8.98407 78.8792C9.48886 79.8888 10.1739 80.5739 10.5105 80.4056C10.847 80.2374 11.2496 78.6569 11.4059 76.8901C11.5681 75.1294 11.8566 71.7581 12.0549 69.4084C12.2652 66.8424 12.6258 65.3761 12.9503 65.7427C13.2447 66.0792 14.8552 71.1632 16.5259 77.0464C18.1905 82.9236 20.5401 92.2742 21.748 97.8208C22.9559 103.368 24.1458 108.866 24.4042 110.038C24.8248 111.979 25.1553 112.255 27.9257 112.971C29.7105 113.439 33.1358 113.674 36.1706 113.547C39.3615 113.409 42.0778 112.946 43.2015 112.352L45.0344 111.372C44.7279 98.1393 44.9743 93.2297 45.5091 90.1829C45.9779 87.4967 47.0295 84.0593 47.8468 82.545C48.7122 80.9525 50.1003 79.4321 51.158 78.9393C52.7805 78.1761 53.2072 78.2062 55.1121 79.2458C56.7527 80.1352 57.594 81.2529 58.7358 84.0714C60.0819 87.3885 60.2562 88.8909 60.5747 99.858C60.8391 109.203 61.1155 112.147 61.7766 112.694C62.3234 113.145 65.2199 113.397 69.721 113.385C73.7713 113.373 77.3289 113.079 78.026 112.688C78.9995 112.141 79.6665 110.08 81.2891 102.622C82.4068 97.4603 84.2937 90.213 85.4836 86.5172C86.6735 82.8214 88.7828 77.4851 90.1709 74.6606C91.5591 71.8362 93.3799 69.0058 94.2213 68.3748C95.0626 67.7438 96.3666 67.233 97.1238 67.2451C97.881 67.2571 98.9807 67.5035 99.5696 67.7979C100.159 68.0864 101.12 69.4625 101.709 70.8507C102.292 72.2389 102.779 74.8229 102.785 76.5897C102.785 78.3504 102.106 82.545 101.264 85.9042C100.423 89.2635 98.6322 94.8342 97.286 98.2775C95.9339 101.721 94.8342 104.954 94.8342 105.459C94.8342 105.964 95.5854 106.931 96.5108 107.616C97.4363 108.301 98.7403 108.842 99.4134 108.812C100.086 108.788 101.877 107.718 103.386 106.438C104.9 105.152 107.7 102.075 109.617 99.5876C111.528 97.1057 114.329 92.4605 115.843 89.2635C117.351 86.0725 119.22 81.1268 119.996 78.2663C121.155 73.9876 121.402 71.5658 121.39 64.5168C121.384 58.219 121.089 54.9198 120.284 51.9932C119.683 49.8058 118.145 45.8216 116.859 43.1354C115.579 40.4432 113.103 36.459 111.36 34.2715C109.611 32.0901 107.316 29.5602 106.246 28.6528L104.305 27.0002C97.6707 30.1611 93.8246 32.4447 91.469 34.1093C89.1193 35.7799 85.2012 39.1151 82.7674 41.5129C80.3275 43.9166 78.3324 46.1581 78.3324 46.4946C78.3324 46.8312 78.9875 48.4116 79.7807 50.0101C80.5739 51.6026 82.7073 54.2528 84.5161 55.8993L87.8032 58.886C83.7829 56.8608 81.4573 55.1001 80.0451 53.6759C78.6329 52.2456 76.9863 49.908 76.3794 48.4777C75.6342 46.723 75.4599 45.5331 75.8325 44.812C76.133 44.2231 78.1281 42.0717 80.2614 40.0285C82.3948 37.9853 85.3153 35.5095 86.7576 34.5299L89.3777 32.7452C86.2648 29.5962 83.5726 27.3547 81.3912 25.7382C79.2038 24.1157 75.6282 21.8081 73.4468 20.6122C71.2594 19.4103 67.4134 17.7157 64.8894 16.8503C62.3715 15.979 59.0723 15.0295 57.558 14.741C56.0496 14.4466 53.0209 14.062 50.8395 13.8877C48.622 13.7074 44.9743 13.9177 42.5886 14.3684Z" fill="black"/>
<rect x="0.5" y="0.5" width="127" height="127" rx="63.5" stroke="black"/>
</svg>
