<svg width="24" height="24" viewBox="0 0 24 24" fill="none" xmlns="http://www.w3.org/2000/svg">
<g clip-path="url(#clip0)">
<path d="M7.98585 2.694C7.54528 2.77738 6.84894 2.98245 6.43881 3.15034C6.02979 3.31823 5.48782 3.59091 5.23656 3.75655C4.98416 3.92331 4.55599 4.24332 4.28556 4.46978C4.01402 4.69513 3.50471 5.2405 3.15429 5.68105C2.80275 6.12274 2.32163 6.86978 2.08388 7.34303C1.84726 7.81513 1.53289 8.5881 1.38754 9.06133C1.16669 9.77796 1.12275 10.1667 1.12726 11.4095C1.13063 12.3932 1.19711 13.1616 1.32331 13.672C1.42697 14.098 1.59035 14.6005 1.685 14.7898C1.77965 14.9791 1.90809 15.1075 1.97121 15.076C2.0343 15.0444 2.10979 14.7481 2.13909 14.4168C2.16951 14.0867 2.2236 13.4546 2.26078 13.014C2.30021 12.5329 2.36783 12.2579 2.42867 12.3267C2.48387 12.3898 2.78584 13.343 3.09909 14.4461C3.41121 15.5481 3.85176 17.3013 4.07824 18.3413C4.30472 19.3814 4.52782 20.4123 4.57627 20.6321C4.65514 20.996 4.71711 21.0477 5.23656 21.182C5.57121 21.2697 6.21345 21.3138 6.78248 21.29C7.38077 21.2641 7.89008 21.1773 8.10077 21.0659L8.44444 20.8822C8.38697 18.401 8.43317 17.4805 8.53344 16.9092C8.62134 16.4056 8.81852 15.761 8.97176 15.4771C9.13403 15.1785 9.39429 14.8934 9.59261 14.801C9.89683 14.6579 9.97684 14.6636 10.334 14.8585C10.6416 15.0253 10.7994 15.2348 11.0135 15.7633C11.2658 16.3853 11.2985 16.667 11.3582 18.7233C11.4078 20.4755 11.4596 21.0275 11.5836 21.1301C11.6861 21.2146 12.2292 21.2619 13.0732 21.2596C13.8326 21.2574 14.4997 21.2022 14.6304 21.1289C14.8129 21.0264 14.938 20.6399 15.2422 19.2416C15.4518 18.2737 15.8056 16.9149 16.0287 16.2219C16.2518 15.5289 16.6473 14.5284 16.9075 13.9988C17.1678 13.4692 17.5092 12.9385 17.667 12.8202C17.8247 12.7019 18.0692 12.6061 18.2112 12.6084C18.3532 12.6106 18.5594 12.6568 18.6698 12.712C18.7803 12.7661 18.9605 13.0241 19.0709 13.2844C19.1802 13.5447 19.2716 14.0292 19.2727 14.3605C19.2727 14.6906 19.1454 15.4771 18.9875 16.107C18.8298 16.7368 18.494 17.7813 18.2416 18.427C17.9881 19.0726 17.7819 19.6788 17.7819 19.7735C17.7819 19.8682 17.9228 20.0495 18.0963 20.1779C18.2698 20.3064 18.5143 20.4078 18.6405 20.4022C18.7666 20.3977 19.1024 20.1971 19.3854 19.9571C19.6692 19.7159 20.1942 19.139 20.5537 18.6726C20.912 18.2072 21.4372 17.3363 21.7211 16.7368C22.0038 16.1385 22.3542 15.2112 22.4997 14.6749C22.7171 13.8726 22.7634 13.4185 22.7611 12.0968C22.76 10.916 22.7047 10.2974 22.5537 9.74865C22.4411 9.33851 22.1527 8.59148 21.9116 8.08782C21.6716 7.58303 21.2073 6.83599 20.8805 6.42583C20.5526 6.01682 20.1222 5.54247 19.9216 5.37233L19.5577 5.06247C18.3137 5.65513 17.5926 6.08331 17.1509 6.39542C16.7104 6.70866 15.9757 7.33401 15.5194 7.7836C15.0619 8.23429 14.6878 8.65457 14.6878 8.71766C14.6878 8.78078 14.8106 9.0771 14.9594 9.37682C15.1081 9.67542 15.5081 10.1723 15.8473 10.481L16.4636 11.0411C15.7098 10.6613 15.2737 10.3312 15.0089 10.0642C14.7442 9.79598 14.4354 9.35768 14.3216 9.0895C14.1819 8.76049 14.1492 8.53738 14.2191 8.40218C14.2754 8.29176 14.6495 7.88837 15.0495 7.50527C15.4495 7.12217 15.9971 6.65796 16.2675 6.47428L16.7588 6.13965C16.1751 5.54922 15.6704 5.12893 15.2613 4.82584C14.8512 4.52162 14.1808 4.08895 13.7718 3.86472C13.3616 3.63936 12.6405 3.32162 12.1672 3.15936C11.6951 2.99599 11.0765 2.81796 10.7926 2.76387C10.5098 2.70867 9.94191 2.63655 9.53289 2.60387C9.11711 2.57007 8.43317 2.6095 7.98585 2.694Z" fill="black"/>
<path d="M23.9062 12C23.9062 5.42436 18.5756 0.09375 12 0.09375C5.42436 0.09375 0.09375 5.42436 0.09375 12C0.09375 18.5756 5.42436 23.9062 12 23.9062C18.5756 23.9062 23.9062 18.5756 23.9062 12Z" stroke="black"/>
</g>
<defs>
<clipPath id="clip0">
<rect width="24" height="24" fill="white"/>
</clipPath>
</defs>
</svg>
