<svg width="24" height="24" viewBox="0 0 24 24" fill="none" xmlns="http://www.w3.org/2000/svg">
<path fill-rule="evenodd" clip-rule="evenodd" d="M16.9665 10.7398C16.8971 9.8417 16.686 8.97564 16.3924 8.1272C15.7841 6.2327 14.808 4.55608 13.433 3.11345C13.0854 2.74858 12.6988 2.41427 12.4564 1.96014C12.303 1.67289 12.1569 1.3817 12.0075 1.0922L11.9128 0.853516C11.8969 0.908266 11.8867 0.927766 11.8862 0.947453C11.874 1.41939 11.6066 1.73945 11.2736 2.03814C10.8992 2.37433 10.5506 2.7392 10.1908 3.09152L9.08436 4.54708C8.78586 5.09552 8.48774 5.64395 8.18961 6.19239L7.59149 7.80808L7.57349 7.8332C7.24424 8.9147 7.08186 10.0266 7.00199 11.1497C6.97199 11.5718 7.00611 12 7.02992 12.4243C7.06386 13.0309 7.16924 13.6271 7.3273 14.214C7.90142 16.3463 9.06655 18.115 10.6594 19.6176C10.9554 19.8968 11.2592 20.1506 11.5682 20.4163C11.621 20.2354 11.6632 20.0545 11.7112 19.8735C11.7592 19.6933 11.8078 19.5141 11.8402 19.3333C11.8076 19.5141 11.771 19.6933 11.7349 19.8735L11.58 20.4163L11.7184 20.8853L11.8466 21.6135L11.9077 22.3735C11.9072 22.5278 11.901 22.6825 11.9104 22.8366C11.9126 22.876 11.9644 22.9123 11.9932 22.9502L12.2512 23.0408L12.5201 23.1454L12.474 22.4698L12.4719 21.8046L12.5647 20.7911L12.632 20.5705L12.8246 20.2292C13.0624 20.038 13.3175 19.8643 13.5341 19.6515C13.926 19.2664 14.3169 18.8764 14.6675 18.4547C15.1239 17.9081 15.5136 17.3092 15.8284 16.6705C16.0387 16.2422 16.2367 15.8053 16.4006 15.3578C16.545 14.9633 16.6344 14.5487 16.7482 14.143C16.7584 14.1137 16.7719 14.085 16.7782 14.0552C17.0134 12.96 17.0529 11.8538 16.9665 10.7398V10.7398ZM12.5417 19.9976L12.3907 19.6671L12.5417 19.9976L12.7635 20.187L12.5417 19.9976Z" fill="black"/>
</svg>
