<svg width="24" height="24" viewBox="0 0 24 24" fill="none" xmlns="http://www.w3.org/2000/svg">
<path d="M23.5269 23.0221L23.0364 22.5464C22.5716 21.9292 21.9736 21.3869 21.3461 20.9368C20.8456 20.5775 19.7221 20.0923 19.5133 19.5101L19.4748 19.4735C19.8298 19.4334 20.2441 19.3051 20.5717 19.2172C21.1218 19.0698 21.576 19.1079 22.1441 18.9612C22.4002 18.8881 22.6876 18.8148 22.8751 18.7417V18.5954C22.6876 18.3009 22.4201 17.9109 22.107 17.6442C21.2878 16.9467 20.4118 16.2498 19.4911 15.6686C18.9806 15.3464 18.3585 15.137 17.8175 14.8638C17.6355 14.7718 17.3203 14.7239 17.1999 14.5709C16.9155 14.2087 16.7634 13.7493 16.544 13.3273C16.0848 12.4428 15.6348 11.477 15.228 10.5464C14.9505 9.91194 14.7699 9.28644 14.4238 8.71719C12.7625 5.98588 10.9747 4.33756 8.20496 2.71719C7.61527 2.37256 6.90577 2.23663 6.15577 2.0585C5.75377 2.03431 5.35121 2.00975 4.94883 1.98519C4.70302 1.88281 4.44746 1.58225 4.21721 1.43638C3.29921 0.856626 0.945519 -0.404312 0.265831 1.25356C-0.163356 2.3 0.907081 3.32075 1.28996 3.85119C1.55902 4.22281 1.90308 4.64 2.09489 5.05831C2.22146 5.33338 2.24302 5.60919 2.35121 5.9C2.61708 6.61663 2.84827 7.39625 3.19252 8.05831C3.36633 8.39356 3.55796 8.74644 3.77789 9.04606C3.91252 9.23 4.14352 9.311 4.18008 9.59488C3.95433 9.911 3.94139 10.4019 3.81446 10.8024C3.24258 12.6052 3.45858 14.8462 4.29014 16.1804C4.54514 16.5903 5.14627 17.4687 5.97296 17.1316C6.69596 16.8372 6.57783 15.9245 6.78464 15.1194C6.83133 14.9371 6.74996 14.8029 6.93746 14.6804V14.717C7.1293 15.1621 7.33452 15.6013 7.55283 16.034C8.04033 16.8191 8.84452 17.6394 9.57746 18.1929C9.95752 18.4799 10.3125 18.9761 10.6875 19.1441V19.1251H10.7289C10.6338 18.9376 10.4848 18.9063 10.3633 18.7869C10.077 18.5064 9.75839 18.1527 9.52196 17.8312C8.85521 16.9261 8.26608 15.9333 7.72927 14.9021C7.47277 14.4097 7.24983 13.8654 7.03383 13.3644C6.95077 13.1713 6.95171 12.8784 6.77808 12.7784C6.54127 13.1456 6.19271 13.4422 6.00952 13.8759C5.71683 14.5689 5.67914 15.4141 5.57058 16.2903C5.50627 16.3132 5.53496 16.2974 5.49727 16.3267C4.98764 16.2039 4.80877 15.6794 4.61921 15.2293C4.14014 14.0911 4.05127 12.2587 4.47277 10.9488C4.58189 10.6096 5.07483 9.54238 4.87514 9.22906C4.77989 8.91688 4.46564 8.73594 4.28996 8.49725C4.07227 8.20213 3.85514 7.81363 3.70439 7.47275C3.31233 6.58569 3.12952 5.5895 2.71664 4.6925C2.51921 4.26369 2.18564 3.82963 1.91171 3.44863C1.60852 3.02619 1.26877 2.71513 1.03346 2.20456C0.950019 2.02306 0.836394 1.73244 0.960332 1.54588C0.999707 1.42006 1.05539 1.36756 1.17989 1.3265C1.39233 1.16281 1.98296 1.38088 2.20421 1.47256C2.79089 1.71631 3.28064 1.94131 3.77771 2.27056C4.01602 2.42881 4.25752 2.62494 4.54589 2.81244H4.87514C5.39021 2.81244 5.96714 2.85594 6.44846 3.00219C7.29877 3.26075 8.06096 3.66631 8.75321 4.10338C10.8618 5.435 12.5859 7.33212 13.7655 9.593C13.9552 9.95712 14.0373 10.3053 14.2044 10.6914C14.5415 11.4701 14.9664 12.2716 15.3018 13.0331C15.6367 13.793 15.963 14.5597 16.4362 15.1919C16.685 15.5242 17.6458 15.7027 18.0825 15.8874C18.3886 16.0166 18.8902 16.1516 19.1801 16.3261C19.7338 16.6602 20.2702 17.0581 20.79 17.4239C21.0495 17.6066 21.8475 18.0078 21.8874 18.3386C20.6006 18.3033 19.6179 18.4233 18.7777 18.7775C18.539 18.8782 18.158 18.881 18.119 19.1801C18.2503 19.3175 18.2707 19.523 18.375 19.6921C18.5754 20.0165 18.9142 20.4519 19.2165 20.6799C19.5468 20.9292 19.887 21.1957 20.241 21.4115C20.8708 21.7953 21.5735 22.0147 22.1799 22.3992C22.5373 22.6261 22.922 22.9117 23.2702 23.1674C23.4427 23.294 23.4373 23.4907 23.8123 23.57V23.5336C23.625 23.3846 23.6349 23.1787 23.5269 23.0221V23.0221ZM5.53383 4.4C5.26552 4.39494 5.06246 4.42944 4.87496 4.47294V4.50031H4.91208C5.04014 4.68781 5.26608 4.93719 5.42414 5.16369L5.79014 5.93394L5.82633 5.89888C6.05302 5.73894 6.15689 5.48431 6.15558 5.09431C6.06502 4.99888 6.05133 4.87944 5.97296 4.76544C5.86833 4.61375 5.66564 4.52769 5.53383 4.4V4.4Z" fill="black"/>
</svg>
