<svg width="24" height="24" viewBox="0 0 24 24" fill="none" xmlns="http://www.w3.org/2000/svg">
<g clip-path="url(#clip0)">
<path d="M14.1367 0.0546875C13.968 0.0546875 13.7992 0.0921875 13.6492 0.148438C13.968 0.354688 14.1367 0.635937 14.2305 0.954687C14.2305 0.992187 14.2492 1.02969 14.2492 1.06719C14.2492 1.10469 14.268 1.14219 14.268 1.17969C14.2867 1.72344 14.118 1.79844 14.0055 2.11719C13.818 2.52969 13.8742 2.97969 14.0992 3.33594C14.118 3.37344 14.1367 3.42969 14.1742 3.46719C13.9305 1.89219 15.243 1.66719 15.4867 1.17969C15.5055 0.748438 15.1492 0.467187 14.868 0.260937C14.5867 0.0921875 14.3617 0.0546875 14.1367 0.0546875ZM16.1055 0.392187C16.0867 0.542187 16.1055 0.504687 16.0867 0.579687C16.0867 0.635937 16.0867 0.692188 16.068 0.748438C16.0492 0.804688 16.0492 0.842187 16.0305 0.898438C16.0117 0.954688 15.993 0.992187 15.9742 1.04844C15.9555 1.08594 15.9367 1.12344 15.918 1.17969C15.8992 1.19844 15.8805 1.23594 15.8617 1.25469C15.843 1.27344 15.843 1.29219 15.8242 1.31094C15.7867 1.34844 15.768 1.40469 15.7305 1.44219L15.618 1.55469C15.5805 1.59219 15.543 1.62969 15.5055 1.64844C15.3742 1.74219 15.2242 1.81719 15.093 1.91094C15.0555 1.94844 14.9992 1.96719 14.9617 2.00469C14.9242 2.04219 14.8867 2.06094 14.8492 2.09844L14.7367 2.21094C14.6992 2.24844 14.6617 2.28594 14.643 2.34219C14.6055 2.37969 14.5867 2.43594 14.5492 2.47344C14.5305 2.52969 14.5117 2.56719 14.4742 2.62344C14.4555 2.67969 14.4367 2.71719 14.418 2.77344C14.3992 2.82969 14.3805 2.88594 14.3805 2.92344C14.3805 2.94219 14.3805 2.97969 14.3617 2.99844C14.3617 3.01719 14.3617 3.05469 14.343 3.07344V3.33594C14.343 3.39219 14.343 3.42969 14.3617 3.48594C14.3617 3.54219 14.3805 3.57969 14.3992 3.63594C14.418 3.69219 14.4367 3.72969 14.4555 3.78594C14.4742 3.82344 14.493 3.84219 14.493 3.87969L13.068 3.33594C12.8242 3.26094 12.5992 3.20469 12.3555 3.14844C12.2242 3.11094 12.093 3.09219 11.9617 3.05469C11.5867 2.97969 11.2117 2.92344 10.8367 2.88594H10.7992C10.4242 2.84844 10.068 2.82969 9.69297 2.82969C9.41172 2.82969 9.14922 2.84844 8.88672 2.86719C8.51172 2.88594 8.13672 2.94219 7.76172 2.99844L7.48047 3.05469C7.29297 3.09219 7.10547 3.12969 6.91797 3.18594C6.82422 3.20469 6.73047 3.24219 6.63672 3.26094C6.54297 3.29844 6.44922 3.33594 6.37422 3.37344C6.29922 3.41094 6.24297 3.42969 6.16797 3.46719C6.14922 3.46719 6.14922 3.46719 6.13047 3.48594C6.07422 3.52344 6.01797 3.54219 5.96172 3.57969C5.94297 3.57969 5.92422 3.59844 5.92422 3.59844C5.84922 3.63594 5.79297 3.67344 5.73672 3.69219C5.69922 3.71094 5.64297 3.72969 5.60547 3.74844C5.58672 3.76719 5.56797 3.76719 5.54922 3.78594C5.49297 3.82344 5.43672 3.84219 5.38047 3.87969C5.32422 3.91719 5.26797 3.93594 5.23047 3.97344C5.19297 4.01094 5.13672 4.02969 5.09922 4.06719C5.09922 4.06719 5.08047 4.06719 5.08047 4.08594C5.04297 4.10469 5.00547 4.14219 4.96797 4.17969L4.94922 4.19844C4.91172 4.21719 4.89297 4.25469 4.85547 4.27344C4.83672 4.27344 4.83672 4.29219 4.81797 4.29219C4.78047 4.31094 4.76172 4.34844 4.72422 4.36719C4.72422 4.38594 4.70547 4.38594 4.70547 4.38594L4.59297 4.49844L4.57422 4.51719L4.46172 4.62969C4.46172 4.62969 4.46172 4.64844 4.44297 4.64844L4.34922 4.74219C4.33047 4.76094 4.31172 4.76094 4.31172 4.77969L4.19922 4.89219C4.19922 4.91094 4.18047 4.91094 4.18047 4.92969L4.03047 5.07969L4.01172 5.09844C3.91797 5.21094 3.80547 5.30469 3.69297 5.39844C3.58047 5.49219 3.46797 5.58594 3.33672 5.67969C3.20547 5.77344 3.09297 5.84844 2.96172 5.92344C2.83047 5.99844 2.69922 6.05469 2.56797 6.11094C2.43672 6.16719 2.30547 6.22344 2.17422 6.26094C1.91172 6.31719 1.64922 6.42969 1.42422 6.44844C1.42422 6.35469 1.36797 6.37344 1.31172 6.37344C1.25547 6.39219 1.19922 6.39219 1.16172 6.41094C1.10547 6.42969 1.06797 6.44844 1.01172 6.46719C0.955469 6.48594 0.917969 6.50469 0.861719 6.54219C0.824219 6.57969 0.767969 6.59844 0.730469 6.63594C0.692969 6.67344 0.636719 6.71094 0.599219 6.74844C0.561719 6.78594 0.505469 6.82344 0.467969 6.86094C0.430469 6.89844 0.392969 6.93594 0.355469 6.99219C0.317969 7.04844 0.280469 7.08594 0.261719 7.14219C0.224219 7.17969 0.205469 7.23594 0.167969 7.29219C0.149219 7.34844 0.111719 7.40469 0.0929688 7.46094L0.0367188 7.62969C0.0179688 7.68594 0.0179688 7.72344 -0.00078125 7.77969V7.79844C-0.0195312 7.85469 -0.0195312 7.92969 -0.0195312 7.96719C-0.00078125 7.94844 -0.00078125 7.98594 -0.00078125 8.02344V8.09844C-0.00078125 8.13594 0.0179688 8.17344 0.0179688 8.21094C0.0367188 8.24844 0.0367188 8.28594 0.0554688 8.32344C0.0742188 8.36094 0.0929688 8.39844 0.130469 8.43594C0.149219 8.47344 0.186719 8.51094 0.205469 8.54844C0.242969 8.58594 0.280469 8.62344 0.317969 8.64219C0.355469 8.67969 0.392969 8.71719 0.430469 8.73594C0.580469 8.86719 0.617969 8.90469 0.805469 9.01719C0.842969 9.03594 0.861719 9.05469 0.899219 9.07344H0.917969V9.11094C0.917969 9.16719 0.936719 9.20469 0.955469 9.26094C0.974219 9.31719 0.992969 9.37344 1.01172 9.41094L1.06797 9.52344C1.06797 9.54219 1.08672 9.54219 1.08672 9.56094C1.10547 9.61719 1.14297 9.65469 1.16172 9.69219C1.19922 9.72969 1.21797 9.78594 1.25547 9.82344L1.36797 9.93594L1.48047 10.0484H1.49922C1.53672 10.0859 1.57422 10.1047 1.61172 10.1422C1.64922 10.1797 1.70547 10.1984 1.74297 10.2172C1.78047 10.2359 1.83672 10.2734 1.89297 10.2922C1.93047 10.3109 1.96797 10.3297 2.02422 10.3297C2.02422 10.3297 2.04297 10.3297 2.04297 10.3484C2.06172 10.3484 2.09922 10.3672 2.11797 10.3672C2.09922 10.7047 2.09922 11.0234 2.13672 11.1359C2.19297 11.2672 2.47422 10.8734 2.73672 10.4422C2.69922 10.8734 2.68047 11.3797 2.73672 11.5297C2.81172 11.6797 3.16797 11.1922 3.50547 10.6672C7.89297 9.65469 11.9055 12.6922 12.3367 16.9859C12.2617 16.3109 11.4367 15.9359 11.043 16.0297C10.8555 16.4797 10.5367 17.0797 10.0305 17.4359C10.068 17.0234 10.0492 16.6109 9.97422 16.1984C9.84297 16.7609 9.58047 17.3047 9.20547 17.7547C8.62422 17.7922 8.02422 17.5109 7.72422 17.0797C7.70547 17.0609 7.68672 17.0234 7.66797 17.0047C7.64922 16.9672 7.63047 16.9109 7.61172 16.8734C7.59297 16.8359 7.57422 16.7797 7.57422 16.7422V16.6109V16.5172C7.57422 16.4797 7.59297 16.4234 7.61172 16.3859C7.63047 16.3484 7.63047 16.2922 7.64922 16.2547C7.66797 16.2172 7.68672 16.1609 7.72422 16.1234C7.83672 15.8234 7.83672 15.5797 7.63047 15.4484L7.51797 15.3922C7.49922 15.3922 7.46172 15.3734 7.44297 15.3734C7.42422 15.3734 7.40547 15.3547 7.38672 15.3547C7.34922 15.3359 7.29297 15.3359 7.25547 15.3172C7.21797 15.2984 7.16172 15.2984 7.12422 15.2984C7.08672 15.2984 7.03047 15.2797 6.99297 15.2797H6.89922C6.84297 15.2797 6.80547 15.2797 6.76797 15.2984C6.73047 15.2984 6.67422 15.3172 6.63672 15.3172C6.59922 15.3359 6.54297 15.3359 6.50547 15.3547C6.46797 15.3734 6.43047 15.3922 6.37422 15.4109L6.26172 15.4672C4.81797 16.4047 5.68047 18.6172 6.65547 19.2547C6.28047 19.3297 5.90547 19.4047 5.79297 19.4797L5.77422 19.4984C6.03672 19.6672 6.31797 19.7984 6.61797 19.9109C7.01172 20.0422 7.44297 20.1547 7.63047 20.2109C8.13672 20.3234 8.66172 20.3609 9.18672 20.3234C11.9242 20.1359 14.1742 18.0359 14.5867 15.2984C14.6055 15.3547 14.6055 15.4109 14.6242 15.4672C14.643 15.5797 14.6617 15.6922 14.6805 15.8234C14.6992 15.8797 14.6992 15.9359 14.6992 15.9922V16.0109C14.6992 16.0672 14.718 16.1234 14.718 16.1797C14.718 16.2547 14.7367 16.3109 14.7367 16.3859V17.1734C14.7367 17.2297 14.718 17.2672 14.718 17.3234V17.3797C14.718 17.4359 14.6992 17.4922 14.6992 17.5672C14.6805 17.6234 14.6805 17.6797 14.6617 17.7359V17.7547C14.643 17.8109 14.643 17.8672 14.6242 17.9234V17.9422C14.6055 17.9984 14.6055 18.0547 14.5867 18.1109V18.1297L14.5305 18.2984V18.3172C14.5117 18.3734 14.493 18.4484 14.4742 18.5047C14.4555 18.5609 14.4367 18.6172 14.3992 18.6922C14.3805 18.7484 14.3617 18.8234 14.3242 18.8797C14.3055 18.9359 14.268 18.9922 14.2492 19.0672C14.2305 19.1234 14.193 19.1797 14.1742 19.2359C14.1742 19.2547 14.1555 19.2734 14.1555 19.2734C14.1555 19.2734 14.1555 19.2922 14.1367 19.2922C13.743 20.0984 13.143 20.8109 12.393 21.3734C12.3367 21.4109 12.2992 21.4484 12.243 21.4859C12.2242 21.5047 12.2055 21.5047 12.2055 21.5234C12.168 21.5609 12.1117 21.5797 12.0742 21.6172L12.093 21.6547C12.1867 21.6359 12.2617 21.6359 12.3555 21.6172C12.5242 21.5984 12.6742 21.5609 12.843 21.5234C12.8805 21.5234 12.9367 21.5047 12.9742 21.4859C13.0117 21.4859 13.0305 21.4672 13.068 21.4672C13.1055 21.4672 13.1617 21.4484 13.1992 21.4484C13.2367 21.4297 13.2742 21.4297 13.3117 21.4109C13.9305 21.2609 14.5305 21.0547 15.1117 20.8109C14.118 22.1609 12.8055 23.2484 11.268 23.9609C11.9805 23.9047 12.693 23.7922 13.3867 23.5859C15.8805 22.8547 17.9805 21.1672 19.2367 18.8984C18.9742 20.3234 18.4117 21.6922 17.568 22.8922C18.168 22.4984 18.7117 22.0297 19.218 21.5234C20.6055 20.0797 21.5242 18.2234 21.8242 16.2547C22.0305 17.2297 22.1055 18.2422 22.0117 19.2359C26.493 12.9922 22.3867 6.52344 20.6617 4.81719C20.6617 4.79844 20.643 4.79844 20.643 4.77969C20.643 4.85469 20.643 4.92969 20.6242 5.00469C20.6055 5.15469 20.5867 5.28594 20.568 5.41719C20.5305 5.54844 20.493 5.69844 20.4555 5.82969C20.418 5.96094 20.3617 6.09219 20.3055 6.22344C20.2492 6.35469 20.193 6.48594 20.118 6.59844C20.043 6.71094 19.968 6.84219 19.893 6.95469C19.818 7.06719 19.7242 7.17969 19.6305 7.29219C19.5367 7.40469 19.443 7.49844 19.3305 7.61094C19.2742 7.66719 19.218 7.72344 19.143 7.76094C19.0867 7.79844 19.0492 7.83594 18.993 7.89219C18.8805 7.98594 18.768 8.06094 18.6367 8.13594C18.5242 8.21094 18.393 8.28594 18.2617 8.34219L17.868 8.51094C17.7367 8.56719 17.6055 8.60469 17.4742 8.64219C17.343 8.67969 17.193 8.71719 17.0617 8.73594C16.9117 8.75469 16.7805 8.77344 16.6492 8.79219C16.5555 8.79219 16.443 8.81094 16.3492 8.81094C16.1992 8.81094 16.068 8.79219 15.9367 8.79219C15.7867 8.77344 15.6555 8.75469 15.5242 8.73594C15.3742 8.71719 15.243 8.67969 15.1117 8.62344C15.243 8.60469 15.393 8.60469 15.5242 8.56719C15.6742 8.54844 15.8055 8.51094 15.9367 8.47344C16.068 8.43594 16.218 8.39844 16.3305 8.34219L16.7242 8.17344C16.8555 8.11719 16.968 8.04219 17.0992 7.96719C17.2117 7.89219 17.343 7.79844 17.4555 7.72344C17.568 7.62969 17.6805 7.53594 17.7742 7.44219C17.8867 7.34844 17.9805 7.23594 18.0742 7.14219C18.168 7.02969 18.2617 6.91719 18.3367 6.80469C18.3555 6.78594 18.3555 6.76719 18.3742 6.74844C18.4305 6.65469 18.5055 6.54219 18.5617 6.44844C18.6367 6.31719 18.693 6.20469 18.7492 6.07344C18.8055 5.94219 18.8617 5.81094 18.8992 5.67969L19.0117 5.28594C19.0305 5.13594 19.068 5.00469 19.068 4.87344C19.0867 4.72344 19.0867 4.59219 19.0867 4.46094C19.0867 4.36719 19.0867 4.25469 19.068 4.16094C19.0492 4.01094 19.0305 3.87969 19.0117 3.74844C18.993 3.59844 18.9555 3.46719 18.918 3.33594C18.8805 3.20469 18.8242 3.07344 18.7867 2.94219C18.7305 2.81094 18.6742 2.67969 18.618 2.56719C18.543 2.43594 18.4867 2.32344 18.4117 2.19219C18.3367 2.07969 18.243 1.96719 18.168 1.85469C18.0742 1.74219 17.9805 1.64844 17.8867 1.53594C17.8305 1.47969 17.7742 1.42344 17.718 1.38594C17.4367 1.16094 17.1555 0.973437 16.8555 0.785937C16.818 0.767187 16.7805 0.748438 16.7242 0.729688C16.4805 0.523438 16.293 0.467187 16.1055 0.392187V0.392187Z" fill="black"/>
</g>
<defs>
<clipPath id="clip0">
<rect width="24" height="24" fill="white"/>
</clipPath>
</defs>
</svg>
