<svg width="128" height="128" viewBox="0 0 128 128" fill="none" xmlns="http://www.w3.org/2000/svg">
<path d="M112.405 26.9879C112.146 26.8818 111.884 26.7804 111.621 26.679C98.0607 21.3323 84.4451 16.1239 70.9724 10.556C66.7227 8.79991 63.0953 8.60632 58.7211 10.3947C43.7274 16.5158 28.5493 22.1897 13.4265 27.9881C12.3525 28.3983 11.9976 28.9237 12.0391 30.0668C12.205 34.7221 12.1036 39.3774 12.3295 44.0373C12.6245 50.1445 12.4401 56.2702 12.6521 62.3866C12.9333 70.4619 12.7397 78.5511 13.113 86.631C13.113 88.5991 13.1776 90.5673 13.09 92.5262C13.0393 93.6969 13.4265 94.2961 14.5096 94.8262C30.5358 102.671 46.5344 110.567 62.5237 118.481C63.4778 118.951 64.243 119.015 65.1833 118.476C66.5384 117.692 67.9672 117.029 69.3776 116.337C83.7215 109.276 98.0699 102.215 112.423 95.1719C113.294 94.7478 113.843 94.3376 113.87 93.213C114.151 83.2294 114.516 73.2505 114.82 63.2715C115.004 57.2704 114.958 51.2553 115.318 45.2634C115.58 40.8939 115.539 36.5197 115.755 32.1502C115.986 27.4995 116.783 28.7301 112.4 26.9925L112.405 26.9879ZM60.6063 108.308C60.6063 109.668 60.4311 109.963 59.0853 109.29C46.433 102.989 33.7623 96.7344 21.0731 90.5073C20.119 90.0372 19.8332 89.4749 19.824 88.447C19.7318 79.8094 19.6074 71.1671 19.4415 62.5295C19.2847 54.3988 19.0635 46.2728 18.8745 38.1421C18.8607 37.5291 18.8745 36.9161 18.8745 36.0081C24.1475 38.2896 29.1346 40.4329 34.108 42.5992C42.5336 46.2728 50.95 49.974 59.3895 53.6199C60.3528 54.0347 60.7031 54.5325 60.6985 55.6018C60.6336 73.1675 60.6063 90.7378 60.6107 108.303L60.6063 108.308ZM63.169 47.9736C50.6965 42.5071 38.2102 37.0774 25.7284 31.6293C25.3919 31.4819 24.9449 31.4449 24.7467 30.8411C37.8368 25.8079 50.8578 20.8023 63.865 15.7782C64.4965 15.5339 65.0311 15.58 65.6395 15.8194C77.9461 20.659 90.2527 25.4803 102.564 30.3061C102.817 30.4075 103.112 30.4674 103.246 30.9237C100.116 32.3249 96.9729 33.7399 93.8202 35.1411C84.293 39.3724 74.7658 43.5944 65.2385 47.8257C64.5564 48.1299 63.9526 48.3188 63.1736 47.9731L63.169 47.9736ZM108.814 37.7596C108.579 46.4479 108.339 55.1409 108.072 63.8292C107.892 69.7152 107.666 75.5966 107.454 81.4779C107.362 84.0544 107.187 86.631 107.187 89.2075C107.187 90.3184 106.519 90.618 105.753 90.9959C94.8296 96.3656 83.9104 101.74 72.9866 107.11C71.189 107.995 69.3822 108.875 67.3265 109.88C67.3265 108.179 67.3265 106.833 67.3265 105.492C67.3539 89.0416 67.4006 72.596 67.3722 56.1457C67.3722 54.6846 67.8378 54.0347 69.1882 53.4401C81.8175 47.8998 94.4098 42.2674 107.007 36.6534C108.841 35.8376 108.869 35.8191 108.814 37.755L108.814 37.7596Z" fill="black"/>
</svg>
