<svg width="24" height="24" viewBox="0 0 24 24" fill="none" xmlns="http://www.w3.org/2000/svg">
<path d="M21.077 5.06079C21.0285 5.0409 20.9793 5.02188 20.93 5.00287C18.3875 4.00037 15.8345 3.02379 13.3084 1.97981C12.5116 1.65054 11.8315 1.61424 11.0113 1.94957C8.19997 3.09727 5.35408 4.16113 2.51855 5.24833C2.31718 5.32524 2.25063 5.42375 2.25842 5.63808C2.28952 6.51095 2.27051 7.38382 2.31287 8.25755C2.36818 9.40265 2.3336 10.5512 2.37335 11.698C2.42608 13.2122 2.38978 14.7289 2.45977 16.2439C2.45977 16.6129 2.47188 16.9819 2.45546 17.3492C2.44595 17.5687 2.51855 17.6811 2.72163 17.7805C5.72655 19.2514 8.72628 20.7319 11.7243 22.2157C11.9032 22.3039 12.0466 22.3159 12.223 22.2148C12.477 22.0678 12.7449 21.9435 13.0094 21.8137C15.6989 20.4898 18.3892 19.1659 21.0804 17.8453C21.2437 17.7658 21.3466 17.6889 21.3517 17.478C21.4044 15.6061 21.4728 13.735 21.5298 11.864C21.5643 10.7388 21.5557 9.61093 21.6232 8.48745C21.6723 7.66817 21.6646 6.848 21.7051 6.02872C21.7485 5.15672 21.8979 5.38745 21.0761 5.06165L21.077 5.06079ZM11.3648 20.3083C11.3648 20.5633 11.3319 20.6186 11.0796 20.4924C8.70727 19.311 6.33152 18.1383 3.95229 16.9707C3.7734 16.8825 3.71981 16.7771 3.71808 16.5844C3.7008 14.9648 3.67747 13.3444 3.64637 11.7248C3.61697 10.2003 3.57549 8.67671 3.54005 7.1522C3.53747 7.03727 3.54005 6.92233 3.54005 6.75208C4.52874 7.17986 5.46382 7.58173 6.39633 7.98791C7.97613 8.67671 9.55421 9.37068 11.1366 10.0543C11.3172 10.1321 11.3829 10.2254 11.3821 10.4259C11.3699 13.7195 11.3648 17.0139 11.3656 20.3074L11.3648 20.3083ZM11.8453 8.99561C9.50668 7.97064 7.1655 6.95257 4.82516 5.93105C4.76207 5.90342 4.67825 5.89648 4.64109 5.78327C7.09548 4.83954 9.53692 3.90099 11.9758 2.95897C12.0942 2.91317 12.1944 2.92181 12.3085 2.9667C14.616 3.87412 16.9235 4.77812 19.2318 5.68295C19.2793 5.70197 19.3346 5.7132 19.3597 5.79875C18.7728 6.06148 18.1835 6.32679 17.5924 6.58952C15.806 7.38288 14.0197 8.17451 12.2333 8.96788C12.1054 9.02492 11.9922 9.06033 11.8461 8.99552L11.8453 8.99561ZM20.4037 7.08048C20.3596 8.70954 20.3146 10.3395 20.2646 11.9685C20.2308 13.0722 20.1885 14.1749 20.1487 15.2777C20.1315 15.7608 20.0986 16.2439 20.0986 16.727C20.0986 16.9353 19.9734 16.9914 19.8298 17.0623C17.7816 18.0691 15.7343 19.0768 13.6861 20.0837C13.349 20.2496 13.0102 20.4146 12.6248 20.6031C12.6248 20.2841 12.6248 20.0317 12.6248 19.7803C12.6299 16.6959 12.6387 13.6123 12.6334 10.5279C12.6334 10.2539 12.7207 10.1321 12.9739 10.0206C15.3419 8.98177 17.7029 7.9257 20.0649 6.87307C20.4088 6.72011 20.414 6.71664 20.4037 7.07962V7.08048Z" fill="black"/>
</svg>
