<svg width="24" height="24" viewBox="0 0 24 24" fill="none" xmlns="http://www.w3.org/2000/svg">
<path d="M12 0C5.38125 0 0 5.38125 0 12C0 18.6187 5.38125 24 12 24C18.6187 24 24 18.6187 24 12C24 5.38125 18.6187 0 12 0ZM18.1312 21.45L9.075 7.8375H7.8V17.2313H9.075V10.3687L17.3625 21.9C15.7687 22.7625 13.95 23.25 12 23.25C5.775 23.2688 0.73125 18.225 0.73125 12C0.73125 5.775 5.775 0.73125 12 0.73125C18.225 0.73125 23.2687 5.775 23.2687 12C23.2687 15.9563 21.225 19.4438 18.1312 21.45V21.45Z" fill="black"/>
<path d="M14.7383 13.7422L16.1445 15.8609V7.83594H14.7383V13.7422Z" fill="black"/>
</svg>
