<svg width="24" height="24" viewBox="0 0 24 24" fill="none" xmlns="http://www.w3.org/2000/svg">
<path d="M21.1271 5.68775L12.8503 0.886812C12.3289 0.589812 11.6458 0.589812 11.1202 0.886812L2.77875 5.68775C2.24081 5.99731 1.875 6.57913 1.875 7.20144V16.7906C1.875 17.4129 2.2485 17.9949 2.78663 18.3061L4.98581 19.5601C6.04087 20.0799 6.33319 20.0799 6.81319 20.0799C8.37581 20.0799 9.18731 19.1351 9.18731 17.4871V8.02025C9.1875 7.88656 9.27094 7.68762 9.1395 7.68762H8.08538C7.95188 7.68762 7.6875 7.88656 7.6875 8.02006V17.4869C7.6875 18.2174 7.0095 18.9444 5.77463 18.3269L3.50175 17.012C3.42263 16.9689 3.375 16.8821 3.375 16.7906V7.20144C3.375 7.11106 3.46181 7.02031 3.54206 6.974L11.8629 2.18131C11.9038 2.15961 11.9493 2.14826 11.9956 2.14826C12.0419 2.14826 12.0874 2.15961 12.1282 2.18131L20.3713 6.97287C20.4503 7.02031 20.4377 7.10825 20.4377 7.20144V16.7906C20.4377 16.8821 20.4549 16.9711 20.3771 17.0152L12.1022 21.8107C12.0313 21.8532 11.9391 21.8532 11.8612 21.8107L9.73931 20.5452C9.67538 20.5081 9.59831 20.4948 9.53681 20.5291C8.94712 20.8634 8.83762 20.9079 8.2845 21.0997C8.14819 21.1471 7.94719 21.2294 8.361 21.4614L11.1356 23.1027C11.4005 23.2558 11.701 23.3364 12.0069 23.3364C12.314 23.3369 12.6158 23.2563 12.8818 23.1027L21.1273 18.3061C21.6656 17.9926 21.9377 17.4129 21.9377 16.7906V7.20144C21.9375 6.57913 21.6654 5.99881 21.1271 5.68775V5.68775ZM14.5738 15.2711C12.375 15.2711 11.8909 14.6645 11.7294 13.5712C11.7103 13.4534 11.6106 13.3126 11.4906 13.3126H10.4162C10.2833 13.3126 10.1762 13.4739 10.1762 13.6063C10.1762 15.0061 10.9374 16.7023 14.5738 16.7023C17.2059 16.7023 18.7153 15.6794 18.7153 13.8693C18.7153 12.0746 17.5028 11.6036 14.9499 11.2657C12.3696 10.9246 12.1074 10.7523 12.1074 10.1478C12.1074 9.64944 12.3294 8.98475 14.2401 8.98475C15.9471 8.98475 16.5763 9.35112 16.8353 10.5018C16.8576 10.61 16.9564 10.6876 17.0679 10.6876H18.1468C18.2132 10.6876 18.2764 10.6608 18.3229 10.6134C18.3681 10.5624 18.3917 10.4984 18.3859 10.4298C18.2184 8.44812 16.9022 7.52469 14.2399 7.52469C11.8714 7.52469 10.4587 8.52481 10.4587 10.2012C10.4587 12.0196 11.8644 12.5221 14.1379 12.7469C16.8576 13.0136 17.0691 13.4111 17.0691 13.946C17.0691 14.8752 16.3232 15.2711 14.5738 15.2711Z" fill="black"/>
</svg>
