<svg width="24" height="24" viewBox="0 0 24 24" fill="none" xmlns="http://www.w3.org/2000/svg">
<path d="M19.7232 20.2719L19.7465 20.2246C19.7697 20.1894 19.7855 20.1504 19.8012 20.1076V20.1039C19.8755 19.9089 19.8912 19.7019 19.856 19.4941V19.5016C19.817 19.2826 19.739 19.0719 19.6212 18.8806L19.6287 18.8881L14.3082 9.53264L13.4959 8.11439L7.37891 18.8881C7.27316 19.0756 7.20716 19.2789 7.17191 19.4896V19.5016C7.12916 19.7439 7.15616 19.9899 7.25366 20.2164L7.24991 20.2089C7.26191 20.2441 7.28141 20.2756 7.30091 20.3101L7.29716 20.3064C7.45766 20.5801 7.79741 20.9079 8.54741 20.9079H18.4459C18.6019 20.9079 19.3715 20.8764 19.727 20.2711L19.7232 20.2719ZM13.4967 10.9554L18.3559 19.5024H8.64116L13.4967 10.9554ZM23.7462 18.8896L16.7307 6.53039C16.6564 6.39764 16.2544 5.74139 15.5472 5.74139C15.2307 5.74139 14.7777 5.87789 14.4064 6.52664L13.5004 8.11664L14.3052 9.53864L15.5554 7.32389L22.4967 19.5076H19.856C19.8912 19.7109 19.8717 19.9179 19.8012 20.1129V20.1054C19.7855 20.1481 19.7697 20.1916 19.7465 20.2306V20.2269L19.7232 20.2741C19.3677 20.8794 18.6019 20.9109 18.4534 20.9109H22.5822C22.7345 20.9109 23.4965 20.8794 23.852 20.2741C24.0125 19.9966 24.1212 19.5361 23.7462 18.8911V18.8896ZM7.30541 20.3071C7.28966 20.2756 7.27391 20.2449 7.25816 20.2134V20.2096C7.16066 19.9831 7.12916 19.7371 7.17191 19.4949V19.5024H1.49967L9.92966 4.67039L12.6949 9.53339L13.4997 8.11514L11.0854 3.86489C11.0187 3.74414 10.6129 3.08789 9.90941 3.08789C9.59291 3.08789 9.13616 3.22439 8.76866 3.87689L0.229921 18.8889C0.155671 19.0179 -0.196079 19.6974 0.155671 20.3026C0.316171 20.5801 0.655921 20.9041 1.40592 20.9041H8.55416C7.81166 20.9041 7.46441 20.5839 7.30391 20.3026L7.30541 20.3071Z" fill="black"/>
</svg>
