<svg width="128" height="128" viewBox="0 0 128 128" fill="none" xmlns="http://www.w3.org/2000/svg">
<path d="M105.188 108.124L105.312 107.872C105.436 107.684 105.52 107.476 105.604 107.248V107.228C106 106.188 106.084 105.084 105.896 103.976V104.016C105.688 102.848 105.272 101.724 104.644 100.704L104.684 100.744L76.3076 50.848L71.9756 43.284L39.3516 100.744C38.7876 101.744 38.4356 102.828 38.2476 103.952V104.016C38.0196 105.308 38.1636 106.62 38.6836 107.828L38.6636 107.788C38.7276 107.976 38.8316 108.144 38.9356 108.328L38.9156 108.308C39.7716 109.768 41.5836 111.516 45.5836 111.516H98.3756C99.2076 111.516 103.312 111.348 105.208 108.12L105.188 108.124ZM71.9796 58.436L97.8956 104.02H46.0836L71.9796 58.436ZM126.644 100.752L89.2276 34.836C88.8316 34.128 86.6876 30.628 82.9156 30.628C81.2276 30.628 78.8116 31.356 76.8316 34.816L71.9996 43.296L76.2916 50.88L82.9596 39.068L119.98 104.048H105.896C106.084 105.132 105.98 106.236 105.604 107.276V107.236C105.52 107.464 105.436 107.696 105.312 107.904V107.884L105.188 108.136C103.292 111.364 99.2076 111.532 98.4156 111.532H120.436C121.248 111.532 125.312 111.364 127.208 108.136C128.064 106.656 128.644 104.2 126.644 100.76V100.752ZM38.9596 108.312C38.8756 108.144 38.7916 107.98 38.7076 107.812V107.792C38.1876 106.584 38.0196 105.272 38.2476 103.98V104.02H7.99564L52.9556 24.916L67.7036 50.852L71.9956 43.288L59.1196 20.62C58.7636 19.976 56.5996 16.476 52.8476 16.476C51.1596 16.476 48.7236 17.204 46.7636 20.684L1.22364 100.748C0.82764 101.436 -1.04836 105.06 0.82764 108.288C1.68364 109.768 3.49564 111.496 7.49564 111.496H45.6196C41.6596 111.496 39.8076 109.788 38.9516 108.288L38.9596 108.312Z" fill="black"/>
</svg>
