<svg width="24" height="24" viewBox="0 0 24 24" fill="none" xmlns="http://www.w3.org/2000/svg">
<path d="M11.9772 23.5106C5.8514 23.5106 0.657843 18.3368 0.609656 12.1727C0.599146 10.6856 0.883861 9.21129 1.4473 7.83507C2.01074 6.45885 2.8417 5.20813 3.89203 4.15539C4.9493 3.07283 6.21107 2.21106 7.6041 1.62011C8.99713 1.02915 10.4937 0.72078 12.0068 0.712895C13.4928 0.711635 14.9644 1.00439 16.3368 1.57429C17.7091 2.14419 18.9552 2.97998 20.0032 4.03352C21.0685 5.07217 21.9178 6.31138 22.5021 7.67975C23.0864 9.04811 23.3941 10.5186 23.4076 12.0064C23.4359 18.3071 18.3706 23.4478 12.0697 23.512H11.9772V23.5106ZM12.0128 1.30952C10.5787 1.31802 9.16044 1.61124 7.84046 2.17216C6.52049 2.73307 5.32504 3.55052 4.32347 4.57708C3.32735 5.5731 2.53882 6.75692 2.00357 8.05992C1.46832 9.36293 1.19701 10.7592 1.20534 12.1678C1.24959 18.0101 6.17316 22.909 11.9735 22.909H12.0511C18.0254 22.8546 22.8331 17.9841 22.8108 12.01C22.7975 10.6006 22.5054 9.20773 21.9514 7.91174C21.3973 6.61574 20.5923 5.44221 19.5826 4.45877C18.5921 3.45894 17.413 2.66572 16.1136 2.12512C14.8142 1.58451 13.4204 1.30729 12.013 1.30952H12.0128Z" fill="black"/>
<path d="M3.1662 15.4458V8.78614H4.7862V9.38295H3.92689V14.8613H4.78639V15.4581L3.16602 15.4458H3.1662ZM8.66427 12.05C8.66427 13.2646 7.92683 13.9563 6.92802 13.9563C5.9292 13.9563 5.26358 13.177 5.26358 12.113C5.26358 10.9994 5.96145 10.2153 6.98239 10.2153C8.00333 10.2153 8.66427 11.0328 8.66427 12.05ZM5.96145 12.1043C5.96145 12.8416 6.33139 13.4262 6.96645 13.4262C7.60152 13.4262 7.96639 12.8294 7.96639 12.0771C7.96639 11.3941 7.62964 10.7491 6.96627 10.7491C6.30289 10.7491 5.95527 11.3731 5.95527 12.1191L5.96145 12.1041V12.1043ZM9.22527 10.3411C9.54214 10.2867 9.86408 10.2597 10.1858 10.2608C10.5474 10.2257 10.9109 10.3059 11.224 10.4901C11.3415 10.559 11.4384 10.6582 11.5045 10.7772C11.5707 10.8963 11.6037 11.0309 11.6001 11.167C11.596 11.344 11.536 11.5151 11.4288 11.6559C11.3217 11.7967 11.1727 11.9001 11.0033 11.9513C11.4288 12.0376 11.7346 12.4126 11.7346 12.8466C11.7368 12.9893 11.7065 13.1306 11.6461 13.2598C11.5856 13.389 11.4966 13.5028 11.3856 13.5925C11.1291 13.8194 10.7026 13.9293 10.0428 13.9293C9.77158 13.9305 9.50059 13.9144 9.23145 13.8811L9.22527 10.3411ZM9.88133 11.7702H10.2179C10.6741 11.7702 10.9306 11.5555 10.9306 11.2486C10.9306 10.9415 10.6741 10.7528 10.2537 10.7528C10.1277 10.7489 10.0017 10.7581 9.87758 10.78L9.88133 11.77V11.7702ZM9.88133 13.4348C9.9972 13.447 10.1144 13.4521 10.2301 13.4495C10.6544 13.4495 11.0292 13.288 11.0292 12.8528C11.0292 12.4176 10.6655 12.256 10.2093 12.256H9.88114V13.4348H9.88133ZM13.0381 10.2929H13.6975V12.6468C13.6975 13.6469 13.2143 13.981 12.5041 13.981C12.3143 13.9798 12.1261 13.9477 11.9466 13.886L12.0269 13.3546C12.1587 13.3966 12.2969 13.4174 12.4362 13.42C12.8123 13.42 13.033 13.2473 13.033 12.6209L13.0379 10.2929H13.0381ZM15.5744 12.2534V12.7098H14.2019V12.2534H15.5744V12.2534ZM18.779 13.8046C18.4818 13.9231 18.1638 13.9773 17.8456 13.9662C16.6964 13.9662 15.9985 13.2473 15.9985 12.1461C15.9455 11.1425 16.7161 10.2856 17.7198 10.2325C17.7901 10.2288 17.8617 10.2288 17.9318 10.2336C18.2385 10.2209 18.5443 10.2761 18.8271 10.3953L18.6803 10.9205C18.4557 10.8253 18.214 10.7775 17.9701 10.7798C17.2328 10.7798 16.7026 11.2424 16.7026 12.1141C16.7026 12.9081 17.1711 13.4211 17.9652 13.4211C18.2114 13.4249 18.4559 13.3792 18.6841 13.2867L18.779 13.8046V13.8046ZM20.8493 8.76758V15.4445H19.2291V14.8478H20.0885V9.36439H19.2291V8.76758H20.8491H20.8493Z" fill="black"/>
</svg>
