<svg width="24" height="24" viewBox="0 0 24 24" fill="none" xmlns="http://www.w3.org/2000/svg">
<path d="M12 6.19531C5.6738 6.19531 0.544922 8.79444 0.544922 12.0005C0.544922 15.2066 5.6738 17.8057 12 17.8057C18.3263 17.8057 23.4552 15.2066 23.4552 12.0005C23.4552 8.79444 18.3263 6.19531 12 6.19531ZM9.01936 13.1315C8.74599 13.3872 8.44242 13.4928 8.10811 13.6016C7.7738 13.7105 7.34836 13.688 6.83105 13.688H5.65861L5.33367 15.563H3.96473L5.1863 9.188H7.8188C8.6108 9.188 9.18849 9.41581 9.55167 9.8315C9.91486 10.2472 10.024 10.8372 9.87924 11.5822C9.81942 11.8891 9.71874 12.1745 9.57661 12.4287C9.42933 12.6911 9.24123 12.9283 9.01936 13.1315V13.1315ZM13.0152 13.688L13.5554 10.9843C13.6169 10.6678 13.5944 10.4326 13.4877 10.3177C13.3808 10.2026 13.1535 10.1255 12.8061 10.1255H11.7205L11.0209 13.688H9.66267L10.8842 7.5005H12.2425L11.9177 9.188H13.1277C13.8891 9.188 14.4141 9.34081 14.703 9.60631C14.992 9.87181 15.0786 10.2356 14.9631 10.8303L14.3948 13.688H13.0152ZM20.5637 11.5921C20.5041 11.8991 20.4032 12.1796 20.2613 12.4336C20.1192 12.6881 19.9335 12.9207 19.7042 13.1315C19.4309 13.3872 19.1271 13.4928 18.793 13.6016C18.4589 13.7105 18.033 13.688 17.5157 13.688H16.3433L16.0185 15.563H14.6496L15.871 9.188H18.5037C19.2957 9.188 19.8734 9.41581 20.2364 9.8315C20.5992 10.2472 20.7085 10.8474 20.5637 11.5921V11.5921ZM17.9849 10.1255H17.0472L16.5359 12.7505H17.3687C17.9204 12.7505 18.3317 12.6961 18.6017 12.488C18.8721 12.2802 19.0542 11.9577 19.1489 11.4716C19.2396 11.0045 19.1984 10.6402 19.0251 10.4482C18.8517 10.2562 18.505 10.1255 17.9849 10.1255V10.1255ZM7.30017 10.1255H6.3623L5.85098 12.7505H6.68367C7.23549 12.7505 7.64667 12.6961 7.91686 12.488C8.18705 12.2802 8.3693 11.9577 8.4638 11.4716C8.55455 11.0045 8.5133 10.6402 8.34005 10.4482C8.1668 10.2562 7.8203 10.1255 7.30017 10.1255Z" fill="black"/>
</svg>
