<svg width="24" height="24" viewBox="0 0 24 24" fill="none" xmlns="http://www.w3.org/2000/svg">
<path fill-rule="evenodd" clip-rule="evenodd" d="M23.1109 14.397C23.0265 13.8499 22.5669 13.4916 22.0324 13.4674C21.8389 13.4586 21.6424 13.4788 21.4494 13.5034C21.2164 13.533 20.9861 13.5855 20.7536 13.6202C20.5929 13.6442 20.43 13.6553 20.2695 13.6718L20.2656 13.6509C20.5652 13.0851 20.8774 12.5254 21.1609 11.9514C21.3782 11.5112 21.5642 11.055 21.7564 10.6026C22.0744 9.85294 22.3284 9.08006 22.5388 8.29462C22.7404 7.54256 22.9129 6.78225 22.9671 6.00206C22.9888 5.69044 23.0038 5.3775 23.0021 5.0655C23.0006 4.81669 22.9738 4.5675 22.9489 4.31944C22.9207 4.03519 22.8349 3.76575 22.716 3.50644C22.5593 3.16481 22.3162 2.8845 22.0605 2.61825C21.8557 2.40506 21.6306 2.21081 21.4072 2.01675C21.0889 1.73981 20.7309 1.51875 20.3591 1.32244C19.9379 1.09862 19.4917 0.925541 19.0297 0.806812C18.7498 0.735375 18.4635 0.682312 18.18 0.625687C18.078 0.605062 17.9758 0.5625 17.8738 0.5625H15.9536C15.8842 0.5625 15.8154 0.598313 15.7455 0.606188C15.2857 0.657375 14.8314 0.744 14.3903 0.880688C14.2253 0.931875 14.0745 0.899625 13.9177 0.885188C13.7976 0.874125 13.6794 0.841875 13.5593 0.835875C13.1014 0.813 12.6429 0.779438 12.1852 0.784313C11.7467 0.788813 11.3126 0.861 10.8881 0.981563C10.5328 1.08244 10.1852 1.20563 9.86681 1.39238C9.7305 1.47225 9.6225 1.45725 9.4815 1.41656C9.00769 1.27987 8.5305 1.15144 8.04919 1.04362C7.74919 0.9765 7.44075 0.943125 7.13437 0.911063C6.84039 0.880509 6.54526 0.862118 6.24975 0.855938C5.96138 0.84975 5.67094 0.849938 5.38388 0.875438C4.92665 0.915187 4.47596 1.01045 4.04175 1.15913C3.56086 1.32332 3.11154 1.56841 2.71313 1.88381C2.30681 2.20537 1.98094 2.598 1.71881 3.04631C1.44262 3.51937 1.25325 4.02581 1.1355 4.55775C1.07175 4.84594 1.03144 5.14219 0.98775 5.43488C0.974063 5.526 1.125 5.61712 0.9375 5.70787V6.98175C1.125 7.0665 0.9765 7.15106 0.987375 7.236C1.01344 7.44019 1.0365 7.64606 1.071 7.84875C1.12556 8.16956 1.19025 8.48944 1.25625 8.80819C1.34789 9.25369 1.44453 9.69816 1.54613 10.1415C1.62038 10.464 1.70494 10.7846 1.79344 11.1036C1.92862 11.5907 2.06175 12.0787 2.21456 12.5604C2.3565 13.008 2.51906 13.4492 2.68031 13.8904C2.90363 14.5007 3.171 15.0913 3.49162 15.6574C3.76894 16.1475 4.08581 16.6065 4.51088 16.9841C4.791 17.2329 5.10281 17.4242 5.46581 17.5198C5.751 17.5948 6.04088 17.6038 6.33281 17.544C6.66543 17.4763 6.97615 17.3275 7.23731 17.1107C7.26787 17.0856 7.30144 17.0664 7.33762 17.1126C7.47544 17.2871 7.65994 17.4036 7.85287 17.5043C8.37356 17.7758 8.94094 17.8571 9.51731 17.8903C9.65681 17.8984 9.79781 17.8783 9.93844 17.8744C10.2124 17.8669 10.4786 17.8134 10.7406 17.7377C10.8778 17.6979 11.0119 17.6475 11.1516 17.6004C11.1589 17.7491 11.1683 17.8924 11.1726 18.0356L11.1921 18.8168C11.1956 18.9356 11.2003 19.0549 11.2114 19.1732C11.2397 19.4783 11.2674 19.7835 11.3038 20.0876C11.3291 20.2973 11.3554 20.5086 11.4047 20.7131C11.5035 21.1261 11.639 21.5294 11.8093 21.9184C11.9724 22.2959 12.2231 22.6292 12.5406 22.8906C12.9568 23.2348 13.4447 23.3816 13.9716 23.4088C14.1894 23.4203 14.4135 23.4096 14.628 23.3706C14.9689 23.31 15.3061 23.2302 15.6381 23.1315C16.3114 22.9282 16.8934 22.5773 17.3282 22.0101C17.5757 21.6868 17.7789 21.3371 17.9094 20.9511C18.0171 20.6321 18.1185 20.31 18.1991 19.9836C18.2629 19.7263 18.2944 19.461 18.3332 19.1983C18.3589 19.0245 18.3743 18.849 18.3904 18.6739C18.4166 18.3894 18.4434 18.1052 18.4624 17.8202C18.4755 17.6218 18.4749 17.4225 18.4828 17.2238C18.4852 17.1632 18.495 17.103 18.5006 17.0426C18.5059 16.9867 18.534 16.9674 18.591 16.9684C18.7918 16.9714 18.993 16.9766 19.1932 16.9676C19.4177 16.9575 19.6442 16.9479 19.8651 16.9108C20.1798 16.8582 20.492 16.7915 20.8007 16.7108C21.165 16.6155 21.4991 16.4449 21.8207 16.2504C22.1953 16.0241 22.5368 15.7586 22.8139 15.4166C23.0548 15.1183 23.169 14.7735 23.1109 14.397V14.397ZM22.4711 14.5811C22.4588 14.7527 22.3802 14.8997 22.2662 15.0253C21.7282 15.6184 21.0534 15.9782 20.2815 16.1554C19.9882 16.2225 19.6856 16.2574 19.3854 16.2851C19.129 16.3077 18.8713 16.3138 18.6141 16.3033C18.4254 16.2962 18.2383 16.2531 18.0456 16.2253C18.0262 16.4016 18.0079 16.5851 17.9856 16.7683L17.8958 17.4705C17.8686 17.6931 17.8474 17.9164 17.8194 18.1387C17.7921 18.3546 17.7579 18.5696 17.7292 18.7854C17.7024 18.9864 17.6828 19.1884 17.6529 19.389C17.607 19.6965 17.5631 20.0048 17.5031 20.3098C17.4311 20.6745 17.3207 21.0278 17.1405 21.3566C16.9208 21.7581 16.6091 22.0639 16.2126 22.2904C15.8038 22.524 15.357 22.6455 14.904 22.7471C14.5834 22.8191 14.253 22.8309 13.9282 22.8017C13.365 22.7507 12.8842 22.5097 12.5209 22.0731C12.174 21.6562 11.9393 21.1785 11.8553 20.6378C11.816 20.3803 11.7853 20.1217 11.7632 19.8622C11.7383 19.5739 11.7196 19.2851 11.7071 18.996C11.6905 18.6292 11.6782 18.2623 11.6702 17.8952C11.6603 17.4441 11.6571 16.9929 11.6507 16.5418L11.6496 16.5246C11.4201 16.6622 11.1945 16.8129 10.9553 16.9371C10.6757 17.0817 10.3696 17.168 10.0556 17.1907C9.8085 17.2095 9.55819 17.2266 9.31219 17.2069C8.90888 17.1744 8.50594 17.1112 8.14481 16.9127C7.99837 16.8321 7.84556 16.734 7.74469 16.6052C7.50281 16.2966 7.61869 15.9066 7.98337 15.7189C8.23537 15.5889 8.51044 15.5347 8.78363 15.4716C9.0214 15.4176 9.25669 15.3532 9.48881 15.2786C9.71794 15.2036 9.8625 15.0178 10.0052 14.8356L10.2313 14.5447C10.137 14.5348 10.0481 14.5247 9.95925 14.5164C9.68944 14.4909 9.432 14.4167 9.18581 14.3076C8.97506 14.2144 8.97188 14.2043 8.81738 14.3719C8.55938 14.652 8.3085 14.9387 8.05575 15.2235C7.86975 15.4329 7.68488 15.6437 7.49981 15.8537C7.31644 16.0614 7.14469 16.281 6.94725 16.4743C6.654 16.7614 6.30056 16.9341 5.87888 16.9146C5.60831 16.9022 5.36063 16.8073 5.13788 16.6522C4.67813 16.332 4.36838 15.8841 4.08638 15.4136C3.72506 14.8108 3.44775 14.1686 3.21037 13.5088C3.04612 13.0528 2.88112 12.5964 2.73769 12.1339C2.58187 11.6312 2.44519 11.1221 2.31075 10.6133C2.21033 10.2288 2.11769 9.84233 2.03288 9.45413C1.93398 9.01325 1.84247 8.57075 1.75838 8.12681C1.7025 7.827 1.67006 7.52288 1.62488 7.221C1.56394 6.81413 1.55269 6.4035 1.57481 5.99494C1.5945 5.62687 1.64737 5.25975 1.69987 4.89412C1.77262 4.38825 1.93931 3.91088 2.17912 3.46013C2.32594 3.18394 2.50819 2.93287 2.71894 2.69962C3.06488 2.31675 3.48356 2.04 3.94931 1.83225C4.27481 1.68713 4.61869 1.59975 4.96913 1.5315C5.48925 1.43025 6.01406 1.43419 6.53906 1.44506C6.76856 1.44975 6.99713 1.49156 7.22644 1.51425C7.72013 1.56338 8.20406 1.66725 8.68181 1.7955C9.03 1.88888 9.37106 2.00981 9.71644 2.11481C9.75112 2.12531 9.80194 2.12437 9.83025 2.10581C10.2983 1.80037 10.8098 1.59881 11.3537 1.4835C11.5601 1.43981 11.7731 1.42069 11.9843 1.40719C12.2409 1.39088 12.4997 1.37587 12.7558 1.39069C13.0637 1.40831 13.3701 1.45369 13.6761 1.49569C13.8246 1.51594 13.9695 1.5675 14.1184 1.58156C14.1896 1.58831 14.2652 1.53619 14.3406 1.51875C14.7248 1.43006 15.1073 1.33125 15.4948 1.26112C15.7834 1.209 16.0781 1.18444 16.3716 1.16756C16.6988 1.14881 17.0284 1.13513 17.3554 1.15088C17.7694 1.17138 18.1808 1.2293 18.5844 1.32394C19.0864 1.44075 19.5679 1.61044 20.0256 1.84594C20.3676 2.02181 20.6927 2.22581 20.9854 2.47669C21.1772 2.64131 21.3735 2.80388 21.5468 2.98725C21.7605 3.21338 21.9786 3.43969 22.1126 3.72937C22.2135 3.94781 22.2855 4.17394 22.3054 4.41319C22.3301 4.71056 22.3601 5.00906 22.3573 5.30681C22.3547 5.59162 22.3159 5.87625 22.2883 6.16031C22.2257 6.80794 22.0849 7.4415 21.9139 8.06662C21.7708 8.58301 21.6089 9.09398 21.4284 9.5985C21.2636 10.0637 21.0735 10.5204 20.8813 10.9753C20.7398 11.3122 20.5861 11.6439 20.4204 11.9696C20.106 12.5858 19.779 13.1955 19.4008 13.7758C19.3356 13.8761 19.2737 13.9789 19.2099 14.0812C19.3749 14.1926 19.5619 14.2318 19.7501 14.2521C19.9292 14.2716 20.1118 14.2832 20.2907 14.2699C20.577 14.2487 20.8624 14.2078 21.147 14.1679C21.429 14.1285 21.7054 14.0483 21.9949 14.0694C22.284 14.0904 22.4908 14.3102 22.4711 14.5811V14.5811ZM18.3437 13.9524C18.2209 13.7938 18.0956 13.6371 17.9754 13.4766C17.7868 13.2246 17.6513 12.9431 17.5151 12.6604C17.3861 12.3924 17.2279 12.1387 17.0919 11.8738C16.8547 11.4116 16.6133 10.9509 16.3948 10.4797C16.1201 9.88781 15.9036 9.27488 15.8353 8.61919C15.8064 8.34169 15.7991 8.06456 15.8552 7.78969C15.945 7.35075 16.1743 7.00744 16.5598 6.77194C16.9174 6.5535 17.3158 6.483 17.724 6.46088C17.9773 6.44719 18.2318 6.45844 18.4946 6.45844L18.4858 6.414C18.3223 6.07219 18.1695 5.72456 17.9906 5.39081C17.7382 4.91981 17.4154 4.49513 17.0557 4.10138C16.7893 3.80981 16.5008 3.53925 16.1846 3.30019C15.8738 3.06487 15.5462 2.85469 15.1967 2.68275C14.7799 2.47781 14.3458 2.31938 13.8904 2.21831C13.4528 2.12119 13.0123 2.06175 12.5634 2.05688C12.1806 2.05275 11.8001 2.07 11.4272 2.15644C10.8643 2.28675 10.3494 2.5185 9.9015 2.89388C9.65367 3.10172 9.43222 3.33911 9.24206 3.60075C9.01781 3.90881 8.83688 4.24144 8.68219 4.59019C8.46994 5.06869 8.32425 5.56669 8.22469 6.07856C8.17481 6.33375 8.13581 6.59119 8.09606 6.84844C8.08219 6.93844 8.08106 7.0305 8.073 7.13363C8.14219 7.09763 8.19206 7.06988 8.24306 7.04513L8.409 6.97069C8.97019 6.714 9.55163 6.54881 10.1766 6.56775C10.4421 6.57581 10.6961 6.62831 10.9322 6.74456C11.385 6.96788 11.6499 7.34756 11.7651 7.82812C11.8446 8.15981 11.8989 8.49806 11.9518 8.83538C11.9933 9.09881 12.0356 9.36506 12.0405 9.63075C12.0474 10.0191 12.0278 10.4081 12.0066 10.7963C11.9884 11.1263 11.9201 11.4516 11.8041 11.7611C11.5941 12.3223 11.3601 12.8743 11.1414 13.4323C11.0693 13.6166 11.0137 13.8075 10.9455 14.0102C11.0509 14.0102 11.1364 14.0094 11.2219 14.0106C11.2552 14.0111 11.2894 14.0121 11.3216 14.0198C11.5729 14.079 11.7908 14.1928 11.9694 14.3861C12.2078 14.6434 12.3328 14.9436 12.3392 15.291C12.3427 15.4836 12.3225 15.6767 12.3234 15.8693C12.3274 16.7666 12.3341 17.664 12.3416 18.5612C12.3429 18.7078 12.3503 18.8546 12.3608 19.0011C12.3827 19.3076 12.4048 19.6144 12.4348 19.9202C12.4558 20.1371 12.4851 20.3537 12.5194 20.5691C12.5679 20.8744 12.7069 21.1461 12.8646 21.4058C13.0003 21.6291 13.1767 21.8188 13.4092 21.9497C13.8043 22.1721 14.2298 22.1906 14.6586 22.1087C14.9483 22.0534 15.2327 21.9645 15.5139 21.8728C15.7905 21.7841 16.0431 21.6331 16.2521 21.4314C16.4492 21.2404 16.5891 21.0075 16.6834 20.7504C16.8664 20.2519 16.9234 19.7269 16.9991 19.206C17.0274 19.011 17.052 18.8154 17.0779 18.6201C17.1073 18.3977 17.1371 18.1755 17.1656 17.9533C17.1866 17.7877 17.2058 17.6218 17.226 17.4562C17.2549 17.2185 17.2854 16.9809 17.313 16.743C17.3342 16.5591 17.3522 16.3744 17.3709 16.1901C17.3951 15.9546 17.4212 15.7191 17.442 15.4832C17.4581 15.3041 17.4516 15.1219 17.4833 14.9462C17.5416 14.6241 17.6938 14.3499 17.9794 14.1727C18.0988 14.0987 18.2336 14.0499 18.3662 13.9873L18.3437 13.9524V13.9524ZM7.54425 12.6302C7.40184 12.2953 7.31605 11.9391 7.29037 11.5761C7.26637 11.2339 7.30706 10.893 7.34213 10.5523C7.37625 10.2223 7.40456 9.89081 7.4145 9.55931C7.431 9.01444 7.39425 8.47031 7.36819 7.92581C7.35244 7.60162 7.39013 7.2735 7.419 6.94856C7.44506 6.65587 7.4775 6.36244 7.53281 6.07406C7.62562 5.59013 7.74881 5.11313 7.92394 4.65075C8.09025 4.21238 8.28131 3.78544 8.55112 3.40106C8.736 3.13744 8.94581 2.89106 9.14737 2.63344L9.08756 2.61225C8.43169 2.40394 7.76512 2.24119 7.07962 2.17013C6.75544 2.13656 6.43013 2.11688 6.105 2.09756C6.00525 2.09156 5.904 2.10506 5.80388 2.11462C5.556 2.13825 5.30513 2.14762 5.06119 2.19412C4.64606 2.27306 4.24781 2.40581 3.879 2.622C3.54787 2.81606 3.26981 3.06694 3.03694 3.36787C2.77969 3.70012 2.60663 4.07587 2.48231 4.47656C2.3355 4.94925 2.26556 5.43562 2.24663 5.9265C2.23013 6.35681 2.22188 6.78956 2.29613 7.21819C2.35144 7.53731 2.38837 7.85981 2.44931 8.17762C2.53237 8.61094 2.62144 9.04331 2.72437 9.47213C2.87156 10.086 3.01856 10.7008 3.19294 11.3072C3.35981 11.8883 3.54806 12.4641 3.75206 13.0329C3.91894 13.4972 4.11187 13.9528 4.31512 14.4024C4.4475 14.6953 4.60781 14.9771 4.77581 15.2514C4.9545 15.5426 5.15775 15.819 5.43356 16.0303C5.78156 16.2971 6.051 16.3386 6.40463 16.0459C6.55613 15.9204 6.68419 15.7656 6.816 15.618C7.02544 15.3836 7.22756 15.1429 7.43606 14.9078C7.70156 14.6081 7.97044 14.3117 8.23725 14.0136C8.29369 13.9506 8.34787 13.8857 8.40281 13.8219L8.31206 13.7422C7.98254 13.4282 7.72119 13.0496 7.54425 12.6302V12.6302ZM17.6108 3.711C17.8289 3.96462 18.0359 4.22762 18.2312 4.49925C18.6062 5.02594 18.9058 5.59463 19.1265 6.20306C19.2242 6.47119 19.3022 6.74194 19.2673 7.03537C19.2431 7.24087 19.2452 7.44938 19.227 7.656C19.2118 7.82794 19.1846 7.99894 19.1623 8.17031C19.1289 8.42869 19.0806 8.68631 19.0661 8.94581C19.0524 9.19275 19.0667 9.44231 19.0823 9.68981C19.098 9.94125 19.1319 10.1916 19.155 10.4426C19.1811 10.7273 19.2161 11.0119 19.2242 11.2971C19.2307 11.5312 19.2099 11.7669 19.1895 12.0007C19.1651 12.2824 19.0937 12.555 18.9872 12.8166C18.9124 13.0007 18.8229 13.1792 18.7384 13.3635L18.7723 13.3995L18.8239 13.4394L18.8758 13.3464C19.3144 12.6562 19.7042 11.9361 20.0424 11.1915C20.2588 10.7108 20.4643 10.2253 20.6588 9.73538C20.9633 8.97338 21.2042 8.19 21.3906 7.39106C21.4742 7.03237 21.5381 6.66825 21.5949 6.30413C21.6392 6.0195 21.6761 5.7315 21.6844 5.44425C21.6932 5.13956 21.6763 4.83244 21.6482 4.5285C21.6272 4.299 21.5706 4.068 21.4268 3.88144C21.1956 3.58106 20.946 3.29381 20.6391 3.06656C20.3807 2.87512 20.1233 2.67881 19.8459 2.51775C19.4063 2.26275 18.9304 2.09288 18.4331 1.97719C17.9479 1.86413 17.4562 1.81537 16.9614 1.80506C16.6697 1.79887 16.3766 1.83019 16.0854 1.85756C15.8216 1.88231 15.5595 1.9245 15.2938 1.95937C15.5788 2.11969 15.8599 2.26219 16.125 2.43019C16.6824 2.78325 17.1819 3.20812 17.6108 3.711V3.711ZM10.3686 13.5964C10.5487 13.0202 10.7942 12.4701 11.0319 11.9166C11.2247 11.4677 11.3301 10.9948 11.3651 10.5092C11.3826 10.2697 11.3777 10.0273 11.3659 9.78713C11.3542 9.51992 11.3296 9.25342 11.2924 8.98856C11.2425 8.65087 11.1857 8.313 11.1058 7.9815C11.0192 7.62281 10.8008 7.37306 10.4265 7.281C10.1985 7.22494 9.972 7.22719 9.74156 7.26356C9.17869 7.35225 8.66344 7.55962 8.18344 7.86337C8.08688 7.9245 8.03381 7.97381 8.0505 8.11237C8.08575 8.40581 8.09344 8.70394 8.09213 9.00019C8.09025 9.41944 8.07244 9.83869 8.0565 10.2578C8.05125 10.3943 8.03156 10.53 8.01694 10.6659C7.99444 10.8741 7.95112 11.082 7.95244 11.2898C7.95375 11.5039 7.97569 11.7231 8.02762 11.9304C8.19262 12.588 8.54212 13.1261 9.11494 13.5058C9.46725 13.7392 9.85706 13.857 10.2849 13.8793C10.314 13.7811 10.3399 13.6882 10.3686 13.5964ZM9.69619 7.95506C9.62081 7.79681 9.66394 7.66575 9.83869 7.605C9.88125 7.59 9.92512 7.57406 9.96937 7.56975C10.0301 7.56375 10.092 7.56825 10.1535 7.56825C10.3751 7.56937 10.5883 7.60031 10.7713 7.74131C10.8887 7.83169 10.9202 7.95169 10.8442 8.07488C10.7364 8.24963 10.572 8.33737 10.3701 8.35425C10.0519 8.38069 9.82856 8.23237 9.69619 7.95506ZM18.5162 7.89731C18.5417 7.68656 18.5621 7.47525 18.5882 7.2645C18.5987 7.17975 18.5541 7.15688 18.483 7.15481C18.2595 7.14863 18.036 7.14075 17.8125 7.13663C17.5605 7.13213 17.3152 7.17262 17.082 7.26844C16.8232 7.37494 16.6262 7.54556 16.5458 7.82719C16.4869 8.03487 16.4683 8.25188 16.4908 8.46656C16.5221 8.79853 16.5974 9.12488 16.7145 9.43706C16.8709 9.8535 17.0346 10.2698 17.2301 10.6688C17.4951 11.2089 17.7949 11.7319 18.0763 12.2638C18.1515 12.4057 18.2147 12.5539 18.2931 12.7196C18.4511 12.3901 18.5374 12.0308 18.5464 11.6655C18.5541 11.3636 18.5299 11.0604 18.5123 10.7584C18.5012 10.5735 18.4751 10.3898 18.4571 10.2053C18.432 9.94819 18.3939 9.69131 18.3881 9.43369C18.3823 9.17175 18.4009 8.90831 18.4234 8.64675C18.4446 8.39588 18.486 8.14706 18.5162 7.89731V7.89731ZM18.012 7.69444C17.9289 7.92375 17.7514 8.05312 17.5211 8.09119C17.3064 8.12644 17.1184 8.04713 16.9785 7.87594C16.8789 7.75406 16.917 7.60969 17.0662 7.52737C17.2376 7.4325 17.4261 7.4085 17.6483 7.39406C17.7086 7.40513 17.7996 7.41431 17.886 7.43906C18.0114 7.4745 18.0578 7.56881 18.012 7.69444ZM11.3704 14.7557C11.2476 14.6554 11.0852 14.6496 10.9684 14.7596C10.8234 14.8965 10.6959 15.0531 10.5684 15.2074C10.4213 15.3857 10.2833 15.5711 10.0933 15.7093C9.81694 15.9101 9.49481 15.9934 9.171 16.0721C8.91356 16.1348 8.655 16.1929 8.39681 16.2531L8.39362 16.2864C8.47031 16.3219 8.54456 16.3661 8.62444 16.3914C9.01819 16.5161 9.41869 16.5782 9.83475 16.5429C10.1351 16.5174 10.4213 16.452 10.6924 16.3234C11.0655 16.1466 11.3526 15.8664 11.5967 15.5406C11.6376 15.4862 11.6561 15.4058 11.661 15.3356C11.6777 15.0879 11.5519 14.9038 11.3704 14.7557V14.7557ZM21.0737 14.8543C20.7568 14.8882 20.4396 14.9243 20.1218 14.9424C19.9684 14.9513 19.8128 14.922 19.6579 14.9094C19.3982 14.8884 19.1447 14.8307 18.9251 14.6919C18.798 14.6119 18.6924 14.6029 18.5574 14.6483C18.3647 14.7131 18.2074 14.8118 18.1609 15.0206C18.1292 15.1618 18.1177 15.3081 18.105 15.4526C18.1026 15.4781 18.1344 15.525 18.1588 15.5314C18.3075 15.5706 18.4569 15.6169 18.609 15.6306C18.7958 15.6474 18.9859 15.642 19.1739 15.6326C19.377 15.6225 19.5814 15.6094 19.7814 15.5756C20.253 15.4965 20.7092 15.3675 21.1144 15.1001C21.2604 15.0036 21.4052 14.9049 21.5503 14.8073L21.5383 14.7866C21.3834 14.8097 21.2293 14.8378 21.0737 14.8543V14.8543Z" fill="black"/>
</svg>
