<svg width="24" height="24" viewBox="0 0 24 24" fill="none" xmlns="http://www.w3.org/2000/svg">
<g clip-path="url(#clip0_505:11)">
<path d="M0 12V0H12H24V12V24H12H0V12ZM11.28 20.25V19.5H6.78H2.28V20.25V21H6.78H11.28V20.25ZM17.3275 13.106C18.2104 12.9264 19.0249 12.4947 19.7484 11.8227L20.13 11.4682L19.4333 10.7677L18.7365 10.0672L18.3533 10.3783C17.7145 10.8968 17.1236 11.1427 16.38 11.1993C14.5992 11.3349 13.2411 10.0062 13.2447 8.1315C13.2475 6.64266 14.1387 5.44986 15.4856 5.13239C15.9801 5.01582 16.2844 5.01699 16.8182 5.13753C17.3384 5.25503 17.8534 5.50485 18.3037 5.85816C18.4873 6.00217 18.6538 6.12 18.6739 6.12C18.6939 6.12 19.0152 5.76481 19.388 5.33068L20.0658 4.54136L19.7679 4.27725C18.7136 3.34245 17.5303 2.95421 15.93 3.01795C14.9884 3.05545 14.5583 3.1595 13.77 3.54049C12.5128 4.14807 11.6613 5.12946 11.2203 6.47919C10.7639 7.87579 10.8857 9.32673 11.5705 10.65C11.9291 11.3429 12.705 12.1515 13.3794 12.5349C13.828 12.7901 14.5016 13.0463 14.965 13.1383C15.4081 13.2261 16.8322 13.2067 17.3275 13.106V13.106ZM4.39395 11.655L4.41001 10.17L5.76001 10.1327C7.26435 10.0911 7.46998 10.0525 8.25001 9.6658C8.97425 9.30672 9.5685 8.66189 9.83734 7.94335C10.1041 7.23045 10.1068 6.02756 9.84322 5.33392C9.47595 4.36736 8.75453 3.70978 7.6564 3.34061C7.31473 3.22575 7.11898 3.21594 4.75501 3.19517L2.22001 3.17289V8.15645V13.14H3.29896H4.37791L4.39395 11.655ZM4.38001 6.63V5.1H5.29009C6.42944 5.1 6.8786 5.17392 7.24489 5.42173C7.647 5.69378 7.80035 6.01852 7.79869 6.59444C7.7971 7.15562 7.67458 7.45257 7.31933 7.75665C6.92851 8.09119 6.60205 8.16 5.40577 8.16H4.38001V6.63Z" fill="black"/>
</g>
<defs>
<clipPath id="clip0_505:11">
<rect width="24" height="24" fill="white"/>
</clipPath>
</defs>
</svg>
