<svg width="24" height="24" viewBox="0 0 24 24" fill="none" xmlns="http://www.w3.org/2000/svg">
<path d="M9.25054 11.6245H14.7179C16.2398 11.6245 17.4387 10.3368 17.4387 8.80848V3.59636C17.4387 2.11286 16.1952 0.998357 14.7096 0.750857C13.7695 0.594294 12.798 0.523044 11.862 0.527544C10.9264 0.531856 10.0598 0.611544 9.2736 0.750857C6.95704 1.15979 6.56366 2.01667 6.56366 3.59636V5.62454H12.0012V6.37454H4.45916C2.86841 6.37454 1.47529 7.33229 1.03973 9.15161C0.537038 11.2366 0.514725 12.5114 1.03973 14.6885C1.42879 16.3089 2.35785 17.437 3.94879 17.437H5.81366V14.9905C5.81366 13.1836 7.39391 11.6245 9.25054 11.6245ZM8.90591 4.29142C8.33854 4.29142 7.87879 3.82661 7.87879 3.25173C7.87879 2.67442 8.33835 2.20529 8.90591 2.20529C9.47123 2.20529 9.93323 2.67442 9.93323 3.25173C9.93304 3.82661 9.47104 4.29142 8.90591 4.29142ZM22.9289 9.15161C22.5355 7.56761 21.7845 6.37454 20.1915 6.37454H18.1887V8.80848C18.1887 10.6929 16.5398 12.187 14.7179 12.187H9.25054C7.75279 12.187 6.56366 13.5607 6.56366 15.0607V20.2732C6.56366 21.7563 7.82835 22.6289 9.27529 23.0545C11.0082 23.564 12.6492 23.656 14.7224 23.0545C16.1003 22.6554 17.4387 21.8525 17.4387 20.2732V18.187H12.0012V17.437H20.1915C21.7823 17.437 22.3754 16.354 22.9289 14.6883C23.5002 12.9736 23.4756 11.351 22.9289 9.15161V9.15161ZM15.0623 19.5777C15.6299 19.5777 16.0896 20.0425 16.0896 20.6178C16.0896 21.1945 15.63 21.6639 15.0623 21.6639C14.497 21.6639 14.0352 21.1947 14.0352 20.6178C14.0352 20.0425 14.497 19.5777 15.0623 19.5777Z" fill="black"/>
</svg>
