<svg width="24" height="24" viewBox="0 0 24 24" fill="none" xmlns="http://www.w3.org/2000/svg">
<path fill-rule="evenodd" clip-rule="evenodd" d="M20.5661 2.76389C18.2775 1.63458 15.9334 1.51964 13.5334 2.36808C11.3248 3.14883 9.56306 4.54589 8.25338 6.44864C6.03731 9.66839 4.42763 13.1816 3.52556 16.998C3.06356 18.9511 2.76431 21.0228 2.84475 23.04C2.85131 23.2036 2.87569 23.2507 2.89181 23.6257H14.2104C14.178 23.2507 14.1566 23.3602 14.1285 23.2888C13.5304 21.7565 13.0645 20.1758 12.7358 18.5641C12.2674 16.2671 12.0221 13.9275 12.5059 11.6092C13.1829 8.36302 15.0334 6.02077 18.1528 4.80614C19.9198 4.11858 21.597 4.31414 23.0679 5.60527C23.0814 5.61708 23.1092 5.60995 23.1452 5.61577L23.6261 4.8877C22.6999 4.00589 21.6821 3.31477 20.5661 2.76389V2.76389ZM0.62625 17.6996C0.54 18.4351 0.459375 19.1238 0.375 19.8466L2.46225 20.0971L2.84456 17.8672L0.62625 17.6996V17.6996ZM4.72313 11.2897L2.75981 10.5215L2.12531 12.3228L4.12613 12.9641C4.32863 12.3958 4.51913 11.8612 4.72313 11.2897ZM13.9892 21.3508C14.6595 21.4006 15.3311 21.435 16.071 21.4781C15.8023 20.9195 15.5636 20.4144 15.3137 19.9153C15.2863 19.8611 15.1939 19.8088 15.1311 19.8078C14.5624 19.7996 13.9933 19.8031 13.389 19.8031C13.5251 20.2959 13.6434 20.7506 13.782 21.1987C13.8028 21.2664 13.9146 21.3453 13.9892 21.3508V21.3508ZM8.05069 5.83252L6.55913 4.84477L5.36681 6.17695L6.90019 7.20745L8.05069 5.83252ZM12.8008 15.8392C12.7984 15.8994 12.8526 15.9952 12.9054 16.019C13.4426 16.2605 13.9854 16.4906 14.5764 16.7452C14.5519 16.278 14.5354 15.8874 14.5074 15.4976C14.5024 15.4275 14.4694 15.3266 14.4174 15.2977C13.9241 15.0247 13.4239 14.7639 12.8769 14.4736C12.8471 14.9733 12.8168 15.4059 12.8008 15.8392V15.8392ZM12.3589 2.30695L11.3378 1.14802L9.93169 1.87889L10.9545 3.12464L12.3589 2.30695ZM12.9992 11.5275C12.9686 11.5976 13.0089 11.7463 13.0691 11.8005C13.4769 12.1683 13.8986 12.5205 14.3678 12.9219C14.4752 12.4719 14.5764 12.0708 14.6623 11.667C14.6775 11.5951 14.6563 11.4765 14.6064 11.4363C14.2416 11.1421 13.8649 10.862 13.4745 10.5643C13.3029 10.9046 13.1366 11.2098 12.9992 11.5275ZM15.3336 1.69795C15.8548 1.71202 16.3766 1.70583 16.9271 1.70583C16.8722 1.32258 16.8459 1.03214 16.7805 0.751078C16.761 0.667453 16.6352 0.556078 16.5503 0.548953C16.0277 0.506578 15.5031 0.490266 14.9282 0.462891C15.0049 0.849703 15.0634 1.19058 15.1461 1.52564C15.1635 1.5967 15.2674 1.69608 15.3336 1.69795V1.69795ZM15.9683 8.38702C15.9949 8.33714 16.0016 8.24658 15.9737 8.20308C15.7176 7.80239 15.4515 7.40789 15.1761 6.99277L14.2836 7.81252L15.5177 9.18014C15.6834 8.89158 15.8318 8.64239 15.9683 8.38702V8.38702ZM16.9311 5.6632L17.4641 6.65339C18.2983 6.19627 18.3782 6.03089 18.0829 5.37202L16.9311 5.6632ZM20.9224 2.61202C21.2694 2.82614 21.636 3.00858 22.0084 3.2092L22.2578 2.82108C21.8036 2.48902 21.3653 2.16783 20.8678 1.8037C20.8483 2.0107 20.8193 2.15527 20.8268 2.29814C20.8328 2.40708 20.8509 2.56814 20.9224 2.61202V2.61202ZM20.4383 5.74683C20.8133 5.78752 21.3758 5.82633 21.7508 5.86739V5.35777C21.3758 5.27564 20.8133 5.19427 20.4383 5.1097V5.74683Z" fill="black"/>
</svg>
