<svg width="24" height="24" viewBox="0 0 24 24" fill="none" xmlns="http://www.w3.org/2000/svg">
<path d="M12.0008 14.1383C13.1813 14.1383 14.1383 13.1813 14.1383 12.0008C14.1383 10.8203 13.1813 9.86328 12.0008 9.86328C10.8203 9.86328 9.86328 10.8203 9.86328 12.0008C9.86328 13.1813 10.8203 14.1383 12.0008 14.1383Z" fill="black"/>
<path d="M20.118 8.47578C19.7055 8.32578 19.2742 8.17578 18.8242 8.04453C18.9367 7.59453 19.0305 7.14453 19.1055 6.71328C19.4992 4.23828 19.068 2.49453 17.868 1.81953C17.5117 1.61328 17.118 1.51953 16.668 1.51953C15.3555 1.51953 13.6867 2.49453 11.9992 4.12578C10.3117 2.49453 8.64297 1.51953 7.33047 1.51953C6.88047 1.51953 6.48672 1.61328 6.13047 1.81953C4.93047 2.51328 4.49922 4.25703 4.89297 6.71328C4.96797 7.14453 5.06172 7.59453 5.17422 8.04453C4.72422 8.17578 4.29297 8.30703 3.88047 8.47578C1.53672 9.37578 0.261719 10.6133 0.261719 12.0008C0.261719 13.3883 1.55547 14.6258 3.88047 15.5258C4.29297 15.6758 4.72422 15.8258 5.17422 15.957C5.06172 16.407 4.96797 16.857 4.89297 17.2883C4.49922 19.7633 4.93047 21.507 6.13047 22.182C6.48672 22.3883 6.88047 22.482 7.33047 22.482C8.66172 22.482 10.3305 21.507 11.9992 19.8758C13.6867 21.507 15.3555 22.482 16.668 22.482C17.118 22.482 17.5117 22.3883 17.868 22.182C19.068 21.4883 19.4992 19.7445 19.1055 17.2883C19.0305 16.857 18.9367 16.407 18.8242 15.957C19.2742 15.8258 19.7055 15.6945 20.118 15.5258C22.4617 14.6258 23.7367 13.3883 23.7367 12.0008C23.7367 10.6133 22.4617 9.37578 20.118 8.47578V8.47578ZM17.343 2.75703C18.1117 3.20703 18.3742 4.59453 18.0555 6.56328C17.9992 6.95703 17.9055 7.36953 17.793 7.80078C16.818 7.57578 15.7867 7.42578 14.6992 7.33203C14.0617 6.43203 13.4055 5.62578 12.7492 4.89453C14.1367 3.52578 15.543 2.58828 16.6867 2.58828C16.9305 2.58828 17.1555 2.64453 17.343 2.75703V2.75703ZM15.243 13.8758C14.9055 14.4758 14.5117 15.0758 14.0992 15.6758C13.4055 15.732 12.7117 15.7508 11.9992 15.7508C11.268 15.7508 10.5742 15.732 9.89922 15.6758C9.48672 15.0758 9.11172 14.4758 8.77422 13.8758C8.41797 13.257 8.08047 12.6195 7.78047 12.0008C8.08047 11.382 8.41797 10.7445 8.77422 10.1258C9.11172 9.52578 9.50547 8.92578 9.91797 8.32578C10.6117 8.26953 11.3055 8.25078 12.018 8.25078C12.7492 8.25078 13.443 8.26953 14.118 8.32578C14.5305 8.92578 14.9055 9.52578 15.243 10.1258C15.5992 10.7445 15.9367 11.382 16.2367 12.0008C15.918 12.6195 15.5992 13.2383 15.243 13.8758ZM16.7992 13.257C17.0805 13.9133 17.3055 14.5508 17.5117 15.1883C16.8742 15.3383 16.1992 15.4508 15.4867 15.5445C15.7117 15.1883 15.9555 14.8133 16.1617 14.4195C16.3867 14.0258 16.593 13.632 16.7992 13.257ZM11.9992 18.3383C11.5492 17.8508 11.118 17.3258 10.7055 16.782C11.1367 16.8008 11.568 16.8195 11.9992 16.8195C12.4305 16.8195 12.8617 16.8008 13.293 16.782C12.8805 17.3258 12.4492 17.8508 11.9992 18.3383ZM8.51172 15.5258C7.79922 15.432 7.12422 15.3195 6.48672 15.1695C6.69297 14.5508 6.91797 13.8945 7.19922 13.2383C7.40547 13.6133 7.61172 14.007 7.83672 14.382C8.06172 14.7945 8.28672 15.1508 8.51172 15.5258V15.5258ZM7.19922 10.7445C6.91797 10.0883 6.69297 9.45078 6.48672 8.81328C7.12422 8.66328 7.79922 8.55078 8.51172 8.45703C8.28672 8.81328 8.04297 9.18828 7.83672 9.58203C7.61172 9.97578 7.40547 10.3695 7.19922 10.7445V10.7445ZM11.9992 5.66328C12.4492 6.15078 12.8805 6.67578 13.293 7.21953C12.8617 7.20078 12.4305 7.18203 11.9992 7.18203C11.568 7.18203 11.1367 7.20078 10.7055 7.21953C11.118 6.67578 11.5492 6.15078 11.9992 5.66328ZM16.1617 9.60078L15.4867 8.47578C16.1992 8.56953 16.8742 8.68203 17.5117 8.83203C17.3055 9.45078 17.0805 10.107 16.7992 10.7633C16.593 10.3695 16.3867 9.97578 16.1617 9.60078ZM5.94297 6.56328C5.62422 4.59453 5.88672 3.20703 6.65547 2.75703C6.84297 2.64453 7.06797 2.58828 7.31172 2.58828C8.43672 2.58828 9.84297 3.50703 11.2492 4.89453C10.593 5.60703 9.93672 6.43203 9.29922 7.33203C8.21172 7.42578 7.18047 7.59453 6.20547 7.80078C6.09297 7.36953 6.01797 6.95703 5.94297 6.56328V6.56328ZM1.31172 12.0008C1.31172 11.1195 2.38047 10.182 4.25547 9.48828C4.63047 9.33828 5.04297 9.20703 5.45547 9.09453C5.75547 10.032 6.13047 11.0258 6.58047 12.0195C6.13047 13.0133 5.73672 13.9883 5.45547 14.9258C2.86797 14.1758 1.31172 13.0508 1.31172 12.0008ZM6.65547 21.2445C5.88672 20.7945 5.62422 19.407 5.94297 17.4383C5.99922 17.0445 6.09297 16.632 6.20547 16.2008C7.18047 16.4258 8.21172 16.5758 9.29922 16.6695C9.93672 17.5695 10.593 18.3758 11.2492 19.107C9.86172 20.4758 8.45547 21.4133 7.31172 21.4133C7.06797 21.4133 6.84297 21.357 6.65547 21.2445ZM18.0555 17.4383C18.3742 19.407 18.1117 20.7945 17.343 21.2445C17.1555 21.357 16.9305 21.4133 16.6867 21.4133C15.5617 21.4133 14.1555 20.4945 12.7492 19.107C13.4055 18.3945 14.0617 17.5695 14.6992 16.6695C15.7867 16.5758 16.818 16.407 17.793 16.2008C17.9055 16.632 17.9805 17.0445 18.0555 17.4383V17.4383ZM19.743 14.5133C19.368 14.6633 18.9555 14.7945 18.543 14.907C18.243 13.9695 17.868 12.9758 17.418 11.982C17.868 10.9883 18.2617 10.0133 18.543 9.07578C21.1305 9.82578 22.6867 10.9508 22.6867 12.0008C22.6867 12.882 21.5992 13.8195 19.743 14.5133Z" fill="black"/>
</svg>
