<svg width="24" height="24" viewBox="0 0 24 24" fill="none" xmlns="http://www.w3.org/2000/svg">
<g clip-path="url(#clip0)">
<path d="M16.6308 16.5205C14.9433 19.9705 11.9883 22.2918 8.07894 23.0549C7.47952 23.2018 6.86418 23.2736 6.24706 23.2687C3.99706 23.2687 1.93456 22.3312 0.933313 20.7955C-0.411062 18.7499 -0.868562 14.413 3.56394 11.2049C3.65394 11.6943 3.83769 12.3655 3.95956 12.763C3.08944 13.4095 2.37721 14.2448 1.87644 15.2062C1.05144 16.8262 1.14331 18.4443 2.12019 19.9405C2.79519 20.9493 3.86394 21.5624 5.23831 21.7499C6.95494 21.9672 8.69644 21.6392 10.2164 20.8124C12.5996 19.5599 14.1877 18.0637 15.2264 16.018C14.9327 15.7145 14.7589 15.3149 14.7371 14.893C14.7214 14.4404 14.8859 14 15.1945 13.6685C15.5032 13.337 15.9307 13.1415 16.3833 13.1249H16.4471C16.8873 13.1227 17.3115 13.2898 17.632 13.5917C17.9525 13.8936 18.1446 14.3071 18.1687 14.7467C18.1928 15.1862 18.047 15.6183 17.7614 15.9533C17.4759 16.2884 17.0724 16.5009 16.6346 16.5468L16.6308 16.5205ZM22.0064 12.733C24.2958 15.328 24.3577 18.3824 23.4727 20.1543C22.6477 21.7724 20.4727 23.3924 17.5477 23.3924C16.1822 23.3646 14.839 23.0415 13.6102 22.4455C14.0396 22.1399 14.6489 21.6505 14.9846 21.3449C15.9322 21.7554 16.9519 21.9734 17.9846 21.9862C19.8783 21.9862 21.3127 21.1012 22.1677 19.483C22.7171 18.4143 22.7489 17.1618 22.2296 15.8793C21.5923 14.2656 20.4582 12.8965 18.9914 11.9699C17.0671 10.6727 14.7985 9.98114 12.4777 9.9843H11.9283C11.8002 10.2802 11.5918 10.5344 11.3267 10.7179C11.0616 10.9015 10.7504 11.0072 10.4283 11.023H10.3702C9.92472 11.0176 9.49893 10.8386 9.18326 10.5243C8.86759 10.2099 8.68691 9.78488 8.67958 9.33944C8.67226 8.89399 8.83888 8.46324 9.14405 8.13867C9.44921 7.8141 9.86889 7.62129 10.3139 7.60117H10.3758C10.6859 7.6014 10.99 7.6871 11.2546 7.84885C11.5193 8.01059 11.7342 8.24214 11.8758 8.51805H12.3652C16.2652 8.51805 19.6889 10.0143 22.0064 12.733V12.733ZM6.49081 17.0455C6.4587 16.7342 6.53413 16.4212 6.70456 16.1587C4.99456 13.1962 4.07956 9.44055 5.48394 5.53117C6.49081 2.59305 9.02581 0.607422 11.7746 0.607422C14.7071 0.607422 17.7614 3.1743 18.1271 8.12055C17.6696 7.96867 17.0021 7.74555 16.6008 7.66305C16.5014 6.04492 15.1346 2.01367 11.8964 2.07367C10.7358 2.10555 9.02581 2.65492 8.14644 3.78367C7.05868 5.13108 6.42589 6.78854 6.33894 8.51805C6.13282 10.8895 6.68921 13.2648 7.92706 15.298C7.9954 15.2731 8.06824 15.2629 8.14081 15.268H8.20081C8.65433 15.2598 9.09254 15.4321 9.41903 15.747C9.74552 16.0619 9.93354 16.4936 9.94175 16.9471C9.94995 17.4006 9.77766 17.8388 9.46278 18.1653C9.14789 18.4918 8.71621 18.6798 8.26269 18.688H8.20081C7.75837 18.6865 7.3336 18.5142 7.01503 18.2072C6.69647 17.9001 6.50868 17.482 6.49081 17.0399V17.0455Z" fill="black"/>
</g>
<defs>
<clipPath id="clip0">
<rect width="24" height="24" fill="white"/>
</clipPath>
</defs>
</svg>
