<svg width="24" height="24" viewBox="0 0 24 24" fill="none" xmlns="http://www.w3.org/2000/svg">
<path fill-rule="evenodd" clip-rule="evenodd" d="M6.74369 20.875L22.1108 22.9727C20.3532 20.0466 18.6408 17.1953 16.9146 14.3207L6.74369 20.875ZM23.5643 4.67817C23.1104 5.35992 22.6555 6.04111 22.2021 6.72323C20.6449 9.06553 19.0885 11.4083 17.5328 13.7517C17.4462 13.8822 17.3339 13.9857 17.4559 14.1869C18.9589 16.6688 20.4501 19.158 21.9451 21.645C22.1809 22.0379 22.4194 22.4292 22.7245 22.806L23.6309 4.6973L23.5643 4.67817V4.67817ZM3.04638 12.4169C3.11669 12.4834 3.29219 12.5222 3.37394 12.4819C4.81563 11.7734 6.2665 11.0805 7.67669 10.3137C8.13662 10.0637 8.49025 9.61561 8.88644 9.25223C10.1984 8.04905 11.5083 6.84342 12.8176 5.63761C12.8976 5.56355 12.9925 5.49192 13.0403 5.39855C13.5106 4.47942 13.9728 3.55561 14.4513 2.60517C13.8807 2.39067 13.3397 2.18086 12.7921 1.98998C12.7178 1.96411 12.6008 2.01548 12.5204 2.0603C11.2527 2.76848 9.96119 3.43898 8.73381 4.2113C8.11975 4.59773 7.6195 5.16717 7.07575 5.66311C6.19937 6.46298 5.32413 7.26473 4.4605 8.07848C4.23009 8.29695 4.02344 8.53917 3.844 8.80111C3.25338 9.66117 2.68037 10.5336 2.08112 11.4308C2.416 11.7771 2.7205 12.1082 3.04638 12.4169V12.4169ZM8.3155 11.241L6.14875 20.3954L16.33 13.8353L8.3155 11.241ZM22.6838 4.70742L14.0307 6.15305L16.9673 13.296C18.8838 10.4162 20.7623 7.59417 22.6838 4.70742V4.70742ZM8.43587 10.6214L16.2906 13.1714C15.3063 10.7732 14.3556 8.45892 13.3853 6.09567L8.43587 10.6214ZM3.15494 14.1837L0.405812 20.7552L5.64175 20.6005L3.15494 14.1837V14.1837ZM5.70363 19.0767L5.7685 19.0624C6.39719 16.4485 7.03487 13.8525 7.67669 11.1364L3.47613 13.3197C4.19219 15.1808 4.95569 17.1441 5.70363 19.0767ZM21.6274 4.28348C20.7914 4.06205 19.9553 3.83986 19.1189 3.61992C17.9166 3.3038 16.7134 2.99161 15.5119 2.67267C15.3618 2.63273 15.2532 2.60667 15.1649 2.78761C14.7402 3.65761 14.3024 4.52105 13.8709 5.38786C13.8576 5.41467 13.8604 5.44936 13.8501 5.51667L21.6258 4.33823L21.6274 4.28348ZM16.777 2.30461L23.5913 4.18973L22.4654 0.981609L16.7869 2.24067L16.777 2.30461V2.30461ZM6.28131 21.3769C5.43738 21.2796 4.57094 21.369 3.715 21.3839C3.01188 21.3957 2.30875 21.4225 1.60562 21.4444C1.53325 21.4467 1.46106 21.4613 1.38888 21.5393C7.20194 22.0767 13.0148 22.614 18.8277 23.1518L18.8395 23.0742L13.2492 22.311C10.9272 21.994 8.60913 21.6452 6.28131 21.3769V21.3769ZM0.52075 18.7495C1.26981 17.0114 2.01569 15.2721 2.76775 13.5353C2.84294 13.3611 2.83712 13.2428 2.68994 13.1025C2.37531 12.8031 2.083 12.4804 1.73912 12.1227C1.27431 14.4177 0.820938 16.6559 0.367188 18.8939L0.418 18.9177C0.452687 18.862 0.495063 18.8093 0.52075 18.7495V18.7495ZM15.2845 1.8458C16.5477 1.51992 17.8293 1.26511 19.1033 0.980859C19.1858 0.962297 19.2664 0.935109 19.3476 0.911859L19.3351 0.849609L13.8612 1.58611C14.3751 1.81055 14.7711 1.97817 15.2845 1.8458V1.8458Z" fill="black"/>
</svg>
