<svg width="24" height="24" viewBox="0 0 24 24" fill="none" xmlns="http://www.w3.org/2000/svg">
<path fill-rule="evenodd" clip-rule="evenodd" d="M0.228516 10.5292C0.228516 10.6611 0.267328 10.7481 0.289078 10.8326C0.430828 11.3826 0.735516 11.8545 1.09702 12.285C1.61189 12.8985 2.24245 13.3924 2.88839 13.8568C3.44864 14.2596 4.02033 14.6533 4.58283 15.0531C4.67939 15.1217 4.7707 15.2006 4.87552 15.2848C4.78533 15.3336 4.71033 15.3765 4.63233 15.4161C3.89002 15.7926 3.17583 16.2146 2.51752 16.7259C2.12077 17.0342 1.73714 17.3617 1.4662 17.7898C1.03027 18.4783 0.875953 19.2118 1.20089 19.995C1.29577 20.2237 1.44052 20.4214 1.6447 20.5674C1.71089 20.6147 1.78514 20.6616 1.86258 20.6799C2.06095 20.7266 2.26308 20.7572 2.46389 20.7941L3.03258 20.7938C3.66145 20.7377 4.23389 20.5222 4.7512 20.1652C5.5597 19.6072 6.10439 18.8591 6.33858 17.8989C6.50883 17.2011 6.51576 16.5024 6.31514 15.8077C6.29594 15.7434 6.27379 15.6799 6.24876 15.6176C6.22439 15.5552 6.1957 15.4944 6.16195 15.4166L7.4512 14.6752L7.47051 14.6918C7.44708 14.7684 7.42214 14.8449 7.40095 14.9224C7.24776 15.4819 7.14595 16.0511 7.18251 16.6318C7.22151 17.2506 7.3942 17.8297 7.75645 18.3467C8.04933 18.7648 8.7472 18.7804 9.05845 18.3608C9.16889 18.2117 9.27595 18.0559 9.35639 17.8896C9.56658 17.4555 9.7612 17.0138 9.96201 16.575L9.99708 16.4948C9.98264 16.7025 9.96576 16.8849 9.95808 17.0676C9.94608 17.3528 9.96276 17.6363 10.0603 17.9076C10.1437 18.1397 10.2856 18.3131 10.5515 18.3437C10.7334 18.3645 10.8783 18.2812 11.012 18.1757C11.2191 18.012 11.3908 17.8079 11.5166 17.5759C11.873 16.9213 12.239 16.2707 12.5621 15.5996C12.9116 14.8738 13.2172 14.1268 13.5418 13.3886L13.5954 13.2578C13.6721 13.5591 13.7255 13.8542 13.824 14.1336C13.9383 14.4577 14.0799 14.7742 14.234 15.0819C14.307 15.2272 14.2985 15.3216 14.1975 15.4434C13.7745 15.9534 13.3588 16.4696 12.9427 16.9852C12.8506 17.0991 12.759 17.2149 12.6823 17.3392C12.6357 17.4178 12.6052 17.5047 12.5923 17.595C12.5794 17.6782 12.5992 17.7631 12.6475 17.832C12.6958 17.9009 12.769 17.9484 12.8516 17.9646C13.0183 18.0005 13.1892 18.0126 13.3593 18.0007C13.94 17.958 14.4673 17.7542 14.9334 17.4088C15.5373 16.9614 15.7312 16.3509 15.585 15.6274C15.5454 15.4311 15.4755 15.2402 15.4074 15.051C15.3768 14.9657 15.3748 14.9059 15.4305 14.8264C15.9133 14.1369 16.3258 13.4055 16.7094 12.6572C16.7246 12.6277 16.7401 12.5983 16.7668 12.5668C16.8911 13.2137 17.0782 13.8371 17.4135 14.4028C17.2425 14.5676 17.0731 14.7171 16.92 14.8817C16.5826 15.2443 16.2901 15.6381 16.1375 16.1182C16.0719 16.3252 16.0215 16.5356 16.0507 16.7567C16.0961 17.1 16.3773 17.3231 16.715 17.2449C17.4376 17.0777 18.0615 16.7372 18.5173 16.134C18.824 15.7279 18.852 15.2749 18.7235 14.8003C18.6883 14.6713 18.6465 14.5444 18.6015 14.3964C18.7798 14.3411 18.9536 14.2748 19.1334 14.2337C20.067 14.0207 20.9904 14.0578 21.89 14.3949C22.4152 14.5918 22.8395 14.9213 23.0911 15.4395C23.3985 16.0731 23.2286 16.6742 22.6314 17.0747C22.5757 17.112 22.512 17.1414 22.4658 17.1881C22.4511 17.2052 22.44 17.2253 22.4334 17.2469C22.4268 17.2685 22.4247 17.2913 22.4274 17.3137C22.4313 17.3368 22.4923 17.3657 22.5273 17.3653C22.7236 17.3638 22.8828 17.2609 23.0356 17.1551C23.4185 16.8902 23.6979 16.5338 23.7581 16.0644L23.7699 16.0292L23.7555 15.7236C23.7496 15.7059 23.7598 15.6885 23.7585 15.6752C23.6771 14.9917 23.312 14.4617 22.781 14.0462C22.166 13.5653 21.4398 13.3672 20.6718 13.3359C20.049 13.3091 19.4269 13.4049 18.8409 13.6177C18.6727 13.6787 18.506 13.7509 18.3369 13.8189C18.3142 13.7779 18.2898 13.7385 18.2698 13.6978C18.0961 13.3423 17.8858 13.0026 17.8393 12.5949C17.8063 12.3054 17.7658 12.0163 17.8346 11.73C17.9008 11.4546 17.987 11.1838 18.0682 10.9121C18.11 10.7723 18.0806 10.6939 17.9471 10.6309C17.9006 10.6077 17.8509 10.5914 17.7997 10.5825C17.4716 10.5349 17.148 10.5621 16.8301 10.6545C16.7176 10.6873 16.6359 10.7503 16.611 10.8748C16.5967 10.9463 16.5676 11.0147 16.5474 11.0852C16.4643 11.3782 16.4055 11.6769 16.2712 11.9561C15.9348 12.6564 15.5508 13.3303 15.1578 13.9993C15.1153 14.0715 15.0705 14.1424 15.0168 14.2299C14.8788 13.9412 14.7316 13.6821 14.687 13.3783C14.6366 13.0348 14.5968 12.6919 14.6823 12.351C14.7459 12.0968 14.829 11.8472 14.9055 11.5963C14.9416 11.4771 14.925 11.4144 14.817 11.3516C14.7624 11.3199 14.7007 11.2918 14.6392 11.2826C14.3027 11.2314 13.959 11.2595 13.6353 11.3647C13.5335 11.3977 13.4801 11.4636 13.449 11.5686C13.3575 11.8783 13.2795 12.1956 13.151 12.4901C12.6309 13.6826 12.0958 14.8689 11.5612 16.0551C11.4496 16.3027 11.319 16.5418 11.1931 16.7829C11.1613 16.8441 11.1148 16.8979 11.075 16.9553C11.0431 16.9176 11.0308 16.8917 11.031 16.8658C11.0319 16.7134 11.0137 16.5564 11.0428 16.4091C11.132 15.9633 11.2307 15.5196 11.3386 15.078C11.4268 14.7131 11.5293 14.3516 11.627 13.9892C11.6598 13.8679 11.6604 13.7544 11.5732 13.6524C11.4268 13.4816 11.1208 13.4441 10.9393 13.5757L10.859 13.6211L10.8746 13.4918C10.9128 13.2144 10.9205 12.9381 10.8444 12.6649C10.7495 12.3244 10.5065 12.1284 10.1533 12.1393C9.98864 12.1444 9.81576 12.1725 9.66333 12.2325C9.02226 12.4837 8.52933 12.9287 8.1097 13.464C8.0708 13.5137 8.02259 13.5554 7.96776 13.5866C7.42533 13.8874 6.8812 14.1844 6.33726 14.4825L5.73183 14.8142C5.56945 14.6593 5.42189 14.4986 5.25445 14.3623C4.74314 13.9453 4.22358 13.5386 3.7087 13.1263C3.25233 12.7609 2.8102 12.3802 2.47195 11.8963C2.22033 11.5363 2.05814 11.1424 2.04258 10.6972C2.02289 10.1301 2.18377 9.61181 2.47252 9.12937C2.84189 8.51212 3.3457 8.01675 3.89958 7.56806C4.48552 7.09369 5.11927 6.69094 5.77608 6.32325C6.69502 5.80894 7.6402 5.35369 8.65364 5.05313C9.69276 4.74488 10.7471 4.56844 11.8346 4.69144C12.2621 4.73981 12.6772 4.83769 13.0584 5.04675C13.3503 5.20669 13.5898 5.41612 13.7011 5.7435C13.811 6.06563 13.8076 6.39206 13.7315 6.71925C13.5768 7.38187 13.214 7.92806 12.7575 8.41613C12.0086 9.21619 11.0951 9.76088 10.0666 10.1207C9.47532 10.3278 8.86008 10.4591 8.2357 10.5113C7.72401 10.5542 7.22301 10.5088 6.73851 10.3309C6.4177 10.2129 6.13833 10.0326 5.9137 9.77081C5.87358 9.72394 5.8222 9.67313 5.74739 9.717C5.67408 9.76013 5.66114 9.82988 5.6857 9.90056C5.72677 10.0179 5.76464 10.1402 5.82858 10.2452C5.98927 10.5086 6.22364 10.6997 6.48164 10.8636C6.9772 11.1787 7.53108 11.2847 8.10539 11.3093C8.97689 11.3469 9.8272 11.2168 10.6655 10.983C11.8623 10.6493 12.903 10.0598 13.7375 9.12975C14.4324 8.35538 14.9287 7.48144 15.035 6.42619C15.087 5.91112 15.0316 5.40656 14.7905 4.93669C14.529 4.42763 14.1131 4.04906 13.6158 3.78825C12.8917 3.40856 12.1102 3.1875 11.3036 3.1875H10.4955C9.51858 3.1875 8.57414 3.46744 7.65614 3.80138C6.96126 4.05431 6.27989 4.35281 5.61839 4.68319C4.17783 5.403 2.83627 6.27094 1.73433 7.46438C1.18533 8.05894 0.720516 8.715 0.453141 9.4875C0.372442 9.71814 0.302923 9.95253 0.244828 10.1899L0.228516 10.5292ZM5.46464 16.9423C5.4022 17.7784 5.02327 18.4562 4.40395 19.0052C4.05558 19.3138 3.65602 19.5336 3.19064 19.6108C3.02189 19.6388 2.8492 19.6455 2.68552 19.5756C2.45208 19.4758 2.39977 19.2686 2.39527 19.0479C2.38833 18.6962 2.51152 18.3782 2.68045 18.0756C2.90095 17.6811 3.2242 17.3803 3.56939 17.0994C4.11314 16.6567 4.70302 16.2821 5.30714 15.9285L5.3527 15.9097C5.44608 16.2547 5.49052 16.5954 5.46464 16.9423V16.9423ZM10.1818 13.3088C10.1377 13.5758 10.0826 13.8429 10.0046 14.1017C9.73495 14.9974 9.38864 15.8653 9.0142 16.7216C8.94501 16.8801 8.84433 17.0246 8.75676 17.1748C8.74187 17.1979 8.72403 17.219 8.7037 17.2374C8.59533 17.3445 8.49258 17.3389 8.43783 17.1988C8.37408 17.0361 8.33489 16.8619 8.30114 16.6896C8.27845 16.5739 8.28389 16.4524 8.27676 16.3339C8.28408 15.4912 8.54114 14.7255 8.97726 14.0126C9.15708 13.7186 9.35283 13.4385 9.65189 13.2525C9.74492 13.1947 9.84558 13.1501 9.95095 13.1201C10.1103 13.0753 10.2082 13.149 10.1818 13.3088V13.3088ZM13.4 17.409L14.5567 16.0584C14.6049 16.56 13.7523 17.5612 13.4 17.409ZM17.0943 16.5002C17.0126 16.5471 16.9235 16.5808 16.8397 16.6241C16.763 16.6639 16.7377 16.6237 16.7355 16.5577C16.7343 16.5121 16.7402 16.4665 16.7529 16.4226C16.9091 15.8717 17.1965 15.4014 17.6242 15.0189L17.6542 15.0036C17.8576 15.5726 17.6225 16.1976 17.0943 16.5002Z" fill="black"/>
</svg>
