<svg width="24" height="24" viewBox="0 0 24 24" fill="none" xmlns="http://www.w3.org/2000/svg">
<g clip-path="url(#clip0)">
<path d="M21.8348 1.24458C21.4986 2.05096 21.0683 2.81476 20.5528 3.52008C18.2942 1.26275 15.2317 -0.00547151 12.0384 -0.00585938C5.4345 -0.00585938 1.11576e-08 5.43314 1.11576e-08 12.0444C-7.02137e-05 13.677 0.33135 15.2926 0.974176 16.7932C1.617 18.2939 2.55785 19.6485 3.73969 20.7748L4.18369 21.1685C6.35361 22.998 9.10006 24.0022 11.9383 24.0039C18.2171 24.0039 23.4953 19.0839 23.9423 12.8133C24.2706 9.74377 23.3702 5.86139 21.8348 1.24458V1.24458ZM5.45006 20.8434C5.3534 20.9625 5.23139 21.0585 5.09292 21.1245C4.95445 21.1905 4.80301 21.2247 4.64963 21.2248C4.08375 21.2248 3.62081 20.759 3.62081 20.1931C3.62081 19.6275 4.08675 19.1617 4.64963 19.1617C4.884 19.1617 5.11556 19.2429 5.29688 19.3931C5.73769 19.7493 5.8065 20.4026 5.45006 20.8434ZM21.7849 17.2363C18.8143 21.1966 12.4699 19.8618 8.40188 20.0525C8.40188 20.0525 7.67963 20.0964 6.95419 20.2151C6.95419 20.2151 7.22606 20.0994 7.5795 19.965C10.4344 18.971 11.7851 18.7771 13.5204 17.8863C16.788 16.2234 20.0181 12.585 20.6904 8.79952C19.446 12.4411 15.6748 15.5701 12.2385 16.8423C9.88406 17.7114 5.63138 18.5553 5.63138 18.5553L5.45944 18.4646C2.56406 17.055 2.47631 10.7814 7.73887 8.75583C10.0434 7.86802 12.2479 8.3557 14.7369 7.7617C17.3948 7.13039 20.4684 5.13595 21.7191 2.53533C23.1199 6.69595 24.8053 13.2101 21.7847 17.2363H21.7849Z" fill="black"/>
</g>
<defs>
<clipPath id="clip0">
<rect width="24" height="24" fill="white"/>
</clipPath>
</defs>
</svg>
