<svg width="24" height="24" viewBox="0 0 24 24" fill="none" xmlns="http://www.w3.org/2000/svg">
<path d="M10.3606 0.778294C10.2987 0.798919 9.96682 0.905794 9.61807 1.02017C7.74307 1.63329 6.41557 2.34392 6.08557 2.90642C5.95994 3.12204 5.93557 3.29642 6.01057 3.47079C6.09306 3.66767 6.24494 3.81579 6.66119 4.11017C6.85619 4.24704 7.18806 4.53392 7.40369 4.74954C8.43494 5.77892 8.93556 7.04079 8.87931 8.46767C8.81556 10.0727 8.06369 11.6777 6.62369 13.2845C6.12119 13.8452 5.60557 14.312 4.61557 15.1052C3.79057 15.7652 3.34244 16.1927 3.03682 16.607C2.10119 17.882 2.35057 19.0183 3.77932 19.967C5.03932 20.8052 7.25932 21.5027 9.87494 21.8814C10.7524 22.0089 11.7443 22.0895 11.9824 22.0539L12.1493 22.0295L12.4118 21.557C13.7393 19.1664 14.4106 16.9127 14.4912 14.5802C14.5268 13.5395 14.3956 12.3077 14.1724 11.5877C14.1312 11.4583 14.1012 11.3477 14.1068 11.3439C14.1106 11.3402 14.4818 11.2295 14.9318 11.0945C17.2962 10.3895 19.5837 9.83454 21.4737 9.50642C21.8412 9.44267 22.1562 9.37704 22.1731 9.36017C22.2743 9.26079 21.9799 8.80142 21.5018 8.30829C19.7337 6.48392 16.6099 5.09454 12.9443 4.50392C12.2374 4.38954 12.1512 4.34829 11.8887 4.00142C11.4724 3.45017 11.0806 2.50704 10.5462 0.782044C10.5293 0.729544 10.5124 0.729544 10.3606 0.778294V0.778294ZM10.6043 1.42704C10.8106 1.98767 10.9362 2.42829 10.9362 2.58392V2.70579L10.7618 2.68517C9.81681 2.57642 8.30931 2.34204 7.98869 2.25579C7.90619 2.23329 7.85932 2.20142 7.87432 2.17704C7.89869 2.13767 8.21931 1.98392 9.17181 1.55079C10.0606 1.14767 10.3981 0.997669 10.4243 0.995794C10.4356 0.995794 10.5162 1.18892 10.6043 1.42704V1.42704ZM8.60556 2.61017C9.75869 2.85204 10.5987 3.00392 10.7843 3.00392C10.9643 3.00392 10.9437 3.01892 10.0962 3.53642C9.44181 3.93392 9.36681 3.97142 9.20181 3.97142H9.02182L8.53806 3.48017C7.95119 2.88579 7.55369 2.45079 7.55369 2.40204C7.55369 2.38142 7.56494 2.37579 7.58182 2.38517C7.59682 2.39267 8.05994 2.49579 8.60556 2.61017V2.61017ZM7.75431 3.15579C8.03744 3.48579 8.25682 3.76329 8.24557 3.77642C8.22119 3.80079 7.41306 3.60017 6.91806 3.44829C6.48682 3.31517 6.43431 3.27017 6.54869 3.12392C6.62369 3.02642 7.18056 2.56142 7.22181 2.55954C7.23306 2.55767 7.47119 2.82392 7.75431 3.15579V3.15579ZM11.4331 3.84017C11.5456 4.10829 11.6318 4.32579 11.6281 4.32954C11.6224 4.33329 10.1074 4.09892 9.97431 4.07267C9.94619 4.06704 10.2031 3.89267 10.5481 3.68267C10.8931 3.47267 11.1874 3.31329 11.2024 3.33017C11.2174 3.34329 11.3206 3.57204 11.4331 3.84017V3.84017ZM8.12931 4.34829C8.15931 4.37829 8.52119 5.54079 8.50431 5.55579C8.49869 5.56142 8.32619 5.36267 8.12182 5.10954C7.91557 4.85642 7.60619 4.50204 7.42807 4.31642L7.10744 3.98079L7.60806 4.15329C7.88181 4.24892 8.11806 4.33704 8.12931 4.34829V4.34829ZM9.57681 4.50392C10.2049 4.59392 10.7262 4.67454 10.7356 4.68392C10.7431 4.69329 10.3643 4.98767 9.89181 5.34017C9.41931 5.69079 9.02931 5.97392 9.02369 5.96829C9.01806 5.96267 8.97119 5.81642 8.91869 5.64204C8.86619 5.46767 8.73119 5.10579 8.62057 4.83392C8.50994 4.56204 8.42369 4.34079 8.42744 4.34079C8.43119 4.34079 8.94869 4.41579 9.57681 4.50392V4.50392ZM11.1556 5.00642C11.2943 5.33079 11.3487 5.64204 11.3712 6.26267C11.3824 6.59642 11.3843 6.86829 11.3731 6.86829C11.3618 6.86829 11.1631 6.79892 10.9324 6.71642C10.4712 6.54954 9.56744 6.25142 9.46057 6.23079C9.41369 6.22142 9.63119 6.01329 10.2031 5.52017C10.6493 5.13579 11.0281 4.82267 11.0449 4.82267C11.0637 4.82454 11.1124 4.90704 11.1556 5.00642V5.00642ZM12.7756 5.08517C13.4712 5.22767 14.0787 5.35517 14.1274 5.36642C14.1968 5.38329 14.0299 5.48829 13.2949 5.89142C12.7887 6.16892 12.2149 6.48392 12.0199 6.59454C11.8231 6.70517 11.6618 6.78954 11.6581 6.78579C11.6543 6.78204 11.6749 6.67892 11.7031 6.55517C11.8081 6.10517 11.7424 5.54267 11.5324 5.09454C11.4706 4.96517 11.4199 4.85079 11.4199 4.84142C11.4199 4.80954 11.5456 4.83204 12.7756 5.08517V5.08517ZM14.6712 5.93454C14.6356 6.09204 14.5587 6.36017 14.4968 6.53454C14.3637 6.91704 13.8781 7.90892 13.8124 7.93517C13.7862 7.94642 13.5574 7.83954 13.3081 7.70079C13.0587 7.56204 12.6968 7.37829 12.5074 7.29392L12.1624 7.14017L13.4356 6.32454C14.4912 5.64767 14.7106 5.52017 14.7218 5.58017C14.7293 5.61767 14.7068 5.77704 14.6712 5.93454ZM15.6012 5.64392C16.9212 6.02267 18.3143 6.53454 18.2337 6.61142C18.2168 6.62642 18.0443 6.68454 17.8512 6.73892C16.8556 7.02204 15.4699 7.50017 14.8212 7.78517C14.6206 7.87329 14.4462 7.93892 14.4368 7.92954C14.4274 7.92017 14.5062 7.62767 14.6131 7.28267C14.8212 6.60204 15.0631 5.68329 15.0631 5.56517C15.0631 5.51267 15.0818 5.49579 15.1287 5.50892C15.1624 5.51829 15.3743 5.57829 15.6012 5.64392V5.64392ZM9.92556 7.01267C10.2274 7.11204 10.5781 7.24517 10.7074 7.31079C10.9418 7.42892 10.9437 7.43079 10.8762 7.50392C10.7562 7.63704 9.44556 8.85767 9.40806 8.87079C9.38931 8.87829 9.37432 8.69267 9.37432 8.42454C9.37244 7.95954 9.31994 7.12142 9.28057 6.93392C9.25057 6.79704 9.27494 6.79892 9.92556 7.01267ZM18.3068 7.25454C18.0181 7.73079 17.5437 8.40954 17.2006 8.83704C16.8499 9.27579 16.1093 10.1008 16.0662 10.1008C16.0493 10.1008 15.9424 9.96767 15.8281 9.80267C15.4062 9.20079 14.9168 8.67954 14.4874 8.37579C14.4462 8.34767 14.4218 8.31579 14.4312 8.30642C14.4406 8.29704 15.1456 8.03829 15.9931 7.73079C17.7106 7.10829 18.4662 6.85517 18.5131 6.88892C18.5168 6.89454 18.4249 7.05767 18.3068 7.25454ZM19.3812 7.17392C20.5662 8.00079 21.3724 8.67017 21.6649 9.06954C21.7381 9.17079 21.7924 9.25704 21.7849 9.26267C21.7774 9.26829 21.3968 9.31142 20.9356 9.35642C19.0962 9.53829 17.7856 9.72204 17.0918 9.89829C16.9062 9.94517 16.7506 9.98079 16.7487 9.97892C16.7449 9.97517 16.8668 9.82517 17.0224 9.63954C17.8249 8.67767 18.5487 7.67642 18.8187 7.15704C18.8899 7.02017 18.9593 6.90767 18.9743 6.90767C18.9874 6.90579 19.1693 7.02579 19.3812 7.17392V7.17392ZM12.7381 8.19954C12.9649 8.32142 13.1393 8.43392 13.1299 8.45267C13.1131 8.48642 11.1124 9.58142 11.0956 9.56642C11.0918 9.56267 11.1949 9.23454 11.3262 8.83329C11.4574 8.43204 11.5849 7.99704 11.6093 7.86392L11.6543 7.62017L11.9918 7.80017C12.1793 7.89954 12.5112 8.07767 12.7381 8.19954V8.19954ZM11.0637 8.26329C10.8706 8.93267 10.4787 9.79517 10.3006 9.94517C10.2593 9.97892 10.1787 9.93204 9.91431 9.71829C9.72869 9.56829 9.53931 9.42017 9.48869 9.38642C9.43994 9.35267 9.40431 9.31704 9.41181 9.30767C9.54869 9.17079 11.1424 7.88642 11.1499 7.90704C11.1556 7.92017 11.1162 8.08142 11.0637 8.26329V8.26329ZM14.6862 9.42767C14.9881 9.62829 15.6556 10.2264 15.6199 10.2639C15.6106 10.2733 14.9318 10.4945 14.1143 10.7514C13.2968 11.0102 12.3856 11.3027 12.0893 11.402C11.7912 11.5014 11.5474 11.5802 11.5456 11.5764C11.5418 11.5727 11.7499 11.3364 12.0068 11.0495C12.6762 10.3033 13.3643 9.50267 13.6081 9.18767L13.8181 8.91579L14.0937 9.06392C14.2418 9.14642 14.5118 9.31142 14.6862 9.42767V9.42767ZM13.1374 8.99829C13.1187 9.02267 12.9387 9.25142 12.7362 9.50829C12.5337 9.76329 12.0499 10.3858 11.6562 10.8902L10.9418 11.8089L10.9174 11.6533C10.8724 11.3514 10.7112 10.7645 10.6193 10.5639L10.5274 10.3633L10.9812 10.1364C11.4499 9.90204 12.4268 9.37142 12.8843 9.10517C13.1731 8.93642 13.1918 8.92892 13.1374 8.99829V8.99829ZM9.34806 10.1083C9.53369 10.2039 9.70806 10.3277 9.70806 10.367C9.70806 10.427 8.49869 11.3608 8.46682 11.3252C8.45932 11.3177 8.56806 11.102 8.70869 10.8452C8.85119 10.5883 8.99369 10.3014 9.02744 10.2039C9.06119 10.1064 9.11369 10.0277 9.13994 10.0277C9.16994 10.0277 9.26369 10.0652 9.34806 10.1083V10.1083ZM10.3793 11.2577C10.4637 11.4208 10.5499 11.8802 10.5049 11.9214C10.4862 11.9383 9.98744 12.1745 9.39306 12.4464C8.79869 12.7183 8.02806 13.0839 7.67369 13.2602C7.32119 13.4364 7.05307 13.5602 7.07932 13.5377C7.10557 13.5133 7.49369 13.1889 7.94369 12.8139C8.81369 12.0902 9.80556 11.2258 9.98744 11.0345L10.0962 10.9202L10.2031 11.0233C10.2631 11.0795 10.3418 11.1845 10.3793 11.2577V11.2577ZM9.40244 11.2483C9.31619 11.3252 8.85119 11.732 8.37119 12.1483C7.89119 12.5627 7.31369 13.0652 7.08869 13.262C6.63494 13.6577 6.63494 13.6577 7.21432 12.902C7.66244 12.317 7.89682 12.0995 8.53994 11.6683C8.85307 11.4583 9.47556 11.1077 9.53556 11.1077C9.54869 11.1058 9.48869 11.1714 9.40244 11.2483V11.2483ZM13.9081 11.6458C13.9324 11.7677 13.9606 12.1502 13.9737 12.4914L13.9962 13.1139L13.8518 13.0464C13.3531 12.8158 11.9524 12.0264 12.0049 12.0058C12.3106 11.8839 13.8237 11.3814 13.8406 11.3983C13.8537 11.4114 13.8837 11.522 13.9081 11.6458V11.6458ZM12.7193 12.7595C13.3024 13.1027 13.7843 13.3877 13.7918 13.3933C13.7993 13.3989 13.7224 13.4627 13.6268 13.5339C13.4412 13.6708 11.4631 14.6927 11.4368 14.6664C11.4293 14.6589 11.4556 14.4883 11.4949 14.2914C11.5756 13.8939 11.6487 12.7089 11.6131 12.332C11.6018 12.1989 11.6056 12.1052 11.6243 12.1164C11.6449 12.1277 12.1362 12.4164 12.7193 12.7595V12.7595ZM11.1068 12.5083C11.1518 12.8777 11.0974 13.6202 10.9981 14.0064C10.8799 14.4602 10.8124 14.6495 10.7618 14.6664C10.6924 14.6908 10.2612 14.297 9.99682 13.9689C9.73057 13.6389 9.38182 13.0164 9.43432 12.9658C9.46619 12.9358 11.0074 12.3002 11.0543 12.2983C11.0693 12.2964 11.0937 12.392 11.1068 12.5083V12.5083ZM9.21682 13.4364C9.37994 13.7739 9.75306 14.2614 10.1618 14.6739C10.4243 14.9383 10.4899 15.0245 10.4487 15.0508C10.2649 15.1745 9.44556 15.5589 8.92807 15.7614C8.29994 16.0089 7.48432 16.2902 7.46557 16.2677C7.45807 16.2602 7.64556 15.9189 7.88181 15.5102C8.39369 14.6214 9.04056 13.3652 9.04056 13.262C9.04056 13.1308 9.09494 13.1833 9.21682 13.4364V13.4364ZM8.24932 13.457C8.23994 13.4833 8.16119 13.6783 8.07681 13.8939C7.71306 14.8164 7.00619 16.0689 6.84869 16.0689C6.72682 16.0689 6.54681 15.3395 6.49619 14.6383L6.46994 14.2858L7.33432 13.8489C7.81057 13.6089 8.21369 13.412 8.23431 13.412C8.25119 13.4102 8.25869 13.4308 8.24932 13.457V13.457ZM14.0206 14.3102C14.0243 14.8408 13.8012 16.1252 13.6831 16.2545C13.6343 16.3089 13.0849 16.1064 12.5918 15.8514C12.1493 15.6227 11.4218 15.1708 11.4218 15.1258C11.4218 15.1127 11.5324 15.0564 11.6712 14.9983C11.9337 14.8877 13.1543 14.2352 13.6718 13.9295L13.9699 13.7533L13.9962 13.8883C14.0056 13.9614 14.0187 14.1545 14.0206 14.3102V14.3102ZM5.87744 14.9233C5.92807 15.3433 6.05744 15.857 6.21869 16.2658C6.28432 16.4327 6.33119 16.577 6.32369 16.5845C6.25994 16.6427 3.66307 17.357 3.31994 17.4114L3.15682 17.4377L3.18119 17.312C3.21682 17.1339 3.46807 16.6202 3.65557 16.3427C3.88807 15.9977 4.46369 15.4202 4.84432 15.152C5.12744 14.9514 5.80994 14.5539 5.83057 14.5764C5.83244 14.5783 5.85494 14.7339 5.87744 14.9233ZM11.7687 15.8083C12.5712 16.1927 12.8749 16.3258 13.2593 16.4589L13.5537 16.5602L13.3681 16.6539C12.3162 17.1864 10.4562 17.9458 9.97431 18.0395C9.86744 18.0602 9.85244 18.0545 9.87307 18.002C9.95557 17.7864 11.0656 15.4933 11.0862 15.4933C11.0993 15.4914 11.4087 15.6358 11.7687 15.8083V15.8083ZM10.3568 15.722C10.3006 15.992 9.99494 16.8677 9.81681 17.2652C9.66306 17.6102 9.30682 18.2833 9.24307 18.347C9.21494 18.3752 8.58119 18.017 8.28119 17.8033C7.94369 17.5633 7.20494 16.8508 7.22556 16.7852C7.23306 16.7608 7.68307 16.5883 8.22494 16.4008C9.36682 16.007 10.0062 15.7689 10.1918 15.6733C10.3718 15.5795 10.3868 15.5852 10.3568 15.722V15.722ZM13.5499 16.9314C13.5387 17.0102 13.4749 17.3552 13.4056 17.7039C13.1881 18.797 12.9237 19.5433 12.7549 19.5433C12.5224 19.5433 10.9306 19.157 10.4168 18.9752C10.0681 18.8514 9.76619 18.7108 9.66681 18.6227C9.60494 18.5683 9.63682 18.5495 10.0943 18.362C11.5662 17.762 13.2631 16.997 13.4468 16.8508C13.5537 16.7664 13.5706 16.7777 13.5499 16.9314V16.9314ZM6.10244 17.2652C5.93557 17.5633 5.59244 18.0564 4.93994 18.9377L4.38307 19.6877L4.21619 19.5677C3.98182 19.4008 3.61057 18.9958 3.45494 18.7389C3.28807 18.4633 3.17369 18.1239 3.16057 17.8652L3.14932 17.6645L3.42494 17.6364C3.79807 17.5989 4.84057 17.3833 5.58494 17.1883C5.92244 17.1002 6.20369 17.0327 6.21119 17.0383C6.21681 17.0458 6.16807 17.147 6.10244 17.2652ZM7.72056 18.0358C7.90619 18.1689 8.16119 18.3377 8.29244 18.4145L8.53057 18.5533L8.42369 18.5983C8.36369 18.6227 7.49931 18.9377 6.49994 19.2995C4.79369 19.9164 4.68119 19.952 4.63431 19.8883C4.60619 19.8508 4.58744 19.8114 4.59119 19.7983C4.59494 19.7852 5.05619 19.1908 5.61682 18.4727L6.63494 17.1695L7.00994 17.4827C7.21994 17.657 7.53494 17.9027 7.72056 18.0358V18.0358ZM8.14056 19.9952C7.76744 20.552 7.45244 21.0227 7.44119 21.0377C7.41307 21.0752 6.81682 20.9345 6.37057 20.7864C5.90182 20.6289 5.32432 20.3364 5.09932 20.1433L4.93619 20.0027L5.30369 19.9033C6.80931 19.4927 8.80056 18.9658 8.80994 18.9733C8.81744 18.9752 8.51369 19.4383 8.14056 19.9952ZM9.93307 19.1514C10.7299 19.4252 11.4574 19.5808 12.4006 19.682L12.6612 19.7102L11.9581 19.9633C10.2031 20.597 8.78181 21.0414 8.06556 21.1802C7.86494 21.2195 7.68119 21.2514 7.66056 21.2514C7.63994 21.2514 7.78432 21.0545 7.98119 20.8164C8.51744 20.162 9.09869 19.4177 9.25244 19.1889C9.32744 19.0783 9.40244 18.9845 9.41931 18.9845C9.43619 18.9864 9.66494 19.0595 9.93307 19.1514V19.1514ZM12.5487 20.6289C12.2468 21.4089 12.0256 21.8833 11.9468 21.9133C11.7968 21.9714 9.72494 21.6658 9.09307 21.4952C8.67307 21.3808 8.40494 21.2702 8.48369 21.242C8.51369 21.2308 8.81369 21.1614 9.15307 21.0845C10.2499 20.837 11.9224 20.3289 12.6143 20.0327C12.7043 19.9952 12.7831 19.967 12.7887 19.9727C12.7924 19.9783 12.6856 20.2727 12.5487 20.6289V20.6289Z" fill="black"/>
</svg>
