<svg width="24" height="24" viewBox="0 0 24 24" fill="none" xmlns="http://www.w3.org/2000/svg">
<path d="M23.5403 4.91805C23.4419 4.42341 23.2747 3.945 23.0434 3.4968C22.8018 3.06267 22.5015 2.66392 22.1509 2.3118C21.7894 1.95806 21.3695 1.66944 20.9097 1.45867C20.4559 1.22987 19.9706 1.06998 19.4697 0.984297C18.9728 0.888672 18.4272 0.888672 17.9303 0.841797H5.67344C5.2911 0.848023 4.90961 0.87997 4.53156 0.937422C4.15639 0.981564 3.78915 1.07748 3.44031 1.22242C3.34094 1.2693 3.19281 1.31805 3.09344 1.36492C2.76339 1.54184 2.44967 1.74764 2.15594 1.97992C2.05656 2.07555 1.95719 2.12242 1.85781 2.21617C1.49239 2.55511 1.19018 2.95636 0.965312 3.40117C0.719749 3.84307 0.551694 4.32378 0.468437 4.82242C0.394538 5.30901 0.345101 5.799 0.320312 6.29055V17.6137C0.320467 18.1068 0.37009 18.5986 0.468437 19.0818C0.566834 19.5764 0.734086 20.0548 0.965312 20.503C1.20696 20.9372 1.50729 21.3359 1.85781 21.688C2.21934 22.0418 2.63927 22.3304 3.09906 22.5412C3.55282 22.77 4.03816 22.9299 4.53906 23.0155C5.03594 23.1112 5.58156 23.1112 6.07844 23.158H17.9322C18.4486 23.1577 18.9639 23.11 19.4716 23.0155C19.9725 22.9299 20.4578 22.77 20.9116 22.5412C21.3615 22.3135 21.779 22.0265 22.1528 21.688C22.5182 21.3491 22.8204 20.9479 23.0453 20.503C23.2909 20.0611 23.4589 19.5804 23.5422 19.0818C23.6161 18.5952 23.6655 18.1052 23.6903 17.6137V6.38617C23.6895 5.89301 23.6393 5.40117 23.5403 4.91805V4.91805ZM20.0172 19.0818C18.9391 17.0624 16.9459 17.6868 15.9391 18.0937C13.8559 19.243 10.9928 19.3612 8.11094 18.1818C5.86397 17.2701 3.94279 15.7043 2.59656 13.6874C3.2222 14.1663 3.90571 14.5645 4.63094 14.8724C7.60656 16.2037 10.5803 16.1118 12.6747 14.8724C9.69344 12.6862 7.16219 9.84367 5.27594 7.52242C4.90371 7.13013 4.57145 6.70177 4.28406 6.24367C6.56406 8.23305 10.1903 10.7437 11.4803 11.4543C9.63845 9.56708 7.94587 7.53975 6.41781 5.39055C8.95789 7.85896 11.7529 10.0506 14.7559 11.9287C14.8891 11.9999 14.9922 12.0599 15.0747 12.1162C15.1627 11.9013 15.2385 11.6815 15.3016 11.458C15.9972 9.04117 15.2022 6.2943 13.4659 4.01992C17.4859 6.3393 19.8766 10.6968 18.8753 14.3455C18.8491 14.4449 18.8209 14.533 18.7909 14.6362L18.8266 14.6774C20.8141 17.0455 20.2647 19.5562 20.0172 19.0818V19.0818Z" fill="black"/>
</svg>
