<svg width="24" height="24" viewBox="0 0 24 24" fill="none" xmlns="http://www.w3.org/2000/svg">
<g clip-path="url(#clip0)">
<path d="M12 4.80078C8.79994 4.80078 6.80062 6.40016 6 9.60022C7.19962 8.00066 8.60006 7.40084 10.1996 7.80078C11.1129 8.02841 11.7656 8.69066 12.4884 9.42453C13.6648 10.6183 15.0264 12.0004 18 12.0004C21.1999 12.0004 23.1994 10.4008 24 7.20003C22.8002 8.80053 21.3999 9.40034 19.8002 9.00041C18.8871 8.77259 18.2351 8.11053 17.5114 7.37666C16.3358 6.18284 14.9745 4.80078 12 4.80078V4.80078ZM6 12.0004C2.80013 12.0004 0.800625 13.6 0 16.8008C1.19962 15.2003 2.59988 14.6005 4.19963 15.0004C5.11294 15.2282 5.76562 15.8903 6.48844 16.6242C7.66481 17.818 9.02644 19.2 12 19.2C15.1999 19.2 17.1994 17.6007 18 14.4006C16.8002 16.0002 15.3999 16.6 13.8002 16.2C12.8871 15.9724 12.2351 15.3102 11.5114 14.5763C10.3357 13.3825 8.9745 12.0004 6 12.0004Z" fill="black"/>
</g>
<defs>
<clipPath id="clip0">
<rect width="24" height="24" fill="white"/>
</clipPath>
</defs>
</svg>
