<svg width="24" height="24" viewBox="0 0 24 24" fill="none" xmlns="http://www.w3.org/2000/svg">
<path d="M23.8125 3.02663C23.8125 1.45856 22.5414 0.1875 20.9734 0.1875H3.02663C1.45856 0.1875 0.1875 1.45856 0.1875 3.02663V20.9732C0.1875 22.5414 1.45856 23.8125 3.02663 23.8125H20.9734C22.5414 23.8125 23.8125 22.5414 23.8125 20.9732V3.02663V3.02663ZM10.875 18.6638C10.875 19.3776 10.2589 19.875 9.54506 19.875H4.41806C3.70425 19.875 3.1875 19.3776 3.1875 18.6638V4.35562C3.1875 3.64162 3.70425 3 4.41806 3H9.54506C10.2589 3 10.875 3.64162 10.875 4.35562V18.6638ZM21.1875 6.20325V12.1819C21.1875 12.8957 20.637 13.5 19.923 13.5H14.7986C14.0846 13.5 13.5 12.8955 13.5 12.1819V4.28737C13.5 3.57337 14.0846 3 14.7986 3H19.923C20.637 3 21.1875 3.57337 21.1875 4.28737V6.20325Z" fill="black"/>
</svg>
