<svg width="24" height="24" viewBox="0 0 24 24" fill="none" xmlns="http://www.w3.org/2000/svg">
<path d="M0.375 11.9824V23.7012H23.8125V0.263672H0.375V11.9824ZM19.2619 11.0449C19.8232 11.1752 20.3334 11.4688 20.7281 11.8887C20.9454 12.1149 21.1343 12.3667 21.2906 12.6387C21.2906 12.6687 20.2781 13.353 19.6613 13.7355C19.6388 13.7505 19.5488 13.653 19.4494 13.5049C19.3368 13.3106 19.1768 13.148 18.9843 13.0323C18.7918 12.9165 18.5732 12.8514 18.3488 12.843C17.6381 12.7943 17.1806 13.1674 17.1844 13.7805C17.1785 13.9332 17.2135 14.0847 17.2856 14.2193C17.4413 14.5437 17.7319 14.7368 18.6431 15.1305C20.3213 15.8524 21.0394 16.3287 21.4856 17.0055C21.9844 17.7555 22.095 18.9668 21.7575 19.863C21.3825 20.838 20.4637 21.4999 19.1644 21.7193C18.5709 21.7873 17.9713 21.781 17.3794 21.7005C16.476 21.554 15.6427 21.1239 15 20.4724C14.7844 20.2343 14.3644 19.6137 14.3906 19.5687C14.4591 19.5179 14.5311 19.4721 14.6063 19.4318L15.4688 18.9368L16.1419 18.5468L16.2825 18.7549C16.5198 19.0944 16.8219 19.3837 17.1713 19.6062C17.9213 19.9999 18.945 19.9455 19.4512 19.4899C19.6212 19.323 19.7273 19.1017 19.7509 18.8646C19.7745 18.6275 19.7143 18.3897 19.5806 18.1924C19.3931 17.9318 19.0181 17.7124 17.97 17.2549C16.7606 16.7337 16.2394 16.4112 15.7631 15.8974C15.4658 15.5584 15.2463 15.1584 15.12 14.7255C15.0258 14.231 15.0119 13.7245 15.0787 13.2255C15.3281 12.0574 16.2037 11.2418 17.4825 10.9999C18.0747 10.9266 18.6746 10.9431 19.2619 11.0487V11.0449ZM13.7606 12.0274V12.9874H10.7175V21.6555H8.55938V12.9855H5.50875V12.048C5.50056 11.7253 5.50932 11.4024 5.535 11.0805C5.54625 11.0655 7.41 11.058 9.66 11.0618H13.7494L13.7606 12.0274Z" fill="black"/>
</svg>
