<svg width="24" height="24" viewBox="0 0 24 24" fill="none" xmlns="http://www.w3.org/2000/svg">
<path d="M0.686337 8.44535C0.686337 8.44535 0.118775 8.03454 0.800712 7.48666L2.38846 6.06279C2.38846 6.06279 2.84334 5.58298 3.3239 6.00129L17.9817 17.1253V22.4597C17.9817 22.4597 17.9744 23.2974 16.9023 23.2052L0.686337 8.44535Z" fill="black"/>
<path d="M4.46486 11.8837L0.686172 15.3268C0.686172 15.3268 0.298047 15.6161 0.686172 16.134L2.44042 17.7328C2.44042 17.7328 2.85705 18.1819 3.47317 17.6713L7.47798 14.6267L4.46486 11.8837ZM11.0977 11.9122L18.0264 6.6088L17.9815 1.30311C17.9815 1.30311 17.6857 0.145108 16.6985 0.748296L7.47798 9.15973L11.0977 11.9122Z" fill="black"/>
<path d="M16.9007 23.2118C17.3029 23.6249 17.7908 23.4893 17.7908 23.4893L23.1902 20.8227C23.8815 20.3502 23.7848 19.7642 23.7848 19.7642V3.83705C23.7848 3.13674 23.07 2.89505 23.07 2.89505L18.3898 0.633616C17.3674 5.3525e-05 16.6973 0.747991 16.6973 0.747991C16.6973 0.747991 17.5585 0.126054 17.9803 1.30299V22.3624C17.9803 22.5074 17.9496 22.6493 17.8881 22.7776C17.7651 23.0273 17.497 23.2594 16.8561 23.1621L16.9007 23.2118Z" fill="black"/>
</svg>
