<svg width="24" height="24" viewBox="0 0 24 24" fill="none" xmlns="http://www.w3.org/2000/svg">
<g clip-path="url(#clip0)">
<path d="M8.19179 0.0274895C8.00184 0.0404495 7.66511 0.0784895 7.44359 0.112089C7.22208 0.145689 6.86591 0.21697 6.65231 0.27061C6.4386 0.32437 6.11484 0.41929 5.93291 0.48169C5.75088 0.54409 5.45951 0.657248 5.28539 0.733208C5.11139 0.809168 4.85879 0.929648 4.72428 1.00093C4.58975 1.07221 4.35024 1.21021 4.19195 1.30753C4.03368 1.40497 3.76175 1.59025 3.58764 1.71925C3.41364 1.84837 3.11579 2.09173 2.92584 2.25997C2.73588 2.42833 2.48268 2.67504 2.36315 2.80837C2.24364 2.94169 2.06171 3.15504 1.95888 3.28249C1.85615 3.40993 1.70615 3.6054 1.62575 3.71689C1.54523 3.82837 1.39367 4.05973 1.28903 4.23097C1.18427 4.40209 1.02095 4.6986 0.925915 4.88977C0.830995 5.08093 0.700195 5.37084 0.635275 5.53417C0.570475 5.69737 0.466195 5.99389 0.403555 6.19297C0.341035 6.39204 0.245275 6.77004 0.190675 7.03284C0.129595 7.32733 0.0745145 7.71073 0.0472745 8.03197C0.0137946 8.42713 0.00503457 8.87209 0.0112746 9.87095L0.0195545 11.1887H3.41508C3.44244 9.17544 3.46475 8.52456 3.48551 8.36496C3.50519 8.21364 3.56339 7.92049 3.61499 7.71337C3.66659 7.50637 3.75744 7.21309 3.81684 7.06177C3.87611 6.91044 3.97691 6.68244 4.04075 6.555C4.10459 6.42757 4.21691 6.2256 4.29035 6.10609C4.36391 5.98669 4.50684 5.77813 4.60824 5.64277C4.70951 5.50729 4.92924 5.25924 5.09651 5.09137C5.26368 4.92337 5.51711 4.69909 5.65955 4.59289C5.80199 4.48669 6.02208 4.33777 6.14868 4.26193C6.27528 4.18609 6.489 4.07004 6.62351 4.00393C6.75804 3.93793 7.017 3.83137 7.19904 3.76704C7.38095 3.70284 7.68528 3.61717 7.87524 3.5766C8.0652 3.53617 8.36291 3.4884 8.53704 3.47053C8.75795 3.44784 9.86664 3.44113 12.2059 3.4482C15.2527 3.45744 15.5832 3.46309 15.8316 3.50929C15.982 3.53724 16.2086 3.58633 16.3352 3.61849C16.4618 3.65064 16.7014 3.72649 16.8676 3.78709C17.0338 3.8478 17.3057 3.96504 17.4719 4.04773C17.638 4.1304 17.9035 4.28497 18.0617 4.39129C18.22 4.49749 18.4596 4.67689 18.5941 4.78993C18.7286 4.90284 18.9279 5.09209 19.0366 5.2104C19.1455 5.32873 19.3135 5.52973 19.4099 5.65717C19.5063 5.7846 19.645 5.98669 19.7185 6.10609C19.792 6.2256 19.9044 6.42757 19.9683 6.555C20.032 6.68244 20.1329 6.91044 20.1922 7.06177C20.2516 7.21309 20.3424 7.50637 20.3939 7.71337C20.4457 7.92049 20.504 8.21364 20.5235 8.36496C20.5443 8.52456 20.5666 9.17544 20.5765 9.9144L20.594 11.1887H23.9894C23.9889 8.62093 23.9772 8.04864 23.9519 7.82929C23.9317 7.65409 23.8771 7.32169 23.8306 7.0908C23.7843 6.8598 23.7059 6.534 23.6568 6.36673C23.6077 6.19944 23.5075 5.8998 23.4344 5.7006C23.3615 5.50153 23.2083 5.14969 23.0939 4.91869C22.9797 4.6878 22.7975 4.3554 22.6889 4.1802C22.5804 4.005 22.3794 3.71184 22.2423 3.5286C22.1052 3.34549 21.866 3.0564 21.7107 2.88637C21.5555 2.71633 21.299 2.45773 21.1407 2.31157C20.9825 2.16542 20.7106 1.93813 20.5364 1.80637C20.3622 1.67461 20.1099 1.49533 19.9752 1.40797C19.8408 1.32061 19.6336 1.19401 19.5149 1.12669C19.3962 1.05937 19.1825 0.948128 19.04 0.879488C18.8977 0.810968 18.7034 0.722408 18.6085 0.682928C18.5135 0.643328 18.3258 0.57085 18.1913 0.52189C18.0566 0.47281 17.7847 0.38737 17.587 0.33205C17.3891 0.27661 17.1301 0.21169 17.0114 0.18781C16.8928 0.163929 16.6531 0.123609 16.4791 0.0984095C16.305 0.0732095 15.9683 0.0399695 15.7309 0.0246095C15.4886 0.00888948 13.8161 -0.0017905 11.9182 0.000249487C10.0585 0.00228948 8.38164 0.0144095 8.19179 0.0274895ZM8.40635 5.22577C8.30411 5.24593 8.10395 5.3028 7.96151 5.35213C7.81908 5.40157 7.57308 5.50813 7.4148 5.58889C7.25651 5.66977 7.02348 5.80884 6.89688 5.89813C6.77028 5.98729 6.52968 6.19777 6.36215 6.36564C6.19475 6.53353 5.98559 6.77509 5.89751 6.90253C5.80931 7.02997 5.68139 7.2384 5.61324 7.36584C5.54508 7.49329 5.44644 7.70833 5.39411 7.84369C5.34168 7.97917 5.26344 8.2398 5.22024 8.42293L5.14151 8.75593V15.2431C5.24591 15.7144 5.32151 15.975 5.37695 16.1263C5.43239 16.2776 5.53308 16.5058 5.60064 16.6332C5.66819 16.7606 5.78028 16.9484 5.84975 17.0507C5.91924 17.1529 6.06095 17.3353 6.16464 17.4562C6.26831 17.5769 6.44964 17.7581 6.56748 17.8586C6.68531 17.9593 6.88535 18.1109 7.01195 18.1955C7.13855 18.2801 7.33608 18.3965 7.45079 18.4542C7.56551 18.5118 7.74684 18.5926 7.85364 18.6335C7.96044 18.6743 8.18388 18.7392 8.35008 18.7777C8.51615 18.8161 8.82695 18.8628 9.04068 18.8814C9.33431 18.9069 9.52739 18.9071 9.83195 18.8821C10.0535 18.864 10.3319 18.8283 10.4507 18.8032C10.5694 18.7779 10.7635 18.7249 10.8823 18.6854C11.001 18.6458 11.2276 18.5509 11.3858 18.4746C11.5441 18.3982 11.7415 18.2882 11.8247 18.2302C11.9077 18.1721 11.9822 18.1247 11.9902 18.1247C11.9981 18.1247 12.0757 18.1703 12.1627 18.226C12.2498 18.2818 12.4343 18.384 12.5728 18.4532C12.7112 18.5225 12.9217 18.6136 13.0404 18.6554C13.1591 18.6974 13.3728 18.7578 13.5152 18.7895C13.6577 18.8212 13.9426 18.8628 14.1482 18.8816C14.4389 18.9082 14.6154 18.9082 14.9396 18.8808C15.1691 18.8615 15.4475 18.8265 15.5582 18.803C15.669 18.7796 15.8633 18.7274 15.9899 18.6871C16.1165 18.6467 16.3496 18.5502 16.5078 18.4724C16.6661 18.3948 16.8992 18.2624 17.0258 18.1784C17.1617 18.0882 17.4102 17.8708 17.6321 17.6479C17.8739 17.4052 18.0652 17.1824 18.1678 17.0242C18.2556 16.8888 18.3796 16.6738 18.4433 16.5463C18.507 16.4189 18.6043 16.1778 18.6596 16.0105C18.715 15.8432 18.7842 15.5761 18.8139 15.4169C18.8639 15.1456 18.8675 14.9275 18.8675 11.9706V8.81389C18.764 8.34253 18.6997 8.10144 18.6581 7.974C18.6163 7.84657 18.5124 7.60549 18.4272 7.43833C18.3419 7.27104 18.2038 7.03644 18.1201 6.91704C18.0365 6.79753 17.8726 6.597 17.7559 6.47137C17.6393 6.34573 17.4467 6.16464 17.328 6.06913C17.2092 5.97349 17.0474 5.8536 16.9682 5.80273C16.8892 5.75184 16.7273 5.6574 16.6086 5.59284C16.4899 5.5284 16.2762 5.43444 16.1338 5.38404C15.9913 5.33364 15.8035 5.27437 15.7165 5.2524C15.6295 5.23044 15.5195 5.20824 15.472 5.2032L15.3856 5.19384L15.3569 14.9534C15.2604 15.1331 15.1891 15.2268 15.1363 15.2778C15.0835 15.3288 14.9788 15.3972 14.9036 15.4298C14.823 15.4649 14.699 15.4904 14.6015 15.492C14.5105 15.4936 14.3785 15.4772 14.3082 15.4559C14.238 15.4344 14.1214 15.3636 14.0492 15.2987C13.9742 15.231 13.8872 15.1132 13.8461 15.0235L13.7742 14.8666L13.7454 11.1887H10.2636L10.2348 14.8666C10.1322 15.0911 10.0609 15.2002 10.0103 15.2539C9.95975 15.3076 9.85355 15.3824 9.77435 15.4201C9.66539 15.4721 9.58175 15.4886 9.42911 15.4883C9.28871 15.488 9.18839 15.4702 9.09815 15.429C9.02699 15.3966 8.92548 15.3286 8.87268 15.2777C8.81988 15.2268 8.74859 15.1331 8.71439 15.0694L8.65211 14.9534C8.63988 7.41216 8.62644 5.2152 8.61419 5.20597C8.60208 5.19673 8.50848 5.2056 8.40635 5.22577ZM0.0197945 12.9019C0.00647457 12.9126 -0.00216543 13.509 0.000474562 14.2271C0.00383457 15.0955 0.0195545 15.6926 0.0475145 16.0105C0.0706745 16.2733 0.110395 16.5991 0.135715 16.7345C0.161155 16.87 0.212275 17.111 0.249355 17.2703C0.286555 17.4296 0.364795 17.7097 0.423235 17.893C0.481795 18.0761 0.594475 18.3824 0.673555 18.5735C0.752635 18.7646 0.866275 19.0188 0.926155 19.1383C0.985915 19.2577 1.10243 19.4728 1.18487 19.616C1.26731 19.7595 1.43375 20.0201 1.55471 20.1952C1.67567 20.3705 1.88604 20.6506 2.02235 20.8179C2.15868 20.9851 2.43719 21.2855 2.64119 21.4852C2.84519 21.6849 3.14819 21.9573 3.31428 22.0905C3.48048 22.2236 3.72648 22.407 3.86099 22.4981C3.99564 22.589 4.20924 22.7253 4.33584 22.8009C4.46244 22.8765 4.70195 23.007 4.86815 23.091C5.03435 23.175 5.35164 23.3156 5.57315 23.4035C5.79479 23.4915 6.13788 23.6096 6.33575 23.666C6.53351 23.7225 6.82488 23.7948 6.98315 23.8265C7.14144 23.8584 7.40688 23.9075 7.57308 23.9356C7.84955 23.9825 8.20764 23.988 11.7887 23.9971C14.5541 24.0045 15.8077 23.9979 16.0619 23.9745C16.2596 23.9565 16.6223 23.904 16.8676 23.8578C17.1128 23.8115 17.4884 23.7217 17.702 23.6581C17.9156 23.5946 18.2653 23.4721 18.4789 23.3863C18.6926 23.3002 19.01 23.1579 19.184 23.0698C19.358 22.9816 19.643 22.8215 19.817 22.7141C19.9912 22.6066 20.2306 22.4465 20.3493 22.3586C20.468 22.2705 20.6622 22.1195 20.7809 22.0231C20.8996 21.927 21.1698 21.6783 21.3811 21.4706C21.5926 21.2628 21.8958 20.9302 22.055 20.7311C22.2144 20.532 22.4343 20.2321 22.5438 20.0649C22.6535 19.8976 22.8127 19.637 22.898 19.4857C22.9831 19.3344 23.129 19.0411 23.2224 18.8341C23.3155 18.6271 23.4504 18.2882 23.522 18.0812C23.5936 17.8741 23.6934 17.5352 23.7436 17.3282C23.7939 17.1211 23.8589 16.8084 23.8884 16.6332C23.9176 16.458 23.9566 16.0931 23.9746 15.8222C23.9939 15.533 24.0039 14.8283 23.9986 14.1137L23.9894 12.8972H20.594C20.5666 14.8507 20.5439 15.5065 20.5237 15.663C20.504 15.8143 20.4432 16.1141 20.3887 16.3291C20.3339 16.5442 20.2368 16.8504 20.1729 17.0096C20.1089 17.169 20.0034 17.4035 19.9381 17.5309C19.873 17.6584 19.7643 17.8474 19.6966 17.9509C19.6289 18.0544 19.5509 18.1717 19.5234 18.2116C19.4956 18.2513 19.4022 18.3751 19.3158 18.4866C19.2294 18.5981 19.0409 18.8066 18.8969 18.95C18.7533 19.0933 18.5129 19.3031 18.363 19.416C18.2131 19.5288 17.9934 19.6801 17.8747 19.7521C17.756 19.8241 17.5682 19.9288 17.4575 19.9846C17.3467 20.0405 17.133 20.1348 16.9826 20.1946C16.8323 20.2543 16.5344 20.3469 16.3208 20.4005C16.1071 20.454 15.8093 20.5145 15.659 20.535C15.4504 20.5631 14.5847 20.5719 12.0046 20.5719C9.33888 20.5719 8.56248 20.5635 8.33568 20.5329C8.1774 20.5115 7.87631 20.4496 7.66655 20.3953C7.45691 20.3411 7.15259 20.2432 6.99035 20.178C6.82811 20.1125 6.61775 20.0195 6.52284 19.9711C6.42779 19.9226 6.25295 19.8241 6.13428 19.7521C6.01559 19.6801 5.79599 19.5288 5.64635 19.416C5.49659 19.3031 5.23955 19.0738 5.07504 18.9065C4.91051 18.7393 4.68851 18.4852 4.58171 18.3419C4.47504 18.1985 4.33391 17.9933 4.26828 17.8858C4.20251 17.7782 4.10484 17.6023 4.05108 17.4948C3.99731 17.3873 3.90071 17.169 3.83664 17.0096C3.77244 16.8504 3.67511 16.5442 3.62039 16.3291C3.56568 16.1141 3.50495 15.8143 3.48539 15.663C3.46511 15.5065 3.44231 14.8507 3.43248 14.1426L3.41508 12.8972C0.802435 12.8857 0.0331145 12.8911 0.0197945 12.9019Z" fill="black"/>
</g>
<defs>
<clipPath id="clip0">
<rect width="24" height="24" fill="white"/>
</clipPath>
</defs>
</svg>
