<svg width="128" height="128" viewBox="0 0 128 128" fill="none" xmlns="http://www.w3.org/2000/svg">
<g clip-path="url(#clip0)">
<path d="M43.69 0.145817C42.6769 0.214937 40.881 0.417817 39.6996 0.597017C38.5182 0.776217 36.6186 1.15638 35.4794 1.44246C34.3396 1.72918 32.6129 2.23542 31.6426 2.56822C30.6718 2.90102 29.1178 3.50453 28.1892 3.90965C27.2612 4.31477 25.914 4.95733 25.1966 5.33749C24.4791 5.71765 23.2017 6.45365 22.3575 6.97269C21.5134 7.49237 20.0631 8.48053 19.1345 9.16853C18.2065 9.85717 16.618 11.1551 15.6049 12.0524C14.5918 12.9503 13.2414 14.2661 12.6039 14.9772C11.9665 15.6882 10.9962 16.8261 10.4478 17.5058C9.89992 18.1855 9.09992 19.228 8.67112 19.8226C8.24168 20.4172 7.43336 21.6511 6.87528 22.5644C6.31656 23.477 5.44552 25.0584 4.93864 26.078C4.4324 27.0975 3.7348 28.6437 3.38856 29.5148C3.04296 30.3852 2.4868 31.9666 2.15272 33.0284C1.81928 34.0901 1.30856 36.1061 1.01736 37.5077C0.691598 39.0783 0.397838 41.1231 0.252558 42.8364C0.0739983 44.9439 0.0272783 47.317 0.0605583 52.6443L0.104718 59.6722H18.2142C18.3601 48.9349 18.4791 45.4635 18.5898 44.6123C18.6948 43.8053 19.0052 42.2418 19.2804 41.1372C19.5556 40.0332 20.0401 38.469 20.3569 37.662C20.673 36.8549 21.2106 35.6389 21.5511 34.9592C21.8916 34.2796 22.4906 33.2024 22.8823 32.565C23.2746 31.9282 24.0369 30.8159 24.5777 30.094C25.1178 29.3714 26.2897 28.0485 27.1818 27.1532C28.0734 26.2572 29.425 25.061 30.1847 24.4946C30.9444 23.9282 32.1182 23.134 32.7934 22.7295C33.4686 22.325 34.6084 21.7061 35.3258 21.3535C36.0433 21.0015 37.4244 20.4332 38.3953 20.0901C39.3655 19.7477 40.9886 19.2908 42.0017 19.0744C43.0148 18.8588 44.6026 18.604 45.5313 18.5087C46.7095 18.3877 52.6225 18.3519 65.0986 18.3896C81.3482 18.4389 83.1108 18.469 84.4356 18.7154C85.2375 18.8645 86.4465 19.1263 87.1217 19.2978C87.7969 19.4693 89.0743 19.8738 89.9607 20.197C90.8471 20.5208 92.2974 21.1461 93.1838 21.5871C94.0695 22.028 95.4858 22.8524 96.3294 23.4194C97.1735 23.9858 98.4516 24.9426 99.169 25.5455C99.8865 26.1477 100.949 27.157 101.529 27.788C102.11 28.4191 103.006 29.4911 103.52 30.1708C104.034 30.8504 104.774 31.9282 105.166 32.565C105.558 33.2024 106.157 34.2796 106.498 34.9592C106.838 35.6389 107.376 36.8549 107.692 37.662C108.009 38.469 108.493 40.0332 108.768 41.1372C109.044 42.2418 109.355 43.8053 109.459 44.6123C109.57 45.4635 109.689 48.9349 109.742 52.876L109.835 59.6722H127.944C127.941 45.9775 127.879 42.9253 127.744 41.7554C127.636 40.821 127.345 39.0482 127.097 37.8168C126.85 36.5848 126.432 34.8472 126.17 33.9551C125.908 33.0629 125.374 31.4648 124.984 30.4024C124.595 29.3407 123.778 27.4642 123.168 26.2322C122.559 25.0008 121.587 23.228 121.008 22.2936C120.429 21.3592 119.357 19.7957 118.626 18.8184C117.895 17.8418 116.619 16.3 115.791 15.3932C114.963 14.4863 113.595 13.1071 112.751 12.3276C111.907 11.5481 110.457 10.3359 109.528 9.63317C108.599 8.93045 107.253 7.97429 106.535 7.50837C105.818 7.04245 104.713 6.36725 104.08 6.00821C103.447 5.64917 102.307 5.05589 101.547 4.68981C100.788 4.32437 99.7521 3.85205 99.2458 3.64149C98.739 3.43029 97.738 3.04374 97.0206 2.78262C96.3025 2.52086 94.8522 2.06518 93.7975 1.77014C92.7422 1.47446 91.361 1.12822 90.7281 1.00086C90.0951 0.873497 88.817 0.658457 87.889 0.524057C86.9604 0.389657 85.1646 0.212377 83.8986 0.130457C82.6065 0.0466171 73.6862 -0.0103428 63.5639 0.000537148C53.6458 0.0114171 44.7025 0.0760571 43.69 0.145817ZM44.8343 27.87C44.289 27.9775 43.2215 28.2808 42.4618 28.5439C41.7022 28.8076 40.3902 29.3759 39.546 29.8066C38.7018 30.238 37.459 30.9797 36.7838 31.4559C36.1086 31.9314 34.8254 33.054 33.9319 33.9493C33.0391 34.8447 31.9236 36.133 31.4538 36.8127C30.9834 37.4924 30.3012 38.604 29.9377 39.2837C29.5742 39.9634 29.0481 41.1103 28.769 41.8322C28.4894 42.5548 28.0721 43.9448 27.8417 44.9215L27.4218 46.6975V81.2958C27.9786 83.8091 28.3818 85.1992 28.6775 86.0062C28.9732 86.8133 29.5102 88.0299 29.8705 88.7096C30.2308 89.3893 30.8286 90.3909 31.1991 90.9362C31.5697 91.4814 32.3255 92.4542 32.8785 93.0987C33.4314 93.7426 34.3985 94.7089 35.027 95.2453C35.6554 95.7822 36.7223 96.5906 37.3975 97.0418C38.0727 97.493 39.1262 98.1137 39.738 98.4216C40.3498 98.7288 41.3169 99.1595 41.8865 99.3778C42.4561 99.5954 43.6478 99.9416 44.5342 100.147C45.4199 100.352 47.0775 100.601 48.2174 100.7C49.7834 100.836 50.8132 100.837 52.4375 100.704C53.619 100.607 55.1038 100.417 55.7374 100.283C56.3703 100.148 57.4058 99.8654 58.0394 99.6549C58.6724 99.4437 59.8807 98.9374 60.7249 98.5304C61.569 98.1227 62.6218 97.5365 63.0654 97.2267C63.5082 96.917 63.9057 96.6642 63.9479 96.6642C63.9902 96.6642 64.4042 96.9073 64.8682 97.2043C65.3329 97.5019 66.3166 98.0472 67.0551 98.4165C67.7937 98.7858 68.9162 99.2715 69.5492 99.4949C70.1822 99.7189 71.322 100.041 72.0817 100.21C72.8414 100.379 74.3607 100.601 75.4577 100.701C77.0078 100.843 77.9492 100.843 79.6785 100.697C80.9022 100.594 82.387 100.407 82.9777 100.282C83.5684 100.157 84.6046 99.8789 85.2798 99.6638C85.955 99.4481 87.1985 98.9336 88.042 98.5189C88.8862 98.1048 90.1297 97.3989 90.8049 96.9509C91.5294 96.4696 92.8548 95.3099 94.0382 94.1214C95.3278 92.8267 96.3479 91.6389 96.8951 90.7947C97.3636 90.0728 98.0247 88.9259 98.3646 88.2462C98.7044 87.5666 99.2234 86.2808 99.5185 85.3886C99.8135 84.4965 100.183 83.0718 100.341 82.2226C100.608 80.7755 100.627 79.6126 100.627 63.8424V47.0066C100.075 44.4927 99.7322 43.2069 99.5102 42.5272C99.2874 41.8476 98.7332 40.5618 98.2788 39.6703C97.8238 38.7781 97.0871 37.5269 96.641 36.8901C96.195 36.2527 95.3207 35.1832 94.6986 34.5132C94.0766 33.8431 93.0494 32.8773 92.4164 32.3679C91.7828 31.8578 90.9201 31.2184 90.4977 30.9471C90.0759 30.6757 89.2126 30.172 88.5796 29.8277C87.9466 29.484 86.8068 28.9829 86.0471 28.7141C85.2874 28.4453 84.2858 28.1292 83.8218 28.012C83.3578 27.8949 82.771 27.7765 82.5175 27.7496L82.0567 27.6997L81.9038 79.7509C81.3892 80.709 81.009 81.2088 80.7274 81.4808C80.4458 81.7528 79.8871 82.1176 79.4865 82.2917C79.0564 82.4786 78.3953 82.6149 77.875 82.6232C77.3898 82.6315 76.6858 82.5445 76.3108 82.4306C75.9364 82.316 75.3143 81.9384 74.9297 81.5922C74.5297 81.2312 74.0657 80.6027 73.8462 80.1246L73.4628 79.2875L73.3092 59.6722H54.7396L54.586 79.2875C54.0388 80.485 53.6586 81.0667 53.3886 81.3534C53.1191 81.6395 52.5527 82.0389 52.1303 82.2398C51.5492 82.517 51.1031 82.6053 50.289 82.6034C49.5402 82.6021 49.0052 82.5067 48.5239 82.2872C48.1444 82.1144 47.603 81.7515 47.3214 81.4802C47.0398 81.2088 46.6596 80.709 46.4772 80.3691L46.145 79.7509C46.0798 39.5307 46.0081 27.8136 45.9428 27.7644C45.8782 27.7151 45.379 27.7624 44.8343 27.87ZM0.105998 68.8095C0.0349583 68.8664 -0.0111217 72.0472 0.00295826 75.877C0.0208783 80.5086 0.104718 83.6933 0.253838 85.3886C0.377358 86.7902 0.589198 88.5278 0.724238 89.2498C0.859918 89.9723 1.13256 91.2581 1.33032 92.1073C1.52872 92.9573 1.946 94.451 2.25768 95.4283C2.57 96.4049 3.17096 98.0389 3.59272 99.0578C4.01448 100.077 4.62056 101.433 4.93992 102.07C5.25864 102.707 5.88008 103.854 6.31976 104.618C6.75944 105.383 7.64712 106.773 8.29224 107.707C8.93736 108.642 10.0593 110.136 10.7863 111.028C11.5134 111.92 12.9988 113.522 14.0868 114.587C15.1748 115.652 16.7908 117.105 17.6766 117.815C18.563 118.525 19.875 119.503 20.5924 119.989C21.3105 120.474 22.4497 121.201 23.1249 121.604C23.8001 122.007 25.0775 122.703 25.9639 123.151C26.8503 123.599 28.5425 124.349 29.7239 124.818C30.906 125.287 32.7358 125.917 33.7911 126.218C34.8458 126.519 36.3998 126.905 37.2439 127.074C38.0881 127.244 39.5038 127.506 40.3902 127.656C41.8647 127.906 43.7745 127.935 62.8734 127.984C77.6222 128.023 84.3082 127.988 85.6638 127.863C86.7185 127.767 88.6526 127.487 89.9607 127.241C91.2689 126.994 93.2721 126.515 94.4113 126.176C95.5505 125.837 97.4154 125.184 98.5546 124.726C99.6945 124.267 101.387 123.508 102.315 123.038C103.243 122.568 104.763 121.714 105.691 121.141C106.62 120.568 107.897 119.714 108.53 119.245C109.163 118.775 110.199 117.97 110.832 117.456C111.465 116.943 112.906 115.617 114.033 114.509C115.161 113.401 116.778 111.627 117.627 110.565C118.477 109.503 119.65 107.904 120.234 107.012C120.819 106.12 121.668 104.73 122.123 103.923C122.577 103.116 123.355 101.552 123.853 100.448C124.35 99.3438 125.069 97.5365 125.451 96.4325C125.833 95.3278 126.365 93.5205 126.633 92.4165C126.901 91.3118 127.248 89.644 127.405 88.7096C127.561 87.7752 127.769 85.829 127.865 84.3845C127.968 82.8421 128.021 79.0834 127.993 75.2722L127.944 68.7845H109.835C109.689 79.203 109.568 82.7006 109.46 83.5352C109.355 84.3422 109.031 85.941 108.74 87.0878C108.448 88.2347 107.93 89.868 107.589 90.7173C107.248 91.5672 106.685 92.8178 106.337 93.4974C105.99 94.1771 105.41 95.1851 105.049 95.7374C104.688 96.2891 104.272 96.915 104.125 97.1275C103.977 97.3394 103.479 97.9998 103.018 98.5944C102.557 99.189 101.552 100.301 100.784 101.066C100.018 101.83 98.7358 102.949 97.9364 103.551C97.137 104.153 95.9652 104.96 95.3322 105.344C94.6993 105.728 93.6977 106.286 93.107 106.584C92.5162 106.882 91.3764 107.385 90.5745 107.704C89.7726 108.022 88.1841 108.516 87.0449 108.802C85.905 109.087 84.3166 109.41 83.5153 109.519C82.4023 109.669 77.7854 109.716 64.0247 109.716C49.8078 109.716 45.667 109.671 44.4574 109.508C43.6132 109.394 42.0074 109.064 40.8887 108.774C39.7706 108.485 38.1476 107.963 37.2823 107.615C36.417 107.266 35.2951 106.77 34.7889 106.512C34.282 106.253 33.3495 105.728 32.7166 105.344C32.0836 104.96 30.9124 104.153 30.1143 103.551C29.3156 102.949 27.9447 101.726 27.0673 100.834C26.1898 99.9422 25.0058 98.5867 24.4362 97.8225C23.8673 97.0577 23.1146 95.9633 22.7646 95.3899C22.4138 94.8165 21.8929 93.8782 21.6062 93.3048C21.3194 92.7314 20.8042 91.5672 20.4625 90.7173C20.1201 89.868 19.601 88.2347 19.3092 87.0878C19.0174 85.941 18.6935 84.3422 18.5892 83.5352C18.481 82.7006 18.3594 79.203 18.307 75.4264L18.2142 68.7845C4.28008 68.723 0.177038 68.7519 0.105998 68.8095Z" fill="black"/>
</g>
<defs>
<clipPath id="clip0">
<rect width="128" height="128" fill="white"/>
</clipPath>
</defs>
</svg>
