<svg width="24" height="24" viewBox="0 0 24 24" fill="none" xmlns="http://www.w3.org/2000/svg">
<path fill-rule="evenodd" clip-rule="evenodd" d="M12.0177 23.6672C18.4443 23.6575 23.6466 18.4298 23.6466 11.9813C23.6466 5.63759 18.4683 0.413093 12.2817 0.302656C5.78445 0.186781 0.355204 5.4589 0.353516 11.8521C0.351641 18.4294 5.53077 23.6766 12.0177 23.6672V23.6672ZM11.9988 0.868343C18.1688 0.866281 23.0849 5.87928 23.083 12.1708C23.081 18.1107 18.0346 23.0796 12.0033 23.0809C5.8587 23.0822 0.917329 18.1003 0.917516 11.9044C0.917891 5.86822 5.93614 0.870406 11.9988 0.868343V0.868343ZM7.34202 6.73072C7.44289 7.0669 7.16052 7.1839 6.86033 7.20734C6.54439 7.23172 6.22864 7.25553 5.86189 7.28347C7.07239 10.8898 8.2647 14.4428 9.48533 18.0784C9.57233 17.9361 9.60814 17.896 9.62389 17.8491C10.294 15.8462 10.9679 13.8447 11.621 11.8362C11.6806 11.653 11.651 11.4103 11.5857 11.2221C11.2401 10.2246 10.8261 9.24884 10.5231 8.23934C10.316 7.54822 10.0411 7.10103 9.22414 7.18109C9.08502 7.19478 8.91514 6.89534 8.75933 6.74066C8.94777 6.62816 9.13489 6.42115 9.32502 6.41834C10.9885 6.39278 12.6524 6.39328 14.3159 6.41984C14.5068 6.42303 14.6939 6.63547 14.8823 6.75078C14.7173 6.90153 14.575 7.12766 14.3821 7.18597C14.0725 7.27934 13.7292 7.26172 13.3587 7.29472L16.9866 18.0872C17.5362 16.2617 18.0475 14.5855 18.5448 12.9049C18.9884 11.4047 18.724 10.0037 17.9219 8.6824C17.6808 8.28509 17.3845 7.89959 17.2478 7.46628C17.0926 6.97334 16.9636 6.41216 17.0459 5.91772C17.1856 5.07978 17.8285 4.66372 18.6985 4.58403C13.9375 0.165406 6.45589 1.74716 3.69908 6.54809C4.76033 6.49916 5.77358 6.43484 6.78758 6.42097C6.9792 6.41853 7.29702 6.58053 7.34202 6.73072V6.73072ZM9.23895 21.3503C9.21683 21.415 9.21552 21.487 9.19808 21.5944C11.2499 22.1633 13.2621 22.1222 15.3216 21.4283L12.1754 12.8108C11.1685 15.7378 10.2029 18.5436 9.23895 21.3503ZM7.65345 20.9607L2.91327 7.95753C0.774829 12.1347 2.40158 18.5078 7.65345 20.9607ZM21.9837 12.6053C22.1341 10.6302 21.4527 7.89547 20.8643 7.51934C20.7987 8.24591 20.8445 9.05422 20.636 9.79072C20.1453 11.526 19.5453 13.2312 18.9674 14.941C18.3393 16.7995 17.6864 18.6495 17.0442 20.5033C20.0615 18.7148 21.7195 16.075 21.9837 12.6053V12.6053Z" fill="black"/>
</svg>
