<svg version="1.2" baseProfile="tiny-ps" xmlns="http://www.w3.org/2000/svg" viewBox="0 0 300 300" width="128" height="128">
	<title>Xampp-01-svg</title>
	<style>
		tspan { white-space:pre }
		.shp0 { fill: #ffffff } 
	</style>
	<path id="XMLID_7_" fill-rule="evenodd" class="shp0" d="M151.1 200.1C150.1 206.5 149.3 212.2 147.1 217.5C136.4 242.3 118.2 257.4 90.9 260.4C58.6 264 28.9 244 19.9 213.1C16.7 201.9 17 190.5 18.2 179.1C19.5 166.9 23 155.4 28.7 144.5C29.5 142.9 29.5 141.8 28.5 140.3C19.9 127.4 16.6 113.1 17.8 97.6C18.4 89.4 20.5 81.5 24.2 74.1C35.2 52.4 59.2 34.1 91.5 37.1C119.8 39.8 146.1 64.2 150.2 91.7C150.4 93.1 150.8 94.4 151.2 96.5C151.9 92.8 152.4 89.8 153 86.8C158.3 61.8 182.7 35.7 217.4 35.4C252.5 35.1 278.5 62.6 283.5 88.2C285.6 99 285.2 109.8 283.5 120.6C281.8 131.4 278.6 141.8 274 151.6C273 153.8 273.1 155.3 274.4 157.4C282 169.1 285.3 182 284.9 196C284 225.2 263.4 251.3 235 258.2C195.4 267.7 165 244.1 154.8 215.4C152.9 210.5 152.1 205.6 151.1 200.1ZM223.1 148.8C223.5 147.2 224.8 146.2 225.7 144.9C235.6 131.7 240.9 117 239.7 100.3C238.9 88.2 228.9 79.6 216.8 80.1C204.7 80.6 195.6 89.9 195.5 101.9C195.5 102.9 195.5 103.9 195.5 104.9C194.7 117.8 187.6 124.8 176.8 125.6C174.8 125.7 172.9 125.9 170.9 125.9C156.9 125.9 143 125.9 129 125.9C122.9 125.9 116.8 126.6 111 128.4C83.9 136.8 68.1 155.3 62.8 183C61.8 188.5 60.8 194.1 62.6 199.8C65.2 207.9 70 213.9 78.5 215.9C87.3 218 95 215.7 101.1 208.8C105 204.3 106.3 199 106.6 193.2C107.4 178.2 115.5 170.7 129.1 170.8C150 171 170.9 170.8 191.8 170.9C195.5 170.9 195.5 171 195.6 174.6C195.6 181.4 195.4 188.2 195.7 194.9C196.1 205.9 205.8 215.1 217.1 215.4C228.7 215.7 239.1 207.1 239.8 195.9C240.5 186.2 240.4 176.4 239.8 166.7C239.3 159.2 235.2 153.8 228.3 150.7C226.6 150 224.8 149.5 223.1 148.8ZM92.2 126C96.7 126 100.4 126 104 126C105.8 126 106.5 125.2 106.5 123.5C106.4 116.5 106.8 109.4 106.4 102.4C105.8 93.1 100.9 86.4 92.3 83.1C83.5 79.6 75.4 81.6 68.5 88.1C61.6 94.7 60.7 102.7 63.1 111.5C65.3 119.6 70.5 124.2 78.7 125.5C83.4 126.3 88.2 125.9 92.2 126Z" />
</svg>