<svg width="24" height="24" viewBox="0 0 24 24" fill="none" xmlns="http://www.w3.org/2000/svg">
<path fill-rule="evenodd" clip-rule="evenodd" d="M12.0881 16.0082C12.0081 16.5202 11.9441 16.9762 11.7681 17.4002C10.9121 19.3842 9.45613 20.5922 7.27213 20.8322C4.68812 21.1202 2.31212 19.5203 1.59213 17.0482C1.33613 16.1522 1.36013 15.2402 1.45613 14.3282C1.56013 13.3522 1.84013 12.4322 2.29613 11.5602C2.36012 11.4322 2.36012 11.3442 2.28013 11.2242C1.59213 10.1922 1.32813 9.04823 1.42413 7.80823C1.47213 7.15223 1.64013 6.52022 1.93613 5.92823C2.81612 4.19222 4.73612 2.72822 7.32013 2.96822C9.58412 3.18422 11.6881 5.13623 12.0161 7.33622C12.0321 7.44823 12.0641 7.55222 12.0961 7.72022C12.1521 7.42423 12.1921 7.18423 12.2401 6.94423C12.6641 4.94423 14.6161 2.85623 17.3921 2.83223C20.2001 2.80823 22.2802 5.00822 22.6801 7.05623C22.8481 7.92023 22.8161 8.78423 22.6801 9.64823C22.5442 10.5122 22.2881 11.3442 21.9202 12.1282C21.8401 12.3042 21.8482 12.4242 21.9521 12.5922C22.5601 13.5282 22.8241 14.5602 22.7921 15.6802C22.7201 18.0162 21.0721 20.1042 18.8002 20.6562C15.6321 21.4163 13.2001 19.5282 12.3841 17.2322C12.2321 16.8402 12.1681 16.4482 12.0881 16.0082ZM17.8481 11.9042C17.8801 11.7762 17.9841 11.6962 18.0561 11.5922C18.8482 10.5362 19.2721 9.36023 19.1761 8.02423C19.1122 7.05623 18.3121 6.36823 17.3441 6.40823C16.3761 6.44822 15.6481 7.19222 15.6401 8.15222C15.6401 8.23223 15.6401 8.31223 15.6401 8.39222C15.5761 9.42422 15.0081 9.98423 14.1441 10.0482C13.9841 10.0562 13.8321 10.0722 13.6721 10.0722C12.5521 10.0722 11.4401 10.0722 10.3201 10.0722C9.83213 10.0722 9.34412 10.1282 8.88013 10.2722C6.71213 10.9442 5.44813 12.4242 5.02412 14.6402C4.94413 15.0802 4.86413 15.5282 5.00813 15.9842C5.21612 16.6322 5.60012 17.1122 6.28013 17.2722C6.98413 17.4402 7.60013 17.2562 8.08813 16.7042C8.40013 16.3442 8.50412 15.9202 8.52812 15.4562C8.59213 14.2562 9.24013 13.6562 10.3281 13.6642C12.0001 13.6802 13.6721 13.6642 15.3441 13.6722C15.6401 13.6722 15.6401 13.6802 15.6481 13.9682C15.6481 14.5122 15.6321 15.0562 15.6561 15.5922C15.6881 16.4722 16.4641 17.2082 17.3681 17.2322C18.2961 17.2562 19.1281 16.5682 19.1842 15.6722C19.2401 14.8962 19.2322 14.1122 19.1842 13.3362C19.1441 12.7362 18.8161 12.3042 18.2641 12.0562C18.1281 12.0002 17.9841 11.9602 17.8481 11.9042ZM7.37612 10.0802C7.73612 10.0802 8.03213 10.0802 8.32013 10.0802C8.46413 10.0802 8.52013 10.0162 8.52013 9.88022C8.51213 9.32023 8.54413 8.75222 8.51213 8.19223C8.46413 7.44823 8.07212 6.91223 7.38413 6.64823C6.68012 6.36823 6.03212 6.52823 5.48012 7.04822C4.92812 7.57622 4.85612 8.21623 5.04812 8.92022C5.22413 9.56822 5.64013 9.93623 6.29612 10.0402C6.67213 10.1042 7.05613 10.0722 7.37612 10.0802Z" fill="black"/>
</svg>
