<svg width="24" height="24" viewBox="0 0 24 24" fill="none" xmlns="http://www.w3.org/2000/svg">
<path d="M18.607 15.1334C17.7933 15.1428 17.0808 15.5628 16.4789 15.9378C15.3539 16.6334 14.7914 16.5884 14.7914 16.5884L14.7726 16.5565C14.6958 16.4309 15.1326 15.304 14.6433 13.9615C14.1145 12.4934 13.2745 12.139 13.342 12.0265C13.6289 11.5409 14.347 10.7703 14.6339 9.33401C14.8045 8.46401 14.7595 7.03151 14.3733 6.28151C14.302 6.14276 13.6645 6.51401 13.6645 6.51401C13.6645 6.51401 13.0683 5.18463 12.9014 5.07776C12.3633 4.73276 11.7764 6.50463 11.7764 6.50463C11.37 6.46481 10.9599 6.52035 10.5788 6.66682C10.1976 6.81329 9.8559 7.04666 9.58077 7.34838C9.37681 7.54485 9.12954 7.69064 8.85889 7.77401C8.78202 7.80026 8.68827 7.79651 8.45577 8.42463C8.09952 9.37526 9.06327 10.4515 9.06327 10.4515C9.06327 10.4515 7.91389 11.2634 7.48827 12.274C7.20399 12.9669 7.09142 13.7182 7.16014 14.464C7.16014 14.464 6.34264 15.1728 6.29014 15.904C6.24142 16.4162 6.3577 16.9307 6.62202 17.3721C6.64265 17.4162 6.67191 17.4557 6.70806 17.4882C6.74422 17.5208 6.78654 17.5458 6.83252 17.5617C6.8785 17.5776 6.9272 17.5841 6.97575 17.5809C7.02429 17.5776 7.0717 17.5646 7.11515 17.5428C7.11515 17.5428 6.57139 18.1765 7.07952 18.4446C7.54264 18.6865 8.32264 18.8196 8.73514 18.409C9.03514 18.109 9.09514 17.4396 9.20577 17.1659C9.23202 17.1021 9.32202 17.2728 9.40827 17.3534C9.48783 17.423 9.57314 17.4857 9.66327 17.5409C9.66327 17.5409 8.93202 17.8559 9.23202 18.574C9.3314 18.8121 9.68577 18.964 10.2651 18.9603C10.4808 18.9603 12.8451 18.8253 13.4751 18.6734C13.6656 18.6431 13.8391 18.5461 13.9645 18.3996C14.9875 18.0953 15.9645 17.6538 16.8689 17.0871C17.7576 16.5078 18.1214 16.3503 18.8395 16.1796C19.432 16.039 19.3926 15.1203 18.607 15.1334V15.1334Z" fill="black"/>
<path d="M12 0.375C9.7008 0.375 7.45322 1.05679 5.5415 2.33417C3.62978 3.61154 2.13977 5.42711 1.25991 7.55131C0.380037 9.6755 0.149823 12.0129 0.598376 14.2679C1.04693 16.523 2.1541 18.5943 3.77989 20.2201C5.40567 21.8459 7.47705 22.9531 9.73208 23.4016C11.9871 23.8502 14.3245 23.62 16.4487 22.7401C18.5729 21.8602 20.3885 20.3702 21.6658 18.4585C22.9432 16.5468 23.625 14.2992 23.625 12C23.625 8.91686 22.4002 5.95999 20.2201 3.77988C18.04 1.59977 15.0831 0.375 12 0.375V0.375ZM18.9938 16.8431C18.3656 16.995 18.0731 17.1131 17.2294 17.6606C16.3185 18.2324 15.338 18.6849 14.3119 19.0069C14.1136 19.1696 13.8798 19.2833 13.6294 19.3387C12.915 19.5131 10.4644 19.6444 10.2713 19.6444H10.2263C9.47626 19.6444 9.05063 19.4119 8.82188 19.1681C8.18438 19.4869 7.35938 19.3556 6.75938 19.0388C6.61571 18.9683 6.49022 18.8657 6.39267 18.7389C6.29511 18.612 6.22811 18.4644 6.19688 18.3075C6.17461 18.1797 6.17461 18.049 6.19688 17.9213C6.14163 17.8636 6.09202 17.8008 6.04876 17.7338C5.70814 17.167 5.55952 16.5055 5.62501 15.8475C5.67938 15.1481 6.16313 14.5238 6.47813 14.1919C6.45195 13.4423 6.58354 12.6955 6.86438 12C7.16604 11.3531 7.60195 10.7779 8.14313 10.3125C7.83376 9.79125 7.51875 8.98875 7.82438 8.17125C8.04375 7.58813 8.22376 7.26375 8.61938 7.125C8.79213 7.07516 8.95248 6.98956 9.09 6.87375C9.66702 6.24695 10.4635 5.86683 11.3138 5.8125C11.3494 5.7225 11.3906 5.625 11.4356 5.53875C11.7356 4.90125 12.0544 4.54313 12.4275 4.41375C12.5627 4.36322 12.7079 4.34537 12.8513 4.36166C12.9946 4.37795 13.1321 4.42793 13.2525 4.5075C13.3744 4.58813 13.53 4.695 13.9838 5.6325C14.1556 5.57093 14.3424 5.56438 14.5181 5.61375C14.614 5.63987 14.7034 5.68572 14.7806 5.74835C14.8577 5.81099 14.921 5.88903 14.9663 5.9775C15.4294 6.86625 15.4913 8.45063 15.2888 9.46875C15.1091 10.3702 14.7354 11.2218 14.1938 11.9644C14.6782 12.4684 15.0474 13.0717 15.2756 13.7325C15.4987 14.3576 15.5887 15.0224 15.54 15.6844C15.7416 15.5879 15.937 15.4789 16.125 15.3581C16.6988 15.0038 17.565 14.4694 18.5981 14.4562C18.9115 14.4353 19.2212 14.5339 19.4648 14.7322C19.7084 14.9306 19.8677 15.2138 19.9106 15.525C19.9498 15.8195 19.8775 16.118 19.7078 16.3619C19.5382 16.6058 19.2835 16.7774 18.9938 16.8431V16.8431Z" fill="black"/>
</svg>
