<svg width="100" height="100" viewBox="0 0 100 100" fill="none" xmlns="http://www.w3.org/2000/svg">
<path d="M8.34997 91.6667L13.9833 70.9667C10.2714 64.6036 8.32121 57.3666 8.33331 50C8.33331 26.9875 26.9875 8.33333 50 8.33333C73.0125 8.33333 91.6666 26.9875 91.6666 50C91.6666 73.0125 73.0125 91.6667 50 91.6667C42.6365 91.6785 35.4027 89.7299 29.0416 86.0208L8.34997 91.6667ZM34.9625 30.45C34.4244 30.4834 33.8986 30.6251 33.4166 30.8667C32.9646 31.1226 32.552 31.4426 32.1916 31.8167C31.6916 32.2875 31.4083 32.6958 31.1041 33.0917C29.5642 35.0958 28.7358 37.5559 28.75 40.0833C28.7583 42.125 29.2916 44.1125 30.125 45.9708C31.8291 49.7292 34.6333 53.7083 38.3375 57.3958C39.2291 58.2833 40.1 59.175 41.0375 60.0042C45.6349 64.0519 51.1135 66.971 57.0375 68.5292L59.4083 68.8917C60.1791 68.9333 60.95 68.875 61.725 68.8375C62.9385 68.7749 64.1234 68.4463 65.1958 67.875C65.8875 67.5083 66.2125 67.325 66.7916 66.9583C66.7916 66.9583 66.9708 66.8417 67.3125 66.5833C67.875 66.1667 68.2208 65.8708 68.6875 65.3833C69.0333 65.025 69.3333 64.6042 69.5625 64.125C69.8875 63.4458 70.2125 62.15 70.3458 61.0708C70.4458 60.2458 70.4166 59.7958 70.4041 59.5167C70.3875 59.0708 70.0166 58.6083 69.6125 58.4125L67.1875 57.325C67.1875 57.325 63.5625 55.7458 61.35 54.7375C61.1167 54.6358 60.8667 54.5779 60.6125 54.5667C60.3274 54.5374 60.0393 54.5695 59.7677 54.6607C59.496 54.752 59.247 54.9004 59.0375 55.0958V55.0875C59.0166 55.0875 58.7375 55.325 55.725 58.975C55.5521 59.2073 55.3139 59.3829 55.0408 59.4794C54.7677 59.5759 54.4721 59.5888 54.1916 59.5167C53.9201 59.4441 53.6542 59.3522 53.3958 59.2417C52.8791 59.025 52.7 58.9417 52.3458 58.7875L52.325 58.7792C49.9413 57.7384 47.7342 56.3327 45.7833 54.6125C45.2583 54.1542 44.7708 53.6542 44.2708 53.1708C42.6315 51.601 41.2029 49.825 40.0208 47.8875L39.775 47.4917C39.5984 47.2257 39.4556 46.9388 39.35 46.6375C39.1916 46.025 39.6041 45.5333 39.6041 45.5333C39.6041 45.5333 40.6166 44.425 41.0875 43.825C41.4795 43.3263 41.8453 42.8076 42.1833 42.2708C42.675 41.4792 42.8291 40.6667 42.5708 40.0375C41.4041 37.1875 40.1958 34.35 38.9541 31.5333C38.7083 30.975 37.9791 30.575 37.3166 30.4958C37.0916 30.4708 36.8666 30.4458 36.6416 30.4292C36.0821 30.4014 35.5214 30.4069 34.9625 30.4458V30.45Z" fill="black"/>
</svg>
