<svg width="128" height="128" viewBox="0 0 128 128" fill="none" xmlns="http://www.w3.org/2000/svg">
<g clip-path="url(#clip0)">
<path d="M128 64C128 99.3462 99.3462 128 64 128C28.6538 128 0 99.3462 0 64C0 28.6538 28.6538 -3.05176e-05 64 -3.05176e-05C99.3462 -3.05176e-05 128 28.6538 128 64V64Z" fill="black"/>
<path d="M106.138 26.722C110.71 31.292 98.0354 51.3808 95.8927 53.5236C93.7499 55.6631 88.3075 53.6947 83.7365 49.1237C79.1644 44.5538 77.1949 39.1103 79.3376 36.9675C81.4804 34.8237 101.567 22.15 106.138 26.722V26.722Z" fill="white"/>
<path d="M42.0243 31.5571C35.0443 27.5967 25.1132 23.1914 21.9536 26.351C18.7512 29.5512 23.319 39.7069 27.3201 46.6997C30.8807 40.5078 35.9478 35.2952 42.0243 31.5571V31.5571Z" fill="white"/>
<path d="M99.1656 51.9475C99.8082 54.1277 99.6916 55.9294 98.6502 56.9687C96.2145 59.4044 89.6376 56.8126 83.7097 51.1691C83.2948 50.7981 82.8853 50.4132 82.4822 50.009C80.3394 47.8641 78.6704 45.5802 77.6043 43.4792C75.5279 39.755 75.0082 36.4639 76.5779 34.8953C77.4333 34.0399 78.8019 33.8068 80.471 34.1083C81.5605 33.4208 82.8447 32.6531 84.2539 31.8672C78.5239 28.8787 72.0101 27.1904 65.0985 27.1904C42.1783 27.1904 23.5959 45.7695 23.5959 68.6929C23.5959 91.6121 42.1783 110.193 65.0985 110.193C88.0198 110.193 106.602 91.6121 106.602 68.6929C106.602 61.2906 104.659 54.3491 101.264 48.3314C100.53 49.669 99.8167 50.8954 99.1656 51.9475V51.9475Z" fill="white"/>
</g>
<defs>
<clipPath id="clip0">
<rect width="128" height="128" fill="white"/>
</clipPath>
</defs>
</svg>
