<svg width="128" height="128" viewBox="0 0 128 128" fill="none" xmlns="http://www.w3.org/2000/svg">
<path d="M64.0047 8C33.0775 8 8 33.0774 8 64.0047C8 94.932 33.0775 120 64.0047 120C94.932 120 120 94.932 120 64.0047C120 33.0774 94.932 8 64.0047 8V8ZM67.7177 14.1758C82.2969 14.1955 81.486 29.5691 81.3946 37.8541C81.3355 43.2826 84.332 46.9454 87.4011 50.8166C90.1431 54.0572 93.7294 58.8032 95.7858 64.2397C97.4614 68.6695 98.1226 73.567 96.4626 78.49C96.9599 78.6787 97.4444 78.9689 97.9196 79.3829C97.9226 79.3854 97.9264 79.3804 97.9291 79.3829C99.123 80.3996 99.5031 81.9707 99.8373 83.4249C100.172 84.8801 100.482 86.2408 101.135 86.9781V86.9876C103.12 89.1917 103.982 90.8371 103.898 92.308C103.814 93.7795 102.73 94.7888 101.388 95.5979C98.7052 97.2162 94.6518 98.4417 92.214 101.398L91.744 101.012L92.214 101.407C89.6564 104.451 86.495 106.201 83.5191 106.436C80.547 106.671 77.7539 105.301 76.253 102.3C76.25 102.296 76.256 102.286 76.253 102.281C76.0524 101.897 75.8935 101.498 75.7924 101.078C71.9205 101.293 68.5607 100.118 65.866 100.336C61.894 100.554 59.412 101.518 57.1523 101.529C56.2791 103.449 54.5846 104.689 52.49 105.167C49.6009 105.827 45.9757 105.174 42.4038 103.306V103.296C39.0674 101.528 34.8328 101.693 31.7067 101.04C30.1437 100.714 28.7604 100.132 28.0877 98.8221C27.4166 97.5145 27.5385 95.7129 28.492 93.1069C28.7902 92.1784 28.5635 90.814 28.3416 89.3658C28.1196 87.9174 27.9062 86.3523 28.633 84.9948C28.633 84.9923 28.633 84.988 28.633 84.9853C29.4358 83.4447 30.7653 82.8137 31.9699 82.3815C33.1741 81.9495 34.2652 81.6541 35.0343 80.8869C35.8575 80.0161 36.6006 78.7209 37.6005 77.6534C37.7341 77.5107 37.8665 77.3719 38.0141 77.2398C37.543 74.1331 38.0512 70.8441 39.1232 67.6236C41.3947 60.8 46.1984 54.2462 49.6042 50.1962C52.503 46.0755 53.358 42.7553 53.6556 38.5403C53.8974 32.7766 49.5737 15.5631 65.866 14.2509C66.5106 14.1995 67.1252 14.1757 67.7178 14.1757L67.7177 14.1758ZM69.6541 26.9408C68.8097 26.9486 68.1047 27.2076 67.3793 27.7586C66.6539 28.3096 66.1317 28.9866 65.7155 29.93C65.2993 30.8735 65.121 31.7994 65.1327 32.8816V32.9662C65.1397 33.2716 65.1613 33.5573 65.1985 33.8404C65.8531 33.9962 66.5453 34.2518 67.2853 34.6206C67.2346 34.3279 67.2128 34.0284 67.2195 33.6994C67.2195 33.6756 67.2248 33.6573 67.229 33.6336C67.249 33.035 67.3479 32.5242 67.558 32.0168C67.7681 31.5094 68.0255 31.146 68.3664 30.8606C68.6913 30.5886 69.0011 30.4681 69.3628 30.4658C69.3805 30.4658 69.4012 30.4633 69.4192 30.4658C69.8037 30.4778 70.1226 30.6226 70.4437 30.9358C70.7649 31.249 70.9931 31.6251 71.1676 32.1484C71.3341 32.6478 71.4145 33.1379 71.4026 33.7088C71.4026 33.7364 71.3931 33.7509 71.3931 33.7746C71.3731 34.3692 71.2647 34.8706 71.0546 35.382C70.9156 35.7205 70.7558 35.9902 70.5658 36.2186C71.0899 36.4004 71.7202 36.6289 72.5398 36.9799C72.658 37.0286 72.7778 37.0777 72.8876 37.1303C73.211 36.7392 73.4796 36.2869 73.7148 35.7486C74.1271 34.8051 74.3149 33.8831 74.307 32.797C74.2995 32.7692 74.2975 32.7401 74.2975 32.7124C74.2775 31.654 74.0785 30.7666 73.6583 29.8548C73.2302 28.9193 72.6943 28.2468 71.9569 27.7116C71.2312 27.1848 70.5282 26.9408 69.701 26.9408H69.6539H69.6541ZM58.2332 27.8432C57.6267 27.875 57.1253 28.1279 56.6258 28.6234C56.1263 29.119 55.7837 29.7179 55.526 30.5504C55.2684 31.3828 55.1643 32.1905 55.2158 33.126V33.1355C55.2713 34.071 55.4592 34.8619 55.808 35.6547C56.1025 36.324 56.4478 36.8294 56.8796 37.2338C57.0776 37.088 57.2442 36.9628 57.3872 36.8579C57.6102 36.694 57.7355 36.5973 58.0076 36.3879C57.9644 36.3575 57.9198 36.3223 57.876 36.2845C57.6144 36.0585 57.4206 35.7661 57.2462 35.3539C57.0758 34.9535 56.9741 34.5606 56.9266 34.0849V34.0285C56.883 33.5369 56.9081 33.1109 57.0112 32.6749C57.1143 32.2389 57.2537 31.9065 57.4718 31.6409C57.6898 31.3753 57.9275 31.2416 58.205 31.2179C58.231 31.2154 58.2547 31.2179 58.2802 31.2179C58.5267 31.2154 58.7481 31.3045 58.9852 31.5093C59.2468 31.7353 59.446 32.0237 59.6244 32.4399C59.7909 32.8403 59.8964 33.2372 59.944 33.7089C59.944 33.7286 59.9395 33.7454 59.944 33.7653C59.978 34.1204 59.9697 34.4383 59.9252 34.7523C60.3797 34.4521 60.9032 34.1852 61.495 33.9815C61.5992 33.9456 61.706 33.9089 61.8146 33.8781C61.8455 33.5198 61.8489 33.143 61.8241 32.7501C61.7725 31.8146 61.5901 31.0237 61.2413 30.2309C60.8924 29.4381 60.4669 28.8755 59.9159 28.4355C59.408 28.0299 58.9231 27.8433 58.3743 27.8433C58.3278 27.8433 58.2807 27.8408 58.2333 27.8433L58.2332 27.8432ZM63.5159 34.3198C62.8478 34.3225 62.2556 34.4458 61.7205 34.63C60.1663 35.165 59.1338 36.2831 58.487 36.8954C58.3609 37.0164 58.1965 37.1314 57.8008 37.4217C57.4025 37.7141 56.8005 38.149 55.9396 38.7941C55.174 39.368 54.9231 40.119 55.1876 40.9937C55.4521 41.8684 56.3044 42.8756 57.8478 43.7479V43.7574C58.8059 44.32 59.4563 45.0715 60.2072 45.675C60.958 46.2784 61.7884 46.7502 63.1775 46.8312C64.8093 46.9255 66.0085 46.4412 67.0691 45.8348C68.1297 45.2283 69.036 44.4874 70.0677 44.1522V44.1427C72.1835 43.482 73.6936 42.1547 74.166 40.8903C74.4022 40.2582 74.4012 39.6585 74.119 39.1043C73.8368 38.5502 73.2513 38.0229 72.2673 37.6191C70.2221 36.7432 69.3291 36.6788 68.1877 35.9366C66.3294 34.7418 64.8009 34.3241 63.5253 34.3292L63.5158 34.3197L63.5159 34.3198ZM72.4458 39.6119L72.4835 40.2981C72.1697 40.3168 71.6235 40.5495 70.9795 40.9091C70.3354 41.2687 69.5763 41.7438 68.7423 42.2251C67.0743 43.1877 65.1007 44.1615 63.0083 44.1615C60.9189 44.1615 59.2705 43.2039 58.0828 42.2627C57.4889 41.7921 56.9982 41.3242 56.6352 40.9843C56.4537 40.8143 56.3036 40.6744 56.1934 40.5895C56.1255 40.5371 56.0642 40.5219 56.0524 40.5143C56.0452 40.5096 56.0624 40.5118 56.0806 40.3357L56.0993 39.8093C56.35 39.8093 56.4665 39.9194 56.6164 40.0349C56.7662 40.1504 56.9293 40.3033 57.1146 40.4767C57.4849 40.8235 57.9534 41.2724 58.5151 41.7175C59.6385 42.6077 61.1337 43.4753 63.0083 43.4753C64.88 43.4753 66.7583 42.5677 68.3944 41.6235C69.2124 41.1514 69.9698 40.6729 70.641 40.2981C71.3123 39.9234 71.8954 39.6448 72.4458 39.6119H72.4458ZM74.307 42.1123C73.4981 43.2666 72.0718 44.251 70.2839 44.8101C69.4377 45.0862 68.5443 45.797 67.4263 46.4363C66.3067 47.0765 64.933 47.6399 63.1399 47.5361C61.6037 47.4466 60.5887 46.8742 59.7748 46.2201C58.9624 45.5672 58.3351 44.8507 57.5 44.3589C57.2145 44.1966 56.5772 43.761 56.3908 43.6257C56.0293 50.4442 51.4796 59.0056 49.3033 63.9389C47.8091 67.4943 46.9079 71.2945 46.8029 75.0214C42.8748 69.7844 45.7477 63.0673 47.2823 60.1601C48.9946 56.9805 49.2585 56.113 48.8427 56.419C47.298 58.9386 44.8875 62.9504 43.9453 67.0785C43.4544 69.2291 43.3554 71.4089 43.9923 73.4234C44.6291 75.4377 45.9962 77.296 48.4291 78.8096C51.7406 80.8405 53.9886 82.8741 55.3192 84.6751C56.6495 86.4763 57.0697 88.0502 56.654 89.1683C56.4461 89.7274 56.03 90.1567 55.432 90.4279C54.9512 90.6459 54.3554 90.7663 53.6554 90.7663C54.0113 91.2133 54.3692 91.6637 54.7176 92.1199C55.2632 92.8342 55.7878 93.5603 56.2498 94.2912C63.0679 98.9443 71.0967 97.1588 76.8826 93.0317C77.4576 91.0562 78.0292 89.1842 78.114 87.8053C78.2528 85.0629 78.4005 82.6229 78.9035 80.6049C79.4071 78.5854 80.3095 76.9441 81.968 76.0366C82.2339 75.8911 82.4937 75.771 82.7576 75.6794C82.7761 75.5088 82.8023 75.3369 82.8328 75.1718C83.3085 72.0204 86.1251 71.8695 89.6571 73.4234C93.0624 74.9642 94.3417 76.3079 93.7649 78.1328C93.7856 78.1303 93.8099 78.1328 93.8307 78.1328C94.0545 78.1283 94.2836 78.1243 94.5169 78.1328C95.2252 75.8306 93.7535 74.1412 89.7699 72.2014C89.5022 72.0747 89.2404 71.9617 88.9803 71.8536C89.5121 69.6926 89.4006 67.507 88.9051 65.4241C87.8184 60.8562 84.8261 56.8049 82.5507 54.7928C82.131 54.7755 82.1741 55.1462 83.0208 55.9678C85.1179 57.8977 89.7042 64.8278 87.2225 71.2614C86.5133 71.08 85.85 70.9892 85.2485 71.0076C84.2994 65.7633 82.104 61.4099 80.9998 59.3611C78.9223 55.4996 75.6968 47.5905 74.307 42.1123V42.1123ZM85.6621 73.4704C84.5687 73.4754 83.815 74.0435 83.66 75.3598C83.3706 77.2982 84.2394 79.8631 86.0193 80.323C87.7635 80.7987 90.3127 78.9939 90.9073 77.8602C91.6129 76.3578 90.8035 75.331 88.2189 74.1378C87.2586 73.7082 86.3863 73.4669 85.6621 73.4704V73.4704ZM82.7294 77.0142C82.6704 77.0434 82.6105 77.0755 82.5507 77.1082C81.268 77.8101 80.5478 79.0614 80.088 80.9058C79.6282 82.7502 79.4745 85.1433 79.336 87.8805V87.89C79.205 90.0263 78.231 92.6433 77.55 95.2031C76.8691 97.763 76.5254 100.189 77.3338 101.727L77.3433 101.736V101.746C78.6464 104.361 80.8538 105.426 83.4156 105.224C85.9775 105.021 88.8884 103.457 91.2739 100.618C94.0213 97.2899 98.3215 96.0189 100.749 94.5547C101.963 93.8224 102.624 93.1506 102.676 92.2424C102.728 91.3341 102.11 89.9108 100.213 87.8056V87.7961C99.2265 86.6854 98.9631 85.1293 98.6341 83.6977C98.3051 82.2661 97.9283 80.99 97.1301 80.3138H97.1206C96.082 79.4054 95.0708 79.3256 93.8588 79.3549C93.5972 79.3612 93.3259 79.3719 93.0504 79.3831C91.6687 80.9716 88.4018 82.9233 86.1321 82.3253C84.058 81.8021 82.8754 79.3848 82.7293 77.0144L82.7294 77.0142ZM41.0407 77.1928C39.9464 77.2005 39.2189 77.7154 38.4934 78.49C37.6335 79.4079 36.8959 80.7011 35.9178 81.7329V81.7424H35.9083C34.8503 82.8028 33.5132 83.123 32.3833 83.5284C31.2534 83.9338 30.3438 84.3624 29.7231 85.5588L29.7136 85.5683C29.2288 86.4684 29.3457 87.7582 29.5632 89.1779C29.7808 90.5976 30.1054 92.1101 29.6572 93.4924V93.5019V93.5207C28.751 95.9918 28.7514 97.437 29.1778 98.2677C29.6042 99.0984 30.5363 99.54 31.9602 99.8374C34.8072 100.432 39.2461 100.24 42.9769 102.216C46.3491 103.98 49.7266 104.552 52.217 103.983C54.7082 103.414 56.3317 101.849 56.5504 98.9727V98.9632V98.9537C56.7194 97.2669 55.4168 95.058 53.7398 92.8625C52.0628 90.667 50.0904 88.5218 49.1526 86.5646V86.5551C47.9857 84.0494 46.8383 81.7897 45.6183 80.1349C44.3983 78.4801 43.1412 77.4691 41.6891 77.2491C41.4759 77.2169 41.2675 77.1931 41.0781 77.1927H41.0405L41.0407 77.1928Z" fill="white"/>
</svg>
