<svg width="128" height="128" viewBox="0 0 128 128" fill="none" xmlns="http://www.w3.org/2000/svg">
<path d="M70.3726 42.7215V41.6792L67.133 41.9017C66.2157 41.9596 65.5269 42.1547 65.0637 42.4838C64.6004 42.816 64.3688 43.2762 64.3688 43.8644C64.3688 44.4373 64.5974 44.8945 65.0576 45.2328C65.5147 45.5741 66.1303 45.7417 66.8983 45.7417C67.389 45.7417 67.8492 45.6655 68.2728 45.5162C68.6964 45.3669 69.0682 45.1566 69.3791 44.8884C69.69 44.6232 69.9338 44.3063 70.1075 43.9375C70.2842 43.5688 70.3726 43.1634 70.3726 42.7215ZM64.0001 0.761902C28.7117 0.761902 0.761963 28.7116 0.761963 64C0.761963 99.2914 28.7117 127.238 64.0001 127.238C99.2884 127.238 127.238 99.2914 127.238 64C127.238 28.7116 99.2915 0.761902 64.0001 0.761902ZM76.2759 38.2446C76.5745 37.4065 76.9951 36.6872 77.5406 36.0899C78.0862 35.4926 78.7414 35.0324 79.5094 34.7093C80.2774 34.3863 81.1338 34.2248 82.0755 34.2248C82.9258 34.2248 83.6938 34.3528 84.3764 34.6057C85.0622 34.8587 85.6473 35.2 86.138 35.6297C86.6286 36.0594 87.0187 36.5592 87.3052 37.1322C87.5917 37.7051 87.7623 38.3116 87.8203 38.9486H85.2816C85.2176 38.5981 85.1018 38.269 84.9372 37.9672C84.7726 37.6655 84.5562 37.4034 84.2881 37.1809C84.0168 36.9585 83.6999 36.7848 83.3372 36.6598C82.9715 36.5318 82.5631 36.4709 82.1029 36.4709C81.5635 36.4709 81.0728 36.5806 80.637 36.797C80.1982 37.0133 79.8233 37.3211 79.5124 37.7173C79.2016 38.1135 78.9608 38.5981 78.7902 39.1649C78.6164 39.7349 78.5311 40.3657 78.5311 41.0606C78.5311 41.7798 78.6164 42.4259 78.7902 42.9928C78.9608 43.5627 79.2046 44.0411 79.5216 44.4343C79.8355 44.8274 80.2164 45.1291 80.6583 45.3364C81.1002 45.5436 81.5879 45.6503 82.1182 45.6503C82.9867 45.6503 83.6938 45.4461 84.2423 45.0377C84.7909 44.6293 85.1444 44.032 85.309 43.2457H87.8507C87.7776 43.9406 87.5856 44.5745 87.2747 45.1474C86.9639 45.7204 86.5616 46.208 86.0679 46.6133C85.5711 47.0187 84.989 47.3326 84.3185 47.552C83.6481 47.7714 82.9105 47.8842 82.109 47.8842C81.1582 47.8842 80.3018 47.7257 79.5307 47.4118C78.7627 47.0979 78.1014 46.6438 77.5528 46.0556C77.0043 45.4674 76.5806 44.7512 76.282 43.907C75.9833 43.0629 75.834 42.115 75.834 41.0575C75.8279 40.0244 75.9772 39.0857 76.2759 38.2446V38.2446ZM40.1524 34.3985H42.6942V36.6568H42.7429C42.8983 36.2819 43.1025 35.9436 43.3524 35.651C43.6023 35.3554 43.8888 35.1055 44.218 34.8952C44.5441 34.6849 44.9067 34.5265 45.2968 34.4168C45.69 34.307 46.1044 34.2522 46.5372 34.2522C47.4698 34.2522 48.2591 34.4747 48.8991 34.9196C49.5422 35.3646 49.9993 36.0046 50.2675 36.8396H50.3315C50.5022 36.4373 50.7277 36.0777 51.005 35.7608C51.2823 35.4438 51.6023 35.1695 51.962 34.944C52.3216 34.7185 52.7178 34.5478 53.1475 34.4289C53.5772 34.3101 54.0283 34.2522 54.5037 34.2522C55.1589 34.2522 55.7532 34.3558 56.2896 34.5661C56.826 34.7764 57.2831 35.069 57.6641 35.4499C58.045 35.8309 58.3376 36.2941 58.5418 36.8366C58.746 37.379 58.8496 37.9825 58.8496 38.6469V47.7318H56.1982V39.2838C56.1982 38.4091 55.9726 37.7295 55.5216 37.251C55.0736 36.7726 54.4305 36.5318 53.5955 36.5318C53.1871 36.5318 52.8122 36.6049 52.4709 36.7482C52.1326 36.8914 51.837 37.0926 51.5932 37.3516C51.3463 37.6076 51.1543 37.9185 51.0172 38.2781C50.877 38.6377 50.8069 39.0309 50.8069 39.4575V47.7318H48.1921V39.0644C48.1921 38.6804 48.1311 38.3329 48.0122 38.0221C47.8934 37.7112 47.7258 37.4461 47.5033 37.2236C47.2839 37.0011 47.0126 36.8335 46.6987 36.7147C46.3818 36.5958 46.0282 36.5349 45.6351 36.5349C45.2267 36.5349 44.8488 36.611 44.4983 36.7634C44.1509 36.9158 43.8522 37.1261 43.6023 37.3943C43.3524 37.6655 43.1574 37.9825 43.0202 38.3512C42.8862 38.7169 42.6667 39.1192 42.6667 39.552V47.7288H40.1524V34.3985V34.3985ZM45.9216 98.2126C34.2644 98.2126 26.9532 90.112 26.9532 77.184C26.9532 64.256 34.2644 56.128 45.9216 56.128C57.5787 56.128 64.8625 64.256 64.8625 77.184C64.8625 90.109 57.5787 98.2126 45.9216 98.2126V98.2126ZM67.5048 47.6983C67.0751 47.808 66.6362 47.8629 66.1852 47.8629C65.5208 47.8629 64.9143 47.7684 64.3627 47.5794C63.8081 47.3905 63.3357 47.1253 62.9395 46.781C62.5433 46.4366 62.2324 46.0221 62.013 45.5345C61.7905 45.0469 61.6808 44.5044 61.6808 43.907C61.6808 42.7368 62.1166 41.8225 62.9882 41.1642C63.8599 40.5059 65.1216 40.1219 66.7764 40.0152L70.3726 39.808V38.7779C70.3726 38.0099 70.1288 37.4217 69.6412 37.0225C69.1536 36.6232 68.4648 36.4221 67.5719 36.4221C67.2123 36.4221 66.874 36.4678 66.5631 36.5562C66.2522 36.6476 65.978 36.7756 65.7402 36.9432C65.5025 37.1109 65.3044 37.312 65.1521 37.5467C64.9966 37.7783 64.89 38.0404 64.8321 38.3269H62.3391C62.3543 37.7387 62.5006 37.1931 62.7749 36.6933C63.0492 36.1935 63.421 35.7608 63.8934 35.392C64.3658 35.0232 64.9174 34.7368 65.5574 34.5326C66.1974 34.3284 66.8922 34.2248 67.645 34.2248C68.4557 34.2248 69.1902 34.3253 69.8484 34.5326C70.5067 34.7398 71.0705 35.0293 71.5368 35.4103C72.0031 35.7912 72.3627 36.2484 72.6157 36.7848C72.8686 37.3211 72.9966 37.9215 72.9966 38.5829V47.7288H70.458V45.507H70.394C70.205 45.8667 69.9673 46.1928 69.6778 46.4823C69.3852 46.7718 69.0591 47.0217 68.6964 47.2259C68.3307 47.4301 67.9345 47.5886 67.5048 47.6983V47.6983ZM84.2759 98.2126C75.386 98.2126 69.3425 93.5558 68.922 86.2446H74.7094C75.1604 90.4229 79.1985 93.1901 84.73 93.1901C90.0359 93.1901 93.8484 90.4229 93.8484 86.6408C93.8484 83.3676 91.5322 81.3897 86.1715 80.0366L80.9479 78.7383C73.4385 76.8762 70.0252 73.4598 70.0252 67.843C70.0252 60.928 76.0656 56.128 84.6751 56.128C93.0865 56.128 98.9562 60.9554 99.1818 67.8979H93.4522C93.0561 63.7196 89.6427 61.1505 84.5593 61.1505C79.5063 61.1505 76.0077 63.747 76.0077 67.5017C76.0077 70.464 78.2081 72.2164 83.5719 73.5695L87.9757 74.6697C96.3597 76.7025 99.8035 80.0061 99.8035 85.9337C99.8004 93.4979 93.818 98.2126 84.2759 98.2126V98.2126ZM45.9216 61.3181C37.9338 61.3181 32.9387 67.4438 32.9387 77.181C32.9387 86.8907 37.9338 93.0164 45.9216 93.0164C53.882 93.0164 58.9044 86.8907 58.9044 77.181C58.9075 67.4438 53.882 61.3181 45.9216 61.3181V61.3181Z" fill="black"/>
</svg>
