<svg width="196" height="175" viewBox="0 0 196 175" fill="none" xmlns="http://www.w3.org/2000/svg">
<path d="M191 0.5H5C2.51472 0.5 0.5 2.51472 0.5 5V170C0.5 172.485 2.51472 174.5 5 174.5H191C193.485 174.5 195.5 172.485 195.5 170V5C195.5 2.51472 193.485 0.5 191 0.5Z" stroke="black"/>
<path d="M47.7595 50.44C48.4128 50.44 48.9462 50.6433 49.3595 51.05C49.7728 51.45 49.9795 52.0333 49.9795 52.8V56H49.2895V52.88C49.2895 52.2867 49.1395 51.8333 48.8395 51.52C48.5462 51.2067 48.1428 51.05 47.6295 51.05C47.1028 51.05 46.6828 51.2167 46.3695 51.55C46.0562 51.8833 45.8995 52.3733 45.8995 53.02V56H45.1995V50.54H45.8995V51.47C46.0728 51.1367 46.3228 50.8833 46.6495 50.71C46.9762 50.53 47.3462 50.44 47.7595 50.44ZM53.9176 56.08C53.4043 56.08 52.941 55.9667 52.5276 55.74C52.121 55.5067 51.7976 55.18 51.5576 54.76C51.3243 54.3333 51.2076 53.8367 51.2076 53.27C51.2076 52.7033 51.3276 52.21 51.5676 51.79C51.8076 51.3633 52.1343 51.0367 52.5476 50.81C52.961 50.5767 53.4243 50.46 53.9376 50.46C54.451 50.46 54.9143 50.5767 55.3276 50.81C55.7476 51.0367 56.0743 51.3633 56.3076 51.79C56.5476 52.21 56.6676 52.7033 56.6676 53.27C56.6676 53.83 56.5476 54.3233 56.3076 54.75C56.0676 55.1767 55.7376 55.5067 55.3176 55.74C54.8976 55.9667 54.431 56.08 53.9176 56.08ZM53.9176 55.47C54.2776 55.47 54.611 55.39 54.9176 55.23C55.2243 55.0633 55.471 54.8167 55.6576 54.49C55.851 54.1567 55.9476 53.75 55.9476 53.27C55.9476 52.79 55.8543 52.3867 55.6676 52.06C55.481 51.7267 55.2343 51.48 54.9276 51.32C54.621 51.1533 54.2876 51.07 53.9276 51.07C53.5676 51.07 53.2343 51.1533 52.9276 51.32C52.621 51.48 52.3743 51.7267 52.1876 52.06C52.0076 52.3867 51.9176 52.79 51.9176 53.27C51.9176 53.75 52.0076 54.1567 52.1876 54.49C52.3743 54.8167 52.6176 55.0633 52.9176 55.23C53.2243 55.39 53.5576 55.47 53.9176 55.47ZM64.4437 50.44C65.0837 50.44 65.6037 50.6433 66.0037 51.05C66.4103 51.45 66.6137 52.0333 66.6137 52.8V56H65.9237V52.88C65.9237 52.2867 65.7803 51.8333 65.4937 51.52C65.207 51.2067 64.817 51.05 64.3237 51.05C63.8103 51.05 63.4003 51.22 63.0937 51.56C62.787 51.9 62.6337 52.3933 62.6337 53.04V56H61.9437V52.88C61.9437 52.2867 61.8003 51.8333 61.5137 51.52C61.227 51.2067 60.8337 51.05 60.3337 51.05C59.8203 51.05 59.4103 51.22 59.1037 51.56C58.797 51.9 58.6437 52.3933 58.6437 53.04V56H57.9437V50.54H58.6437V51.48C58.817 51.14 59.0637 50.8833 59.3837 50.71C59.7037 50.53 60.0603 50.44 60.4537 50.44C60.927 50.44 61.3403 50.5533 61.6937 50.78C62.0537 51.0067 62.3137 51.34 62.4737 51.78C62.6203 51.3467 62.8703 51.0167 63.2237 50.79C63.5837 50.5567 63.9903 50.44 64.4437 50.44ZM73.1083 52.99C73.1083 53.23 73.1016 53.4133 73.0883 53.54H68.5583C68.5783 53.9533 68.6783 54.3067 68.8583 54.6C69.0383 54.8933 69.2749 55.1167 69.5683 55.27C69.8616 55.4167 70.1816 55.49 70.5283 55.49C70.9816 55.49 71.3616 55.38 71.6683 55.16C71.9816 54.94 72.1883 54.6433 72.2883 54.27H73.0283C72.8949 54.8033 72.6083 55.24 72.1683 55.58C71.7349 55.9133 71.1883 56.08 70.5283 56.08C70.0149 56.08 69.5549 55.9667 69.1483 55.74C68.7416 55.5067 68.4216 55.18 68.1883 54.76C67.9616 54.3333 67.8483 53.8367 67.8483 53.27C67.8483 52.7033 67.9616 52.2067 68.1883 51.78C68.4149 51.3533 68.7316 51.0267 69.1383 50.8C69.5449 50.5733 70.0083 50.46 70.5283 50.46C71.0483 50.46 71.5016 50.5733 71.8883 50.8C72.2816 51.0267 72.5816 51.3333 72.7883 51.72C73.0016 52.1 73.1083 52.5233 73.1083 52.99ZM72.3983 52.97C72.4049 52.5633 72.3216 52.2167 72.1483 51.93C71.9816 51.6433 71.7516 51.4267 71.4583 51.28C71.1649 51.1333 70.8449 51.06 70.4983 51.06C69.9783 51.06 69.5349 51.2267 69.1683 51.56C68.8016 51.8933 68.5983 52.3633 68.5583 52.97H72.3983ZM77.779 52V52.59H73.889V52H77.779ZM79.2545 53.26C79.2545 52.7 79.3678 52.21 79.5945 51.79C79.8212 51.3633 80.1312 51.0367 80.5245 50.81C80.9245 50.5767 81.3745 50.46 81.8745 50.46C82.3545 50.46 82.7878 50.5767 83.1745 50.81C83.5612 51.0433 83.8445 51.3467 84.0245 51.72V48.6H84.7245V56H84.0245V54.78C83.8578 55.16 83.5845 55.4733 83.2045 55.72C82.8245 55.96 82.3778 56.08 81.8645 56.08C81.3645 56.08 80.9145 55.9633 80.5145 55.73C80.1212 55.4967 79.8112 55.1667 79.5845 54.74C79.3645 54.3133 79.2545 53.82 79.2545 53.26ZM84.0245 53.27C84.0245 52.83 83.9345 52.4433 83.7545 52.11C83.5745 51.7767 83.3278 51.52 83.0145 51.34C82.7078 51.16 82.3678 51.07 81.9945 51.07C81.6078 51.07 81.2612 51.1567 80.9545 51.33C80.6478 51.5033 80.4045 51.7567 80.2245 52.09C80.0512 52.4167 79.9645 52.8067 79.9645 53.26C79.9645 53.7067 80.0512 54.1 80.2245 54.44C80.4045 54.7733 80.6478 55.03 80.9545 55.21C81.2612 55.3833 81.6078 55.47 81.9945 55.47C82.3678 55.47 82.7078 55.38 83.0145 55.2C83.3278 55.02 83.5745 54.7633 83.7545 54.43C83.9345 54.0967 84.0245 53.71 84.0245 53.27ZM86.0026 53.26C86.0026 52.7 86.1126 52.21 86.3326 51.79C86.5592 51.3633 86.8692 51.0367 87.2626 50.81C87.6626 50.5767 88.1126 50.46 88.6126 50.46C89.1326 50.46 89.5792 50.58 89.9526 50.82C90.3326 51.06 90.6059 51.3667 90.7726 51.74V50.54H91.4726V56H90.7726V54.79C90.5992 55.1633 90.3226 55.4733 89.9426 55.72C89.5692 55.96 89.1226 56.08 88.6026 56.08C88.1092 56.08 87.6626 55.9633 87.2626 55.73C86.8692 55.4967 86.5592 55.1667 86.3326 54.74C86.1126 54.3133 86.0026 53.82 86.0026 53.26ZM90.7726 53.27C90.7726 52.83 90.6826 52.4433 90.5026 52.11C90.3226 51.7767 90.0759 51.52 89.7626 51.34C89.4559 51.16 89.1159 51.07 88.7426 51.07C88.3559 51.07 88.0092 51.1567 87.7026 51.33C87.3959 51.5033 87.1526 51.7567 86.9726 52.09C86.7992 52.4167 86.7126 52.8067 86.7126 53.26C86.7126 53.7067 86.7992 54.1 86.9726 54.44C87.1526 54.7733 87.3959 55.03 87.7026 55.21C88.0092 55.3833 88.3559 55.47 88.7426 55.47C89.1159 55.47 89.4559 55.38 89.7626 55.2C90.0759 55.02 90.3226 54.7633 90.5026 54.43C90.6826 54.0967 90.7726 53.71 90.7726 53.27ZM96.4606 52V52.59H92.5706V52H96.4606ZM99.1662 51.13V54.52C99.1662 54.8533 99.2295 55.0833 99.3562 55.21C99.4828 55.3367 99.7062 55.4 100.026 55.4H100.666V56H99.9162C99.4228 56 99.0562 55.8867 98.8162 55.66C98.5762 55.4267 98.4562 55.0467 98.4562 54.52V51.13H97.6962V50.54H98.4562V49.17H99.1662V50.54H100.666V51.13H99.1662ZM106.761 52.99C106.761 53.23 106.754 53.4133 106.741 53.54H102.211C102.231 53.9533 102.331 54.3067 102.511 54.6C102.691 54.8933 102.927 55.1167 103.221 55.27C103.514 55.4167 103.834 55.49 104.181 55.49C104.634 55.49 105.014 55.38 105.321 55.16C105.634 54.94 105.841 54.6433 105.941 54.27H106.681C106.547 54.8033 106.261 55.24 105.821 55.58C105.387 55.9133 104.841 56.08 104.181 56.08C103.667 56.08 103.207 55.9667 102.801 55.74C102.394 55.5067 102.074 55.18 101.841 54.76C101.614 54.3333 101.501 53.8367 101.501 53.27C101.501 52.7033 101.614 52.2067 101.841 51.78C102.067 51.3533 102.384 51.0267 102.791 50.8C103.197 50.5733 103.661 50.46 104.181 50.46C104.701 50.46 105.154 50.5733 105.541 50.8C105.934 51.0267 106.234 51.3333 106.441 51.72C106.654 52.1 106.761 52.5233 106.761 52.99ZM106.051 52.97C106.057 52.5633 105.974 52.2167 105.801 51.93C105.634 51.6433 105.404 51.4267 105.111 51.28C104.817 51.1333 104.497 51.06 104.151 51.06C103.631 51.06 103.187 51.2267 102.821 51.56C102.454 51.8933 102.251 52.3633 102.211 52.97H106.051ZM107.721 53.27C107.721 52.7033 107.835 52.21 108.061 51.79C108.288 51.3633 108.601 51.0367 109.001 50.81C109.401 50.5767 109.858 50.46 110.371 50.46C111.045 50.46 111.598 50.6267 112.031 50.96C112.471 51.2933 112.755 51.7467 112.881 52.32H112.131C112.038 51.9267 111.835 51.62 111.521 51.4C111.215 51.1733 110.831 51.06 110.371 51.06C110.005 51.06 109.675 51.1433 109.381 51.31C109.088 51.4767 108.855 51.7267 108.681 52.06C108.515 52.3867 108.431 52.79 108.431 53.27C108.431 53.75 108.515 54.1567 108.681 54.49C108.855 54.8233 109.088 55.0733 109.381 55.24C109.675 55.4067 110.005 55.49 110.371 55.49C110.831 55.49 111.215 55.38 111.521 55.16C111.835 54.9333 112.038 54.62 112.131 54.22H112.881C112.755 54.78 112.471 55.23 112.031 55.57C111.591 55.91 111.038 56.08 110.371 56.08C109.858 56.08 109.401 55.9667 109.001 55.74C108.601 55.5067 108.288 55.18 108.061 54.76C107.835 54.3333 107.721 53.8367 107.721 53.27ZM116.734 50.44C117.387 50.44 117.921 50.6433 118.334 51.05C118.747 51.45 118.954 52.0333 118.954 52.8V56H118.264V52.88C118.264 52.2867 118.114 51.8333 117.814 51.52C117.521 51.2067 117.117 51.05 116.604 51.05C116.077 51.05 115.657 51.2167 115.344 51.55C115.031 51.8833 114.874 52.3733 114.874 53.02V56H114.174V50.54H114.874V51.47C115.047 51.1367 115.297 50.8833 115.624 50.71C115.951 50.53 116.321 50.44 116.734 50.44ZM122.892 56.08C122.379 56.08 121.915 55.9667 121.502 55.74C121.095 55.5067 120.772 55.18 120.532 54.76C120.299 54.3333 120.182 53.8367 120.182 53.27C120.182 52.7033 120.302 52.21 120.542 51.79C120.782 51.3633 121.109 51.0367 121.522 50.81C121.935 50.5767 122.399 50.46 122.912 50.46C123.425 50.46 123.889 50.5767 124.302 50.81C124.722 51.0367 125.049 51.3633 125.282 51.79C125.522 52.21 125.642 52.7033 125.642 53.27C125.642 53.83 125.522 54.3233 125.282 54.75C125.042 55.1767 124.712 55.5067 124.292 55.74C123.872 55.9667 123.405 56.08 122.892 56.08ZM122.892 55.47C123.252 55.47 123.585 55.39 123.892 55.23C124.199 55.0633 124.445 54.8167 124.632 54.49C124.825 54.1567 124.922 53.75 124.922 53.27C124.922 52.79 124.829 52.3867 124.642 52.06C124.455 51.7267 124.209 51.48 123.902 51.32C123.595 51.1533 123.262 51.07 122.902 51.07C122.542 51.07 122.209 51.1533 121.902 51.32C121.595 51.48 121.349 51.7267 121.162 52.06C120.982 52.3867 120.892 52.79 120.892 53.27C120.892 53.75 120.982 54.1567 121.162 54.49C121.349 54.8167 121.592 55.0633 121.892 55.23C122.199 55.39 122.532 55.47 122.892 55.47ZM127.618 48.6V56H126.918V48.6H127.618ZM131.593 56.08C131.08 56.08 130.617 55.9667 130.203 55.74C129.797 55.5067 129.473 55.18 129.233 54.76C129 54.3333 128.883 53.8367 128.883 53.27C128.883 52.7033 129.003 52.21 129.243 51.79C129.483 51.3633 129.81 51.0367 130.223 50.81C130.637 50.5767 131.1 50.46 131.613 50.46C132.127 50.46 132.59 50.5767 133.003 50.81C133.423 51.0367 133.75 51.3633 133.983 51.79C134.223 52.21 134.343 52.7033 134.343 53.27C134.343 53.83 134.223 54.3233 133.983 54.75C133.743 55.1767 133.413 55.5067 132.993 55.74C132.573 55.9667 132.107 56.08 131.593 56.08ZM131.593 55.47C131.953 55.47 132.287 55.39 132.593 55.23C132.9 55.0633 133.147 54.8167 133.333 54.49C133.527 54.1567 133.623 53.75 133.623 53.27C133.623 52.79 133.53 52.3867 133.343 52.06C133.157 51.7267 132.91 51.48 132.603 51.32C132.297 51.1533 131.963 51.07 131.603 51.07C131.243 51.07 130.91 51.1533 130.603 51.32C130.297 51.48 130.05 51.7267 129.863 52.06C129.683 52.3867 129.593 52.79 129.593 53.27C129.593 53.75 129.683 54.1567 129.863 54.49C130.05 54.8167 130.293 55.0633 130.593 55.23C130.9 55.39 131.233 55.47 131.593 55.47ZM137.909 50.46C138.423 50.46 138.869 50.58 139.249 50.82C139.629 51.06 139.903 51.3633 140.069 51.73V50.54H140.769V56.14C140.769 56.64 140.659 57.0833 140.439 57.47C140.226 57.8567 139.926 58.1533 139.539 58.36C139.153 58.5733 138.713 58.68 138.219 58.68C137.519 58.68 136.936 58.5133 136.469 58.18C136.009 57.8467 135.723 57.3933 135.609 56.82H136.299C136.419 57.2 136.646 57.5033 136.979 57.73C137.319 57.9567 137.733 58.07 138.219 58.07C138.573 58.07 138.889 57.9933 139.169 57.84C139.449 57.6933 139.669 57.4733 139.829 57.18C139.989 56.8867 140.069 56.54 140.069 56.14V54.79C139.896 55.1633 139.619 55.4733 139.239 55.72C138.866 55.96 138.423 56.08 137.909 56.08C137.409 56.08 136.959 55.9633 136.559 55.73C136.166 55.4967 135.856 55.1667 135.629 54.74C135.409 54.3133 135.299 53.82 135.299 53.26C135.299 52.7 135.409 52.21 135.629 51.79C135.856 51.3633 136.166 51.0367 136.559 50.81C136.959 50.5767 137.409 50.46 137.909 50.46ZM140.069 53.27C140.069 52.83 139.979 52.4433 139.799 52.11C139.619 51.7767 139.373 51.52 139.059 51.34C138.753 51.16 138.413 51.07 138.039 51.07C137.653 51.07 137.306 51.1567 136.999 51.33C136.693 51.5033 136.449 51.7567 136.269 52.09C136.096 52.4167 136.009 52.8067 136.009 53.26C136.009 53.7067 136.096 54.1 136.269 54.44C136.449 54.7733 136.693 55.03 136.999 55.21C137.306 55.3833 137.653 55.47 138.039 55.47C138.413 55.47 138.753 55.38 139.059 55.2C139.373 55.02 139.619 54.7633 139.799 54.43C139.979 54.0967 140.069 53.71 140.069 53.27ZM142.717 49.51C142.577 49.51 142.457 49.46 142.357 49.36C142.257 49.26 142.207 49.1367 142.207 48.99C142.207 48.8433 142.257 48.7233 142.357 48.63C142.457 48.53 142.577 48.48 142.717 48.48C142.857 48.48 142.977 48.53 143.077 48.63C143.177 48.7233 143.227 48.8433 143.227 48.99C143.227 49.1367 143.177 49.26 143.077 49.36C142.977 49.46 142.857 49.51 142.717 49.51ZM143.067 50.54V56H142.367V50.54H143.067ZM144.333 53.26C144.333 52.7 144.443 52.21 144.663 51.79C144.889 51.3633 145.199 51.0367 145.593 50.81C145.993 50.5767 146.443 50.46 146.943 50.46C147.463 50.46 147.909 50.58 148.283 50.82C148.663 51.06 148.936 51.3667 149.103 51.74V50.54H149.803V56H149.103V54.79C148.929 55.1633 148.653 55.4733 148.273 55.72C147.899 55.96 147.453 56.08 146.933 56.08C146.439 56.08 145.993 55.9633 145.593 55.73C145.199 55.4967 144.889 55.1667 144.663 54.74C144.443 54.3133 144.333 53.82 144.333 53.26ZM149.103 53.27C149.103 52.83 149.013 52.4433 148.833 52.11C148.653 51.7767 148.406 51.52 148.093 51.34C147.786 51.16 147.446 51.07 147.073 51.07C146.686 51.07 146.339 51.1567 146.033 51.33C145.726 51.5033 145.483 51.7567 145.303 52.09C145.129 52.4167 145.043 52.8067 145.043 53.26C145.043 53.7067 145.129 54.1 145.303 54.44C145.483 54.7733 145.726 55.03 146.033 55.21C146.339 55.3833 146.686 55.47 147.073 55.47C147.446 55.47 147.786 55.38 148.093 55.2C148.406 55.02 148.653 54.7633 148.833 54.43C149.013 54.0967 149.103 53.71 149.103 53.27Z" fill="black"/>
<path d="M89.2032 81.13V84.52C89.2032 84.8533 89.2665 85.0833 89.3932 85.21C89.5198 85.3367 89.7432 85.4 90.0632 85.4H90.7032V86H89.9532C89.4598 86 89.0932 85.8867 88.8532 85.66C88.6132 85.4267 88.4932 85.0467 88.4932 84.52V81.13H87.7332V80.54H88.4932V79.17H89.2032V80.54H90.7032V81.13H89.2032ZM92.2076 79.51C92.0676 79.51 91.9476 79.46 91.8476 79.36C91.7476 79.26 91.6976 79.1367 91.6976 78.99C91.6976 78.8433 91.7476 78.7233 91.8476 78.63C91.9476 78.53 92.0676 78.48 92.2076 78.48C92.3476 78.48 92.4676 78.53 92.5676 78.63C92.6676 78.7233 92.7176 78.8433 92.7176 78.99C92.7176 79.1367 92.6676 79.26 92.5676 79.36C92.4676 79.46 92.3476 79.51 92.2076 79.51ZM92.5576 80.54V86H91.8576V80.54H92.5576ZM94.8328 81.74C95.0061 81.3733 95.2794 81.07 95.6528 80.83C96.0328 80.5833 96.4828 80.46 97.0028 80.46C97.4961 80.46 97.9394 80.5767 98.3328 80.81C98.7328 81.0367 99.0428 81.3633 99.2628 81.79C99.4894 82.21 99.6028 82.7 99.6028 83.26C99.6028 83.82 99.4894 84.3133 99.2628 84.74C99.0428 85.1667 98.7328 85.4967 98.3328 85.73C97.9394 85.9633 97.4961 86.08 97.0028 86.08C96.4894 86.08 96.0428 85.96 95.6628 85.72C95.2828 85.4733 95.0061 85.1667 94.8328 84.8V88.58H94.1428V80.54H94.8328V81.74ZM98.8928 83.26C98.8928 82.8067 98.8028 82.4167 98.6228 82.09C98.4494 81.7567 98.2094 81.5033 97.9028 81.33C97.5961 81.1567 97.2494 81.07 96.8628 81.07C96.4894 81.07 96.1461 81.16 95.8328 81.34C95.5261 81.52 95.2828 81.7767 95.1028 82.11C94.9228 82.4433 94.8328 82.83 94.8328 83.27C94.8328 83.71 94.9228 84.0967 95.1028 84.43C95.2828 84.7633 95.5261 85.02 95.8328 85.2C96.1461 85.38 96.4894 85.47 96.8628 85.47C97.2494 85.47 97.5961 85.3833 97.9028 85.21C98.2094 85.03 98.4494 84.7733 98.6228 84.44C98.8028 84.1 98.8928 83.7067 98.8928 83.26ZM103.281 86.08C102.767 86.08 102.304 85.9667 101.891 85.74C101.484 85.5067 101.161 85.18 100.921 84.76C100.687 84.3333 100.571 83.8367 100.571 83.27C100.571 82.7033 100.691 82.21 100.931 81.79C101.171 81.3633 101.497 81.0367 101.911 80.81C102.324 80.5767 102.787 80.46 103.301 80.46C103.814 80.46 104.277 80.5767 104.691 80.81C105.111 81.0367 105.437 81.3633 105.671 81.79C105.911 82.21 106.031 82.7033 106.031 83.27C106.031 83.83 105.911 84.3233 105.671 84.75C105.431 85.1767 105.101 85.5067 104.681 85.74C104.261 85.9667 103.794 86.08 103.281 86.08ZM103.281 85.47C103.641 85.47 103.974 85.39 104.281 85.23C104.587 85.0633 104.834 84.8167 105.021 84.49C105.214 84.1567 105.311 83.75 105.311 83.27C105.311 82.79 105.217 82.3867 105.031 82.06C104.844 81.7267 104.597 81.48 104.291 81.32C103.984 81.1533 103.651 81.07 103.291 81.07C102.931 81.07 102.597 81.1533 102.291 81.32C101.984 81.48 101.737 81.7267 101.551 82.06C101.371 82.3867 101.281 82.79 101.281 83.27C101.281 83.75 101.371 84.1567 101.551 84.49C101.737 84.8167 101.981 85.0633 102.281 85.23C102.587 85.39 102.921 85.47 103.281 85.47Z" fill="black"/>
<path d="M92.9798 161.08C92.3531 161.08 91.8398 160.937 91.4398 160.65C91.0465 160.357 90.8265 159.96 90.7798 159.46H91.4998C91.5331 159.767 91.6765 160.017 91.9298 160.21C92.1898 160.397 92.5365 160.49 92.9698 160.49C93.3498 160.49 93.6465 160.4 93.8598 160.22C94.0798 160.04 94.1898 159.817 94.1898 159.55C94.1898 159.363 94.1298 159.21 94.0098 159.09C93.8898 158.97 93.7365 158.877 93.5498 158.81C93.3698 158.737 93.1231 158.66 92.8098 158.58C92.4031 158.473 92.0731 158.367 91.8198 158.26C91.5665 158.153 91.3498 157.997 91.1698 157.79C90.9965 157.577 90.9098 157.293 90.9098 156.94C90.9098 156.673 90.9898 156.427 91.1498 156.2C91.3098 155.973 91.5365 155.793 91.8298 155.66C92.1231 155.527 92.4565 155.46 92.8298 155.46C93.4165 155.46 93.8898 155.61 94.2498 155.91C94.6098 156.203 94.8031 156.61 94.8298 157.13H94.1298C94.1098 156.81 93.9831 156.553 93.7498 156.36C93.5231 156.16 93.2098 156.06 92.8098 156.06C92.4565 156.06 92.1698 156.143 91.9498 156.31C91.7298 156.477 91.6198 156.683 91.6198 156.93C91.6198 157.143 91.6831 157.32 91.8098 157.46C91.9431 157.593 92.1065 157.7 92.2998 157.78C92.4931 157.853 92.7531 157.937 93.0798 158.03C93.4731 158.137 93.7865 158.24 94.0198 158.34C94.2531 158.44 94.4531 158.587 94.6198 158.78C94.7865 158.973 94.8731 159.23 94.8798 159.55C94.8798 159.843 94.7998 160.107 94.6398 160.34C94.4798 160.567 94.2565 160.747 93.9698 160.88C93.6831 161.013 93.3531 161.08 92.9798 161.08ZM97.1075 156.13V159.52C97.1075 159.853 97.1708 160.083 97.2975 160.21C97.4241 160.337 97.6475 160.4 97.9675 160.4H98.6075V161H97.8575C97.3641 161 96.9975 160.887 96.7575 160.66C96.5175 160.427 96.3975 160.047 96.3975 159.52V156.13H95.6375V155.54H96.3975V154.17H97.1075V155.54H98.6075V156.13H97.1075ZM99.4419 158.26C99.4419 157.7 99.5519 157.21 99.7719 156.79C99.9986 156.363 100.309 156.037 100.702 155.81C101.102 155.577 101.552 155.46 102.052 155.46C102.572 155.46 103.019 155.58 103.392 155.82C103.772 156.06 104.045 156.367 104.212 156.74V155.54H104.912V161H104.212V159.79C104.039 160.163 103.762 160.473 103.382 160.72C103.009 160.96 102.562 161.08 102.042 161.08C101.549 161.08 101.102 160.963 100.702 160.73C100.309 160.497 99.9986 160.167 99.7719 159.74C99.5519 159.313 99.4419 158.82 99.4419 158.26ZM104.212 158.27C104.212 157.83 104.122 157.443 103.942 157.11C103.762 156.777 103.515 156.52 103.202 156.34C102.895 156.16 102.555 156.07 102.182 156.07C101.795 156.07 101.449 156.157 101.142 156.33C100.835 156.503 100.592 156.757 100.412 157.09C100.239 157.417 100.152 157.807 100.152 158.26C100.152 158.707 100.239 159.1 100.412 159.44C100.592 159.773 100.835 160.03 101.142 160.21C101.449 160.383 101.795 160.47 102.182 160.47C102.555 160.47 102.895 160.38 103.202 160.2C103.515 160.02 103.762 159.763 103.942 159.43C104.122 159.097 104.212 158.71 104.212 158.27ZM107.42 156.13V159.52C107.42 159.853 107.483 160.083 107.61 160.21C107.737 160.337 107.96 160.4 108.28 160.4H108.92V161H108.17C107.677 161 107.31 160.887 107.07 160.66C106.83 160.427 106.71 160.047 106.71 159.52V156.13H105.95V155.54H106.71V154.17H107.42V155.54H108.92V156.13H107.42ZM114.804 155.54V161H114.104V160.04C113.944 160.38 113.698 160.64 113.364 160.82C113.031 161 112.658 161.09 112.244 161.09C111.591 161.09 111.058 160.89 110.644 160.49C110.231 160.083 110.024 159.497 110.024 158.73V155.54H110.714V158.65C110.714 159.243 110.861 159.697 111.154 160.01C111.454 160.323 111.861 160.48 112.374 160.48C112.901 160.48 113.321 160.313 113.634 159.98C113.948 159.647 114.104 159.157 114.104 158.51V155.54H114.804ZM118.283 161.08C117.656 161.08 117.143 160.937 116.743 160.65C116.349 160.357 116.129 159.96 116.083 159.46H116.803C116.836 159.767 116.979 160.017 117.233 160.21C117.493 160.397 117.839 160.49 118.273 160.49C118.653 160.49 118.949 160.4 119.163 160.22C119.383 160.04 119.493 159.817 119.493 159.55C119.493 159.363 119.433 159.21 119.313 159.09C119.193 158.97 119.039 158.877 118.853 158.81C118.673 158.737 118.426 158.66 118.113 158.58C117.706 158.473 117.376 158.367 117.123 158.26C116.869 158.153 116.653 157.997 116.473 157.79C116.299 157.577 116.213 157.293 116.213 156.94C116.213 156.673 116.293 156.427 116.453 156.2C116.613 155.973 116.839 155.793 117.133 155.66C117.426 155.527 117.759 155.46 118.133 155.46C118.719 155.46 119.193 155.61 119.553 155.91C119.913 156.203 120.106 156.61 120.133 157.13H119.433C119.413 156.81 119.286 156.553 119.053 156.36C118.826 156.16 118.513 156.06 118.113 156.06C117.759 156.06 117.473 156.143 117.253 156.31C117.033 156.477 116.923 156.683 116.923 156.93C116.923 157.143 116.986 157.32 117.113 157.46C117.246 157.593 117.409 157.7 117.603 157.78C117.796 157.853 118.056 157.937 118.383 158.03C118.776 158.137 119.089 158.24 119.323 158.34C119.556 158.44 119.756 158.587 119.923 158.78C120.089 158.973 120.176 159.23 120.183 159.55C120.183 159.843 120.103 160.107 119.943 160.34C119.783 160.567 119.559 160.747 119.273 160.88C118.986 161.013 118.656 161.08 118.283 161.08Z" fill="black"/>
<path d="M46.6108 108.26C46.6108 107.7 46.7241 107.21 46.9508 106.79C47.1774 106.363 47.4874 106.037 47.8808 105.81C48.2808 105.577 48.7308 105.46 49.2308 105.46C49.7108 105.46 50.1441 105.577 50.5308 105.81C50.9174 106.043 51.2008 106.347 51.3808 106.72V103.6H52.0808V111H51.3808V109.78C51.2141 110.16 50.9408 110.473 50.5608 110.72C50.1808 110.96 49.7341 111.08 49.2208 111.08C48.7208 111.08 48.2708 110.963 47.8708 110.73C47.4774 110.497 47.1674 110.167 46.9408 109.74C46.7208 109.313 46.6108 108.82 46.6108 108.26ZM51.3808 108.27C51.3808 107.83 51.2908 107.443 51.1108 107.11C50.9308 106.777 50.6841 106.52 50.3708 106.34C50.0641 106.16 49.7241 106.07 49.3508 106.07C48.9641 106.07 48.6174 106.157 48.3108 106.33C48.0041 106.503 47.7608 106.757 47.5808 107.09C47.4074 107.417 47.3208 107.807 47.3208 108.26C47.3208 108.707 47.4074 109.1 47.5808 109.44C47.7608 109.773 48.0041 110.03 48.3108 110.21C48.6174 110.383 48.9641 110.47 49.3508 110.47C49.7241 110.47 50.0641 110.38 50.3708 110.2C50.6841 110.02 50.9308 109.763 51.1108 109.43C51.2908 109.097 51.3808 108.71 51.3808 108.27ZM53.3588 108.26C53.3588 107.7 53.4688 107.21 53.6888 106.79C53.9155 106.363 54.2255 106.037 54.6188 105.81C55.0188 105.577 55.4688 105.46 55.9688 105.46C56.4888 105.46 56.9355 105.58 57.3088 105.82C57.6888 106.06 57.9621 106.367 58.1288 106.74V105.54H58.8288V111H58.1288V109.79C57.9555 110.163 57.6788 110.473 57.2988 110.72C56.9255 110.96 56.4788 111.08 55.9588 111.08C55.4655 111.08 55.0188 110.963 54.6188 110.73C54.2255 110.497 53.9155 110.167 53.6888 109.74C53.4688 109.313 53.3588 108.82 53.3588 108.26ZM58.1288 108.27C58.1288 107.83 58.0388 107.443 57.8588 107.11C57.6788 106.777 57.4321 106.52 57.1188 106.34C56.8121 106.16 56.4721 106.07 56.0988 106.07C55.7121 106.07 55.3655 106.157 55.0588 106.33C54.7521 106.503 54.5088 106.757 54.3288 107.09C54.1555 107.417 54.0688 107.807 54.0688 108.26C54.0688 108.707 54.1555 109.1 54.3288 109.44C54.5088 109.773 54.7521 110.03 55.0588 110.21C55.3655 110.383 55.7121 110.47 56.0988 110.47C56.4721 110.47 56.8121 110.38 57.1188 110.2C57.4321 110.02 57.6788 109.763 57.8588 109.43C58.0388 109.097 58.1288 108.71 58.1288 108.27ZM61.3369 106.13V109.52C61.3369 109.853 61.4002 110.083 61.5269 110.21C61.6535 110.337 61.8769 110.4 62.1969 110.4H62.8369V111H62.0869C61.5935 111 61.2269 110.887 60.9869 110.66C60.7469 110.427 60.6269 110.047 60.6269 109.52V106.13H59.8669V105.54H60.6269V104.17H61.3369V105.54H62.8369V106.13H61.3369ZM63.6713 108.26C63.6713 107.7 63.7813 107.21 64.0013 106.79C64.228 106.363 64.538 106.037 64.9313 105.81C65.3313 105.577 65.7813 105.46 66.2813 105.46C66.8013 105.46 67.248 105.58 67.6213 105.82C68.0013 106.06 68.2746 106.367 68.4413 106.74V105.54H69.1413V111H68.4413V109.79C68.268 110.163 67.9913 110.473 67.6113 110.72C67.238 110.96 66.7913 111.08 66.2713 111.08C65.778 111.08 65.3313 110.963 64.9313 110.73C64.538 110.497 64.228 110.167 64.0013 109.74C63.7813 109.313 63.6713 108.82 63.6713 108.26ZM68.4413 108.27C68.4413 107.83 68.3513 107.443 68.1713 107.11C67.9913 106.777 67.7446 106.52 67.4313 106.34C67.1246 106.16 66.7846 106.07 66.4113 106.07C66.0246 106.07 65.678 106.157 65.3713 106.33C65.0646 106.503 64.8213 106.757 64.6413 107.09C64.468 107.417 64.3813 107.807 64.3813 108.26C64.3813 108.707 64.468 109.1 64.6413 109.44C64.8213 109.773 65.0646 110.03 65.3713 110.21C65.678 110.383 66.0246 110.47 66.4113 110.47C66.7846 110.47 67.1246 110.38 67.4313 110.2C67.7446 110.02 67.9913 109.763 68.1713 109.43C68.3513 109.097 68.4413 108.71 68.4413 108.27ZM74.1294 107V107.59H70.2394V107H74.1294ZM75.6049 108.26C75.6049 107.7 75.7182 107.21 75.9449 106.79C76.1716 106.363 76.4816 106.037 76.8749 105.81C77.2749 105.577 77.7249 105.46 78.2249 105.46C78.7049 105.46 79.1382 105.577 79.5249 105.81C79.9116 106.043 80.1949 106.347 80.3749 106.72V103.6H81.0749V111H80.3749V109.78C80.2082 110.16 79.9349 110.473 79.5549 110.72C79.1749 110.96 78.7282 111.08 78.2149 111.08C77.7149 111.08 77.2649 110.963 76.8649 110.73C76.4716 110.497 76.1616 110.167 75.9349 109.74C75.7149 109.313 75.6049 108.82 75.6049 108.26ZM80.3749 108.27C80.3749 107.83 80.2849 107.443 80.1049 107.11C79.9249 106.777 79.6782 106.52 79.3649 106.34C79.0582 106.16 78.7182 106.07 78.3449 106.07C77.9582 106.07 77.6116 106.157 77.3049 106.33C76.9982 106.503 76.7549 106.757 76.5749 107.09C76.4016 107.417 76.3149 107.807 76.3149 108.26C76.3149 108.707 76.4016 109.1 76.5749 109.44C76.7549 109.773 76.9982 110.03 77.3049 110.21C77.6116 110.383 77.9582 110.47 78.3449 110.47C78.7182 110.47 79.0582 110.38 79.3649 110.2C79.6782 110.02 79.9249 109.763 80.1049 109.43C80.2849 109.097 80.3749 108.71 80.3749 108.27ZM87.6129 107.99C87.6129 108.23 87.6063 108.413 87.5929 108.54H83.0629C83.0829 108.953 83.1829 109.307 83.3629 109.6C83.5429 109.893 83.7796 110.117 84.0729 110.27C84.3663 110.417 84.6863 110.49 85.0329 110.49C85.4863 110.49 85.8663 110.38 86.1729 110.16C86.4863 109.94 86.6929 109.643 86.7929 109.27H87.5329C87.3996 109.803 87.1129 110.24 86.6729 110.58C86.2396 110.913 85.6929 111.08 85.0329 111.08C84.5196 111.08 84.0596 110.967 83.6529 110.74C83.2463 110.507 82.9263 110.18 82.6929 109.76C82.4663 109.333 82.3529 108.837 82.3529 108.27C82.3529 107.703 82.4663 107.207 82.6929 106.78C82.9196 106.353 83.2363 106.027 83.6429 105.8C84.0496 105.573 84.5129 105.46 85.0329 105.46C85.5529 105.46 86.0063 105.573 86.3929 105.8C86.7863 106.027 87.0863 106.333 87.2929 106.72C87.5063 107.1 87.6129 107.523 87.6129 107.99ZM86.9029 107.97C86.9096 107.563 86.8263 107.217 86.6529 106.93C86.4863 106.643 86.2563 106.427 85.9629 106.28C85.6696 106.133 85.3496 106.06 85.0029 106.06C84.4829 106.06 84.0396 106.227 83.6729 106.56C83.3063 106.893 83.1029 107.363 83.0629 107.97H86.9029ZM92.2837 107V107.59H88.3937V107H92.2837ZM94.4292 104.51C94.2892 104.51 94.1692 104.46 94.0692 104.36C93.9692 104.26 93.9192 104.137 93.9192 103.99C93.9192 103.843 93.9692 103.723 94.0692 103.63C94.1692 103.53 94.2892 103.48 94.4292 103.48C94.5692 103.48 94.6892 103.53 94.7892 103.63C94.8892 103.723 94.9392 103.843 94.9392 103.99C94.9392 104.137 94.8892 104.26 94.7892 104.36C94.6892 104.46 94.5692 104.51 94.4292 104.51ZM94.7792 105.54V111H94.0792V105.54H94.7792ZM98.9244 105.44C99.5777 105.44 100.111 105.643 100.524 106.05C100.938 106.45 101.144 107.033 101.144 107.8V111H100.454V107.88C100.454 107.287 100.304 106.833 100.004 106.52C99.711 106.207 99.3077 106.05 98.7944 106.05C98.2677 106.05 97.8477 106.217 97.5344 106.55C97.221 106.883 97.0644 107.373 97.0644 108.02V111H96.3644V105.54H97.0644V106.47C97.2377 106.137 97.4877 105.883 97.8144 105.71C98.141 105.53 98.511 105.44 98.9244 105.44ZM103.603 106.13V109.52C103.603 109.853 103.666 110.083 103.793 110.21C103.919 110.337 104.143 110.4 104.463 110.4H105.103V111H104.353C103.859 111 103.493 110.887 103.253 110.66C103.013 110.427 102.893 110.047 102.893 109.52V106.13H102.133V105.54H102.893V104.17H103.603V105.54H105.103V106.13H103.603ZM106.957 106.51C107.11 106.17 107.344 105.907 107.657 105.72C107.977 105.533 108.367 105.44 108.827 105.44V106.17H108.637C108.13 106.17 107.724 106.307 107.417 106.58C107.11 106.853 106.957 107.31 106.957 107.95V111H106.257V105.54H106.957V106.51ZM112.27 111.08C111.757 111.08 111.293 110.967 110.88 110.74C110.473 110.507 110.15 110.18 109.91 109.76C109.677 109.333 109.56 108.837 109.56 108.27C109.56 107.703 109.68 107.21 109.92 106.79C110.16 106.363 110.487 106.037 110.9 105.81C111.313 105.577 111.777 105.46 112.29 105.46C112.803 105.46 113.267 105.577 113.68 105.81C114.1 106.037 114.427 106.363 114.66 106.79C114.9 107.21 115.02 107.703 115.02 108.27C115.02 108.83 114.9 109.323 114.66 109.75C114.42 110.177 114.09 110.507 113.67 110.74C113.25 110.967 112.783 111.08 112.27 111.08ZM112.27 110.47C112.63 110.47 112.963 110.39 113.27 110.23C113.577 110.063 113.823 109.817 114.01 109.49C114.203 109.157 114.3 108.75 114.3 108.27C114.3 107.79 114.207 107.387 114.02 107.06C113.833 106.727 113.587 106.48 113.28 106.32C112.973 106.153 112.64 106.07 112.28 106.07C111.92 106.07 111.587 106.153 111.28 106.32C110.973 106.48 110.727 106.727 110.54 107.06C110.36 107.387 110.27 107.79 110.27 108.27C110.27 108.75 110.36 109.157 110.54 109.49C110.727 109.817 110.97 110.063 111.27 110.23C111.577 110.39 111.91 110.47 112.27 110.47ZM115.976 108.26C115.976 107.7 116.089 107.21 116.316 106.79C116.543 106.363 116.853 106.037 117.246 105.81C117.646 105.577 118.096 105.46 118.596 105.46C119.076 105.46 119.509 105.577 119.896 105.81C120.283 106.043 120.566 106.347 120.746 106.72V103.6H121.446V111H120.746V109.78C120.579 110.16 120.306 110.473 119.926 110.72C119.546 110.96 119.099 111.08 118.586 111.08C118.086 111.08 117.636 110.963 117.236 110.73C116.843 110.497 116.533 110.167 116.306 109.74C116.086 109.313 115.976 108.82 115.976 108.26ZM120.746 108.27C120.746 107.83 120.656 107.443 120.476 107.11C120.296 106.777 120.049 106.52 119.736 106.34C119.429 106.16 119.089 106.07 118.716 106.07C118.329 106.07 117.983 106.157 117.676 106.33C117.369 106.503 117.126 106.757 116.946 107.09C116.773 107.417 116.686 107.807 116.686 108.26C116.686 108.707 116.773 109.1 116.946 109.44C117.126 109.773 117.369 110.03 117.676 110.21C117.983 110.383 118.329 110.47 118.716 110.47C119.089 110.47 119.429 110.38 119.736 110.2C120.049 110.02 120.296 109.763 120.476 109.43C120.656 109.097 120.746 108.71 120.746 108.27ZM127.774 105.54V111H127.074V110.04C126.914 110.38 126.667 110.64 126.334 110.82C126.001 111 125.627 111.09 125.214 111.09C124.561 111.09 124.027 110.89 123.614 110.49C123.201 110.083 122.994 109.497 122.994 108.73V105.54H123.684V108.65C123.684 109.243 123.831 109.697 124.124 110.01C124.424 110.323 124.831 110.48 125.344 110.48C125.871 110.48 126.291 110.313 126.604 109.98C126.917 109.647 127.074 109.157 127.074 108.51V105.54H127.774ZM131.702 110.49C132.162 110.49 132.546 110.38 132.852 110.16C133.166 109.933 133.369 109.62 133.462 109.22H134.212C134.092 109.747 133.832 110.177 133.432 110.51C133.039 110.843 132.539 111.03 131.932 111.07V111.67C132.326 111.657 132.636 111.73 132.862 111.89C133.096 112.057 133.212 112.293 133.212 112.6C133.212 112.9 133.106 113.137 132.892 113.31C132.679 113.49 132.396 113.58 132.042 113.58H131.042V113.11H131.902C132.149 113.11 132.329 113.067 132.442 112.98C132.562 112.9 132.622 112.773 132.622 112.6C132.622 112.28 132.382 112.12 131.902 112.12H131.442V111.07C130.976 111.03 130.562 110.893 130.202 110.66C129.842 110.42 129.559 110.097 129.352 109.69C129.152 109.277 129.052 108.803 129.052 108.27C129.052 107.703 129.166 107.21 129.392 106.79C129.619 106.363 129.932 106.037 130.332 105.81C130.732 105.577 131.189 105.46 131.702 105.46C132.376 105.46 132.929 105.627 133.362 105.96C133.802 106.293 134.086 106.747 134.212 107.32H133.462C133.369 106.927 133.166 106.62 132.852 106.4C132.546 106.173 132.162 106.06 131.702 106.06C131.336 106.06 131.006 106.143 130.712 106.31C130.419 106.477 130.186 106.727 130.012 107.06C129.846 107.387 129.762 107.79 129.762 108.27C129.762 108.75 129.846 109.157 130.012 109.49C130.186 109.823 130.419 110.073 130.712 110.24C131.006 110.407 131.336 110.49 131.702 110.49ZM135.185 108.26C135.185 107.7 135.295 107.21 135.515 106.79C135.742 106.363 136.052 106.037 136.445 105.81C136.845 105.577 137.295 105.46 137.795 105.46C138.315 105.46 138.762 105.58 139.135 105.82C139.515 106.06 139.788 106.367 139.955 106.74V105.54H140.655V111H139.955V109.79C139.782 110.163 139.505 110.473 139.125 110.72C138.752 110.96 138.305 111.08 137.785 111.08C137.292 111.08 136.845 110.963 136.445 110.73C136.052 110.497 135.742 110.167 135.515 109.74C135.295 109.313 135.185 108.82 135.185 108.26ZM139.955 108.27C139.955 107.83 139.865 107.443 139.685 107.11C139.505 106.777 139.258 106.52 138.945 106.34C138.638 106.16 138.298 106.07 137.925 106.07C137.538 106.07 137.192 106.157 136.885 106.33C136.578 106.503 136.335 106.757 136.155 107.09C135.982 107.417 135.895 107.807 135.895 108.26C135.895 108.707 135.982 109.1 136.155 109.44C136.335 109.773 136.578 110.03 136.885 110.21C137.192 110.383 137.538 110.47 137.925 110.47C138.298 110.47 138.638 110.38 138.945 110.2C139.258 110.02 139.505 109.763 139.685 109.43C139.865 109.097 139.955 108.71 139.955 108.27ZM136.775 104.94C136.815 104.64 136.912 104.41 137.065 104.25C137.218 104.09 137.415 104.01 137.655 104.01C137.775 104.01 137.878 104.033 137.965 104.08C138.052 104.12 138.155 104.18 138.275 104.26C138.375 104.333 138.462 104.39 138.535 104.43C138.608 104.463 138.688 104.48 138.775 104.48C138.888 104.48 138.985 104.443 139.065 104.37C139.145 104.29 139.195 104.177 139.215 104.03H139.635C139.608 104.323 139.512 104.553 139.345 104.72C139.185 104.88 138.985 104.96 138.745 104.96C138.618 104.96 138.508 104.94 138.415 104.9C138.328 104.853 138.225 104.787 138.105 104.7C138.012 104.627 137.928 104.573 137.855 104.54C137.788 104.507 137.712 104.49 137.625 104.49C137.385 104.49 137.245 104.64 137.205 104.94H136.775ZM144.643 111.08C144.13 111.08 143.666 110.967 143.253 110.74C142.846 110.507 142.523 110.18 142.283 109.76C142.05 109.333 141.933 108.837 141.933 108.27C141.933 107.703 142.053 107.21 142.293 106.79C142.533 106.363 142.86 106.037 143.273 105.81C143.686 105.577 144.15 105.46 144.663 105.46C145.176 105.46 145.64 105.577 146.053 105.81C146.473 106.037 146.8 106.363 147.033 106.79C147.273 107.21 147.393 107.703 147.393 108.27C147.393 108.83 147.273 109.323 147.033 109.75C146.793 110.177 146.463 110.507 146.043 110.74C145.623 110.967 145.156 111.08 144.643 111.08ZM144.643 110.47C145.003 110.47 145.336 110.39 145.643 110.23C145.95 110.063 146.196 109.817 146.383 109.49C146.576 109.157 146.673 108.75 146.673 108.27C146.673 107.79 146.58 107.387 146.393 107.06C146.206 106.727 145.96 106.48 145.653 106.32C145.346 106.153 145.013 106.07 144.653 106.07C144.293 106.07 143.96 106.153 143.653 106.32C143.346 106.48 143.1 106.727 142.913 107.06C142.733 107.387 142.643 107.79 142.643 108.27C142.643 108.75 142.733 109.157 142.913 109.49C143.1 109.817 143.343 110.063 143.643 110.23C143.95 110.39 144.283 110.47 144.643 110.47Z" fill="black"/>
<path d="M42.5308 133.27C42.5308 132.703 42.6441 132.21 42.8708 131.79C43.0974 131.363 43.4108 131.037 43.8108 130.81C44.2108 130.577 44.6674 130.46 45.1808 130.46C45.8541 130.46 46.4074 130.627 46.8408 130.96C47.2808 131.293 47.5641 131.747 47.6908 132.32H46.9408C46.8474 131.927 46.6441 131.62 46.3308 131.4C46.0241 131.173 45.6408 131.06 45.1808 131.06C44.8141 131.06 44.4841 131.143 44.1908 131.31C43.8974 131.477 43.6641 131.727 43.4908 132.06C43.3241 132.387 43.2408 132.79 43.2408 133.27C43.2408 133.75 43.3241 134.157 43.4908 134.49C43.6641 134.823 43.8974 135.073 44.1908 135.24C44.4841 135.407 44.8141 135.49 45.1808 135.49C45.6408 135.49 46.0241 135.38 46.3308 135.16C46.6441 134.933 46.8474 134.62 46.9408 134.22H47.6908C47.5641 134.78 47.2808 135.23 46.8408 135.57C46.4008 135.91 45.8474 136.08 45.1808 136.08C44.6674 136.08 44.2108 135.967 43.8108 135.74C43.4108 135.507 43.0974 135.18 42.8708 134.76C42.6441 134.333 42.5308 133.837 42.5308 133.27ZM51.3736 136.08C50.8603 136.08 50.3969 135.967 49.9836 135.74C49.5769 135.507 49.2536 135.18 49.0136 134.76C48.7803 134.333 48.6636 133.837 48.6636 133.27C48.6636 132.703 48.7836 132.21 49.0236 131.79C49.2636 131.363 49.5903 131.037 50.0036 130.81C50.4169 130.577 50.8803 130.46 51.3936 130.46C51.9069 130.46 52.3703 130.577 52.7836 130.81C53.2036 131.037 53.5303 131.363 53.7636 131.79C54.0036 132.21 54.1236 132.703 54.1236 133.27C54.1236 133.83 54.0036 134.323 53.7636 134.75C53.5236 135.177 53.1936 135.507 52.7736 135.74C52.3536 135.967 51.8869 136.08 51.3736 136.08ZM51.3736 135.47C51.7336 135.47 52.0669 135.39 52.3736 135.23C52.6803 135.063 52.9269 134.817 53.1136 134.49C53.3069 134.157 53.4036 133.75 53.4036 133.27C53.4036 132.79 53.3103 132.387 53.1236 132.06C52.9369 131.727 52.6903 131.48 52.3836 131.32C52.0769 131.153 51.7436 131.07 51.3836 131.07C51.0236 131.07 50.6903 131.153 50.3836 131.32C50.0769 131.48 49.8303 131.727 49.6436 132.06C49.4636 132.387 49.3736 132.79 49.3736 133.27C49.3736 133.75 49.4636 134.157 49.6436 134.49C49.8303 134.817 50.0736 135.063 50.3736 135.23C50.6803 135.39 51.0136 135.47 51.3736 135.47ZM61.8996 130.44C62.5396 130.44 63.0596 130.643 63.4596 131.05C63.8663 131.45 64.0696 132.033 64.0696 132.8V136H63.3796V132.88C63.3796 132.287 63.2363 131.833 62.9496 131.52C62.6629 131.207 62.2729 131.05 61.7796 131.05C61.2663 131.05 60.8563 131.22 60.5496 131.56C60.2429 131.9 60.0896 132.393 60.0896 133.04V136H59.3996V132.88C59.3996 132.287 59.2563 131.833 58.9696 131.52C58.6829 131.207 58.2896 131.05 57.7896 131.05C57.2763 131.05 56.8663 131.22 56.5596 131.56C56.2529 131.9 56.0996 132.393 56.0996 133.04V136H55.3996V130.54H56.0996V131.48C56.2729 131.14 56.5196 130.883 56.8396 130.71C57.1596 130.53 57.5163 130.44 57.9096 130.44C58.3829 130.44 58.7963 130.553 59.1496 130.78C59.5096 131.007 59.7696 131.34 59.9296 131.78C60.0763 131.347 60.3263 131.017 60.6796 130.79C61.0396 130.557 61.4463 130.44 61.8996 130.44ZM70.5642 132.99C70.5642 133.23 70.5576 133.413 70.5442 133.54H66.0142C66.0342 133.953 66.1342 134.307 66.3142 134.6C66.4942 134.893 66.7309 135.117 67.0242 135.27C67.3176 135.417 67.6376 135.49 67.9842 135.49C68.4376 135.49 68.8176 135.38 69.1242 135.16C69.4376 134.94 69.6442 134.643 69.7442 134.27H70.4842C70.3509 134.803 70.0642 135.24 69.6242 135.58C69.1909 135.913 68.6442 136.08 67.9842 136.08C67.4709 136.08 67.0109 135.967 66.6042 135.74C66.1976 135.507 65.8776 135.18 65.6442 134.76C65.4176 134.333 65.3042 133.837 65.3042 133.27C65.3042 132.703 65.4176 132.207 65.6442 131.78C65.8709 131.353 66.1876 131.027 66.5942 130.8C67.0009 130.573 67.4642 130.46 67.9842 130.46C68.5042 130.46 68.9576 130.573 69.3442 130.8C69.7376 131.027 70.0376 131.333 70.2442 131.72C70.4576 132.1 70.5642 132.523 70.5642 132.99ZM69.8542 132.97C69.8609 132.563 69.7776 132.217 69.6042 131.93C69.4376 131.643 69.2076 131.427 68.9142 131.28C68.6209 131.133 68.3009 131.06 67.9542 131.06C67.4342 131.06 66.9909 131.227 66.6242 131.56C66.2576 131.893 66.0542 132.363 66.0142 132.97H69.8542ZM74.1749 135.49C74.6349 135.49 75.0183 135.38 75.3249 135.16C75.6383 134.933 75.8416 134.62 75.9349 134.22H76.6849C76.5649 134.747 76.3049 135.177 75.9049 135.51C75.5116 135.843 75.0116 136.03 74.4049 136.07V136.67C74.7983 136.657 75.1083 136.73 75.3349 136.89C75.5683 137.057 75.6849 137.293 75.6849 137.6C75.6849 137.9 75.5783 138.137 75.3649 138.31C75.1516 138.49 74.8683 138.58 74.5149 138.58H73.5149V138.11H74.3749C74.6216 138.11 74.8016 138.067 74.9149 137.98C75.0349 137.9 75.0949 137.773 75.0949 137.6C75.0949 137.28 74.8549 137.12 74.3749 137.12H73.9149V136.07C73.4483 136.03 73.0349 135.893 72.6749 135.66C72.3149 135.42 72.0316 135.097 71.8249 134.69C71.6249 134.277 71.5249 133.803 71.5249 133.27C71.5249 132.703 71.6383 132.21 71.8649 131.79C72.0916 131.363 72.4049 131.037 72.8049 130.81C73.2049 130.577 73.6616 130.46 74.1749 130.46C74.8483 130.46 75.4016 130.627 75.8349 130.96C76.2749 131.293 76.5583 131.747 76.6849 132.32H75.9349C75.8416 131.927 75.6383 131.62 75.3249 131.4C75.0183 131.173 74.6349 131.06 74.1749 131.06C73.8083 131.06 73.4783 131.143 73.1849 131.31C72.8916 131.477 72.6583 131.727 72.4849 132.06C72.3183 132.387 72.2349 132.79 72.2349 133.27C72.2349 133.75 72.3183 134.157 72.4849 134.49C72.6583 134.823 72.8916 135.073 73.1849 135.24C73.4783 135.407 73.8083 135.49 74.1749 135.49ZM80.3677 136.08C79.8544 136.08 79.3911 135.967 78.9777 135.74C78.5711 135.507 78.2477 135.18 78.0077 134.76C77.7744 134.333 77.6577 133.837 77.6577 133.27C77.6577 132.703 77.7777 132.21 78.0177 131.79C78.2577 131.363 78.5844 131.037 78.9977 130.81C79.4111 130.577 79.8744 130.46 80.3877 130.46C80.9011 130.46 81.3644 130.577 81.7777 130.81C82.1977 131.037 82.5244 131.363 82.7577 131.79C82.9977 132.21 83.1177 132.703 83.1177 133.27C83.1177 133.83 82.9977 134.323 82.7577 134.75C82.5177 135.177 82.1877 135.507 81.7677 135.74C81.3477 135.967 80.8811 136.08 80.3677 136.08ZM80.3677 135.47C80.7277 135.47 81.0611 135.39 81.3677 135.23C81.6744 135.063 81.9211 134.817 82.1077 134.49C82.3011 134.157 82.3977 133.75 82.3977 133.27C82.3977 132.79 82.3044 132.387 82.1177 132.06C81.9311 131.727 81.6844 131.48 81.3777 131.32C81.0711 131.153 80.7377 131.07 80.3777 131.07C80.0177 131.07 79.6844 131.153 79.3777 131.32C79.0711 131.48 78.8244 131.727 78.6377 132.06C78.4577 132.387 78.3677 132.79 78.3677 133.27C78.3677 133.75 78.4577 134.157 78.6377 134.49C78.8244 134.817 79.0677 135.063 79.3677 135.23C79.6744 135.39 80.0077 135.47 80.3677 135.47ZM87.7838 132V132.59H83.8938V132H87.7838ZM89.2593 133.26C89.2593 132.7 89.3726 132.21 89.5993 131.79C89.826 131.363 90.136 131.037 90.5293 130.81C90.9293 130.577 91.3793 130.46 91.8793 130.46C92.3593 130.46 92.7926 130.577 93.1793 130.81C93.566 131.043 93.8493 131.347 94.0293 131.72V128.6H94.7293V136H94.0293V134.78C93.8626 135.16 93.5893 135.473 93.2093 135.72C92.8293 135.96 92.3826 136.08 91.8693 136.08C91.3693 136.08 90.9193 135.963 90.5193 135.73C90.126 135.497 89.816 135.167 89.5893 134.74C89.3693 134.313 89.2593 133.82 89.2593 133.26ZM94.0293 133.27C94.0293 132.83 93.9393 132.443 93.7593 132.11C93.5793 131.777 93.3326 131.52 93.0193 131.34C92.7126 131.16 92.3726 131.07 91.9993 131.07C91.6126 131.07 91.266 131.157 90.9593 131.33C90.6526 131.503 90.4093 131.757 90.2293 132.09C90.056 132.417 89.9693 132.807 89.9693 133.26C89.9693 133.707 90.056 134.1 90.2293 134.44C90.4093 134.773 90.6526 135.03 90.9593 135.21C91.266 135.383 91.6126 135.47 91.9993 135.47C92.3726 135.47 92.7126 135.38 93.0193 135.2C93.3326 135.02 93.5793 134.763 93.7593 134.43C93.9393 134.097 94.0293 133.71 94.0293 133.27ZM101.267 132.99C101.267 133.23 101.261 133.413 101.247 133.54H96.7173C96.7373 133.953 96.8373 134.307 97.0173 134.6C97.1973 134.893 97.434 135.117 97.7273 135.27C98.0207 135.417 98.3407 135.49 98.6873 135.49C99.1407 135.49 99.5207 135.38 99.8273 135.16C100.141 134.94 100.347 134.643 100.447 134.27H101.187C101.054 134.803 100.767 135.24 100.327 135.58C99.894 135.913 99.3473 136.08 98.6873 136.08C98.174 136.08 97.714 135.967 97.3073 135.74C96.9007 135.507 96.5807 135.18 96.3473 134.76C96.1207 134.333 96.0073 133.837 96.0073 133.27C96.0073 132.703 96.1207 132.207 96.3473 131.78C96.574 131.353 96.8907 131.027 97.2973 130.8C97.704 130.573 98.1673 130.46 98.6873 130.46C99.2073 130.46 99.6607 130.573 100.047 130.8C100.441 131.027 100.741 131.333 100.947 131.72C101.161 132.1 101.267 132.523 101.267 132.99ZM100.557 132.97C100.564 132.563 100.481 132.217 100.307 131.93C100.141 131.643 99.9107 131.427 99.6173 131.28C99.324 131.133 99.004 131.06 98.6573 131.06C98.1373 131.06 97.694 131.227 97.3273 131.56C96.9607 131.893 96.7573 132.363 96.7173 132.97H100.557ZM105.938 132V132.59H102.048V132H105.938ZM112.674 132.99C112.674 133.23 112.667 133.413 112.654 133.54H108.124C108.144 133.953 108.244 134.307 108.424 134.6C108.604 134.893 108.84 135.117 109.134 135.27C109.427 135.417 109.747 135.49 110.094 135.49C110.547 135.49 110.927 135.38 111.234 135.16C111.547 134.94 111.754 134.643 111.854 134.27H112.594C112.46 134.803 112.174 135.24 111.734 135.58C111.3 135.913 110.754 136.08 110.094 136.08C109.58 136.08 109.12 135.967 108.714 135.74C108.307 135.507 107.987 135.18 107.754 134.76C107.527 134.333 107.414 133.837 107.414 133.27C107.414 132.703 107.527 132.207 107.754 131.78C107.98 131.353 108.297 131.027 108.704 130.8C109.11 130.573 109.574 130.46 110.094 130.46C110.614 130.46 111.067 130.573 111.454 130.8C111.847 131.027 112.147 131.333 112.354 131.72C112.567 132.1 112.674 132.523 112.674 132.99ZM111.964 132.97C111.97 132.563 111.887 132.217 111.714 131.93C111.547 131.643 111.317 131.427 111.024 131.28C110.73 131.133 110.41 131.06 110.064 131.06C109.544 131.06 109.1 131.227 108.734 131.56C108.367 131.893 108.164 132.363 108.124 132.97H111.964ZM115.894 135.32L117.734 130.54H118.474L116.284 136H115.494L113.304 130.54H114.054L115.894 135.32ZM121.813 136.08C121.3 136.08 120.836 135.967 120.423 135.74C120.016 135.507 119.693 135.18 119.453 134.76C119.22 134.333 119.103 133.837 119.103 133.27C119.103 132.703 119.223 132.21 119.463 131.79C119.703 131.363 120.03 131.037 120.443 130.81C120.856 130.577 121.32 130.46 121.833 130.46C122.346 130.46 122.81 130.577 123.223 130.81C123.643 131.037 123.97 131.363 124.203 131.79C124.443 132.21 124.563 132.703 124.563 133.27C124.563 133.83 124.443 134.323 124.203 134.75C123.963 135.177 123.633 135.507 123.213 135.74C122.793 135.967 122.326 136.08 121.813 136.08ZM121.813 135.47C122.173 135.47 122.506 135.39 122.813 135.23C123.12 135.063 123.366 134.817 123.553 134.49C123.746 134.157 123.843 133.75 123.843 133.27C123.843 132.79 123.75 132.387 123.563 132.06C123.376 131.727 123.13 131.48 122.823 131.32C122.516 131.153 122.183 131.07 121.823 131.07C121.463 131.07 121.13 131.153 120.823 131.32C120.516 131.48 120.27 131.727 120.083 132.06C119.903 132.387 119.813 132.79 119.813 133.27C119.813 133.75 119.903 134.157 120.083 134.49C120.27 134.817 120.513 135.063 120.813 135.23C121.12 135.39 121.453 135.47 121.813 135.47ZM126.539 128.6V136H125.839V128.6H126.539ZM132.854 130.54V136H132.154V135.04C131.994 135.38 131.748 135.64 131.414 135.82C131.081 136 130.708 136.09 130.294 136.09C129.641 136.09 129.108 135.89 128.694 135.49C128.281 135.083 128.074 134.497 128.074 133.73V130.54H128.764V133.65C128.764 134.243 128.911 134.697 129.204 135.01C129.504 135.323 129.911 135.48 130.424 135.48C130.951 135.48 131.371 135.313 131.684 134.98C131.998 134.647 132.154 134.157 132.154 133.51V130.54H132.854ZM136.782 135.49C137.242 135.49 137.626 135.38 137.932 135.16C138.246 134.933 138.449 134.62 138.542 134.22H139.292C139.172 134.747 138.912 135.177 138.512 135.51C138.119 135.843 137.619 136.03 137.012 136.07V136.67C137.406 136.657 137.716 136.73 137.942 136.89C138.176 137.057 138.292 137.293 138.292 137.6C138.292 137.9 138.186 138.137 137.972 138.31C137.759 138.49 137.476 138.58 137.122 138.58H136.122V138.11H136.982C137.229 138.11 137.409 138.067 137.522 137.98C137.642 137.9 137.702 137.773 137.702 137.6C137.702 137.28 137.462 137.12 136.982 137.12H136.522V136.07C136.056 136.03 135.642 135.893 135.282 135.66C134.922 135.42 134.639 135.097 134.432 134.69C134.232 134.277 134.132 133.803 134.132 133.27C134.132 132.703 134.246 132.21 134.472 131.79C134.699 131.363 135.012 131.037 135.412 130.81C135.812 130.577 136.269 130.46 136.782 130.46C137.456 130.46 138.009 130.627 138.442 130.96C138.882 131.293 139.166 131.747 139.292 132.32H138.542C138.449 131.927 138.246 131.62 137.932 131.4C137.626 131.173 137.242 131.06 136.782 131.06C136.416 131.06 136.086 131.143 135.792 131.31C135.499 131.477 135.266 131.727 135.092 132.06C134.926 132.387 134.842 132.79 134.842 133.27C134.842 133.75 134.926 134.157 135.092 134.49C135.266 134.823 135.499 135.073 135.792 135.24C136.086 135.407 136.416 135.49 136.782 135.49ZM140.265 133.26C140.265 132.7 140.375 132.21 140.595 131.79C140.822 131.363 141.132 131.037 141.525 130.81C141.925 130.577 142.375 130.46 142.875 130.46C143.395 130.46 143.842 130.58 144.215 130.82C144.595 131.06 144.868 131.367 145.035 131.74V130.54H145.735V136H145.035V134.79C144.862 135.163 144.585 135.473 144.205 135.72C143.832 135.96 143.385 136.08 142.865 136.08C142.372 136.08 141.925 135.963 141.525 135.73C141.132 135.497 140.822 135.167 140.595 134.74C140.375 134.313 140.265 133.82 140.265 133.26ZM145.035 133.27C145.035 132.83 144.945 132.443 144.765 132.11C144.585 131.777 144.338 131.52 144.025 131.34C143.718 131.16 143.378 131.07 143.005 131.07C142.618 131.07 142.272 131.157 141.965 131.33C141.658 131.503 141.415 131.757 141.235 132.09C141.062 132.417 140.975 132.807 140.975 133.26C140.975 133.707 141.062 134.1 141.235 134.44C141.415 134.773 141.658 135.03 141.965 135.21C142.272 135.383 142.618 135.47 143.005 135.47C143.378 135.47 143.718 135.38 144.025 135.2C144.338 135.02 144.585 134.763 144.765 134.43C144.945 134.097 145.035 133.71 145.035 133.27ZM141.855 129.94C141.895 129.64 141.992 129.41 142.145 129.25C142.298 129.09 142.495 129.01 142.735 129.01C142.855 129.01 142.958 129.033 143.045 129.08C143.132 129.12 143.235 129.18 143.355 129.26C143.455 129.333 143.542 129.39 143.615 129.43C143.688 129.463 143.768 129.48 143.855 129.48C143.968 129.48 144.065 129.443 144.145 129.37C144.225 129.29 144.275 129.177 144.295 129.03H144.715C144.688 129.323 144.592 129.553 144.425 129.72C144.265 129.88 144.065 129.96 143.825 129.96C143.698 129.96 143.588 129.94 143.495 129.9C143.408 129.853 143.305 129.787 143.185 129.7C143.092 129.627 143.008 129.573 142.935 129.54C142.868 129.507 142.792 129.49 142.705 129.49C142.465 129.49 142.325 129.64 142.285 129.94H141.855ZM149.723 136.08C149.21 136.08 148.747 135.967 148.333 135.74C147.927 135.507 147.603 135.18 147.363 134.76C147.13 134.333 147.013 133.837 147.013 133.27C147.013 132.703 147.133 132.21 147.373 131.79C147.613 131.363 147.94 131.037 148.353 130.81C148.767 130.577 149.23 130.46 149.743 130.46C150.257 130.46 150.72 130.577 151.133 130.81C151.553 131.037 151.88 131.363 152.113 131.79C152.353 132.21 152.473 132.703 152.473 133.27C152.473 133.83 152.353 134.323 152.113 134.75C151.873 135.177 151.543 135.507 151.123 135.74C150.703 135.967 150.237 136.08 149.723 136.08ZM149.723 135.47C150.083 135.47 150.417 135.39 150.723 135.23C151.03 135.063 151.277 134.817 151.463 134.49C151.657 134.157 151.753 133.75 151.753 133.27C151.753 132.79 151.66 132.387 151.473 132.06C151.287 131.727 151.04 131.48 150.733 131.32C150.427 131.153 150.093 131.07 149.733 131.07C149.373 131.07 149.04 131.153 148.733 131.32C148.427 131.48 148.18 131.727 147.993 132.06C147.813 132.387 147.723 132.79 147.723 133.27C147.723 133.75 147.813 134.157 147.993 134.49C148.18 134.817 148.423 135.063 148.723 135.23C149.03 135.39 149.363 135.47 149.723 135.47Z" fill="black"/>
<path d="M85 158C85 155.239 82.7614 153 80 153C77.2386 153 75 155.239 75 158C75 160.761 77.2386 163 80 163C82.7614 163 85 160.761 85 158Z" fill="#C4C4C4"/>
<path d="M108 13.75H88C86.6212 13.75 85.5 14.8712 85.5 16.25V33.75C85.5 35.1288 86.6212 36.25 88 36.25H108C109.379 36.25 110.5 35.1288 110.5 33.75V16.25C110.5 14.8712 109.379 13.75 108 13.75ZM88 33.75V18.75H108L108.003 33.75H88Z" fill="black"/>
<path d="M94.6163 21.6162L89.9825 26.25L94.6163 30.8837L96.3838 29.1162L93.5175 26.25L96.3838 23.3837L94.6163 21.6162ZM101.384 21.6162L99.6163 23.3837L102.483 26.25L99.6163 29.1162L101.384 30.8837L106.018 26.25L101.384 21.6162Z" fill="black"/>
</svg>
