<svg width="196" height="188" viewBox="0 0 196 188" fill="none" xmlns="http://www.w3.org/2000/svg">
<path d="M191 0.5H5C2.51472 0.5 0.5 2.51472 0.5 5V183C0.5 185.485 2.51472 187.5 5 187.5H191C193.485 187.5 195.5 185.485 195.5 183V5C195.5 2.51472 193.485 0.5 191 0.5Z" stroke="black"/>
<path d="M48.7595 50.44C49.4128 50.44 49.9462 50.6433 50.3595 51.05C50.7728 51.45 50.9795 52.0333 50.9795 52.8V56H50.2895V52.88C50.2895 52.2867 50.1395 51.8333 49.8395 51.52C49.5462 51.2067 49.1428 51.05 48.6295 51.05C48.1028 51.05 47.6828 51.2167 47.3695 51.55C47.0562 51.8833 46.8995 52.3733 46.8995 53.02V56H46.1995V50.54H46.8995V51.47C47.0728 51.1367 47.3228 50.8833 47.6495 50.71C47.9762 50.53 48.3462 50.44 48.7595 50.44ZM54.9176 56.08C54.4043 56.08 53.941 55.9667 53.5276 55.74C53.121 55.5067 52.7976 55.18 52.5576 54.76C52.3243 54.3333 52.2076 53.8367 52.2076 53.27C52.2076 52.7033 52.3276 52.21 52.5676 51.79C52.8076 51.3633 53.1343 51.0367 53.5476 50.81C53.961 50.5767 54.4243 50.46 54.9376 50.46C55.451 50.46 55.9143 50.5767 56.3276 50.81C56.7476 51.0367 57.0743 51.3633 57.3076 51.79C57.5476 52.21 57.6676 52.7033 57.6676 53.27C57.6676 53.83 57.5476 54.3233 57.3076 54.75C57.0676 55.1767 56.7376 55.5067 56.3176 55.74C55.8976 55.9667 55.431 56.08 54.9176 56.08ZM54.9176 55.47C55.2776 55.47 55.611 55.39 55.9176 55.23C56.2243 55.0633 56.471 54.8167 56.6576 54.49C56.851 54.1567 56.9476 53.75 56.9476 53.27C56.9476 52.79 56.8543 52.3867 56.6676 52.06C56.481 51.7267 56.2343 51.48 55.9276 51.32C55.621 51.1533 55.2876 51.07 54.9276 51.07C54.5676 51.07 54.2343 51.1533 53.9276 51.32C53.621 51.48 53.3743 51.7267 53.1876 52.06C53.0076 52.3867 52.9176 52.79 52.9176 53.27C52.9176 53.75 53.0076 54.1567 53.1876 54.49C53.3743 54.8167 53.6176 55.0633 53.9176 55.23C54.2243 55.39 54.5576 55.47 54.9176 55.47ZM65.4437 50.44C66.0837 50.44 66.6037 50.6433 67.0037 51.05C67.4103 51.45 67.6137 52.0333 67.6137 52.8V56H66.9237V52.88C66.9237 52.2867 66.7803 51.8333 66.4937 51.52C66.207 51.2067 65.817 51.05 65.3237 51.05C64.8103 51.05 64.4003 51.22 64.0937 51.56C63.787 51.9 63.6337 52.3933 63.6337 53.04V56H62.9437V52.88C62.9437 52.2867 62.8003 51.8333 62.5137 51.52C62.227 51.2067 61.8337 51.05 61.3337 51.05C60.8203 51.05 60.4103 51.22 60.1037 51.56C59.797 51.9 59.6437 52.3933 59.6437 53.04V56H58.9437V50.54H59.6437V51.48C59.817 51.14 60.0637 50.8833 60.3837 50.71C60.7037 50.53 61.0603 50.44 61.4537 50.44C61.927 50.44 62.3403 50.5533 62.6937 50.78C63.0537 51.0067 63.3137 51.34 63.4737 51.78C63.6203 51.3467 63.8703 51.0167 64.2237 50.79C64.5837 50.5567 64.9903 50.44 65.4437 50.44ZM74.1083 52.99C74.1083 53.23 74.1016 53.4133 74.0883 53.54H69.5583C69.5783 53.9533 69.6783 54.3067 69.8583 54.6C70.0383 54.8933 70.2749 55.1167 70.5683 55.27C70.8616 55.4167 71.1816 55.49 71.5283 55.49C71.9816 55.49 72.3616 55.38 72.6683 55.16C72.9816 54.94 73.1883 54.6433 73.2883 54.27H74.0283C73.8949 54.8033 73.6083 55.24 73.1683 55.58C72.7349 55.9133 72.1883 56.08 71.5283 56.08C71.0149 56.08 70.5549 55.9667 70.1483 55.74C69.7416 55.5067 69.4216 55.18 69.1883 54.76C68.9616 54.3333 68.8483 53.8367 68.8483 53.27C68.8483 52.7033 68.9616 52.2067 69.1883 51.78C69.4149 51.3533 69.7316 51.0267 70.1383 50.8C70.5449 50.5733 71.0083 50.46 71.5283 50.46C72.0483 50.46 72.5016 50.5733 72.8883 50.8C73.2816 51.0267 73.5816 51.3333 73.7883 51.72C74.0016 52.1 74.1083 52.5233 74.1083 52.99ZM73.3983 52.97C73.4049 52.5633 73.3216 52.2167 73.1483 51.93C72.9816 51.6433 72.7516 51.4267 72.4583 51.28C72.1649 51.1333 71.8449 51.06 71.4983 51.06C70.9783 51.06 70.5349 51.2267 70.1683 51.56C69.8016 51.8933 69.5983 52.3633 69.5583 52.97H73.3983ZM78.779 52V52.59H74.889V52H78.779ZM80.2545 53.26C80.2545 52.7 80.3678 52.21 80.5945 51.79C80.8212 51.3633 81.1312 51.0367 81.5245 50.81C81.9245 50.5767 82.3745 50.46 82.8745 50.46C83.3545 50.46 83.7878 50.5767 84.1745 50.81C84.5612 51.0433 84.8445 51.3467 85.0245 51.72V48.6H85.7245V56H85.0245V54.78C84.8578 55.16 84.5845 55.4733 84.2045 55.72C83.8245 55.96 83.3778 56.08 82.8645 56.08C82.3645 56.08 81.9145 55.9633 81.5145 55.73C81.1212 55.4967 80.8112 55.1667 80.5845 54.74C80.3645 54.3133 80.2545 53.82 80.2545 53.26ZM85.0245 53.27C85.0245 52.83 84.9345 52.4433 84.7545 52.11C84.5745 51.7767 84.3278 51.52 84.0145 51.34C83.7078 51.16 83.3678 51.07 82.9945 51.07C82.6078 51.07 82.2612 51.1567 81.9545 51.33C81.6478 51.5033 81.4045 51.7567 81.2245 52.09C81.0512 52.4167 80.9645 52.8067 80.9645 53.26C80.9645 53.7067 81.0512 54.1 81.2245 54.44C81.4045 54.7733 81.6478 55.03 81.9545 55.21C82.2612 55.3833 82.6078 55.47 82.9945 55.47C83.3678 55.47 83.7078 55.38 84.0145 55.2C84.3278 55.02 84.5745 54.7633 84.7545 54.43C84.9345 54.0967 85.0245 53.71 85.0245 53.27ZM87.0026 53.26C87.0026 52.7 87.1126 52.21 87.3326 51.79C87.5592 51.3633 87.8692 51.0367 88.2626 50.81C88.6626 50.5767 89.1126 50.46 89.6126 50.46C90.1326 50.46 90.5792 50.58 90.9526 50.82C91.3326 51.06 91.6059 51.3667 91.7726 51.74V50.54H92.4726V56H91.7726V54.79C91.5992 55.1633 91.3226 55.4733 90.9426 55.72C90.5692 55.96 90.1226 56.08 89.6026 56.08C89.1092 56.08 88.6626 55.9633 88.2626 55.73C87.8692 55.4967 87.5592 55.1667 87.3326 54.74C87.1126 54.3133 87.0026 53.82 87.0026 53.26ZM91.7726 53.27C91.7726 52.83 91.6826 52.4433 91.5026 52.11C91.3226 51.7767 91.0759 51.52 90.7626 51.34C90.4559 51.16 90.1159 51.07 89.7426 51.07C89.3559 51.07 89.0092 51.1567 88.7026 51.33C88.3959 51.5033 88.1526 51.7567 87.9726 52.09C87.7992 52.4167 87.7126 52.8067 87.7126 53.26C87.7126 53.7067 87.7992 54.1 87.9726 54.44C88.1526 54.7733 88.3959 55.03 88.7026 55.21C89.0092 55.3833 89.3559 55.47 89.7426 55.47C90.1159 55.47 90.4559 55.38 90.7626 55.2C91.0759 55.02 91.3226 54.7633 91.5026 54.43C91.6826 54.0967 91.7726 53.71 91.7726 53.27ZM97.4606 52V52.59H93.5706V52H97.4606ZM100.166 51.13V54.52C100.166 54.8533 100.229 55.0833 100.356 55.21C100.483 55.3367 100.706 55.4 101.026 55.4H101.666V56H100.916C100.423 56 100.056 55.8867 99.8162 55.66C99.5762 55.4267 99.4562 55.0467 99.4562 54.52V51.13H98.6962V50.54H99.4562V49.17H100.166V50.54H101.666V51.13H100.166ZM107.761 52.99C107.761 53.23 107.754 53.4133 107.741 53.54H103.211C103.231 53.9533 103.331 54.3067 103.511 54.6C103.691 54.8933 103.927 55.1167 104.221 55.27C104.514 55.4167 104.834 55.49 105.181 55.49C105.634 55.49 106.014 55.38 106.321 55.16C106.634 54.94 106.841 54.6433 106.941 54.27H107.681C107.547 54.8033 107.261 55.24 106.821 55.58C106.387 55.9133 105.841 56.08 105.181 56.08C104.667 56.08 104.207 55.9667 103.801 55.74C103.394 55.5067 103.074 55.18 102.841 54.76C102.614 54.3333 102.501 53.8367 102.501 53.27C102.501 52.7033 102.614 52.2067 102.841 51.78C103.067 51.3533 103.384 51.0267 103.791 50.8C104.197 50.5733 104.661 50.46 105.181 50.46C105.701 50.46 106.154 50.5733 106.541 50.8C106.934 51.0267 107.234 51.3333 107.441 51.72C107.654 52.1 107.761 52.5233 107.761 52.99ZM107.051 52.97C107.057 52.5633 106.974 52.2167 106.801 51.93C106.634 51.6433 106.404 51.4267 106.111 51.28C105.817 51.1333 105.497 51.06 105.151 51.06C104.631 51.06 104.187 51.2267 103.821 51.56C103.454 51.8933 103.251 52.3633 103.211 52.97H107.051ZM108.721 53.27C108.721 52.7033 108.835 52.21 109.061 51.79C109.288 51.3633 109.601 51.0367 110.001 50.81C110.401 50.5767 110.858 50.46 111.371 50.46C112.045 50.46 112.598 50.6267 113.031 50.96C113.471 51.2933 113.755 51.7467 113.881 52.32H113.131C113.038 51.9267 112.835 51.62 112.521 51.4C112.215 51.1733 111.831 51.06 111.371 51.06C111.005 51.06 110.675 51.1433 110.381 51.31C110.088 51.4767 109.855 51.7267 109.681 52.06C109.515 52.3867 109.431 52.79 109.431 53.27C109.431 53.75 109.515 54.1567 109.681 54.49C109.855 54.8233 110.088 55.0733 110.381 55.24C110.675 55.4067 111.005 55.49 111.371 55.49C111.831 55.49 112.215 55.38 112.521 55.16C112.835 54.9333 113.038 54.62 113.131 54.22H113.881C113.755 54.78 113.471 55.23 113.031 55.57C112.591 55.91 112.038 56.08 111.371 56.08C110.858 56.08 110.401 55.9667 110.001 55.74C109.601 55.5067 109.288 55.18 109.061 54.76C108.835 54.3333 108.721 53.8367 108.721 53.27ZM117.734 50.44C118.387 50.44 118.921 50.6433 119.334 51.05C119.747 51.45 119.954 52.0333 119.954 52.8V56H119.264V52.88C119.264 52.2867 119.114 51.8333 118.814 51.52C118.521 51.2067 118.117 51.05 117.604 51.05C117.077 51.05 116.657 51.2167 116.344 51.55C116.031 51.8833 115.874 52.3733 115.874 53.02V56H115.174V50.54H115.874V51.47C116.047 51.1367 116.297 50.8833 116.624 50.71C116.951 50.53 117.321 50.44 117.734 50.44ZM123.892 56.08C123.379 56.08 122.915 55.9667 122.502 55.74C122.095 55.5067 121.772 55.18 121.532 54.76C121.299 54.3333 121.182 53.8367 121.182 53.27C121.182 52.7033 121.302 52.21 121.542 51.79C121.782 51.3633 122.109 51.0367 122.522 50.81C122.935 50.5767 123.399 50.46 123.912 50.46C124.425 50.46 124.889 50.5767 125.302 50.81C125.722 51.0367 126.049 51.3633 126.282 51.79C126.522 52.21 126.642 52.7033 126.642 53.27C126.642 53.83 126.522 54.3233 126.282 54.75C126.042 55.1767 125.712 55.5067 125.292 55.74C124.872 55.9667 124.405 56.08 123.892 56.08ZM123.892 55.47C124.252 55.47 124.585 55.39 124.892 55.23C125.199 55.0633 125.445 54.8167 125.632 54.49C125.825 54.1567 125.922 53.75 125.922 53.27C125.922 52.79 125.829 52.3867 125.642 52.06C125.455 51.7267 125.209 51.48 124.902 51.32C124.595 51.1533 124.262 51.07 123.902 51.07C123.542 51.07 123.209 51.1533 122.902 51.32C122.595 51.48 122.349 51.7267 122.162 52.06C121.982 52.3867 121.892 52.79 121.892 53.27C121.892 53.75 121.982 54.1567 122.162 54.49C122.349 54.8167 122.592 55.0633 122.892 55.23C123.199 55.39 123.532 55.47 123.892 55.47ZM128.618 48.6V56H127.918V48.6H128.618ZM132.593 56.08C132.08 56.08 131.617 55.9667 131.203 55.74C130.797 55.5067 130.473 55.18 130.233 54.76C130 54.3333 129.883 53.8367 129.883 53.27C129.883 52.7033 130.003 52.21 130.243 51.79C130.483 51.3633 130.81 51.0367 131.223 50.81C131.637 50.5767 132.1 50.46 132.613 50.46C133.127 50.46 133.59 50.5767 134.003 50.81C134.423 51.0367 134.75 51.3633 134.983 51.79C135.223 52.21 135.343 52.7033 135.343 53.27C135.343 53.83 135.223 54.3233 134.983 54.75C134.743 55.1767 134.413 55.5067 133.993 55.74C133.573 55.9667 133.107 56.08 132.593 56.08ZM132.593 55.47C132.953 55.47 133.287 55.39 133.593 55.23C133.9 55.0633 134.147 54.8167 134.333 54.49C134.527 54.1567 134.623 53.75 134.623 53.27C134.623 52.79 134.53 52.3867 134.343 52.06C134.157 51.7267 133.91 51.48 133.603 51.32C133.297 51.1533 132.963 51.07 132.603 51.07C132.243 51.07 131.91 51.1533 131.603 51.32C131.297 51.48 131.05 51.7267 130.863 52.06C130.683 52.3867 130.593 52.79 130.593 53.27C130.593 53.75 130.683 54.1567 130.863 54.49C131.05 54.8167 131.293 55.0633 131.593 55.23C131.9 55.39 132.233 55.47 132.593 55.47ZM138.909 50.46C139.423 50.46 139.869 50.58 140.249 50.82C140.629 51.06 140.903 51.3633 141.069 51.73V50.54H141.769V56.14C141.769 56.64 141.659 57.0833 141.439 57.47C141.226 57.8567 140.926 58.1533 140.539 58.36C140.153 58.5733 139.713 58.68 139.219 58.68C138.519 58.68 137.936 58.5133 137.469 58.18C137.009 57.8467 136.723 57.3933 136.609 56.82H137.299C137.419 57.2 137.646 57.5033 137.979 57.73C138.319 57.9567 138.733 58.07 139.219 58.07C139.573 58.07 139.889 57.9933 140.169 57.84C140.449 57.6933 140.669 57.4733 140.829 57.18C140.989 56.8867 141.069 56.54 141.069 56.14V54.79C140.896 55.1633 140.619 55.4733 140.239 55.72C139.866 55.96 139.423 56.08 138.909 56.08C138.409 56.08 137.959 55.9633 137.559 55.73C137.166 55.4967 136.856 55.1667 136.629 54.74C136.409 54.3133 136.299 53.82 136.299 53.26C136.299 52.7 136.409 52.21 136.629 51.79C136.856 51.3633 137.166 51.0367 137.559 50.81C137.959 50.5767 138.409 50.46 138.909 50.46ZM141.069 53.27C141.069 52.83 140.979 52.4433 140.799 52.11C140.619 51.7767 140.373 51.52 140.059 51.34C139.753 51.16 139.413 51.07 139.039 51.07C138.653 51.07 138.306 51.1567 137.999 51.33C137.693 51.5033 137.449 51.7567 137.269 52.09C137.096 52.4167 137.009 52.8067 137.009 53.26C137.009 53.7067 137.096 54.1 137.269 54.44C137.449 54.7733 137.693 55.03 137.999 55.21C138.306 55.3833 138.653 55.47 139.039 55.47C139.413 55.47 139.753 55.38 140.059 55.2C140.373 55.02 140.619 54.7633 140.799 54.43C140.979 54.0967 141.069 53.71 141.069 53.27ZM143.717 49.51C143.577 49.51 143.457 49.46 143.357 49.36C143.257 49.26 143.207 49.1367 143.207 48.99C143.207 48.8433 143.257 48.7233 143.357 48.63C143.457 48.53 143.577 48.48 143.717 48.48C143.857 48.48 143.977 48.53 144.077 48.63C144.177 48.7233 144.227 48.8433 144.227 48.99C144.227 49.1367 144.177 49.26 144.077 49.36C143.977 49.46 143.857 49.51 143.717 49.51ZM144.067 50.54V56H143.367V50.54H144.067ZM145.333 53.26C145.333 52.7 145.443 52.21 145.663 51.79C145.889 51.3633 146.199 51.0367 146.593 50.81C146.993 50.5767 147.443 50.46 147.943 50.46C148.463 50.46 148.909 50.58 149.283 50.82C149.663 51.06 149.936 51.3667 150.103 51.74V50.54H150.803V56H150.103V54.79C149.929 55.1633 149.653 55.4733 149.273 55.72C148.899 55.96 148.453 56.08 147.933 56.08C147.439 56.08 146.993 55.9633 146.593 55.73C146.199 55.4967 145.889 55.1667 145.663 54.74C145.443 54.3133 145.333 53.82 145.333 53.26ZM150.103 53.27C150.103 52.83 150.013 52.4433 149.833 52.11C149.653 51.7767 149.406 51.52 149.093 51.34C148.786 51.16 148.446 51.07 148.073 51.07C147.686 51.07 147.339 51.1567 147.033 51.33C146.726 51.5033 146.483 51.7567 146.303 52.09C146.129 52.4167 146.043 52.8067 146.043 53.26C146.043 53.7067 146.129 54.1 146.303 54.44C146.483 54.7733 146.726 55.03 147.033 55.21C147.339 55.3833 147.686 55.47 148.073 55.47C148.446 55.47 148.786 55.38 149.093 55.2C149.406 55.02 149.653 54.7633 149.833 54.43C150.013 54.0967 150.103 53.71 150.103 53.27Z" fill="black"/>
<path d="M35.772 83.26C35.772 82.7 35.8853 82.21 36.112 81.79C36.3387 81.3633 36.6487 81.0367 37.042 80.81C37.442 80.5767 37.892 80.46 38.392 80.46C38.872 80.46 39.3053 80.5767 39.692 80.81C40.0787 81.0433 40.362 81.3467 40.542 81.72V78.6H41.242V86H40.542V84.78C40.3753 85.16 40.102 85.4733 39.722 85.72C39.342 85.96 38.8953 86.08 38.382 86.08C37.882 86.08 37.432 85.9633 37.032 85.73C36.6387 85.4967 36.3287 85.1667 36.102 84.74C35.882 84.3133 35.772 83.82 35.772 83.26ZM40.542 83.27C40.542 82.83 40.452 82.4433 40.272 82.11C40.092 81.7767 39.8453 81.52 39.532 81.34C39.2253 81.16 38.8853 81.07 38.512 81.07C38.1253 81.07 37.7787 81.1567 37.472 81.33C37.1653 81.5033 36.922 81.7567 36.742 82.09C36.5687 82.4167 36.482 82.8067 36.482 83.26C36.482 83.7067 36.5687 84.1 36.742 84.44C36.922 84.7733 37.1653 85.03 37.472 85.21C37.7787 85.3833 38.1253 85.47 38.512 85.47C38.8853 85.47 39.2253 85.38 39.532 85.2C39.8453 85.02 40.092 84.7633 40.272 84.43C40.452 84.0967 40.542 83.71 40.542 83.27ZM47.78 82.99C47.78 83.23 47.7734 83.4133 47.76 83.54H43.23C43.25 83.9533 43.35 84.3067 43.53 84.6C43.71 84.8933 43.9467 85.1167 44.24 85.27C44.5334 85.4167 44.8534 85.49 45.2 85.49C45.6534 85.49 46.0334 85.38 46.34 85.16C46.6534 84.94 46.86 84.6433 46.96 84.27H47.7C47.5667 84.8033 47.28 85.24 46.84 85.58C46.4067 85.9133 45.86 86.08 45.2 86.08C44.6867 86.08 44.2267 85.9667 43.82 85.74C43.4134 85.5067 43.0934 85.18 42.86 84.76C42.6334 84.3333 42.52 83.8367 42.52 83.27C42.52 82.7033 42.6334 82.2067 42.86 81.78C43.0867 81.3533 43.4034 81.0267 43.81 80.8C44.2167 80.5733 44.68 80.46 45.2 80.46C45.72 80.46 46.1734 80.5733 46.56 80.8C46.9534 81.0267 47.2534 81.3333 47.46 81.72C47.6734 82.1 47.78 82.5233 47.78 82.99ZM47.07 82.97C47.0767 82.5633 46.9934 82.2167 46.82 81.93C46.6534 81.6433 46.4234 81.4267 46.13 81.28C45.8367 81.1333 45.5167 81.06 45.17 81.06C44.65 81.06 44.2067 81.2267 43.84 81.56C43.4734 81.8933 43.27 82.3633 43.23 82.97H47.07ZM50.9407 86.08C50.3141 86.08 49.8007 85.9367 49.4007 85.65C49.0074 85.3567 48.7874 84.96 48.7407 84.46H49.4607C49.4941 84.7667 49.6374 85.0167 49.8907 85.21C50.1507 85.3967 50.4974 85.49 50.9307 85.49C51.3107 85.49 51.6074 85.4 51.8207 85.22C52.0407 85.04 52.1507 84.8167 52.1507 84.55C52.1507 84.3633 52.0907 84.21 51.9707 84.09C51.8507 83.97 51.6974 83.8767 51.5107 83.81C51.3307 83.7367 51.0841 83.66 50.7707 83.58C50.3641 83.4733 50.0341 83.3667 49.7807 83.26C49.5274 83.1533 49.3107 82.9967 49.1307 82.79C48.9574 82.5767 48.8707 82.2933 48.8707 81.94C48.8707 81.6733 48.9507 81.4267 49.1107 81.2C49.2707 80.9733 49.4974 80.7933 49.7907 80.66C50.0841 80.5267 50.4174 80.46 50.7907 80.46C51.3774 80.46 51.8507 80.61 52.2107 80.91C52.5707 81.2033 52.7641 81.61 52.7907 82.13H52.0907C52.0707 81.81 51.9441 81.5533 51.7107 81.36C51.4841 81.16 51.1707 81.06 50.7707 81.06C50.4174 81.06 50.1307 81.1433 49.9107 81.31C49.6907 81.4767 49.5807 81.6833 49.5807 81.93C49.5807 82.1433 49.6441 82.32 49.7707 82.46C49.9041 82.5933 50.0674 82.7 50.2607 82.78C50.4541 82.8533 50.7141 82.9367 51.0407 83.03C51.4341 83.1367 51.7474 83.24 51.9807 83.34C52.2141 83.44 52.4141 83.5867 52.5807 83.78C52.7474 83.9733 52.8341 84.23 52.8407 84.55C52.8407 84.8433 52.7607 85.1067 52.6007 85.34C52.4407 85.5667 52.2174 85.7467 51.9307 85.88C51.6441 86.0133 51.3141 86.08 50.9407 86.08ZM53.8384 83.27C53.8384 82.7033 53.9517 82.21 54.1784 81.79C54.4051 81.3633 54.7184 81.0367 55.1184 80.81C55.5184 80.5767 55.9751 80.46 56.4884 80.46C57.1617 80.46 57.7151 80.6267 58.1484 80.96C58.5884 81.2933 58.8717 81.7467 58.9984 82.32H58.2484C58.1551 81.9267 57.9517 81.62 57.6384 81.4C57.3317 81.1733 56.9484 81.06 56.4884 81.06C56.1217 81.06 55.7917 81.1433 55.4984 81.31C55.2051 81.4767 54.9717 81.7267 54.7984 82.06C54.6317 82.3867 54.5484 82.79 54.5484 83.27C54.5484 83.75 54.6317 84.1567 54.7984 84.49C54.9717 84.8233 55.2051 85.0733 55.4984 85.24C55.7917 85.4067 56.1217 85.49 56.4884 85.49C56.9484 85.49 57.3317 85.38 57.6384 85.16C57.9517 84.9333 58.1551 84.62 58.2484 84.22H58.9984C58.8717 84.78 58.5884 85.23 58.1484 85.57C57.7084 85.91 57.1551 86.08 56.4884 86.08C55.9751 86.08 55.5184 85.9667 55.1184 85.74C54.7184 85.5067 54.4051 85.18 54.1784 84.76C53.9517 84.3333 53.8384 83.8367 53.8384 83.27ZM60.9912 81.51C61.1445 81.17 61.3779 80.9067 61.6912 80.72C62.0112 80.5333 62.4012 80.44 62.8612 80.44V81.17H62.6712C62.1645 81.17 61.7579 81.3067 61.4512 81.58C61.1445 81.8533 60.9912 82.31 60.9912 82.95V86H60.2912V80.54H60.9912V81.51ZM64.2643 79.51C64.1243 79.51 64.0043 79.46 63.9043 79.36C63.8043 79.26 63.7543 79.1367 63.7543 78.99C63.7543 78.8433 63.8043 78.7233 63.9043 78.63C64.0043 78.53 64.1243 78.48 64.2643 78.48C64.4043 78.48 64.5243 78.53 64.6243 78.63C64.7243 78.7233 64.7743 78.8433 64.7743 78.99C64.7743 79.1367 64.7243 79.26 64.6243 79.36C64.5243 79.46 64.4043 79.51 64.2643 79.51ZM64.6143 80.54V86H63.9143V80.54H64.6143ZM68.5294 85.49C68.9894 85.49 69.3727 85.38 69.6794 85.16C69.9927 84.9333 70.1961 84.62 70.2894 84.22H71.0394C70.9194 84.7467 70.6594 85.1767 70.2594 85.51C69.8661 85.8433 69.3661 86.03 68.7594 86.07V86.67C69.1527 86.6567 69.4627 86.73 69.6894 86.89C69.9227 87.0567 70.0394 87.2933 70.0394 87.6C70.0394 87.9 69.9327 88.1367 69.7194 88.31C69.5061 88.49 69.2227 88.58 68.8694 88.58H67.8694V88.11H68.7294C68.9761 88.11 69.1561 88.0667 69.2694 87.98C69.3894 87.9 69.4494 87.7733 69.4494 87.6C69.4494 87.28 69.2094 87.12 68.7294 87.12H68.2694V86.07C67.8027 86.03 67.3894 85.8933 67.0294 85.66C66.6694 85.42 66.3861 85.0967 66.1794 84.69C65.9794 84.2767 65.8794 83.8033 65.8794 83.27C65.8794 82.7033 65.9927 82.21 66.2194 81.79C66.4461 81.3633 66.7594 81.0367 67.1594 80.81C67.5594 80.5767 68.0161 80.46 68.5294 80.46C69.2027 80.46 69.7561 80.6267 70.1894 80.96C70.6294 81.2933 70.9127 81.7467 71.0394 82.32H70.2894C70.1961 81.9267 69.9927 81.62 69.6794 81.4C69.3727 81.1733 68.9894 81.06 68.5294 81.06C68.1627 81.06 67.8327 81.1433 67.5394 81.31C67.2461 81.4767 67.0127 81.7267 66.8394 82.06C66.6727 82.3867 66.5894 82.79 66.5894 83.27C66.5894 83.75 66.6727 84.1567 66.8394 84.49C67.0127 84.8233 67.2461 85.0733 67.5394 85.24C67.8327 85.4067 68.1627 85.49 68.5294 85.49ZM72.0122 83.26C72.0122 82.7 72.1222 82.21 72.3422 81.79C72.5689 81.3633 72.8789 81.0367 73.2722 80.81C73.6722 80.5767 74.1222 80.46 74.6222 80.46C75.1422 80.46 75.5889 80.58 75.9622 80.82C76.3422 81.06 76.6156 81.3667 76.7822 81.74V80.54H77.4822V86H76.7822V84.79C76.6089 85.1633 76.3322 85.4733 75.9522 85.72C75.5789 85.96 75.1322 86.08 74.6122 86.08C74.1189 86.08 73.6722 85.9633 73.2722 85.73C72.8789 85.4967 72.5689 85.1667 72.3422 84.74C72.1222 84.3133 72.0122 83.82 72.0122 83.26ZM76.7822 83.27C76.7822 82.83 76.6922 82.4433 76.5122 82.11C76.3322 81.7767 76.0856 81.52 75.7722 81.34C75.4656 81.16 75.1256 81.07 74.7522 81.07C74.3656 81.07 74.0189 81.1567 73.7122 81.33C73.4056 81.5033 73.1622 81.7567 72.9822 82.09C72.8089 82.4167 72.7222 82.8067 72.7222 83.26C72.7222 83.7067 72.8089 84.1 72.9822 84.44C73.1622 84.7733 73.4056 85.03 73.7122 85.21C74.0189 85.3833 74.3656 85.47 74.7522 85.47C75.1256 85.47 75.4656 85.38 75.7722 85.2C76.0856 85.02 76.3322 84.7633 76.5122 84.43C76.6922 84.0967 76.7822 83.71 76.7822 83.27ZM73.6022 79.94C73.6422 79.64 73.7389 79.41 73.8922 79.25C74.0456 79.09 74.2422 79.01 74.4822 79.01C74.6022 79.01 74.7056 79.0333 74.7922 79.08C74.8789 79.12 74.9822 79.18 75.1022 79.26C75.2022 79.3333 75.2889 79.39 75.3622 79.43C75.4356 79.4633 75.5156 79.48 75.6022 79.48C75.7156 79.48 75.8122 79.4433 75.8922 79.37C75.9722 79.29 76.0222 79.1767 76.0422 79.03H76.4622C76.4356 79.3233 76.3389 79.5533 76.1722 79.72C76.0122 79.88 75.8122 79.96 75.5722 79.96C75.4456 79.96 75.3356 79.94 75.2422 79.9C75.1556 79.8533 75.0522 79.7867 74.9322 79.7C74.8389 79.6267 74.7556 79.5733 74.6822 79.54C74.6156 79.5067 74.5389 79.49 74.4522 79.49C74.2122 79.49 74.0722 79.64 74.0322 79.94H73.6022ZM81.4703 86.08C80.9569 86.08 80.4936 85.9667 80.0803 85.74C79.6736 85.5067 79.3503 85.18 79.1103 84.76C78.8769 84.3333 78.7603 83.8367 78.7603 83.27C78.7603 82.7033 78.8803 82.21 79.1203 81.79C79.3603 81.3633 79.6869 81.0367 80.1003 80.81C80.5136 80.5767 80.9769 80.46 81.4903 80.46C82.0036 80.46 82.4669 80.5767 82.8803 80.81C83.3003 81.0367 83.6269 81.3633 83.8603 81.79C84.1003 82.21 84.2203 82.7033 84.2203 83.27C84.2203 83.83 84.1003 84.3233 83.8603 84.75C83.6203 85.1767 83.2903 85.5067 82.8703 85.74C82.4503 85.9667 81.9836 86.08 81.4703 86.08ZM81.4703 85.47C81.8303 85.47 82.1636 85.39 82.4703 85.23C82.7769 85.0633 83.0236 84.8167 83.2103 84.49C83.4036 84.1567 83.5003 83.75 83.5003 83.27C83.5003 82.79 83.4069 82.3867 83.2203 82.06C83.0336 81.7267 82.7869 81.48 82.4803 81.32C82.1736 81.1533 81.8403 81.07 81.4803 81.07C81.1203 81.07 80.7869 81.1533 80.4803 81.32C80.1736 81.48 79.9269 81.7267 79.7403 82.06C79.5603 82.3867 79.4703 82.79 79.4703 83.27C79.4703 83.75 79.5603 84.1567 79.7403 84.49C79.9269 84.8167 80.1703 85.0633 80.4703 85.23C80.7769 85.39 81.1103 85.47 81.4703 85.47ZM88.8863 82V82.59H84.9963V82H88.8863ZM90.3618 83.26C90.3618 82.7 90.4752 82.21 90.7018 81.79C90.9285 81.3633 91.2385 81.0367 91.6318 80.81C92.0318 80.5767 92.4818 80.46 92.9818 80.46C93.4618 80.46 93.8952 80.5767 94.2818 80.81C94.6685 81.0433 94.9518 81.3467 95.1318 81.72V78.6H95.8318V86H95.1318V84.78C94.9652 85.16 94.6918 85.4733 94.3118 85.72C93.9318 85.96 93.4852 86.08 92.9718 86.08C92.4718 86.08 92.0218 85.9633 91.6218 85.73C91.2285 85.4967 90.9185 85.1667 90.6918 84.74C90.4718 84.3133 90.3618 83.82 90.3618 83.26ZM95.1318 83.27C95.1318 82.83 95.0418 82.4433 94.8618 82.11C94.6818 81.7767 94.4352 81.52 94.1218 81.34C93.8152 81.16 93.4752 81.07 93.1018 81.07C92.7152 81.07 92.3685 81.1567 92.0618 81.33C91.7552 81.5033 91.5118 81.7567 91.3318 82.09C91.1585 82.4167 91.0718 82.8067 91.0718 83.26C91.0718 83.7067 91.1585 84.1 91.3318 84.44C91.5118 84.7733 91.7552 85.03 92.0618 85.21C92.3685 85.3833 92.7152 85.47 93.1018 85.47C93.4752 85.47 93.8152 85.38 94.1218 85.2C94.4352 85.02 94.6818 84.7633 94.8618 84.43C95.0418 84.0967 95.1318 83.71 95.1318 83.27ZM97.1099 83.26C97.1099 82.7 97.2199 82.21 97.4399 81.79C97.6665 81.3633 97.9765 81.0367 98.3699 80.81C98.7699 80.5767 99.2199 80.46 99.7199 80.46C100.24 80.46 100.687 80.58 101.06 80.82C101.44 81.06 101.713 81.3667 101.88 81.74V80.54H102.58V86H101.88V84.79C101.707 85.1633 101.43 85.4733 101.05 85.72C100.677 85.96 100.23 86.08 99.7099 86.08C99.2165 86.08 98.7699 85.9633 98.3699 85.73C97.9765 85.4967 97.6665 85.1667 97.4399 84.74C97.2199 84.3133 97.1099 83.82 97.1099 83.26ZM101.88 83.27C101.88 82.83 101.79 82.4433 101.61 82.11C101.43 81.7767 101.183 81.52 100.87 81.34C100.563 81.16 100.223 81.07 99.8499 81.07C99.4632 81.07 99.1165 81.1567 98.8099 81.33C98.5032 81.5033 98.2599 81.7567 98.0799 82.09C97.9065 82.4167 97.8199 82.8067 97.8199 83.26C97.8199 83.7067 97.9065 84.1 98.0799 84.44C98.2599 84.7733 98.5032 85.03 98.8099 85.21C99.1165 85.3833 99.4632 85.47 99.8499 85.47C100.223 85.47 100.563 85.38 100.87 85.2C101.183 85.02 101.43 84.7633 101.61 84.43C101.79 84.0967 101.88 83.71 101.88 83.27ZM107.568 82V82.59H103.678V82H107.568ZM110.273 81.13V84.52C110.273 84.8533 110.337 85.0833 110.463 85.21C110.59 85.3367 110.813 85.4 111.133 85.4H111.773V86H111.023C110.53 86 110.163 85.8867 109.923 85.66C109.683 85.4267 109.563 85.0467 109.563 84.52V81.13H108.803V80.54H109.563V79.17H110.273V80.54H111.773V81.13H110.273ZM117.868 82.99C117.868 83.23 117.861 83.4133 117.848 83.54H113.318C113.338 83.9533 113.438 84.3067 113.618 84.6C113.798 84.8933 114.035 85.1167 114.328 85.27C114.621 85.4167 114.941 85.49 115.288 85.49C115.741 85.49 116.121 85.38 116.428 85.16C116.741 84.94 116.948 84.6433 117.048 84.27H117.788C117.655 84.8033 117.368 85.24 116.928 85.58C116.495 85.9133 115.948 86.08 115.288 86.08C114.775 86.08 114.315 85.9667 113.908 85.74C113.501 85.5067 113.181 85.18 112.948 84.76C112.721 84.3333 112.608 83.8367 112.608 83.27C112.608 82.7033 112.721 82.2067 112.948 81.78C113.175 81.3533 113.491 81.0267 113.898 80.8C114.305 80.5733 114.768 80.46 115.288 80.46C115.808 80.46 116.261 80.5733 116.648 80.8C117.041 81.0267 117.341 81.3333 117.548 81.72C117.761 82.1 117.868 82.5233 117.868 82.99ZM117.158 82.97C117.165 82.5633 117.081 82.2167 116.908 81.93C116.741 81.6433 116.511 81.4267 116.218 81.28C115.925 81.1333 115.605 81.06 115.258 81.06C114.738 81.06 114.295 81.2267 113.928 81.56C113.561 81.8933 113.358 82.3633 113.318 82.97H117.158ZM118.829 83.27C118.829 82.7033 118.942 82.21 119.169 81.79C119.395 81.3633 119.709 81.0367 120.109 80.81C120.509 80.5767 120.965 80.46 121.479 80.46C122.152 80.46 122.705 80.6267 123.139 80.96C123.579 81.2933 123.862 81.7467 123.989 82.32H123.239C123.145 81.9267 122.942 81.62 122.629 81.4C122.322 81.1733 121.939 81.06 121.479 81.06C121.112 81.06 120.782 81.1433 120.489 81.31C120.195 81.4767 119.962 81.7267 119.789 82.06C119.622 82.3867 119.539 82.79 119.539 83.27C119.539 83.75 119.622 84.1567 119.789 84.49C119.962 84.8233 120.195 85.0733 120.489 85.24C120.782 85.4067 121.112 85.49 121.479 85.49C121.939 85.49 122.322 85.38 122.629 85.16C122.942 84.9333 123.145 84.62 123.239 84.22H123.989C123.862 84.78 123.579 85.23 123.139 85.57C122.699 85.91 122.145 86.08 121.479 86.08C120.965 86.08 120.509 85.9667 120.109 85.74C119.709 85.5067 119.395 85.18 119.169 84.76C118.942 84.3333 118.829 83.8367 118.829 83.27ZM127.841 80.44C128.495 80.44 129.028 80.6433 129.441 81.05C129.855 81.45 130.061 82.0333 130.061 82.8V86H129.371V82.88C129.371 82.2867 129.221 81.8333 128.921 81.52C128.628 81.2067 128.225 81.05 127.711 81.05C127.185 81.05 126.765 81.2167 126.451 81.55C126.138 81.8833 125.981 82.3733 125.981 83.02V86H125.281V80.54H125.981V81.47C126.155 81.1367 126.405 80.8833 126.731 80.71C127.058 80.53 127.428 80.44 127.841 80.44ZM134 86.08C133.486 86.08 133.023 85.9667 132.61 85.74C132.203 85.5067 131.88 85.18 131.64 84.76C131.406 84.3333 131.29 83.8367 131.29 83.27C131.29 82.7033 131.41 82.21 131.65 81.79C131.89 81.3633 132.216 81.0367 132.63 80.81C133.043 80.5767 133.506 80.46 134.02 80.46C134.533 80.46 134.996 80.5767 135.41 80.81C135.83 81.0367 136.156 81.3633 136.39 81.79C136.63 82.21 136.75 82.7033 136.75 83.27C136.75 83.83 136.63 84.3233 136.39 84.75C136.15 85.1767 135.82 85.5067 135.4 85.74C134.98 85.9667 134.513 86.08 134 86.08ZM134 85.47C134.36 85.47 134.693 85.39 135 85.23C135.306 85.0633 135.553 84.8167 135.74 84.49C135.933 84.1567 136.03 83.75 136.03 83.27C136.03 82.79 135.936 82.3867 135.75 82.06C135.563 81.7267 135.316 81.48 135.01 81.32C134.703 81.1533 134.37 81.07 134.01 81.07C133.65 81.07 133.316 81.1533 133.01 81.32C132.703 81.48 132.456 81.7267 132.27 82.06C132.09 82.3867 132 82.79 132 83.27C132 83.75 132.09 84.1567 132.27 84.49C132.456 84.8167 132.7 85.0633 133 85.23C133.306 85.39 133.64 85.47 134 85.47ZM138.726 78.6V86H138.026V78.6H138.726ZM142.701 86.08C142.187 86.08 141.724 85.9667 141.311 85.74C140.904 85.5067 140.581 85.18 140.341 84.76C140.107 84.3333 139.991 83.8367 139.991 83.27C139.991 82.7033 140.111 82.21 140.351 81.79C140.591 81.3633 140.917 81.0367 141.331 80.81C141.744 80.5767 142.207 80.46 142.721 80.46C143.234 80.46 143.697 80.5767 144.111 80.81C144.531 81.0367 144.857 81.3633 145.091 81.79C145.331 82.21 145.451 82.7033 145.451 83.27C145.451 83.83 145.331 84.3233 145.091 84.75C144.851 85.1767 144.521 85.5067 144.101 85.74C143.681 85.9667 143.214 86.08 142.701 86.08ZM142.701 85.47C143.061 85.47 143.394 85.39 143.701 85.23C144.007 85.0633 144.254 84.8167 144.441 84.49C144.634 84.1567 144.731 83.75 144.731 83.27C144.731 82.79 144.637 82.3867 144.451 82.06C144.264 81.7267 144.017 81.48 143.711 81.32C143.404 81.1533 143.071 81.07 142.711 81.07C142.351 81.07 142.017 81.1533 141.711 81.32C141.404 81.48 141.157 81.7267 140.971 82.06C140.791 82.3867 140.701 82.79 140.701 83.27C140.701 83.75 140.791 84.1567 140.971 84.49C141.157 84.8167 141.401 85.0633 141.701 85.23C142.007 85.39 142.341 85.47 142.701 85.47ZM149.017 80.46C149.53 80.46 149.977 80.58 150.357 80.82C150.737 81.06 151.01 81.3633 151.177 81.73V80.54H151.877V86.14C151.877 86.64 151.767 87.0833 151.547 87.47C151.333 87.8567 151.033 88.1533 150.647 88.36C150.26 88.5733 149.82 88.68 149.327 88.68C148.627 88.68 148.043 88.5133 147.577 88.18C147.117 87.8467 146.83 87.3933 146.717 86.82H147.407C147.527 87.2 147.753 87.5033 148.087 87.73C148.427 87.9567 148.84 88.07 149.327 88.07C149.68 88.07 149.997 87.9933 150.277 87.84C150.557 87.6933 150.777 87.4733 150.937 87.18C151.097 86.8867 151.177 86.54 151.177 86.14V84.79C151.003 85.1633 150.727 85.4733 150.347 85.72C149.973 85.96 149.53 86.08 149.017 86.08C148.517 86.08 148.067 85.9633 147.667 85.73C147.273 85.4967 146.963 85.1667 146.737 84.74C146.517 84.3133 146.407 83.82 146.407 83.26C146.407 82.7 146.517 82.21 146.737 81.79C146.963 81.3633 147.273 81.0367 147.667 80.81C148.067 80.5767 148.517 80.46 149.017 80.46ZM151.177 83.27C151.177 82.83 151.087 82.4433 150.907 82.11C150.727 81.7767 150.48 81.52 150.167 81.34C149.86 81.16 149.52 81.07 149.147 81.07C148.76 81.07 148.413 81.1567 148.107 81.33C147.8 81.5033 147.557 81.7567 147.377 82.09C147.203 82.4167 147.117 82.8067 147.117 83.26C147.117 83.7067 147.203 84.1 147.377 84.44C147.557 84.7733 147.8 85.03 148.107 85.21C148.413 85.3833 148.76 85.47 149.147 85.47C149.52 85.47 149.86 85.38 150.167 85.2C150.48 85.02 150.727 84.7633 150.907 84.43C151.087 84.0967 151.177 83.71 151.177 83.27ZM153.825 79.51C153.685 79.51 153.565 79.46 153.465 79.36C153.365 79.26 153.315 79.1367 153.315 78.99C153.315 78.8433 153.365 78.7233 153.465 78.63C153.565 78.53 153.685 78.48 153.825 78.48C153.965 78.48 154.085 78.53 154.185 78.63C154.285 78.7233 154.335 78.8433 154.335 78.99C154.335 79.1367 154.285 79.26 154.185 79.36C154.085 79.46 153.965 79.51 153.825 79.51ZM154.175 80.54V86H153.475V80.54H154.175ZM155.44 83.26C155.44 82.7 155.55 82.21 155.77 81.79C155.997 81.3633 156.307 81.0367 156.7 80.81C157.1 80.5767 157.55 80.46 158.05 80.46C158.57 80.46 159.017 80.58 159.39 80.82C159.77 81.06 160.043 81.3667 160.21 81.74V80.54H160.91V86H160.21V84.79C160.037 85.1633 159.76 85.4733 159.38 85.72C159.007 85.96 158.56 86.08 158.04 86.08C157.547 86.08 157.1 85.9633 156.7 85.73C156.307 85.4967 155.997 85.1667 155.77 84.74C155.55 84.3133 155.44 83.82 155.44 83.26ZM160.21 83.27C160.21 82.83 160.12 82.4433 159.94 82.11C159.76 81.7767 159.513 81.52 159.2 81.34C158.893 81.16 158.553 81.07 158.18 81.07C157.793 81.07 157.447 81.1567 157.14 81.33C156.833 81.5033 156.59 81.7567 156.41 82.09C156.237 82.4167 156.15 82.8067 156.15 83.26C156.15 83.7067 156.237 84.1 156.41 84.44C156.59 84.7733 156.833 85.03 157.14 85.21C157.447 85.3833 157.793 85.47 158.18 85.47C158.553 85.47 158.893 85.38 159.2 85.2C159.513 85.02 159.76 84.7633 159.94 84.43C160.12 84.0967 160.21 83.71 160.21 83.27Z" fill="black"/>
<path d="M85.9798 161.08C85.3531 161.08 84.8398 160.937 84.4398 160.65C84.0465 160.357 83.8265 159.96 83.7798 159.46H84.4998C84.5331 159.767 84.6765 160.017 84.9298 160.21C85.1898 160.397 85.5365 160.49 85.9698 160.49C86.3498 160.49 86.6465 160.4 86.8598 160.22C87.0798 160.04 87.1898 159.817 87.1898 159.55C87.1898 159.363 87.1298 159.21 87.0098 159.09C86.8898 158.97 86.7365 158.877 86.5498 158.81C86.3698 158.737 86.1231 158.66 85.8098 158.58C85.4031 158.473 85.0731 158.367 84.8198 158.26C84.5665 158.153 84.3498 157.997 84.1698 157.79C83.9965 157.577 83.9098 157.293 83.9098 156.94C83.9098 156.673 83.9898 156.427 84.1498 156.2C84.3098 155.973 84.5365 155.793 84.8298 155.66C85.1231 155.527 85.4565 155.46 85.8298 155.46C86.4165 155.46 86.8898 155.61 87.2498 155.91C87.6098 156.203 87.8031 156.61 87.8298 157.13H87.1298C87.1098 156.81 86.9831 156.553 86.7498 156.36C86.5231 156.16 86.2098 156.06 85.8098 156.06C85.4565 156.06 85.1698 156.143 84.9498 156.31C84.7298 156.477 84.6198 156.683 84.6198 156.93C84.6198 157.143 84.6831 157.32 84.8098 157.46C84.9431 157.593 85.1065 157.7 85.2998 157.78C85.4931 157.853 85.7531 157.937 86.0798 158.03C86.4731 158.137 86.7865 158.24 87.0198 158.34C87.2531 158.44 87.4531 158.587 87.6198 158.78C87.7865 158.973 87.8731 159.23 87.8798 159.55C87.8798 159.843 87.7998 160.107 87.6398 160.34C87.4798 160.567 87.2565 160.747 86.9698 160.88C86.6831 161.013 86.3531 161.08 85.9798 161.08ZM90.1075 156.13V159.52C90.1075 159.853 90.1708 160.083 90.2975 160.21C90.4241 160.337 90.6475 160.4 90.9675 160.4H91.6075V161H90.8575C90.3641 161 89.9975 160.887 89.7575 160.66C89.5175 160.427 89.3975 160.047 89.3975 159.52V156.13H88.6375V155.54H89.3975V154.17H90.1075V155.54H91.6075V156.13H90.1075ZM92.4419 158.26C92.4419 157.7 92.5519 157.21 92.7719 156.79C92.9986 156.363 93.3086 156.037 93.7019 155.81C94.1019 155.577 94.5519 155.46 95.0519 155.46C95.5719 155.46 96.0186 155.58 96.3919 155.82C96.7719 156.06 97.0452 156.367 97.2119 156.74V155.54H97.9119V161H97.2119V159.79C97.0386 160.163 96.7619 160.473 96.3819 160.72C96.0086 160.96 95.5619 161.08 95.0419 161.08C94.5486 161.08 94.1019 160.963 93.7019 160.73C93.3086 160.497 92.9986 160.167 92.7719 159.74C92.5519 159.313 92.4419 158.82 92.4419 158.26ZM97.2119 158.27C97.2119 157.83 97.1219 157.443 96.9419 157.11C96.7619 156.777 96.5152 156.52 96.2019 156.34C95.8952 156.16 95.5552 156.07 95.1819 156.07C94.7952 156.07 94.4486 156.157 94.1419 156.33C93.8352 156.503 93.5919 156.757 93.4119 157.09C93.2386 157.417 93.1519 157.807 93.1519 158.26C93.1519 158.707 93.2386 159.1 93.4119 159.44C93.5919 159.773 93.8352 160.03 94.1419 160.21C94.4486 160.383 94.7952 160.47 95.1819 160.47C95.5552 160.47 95.8952 160.38 96.2019 160.2C96.5152 160.02 96.7619 159.763 96.9419 159.43C97.1219 159.097 97.2119 158.71 97.2119 158.27ZM100.42 156.13V159.52C100.42 159.853 100.483 160.083 100.61 160.21C100.737 160.337 100.96 160.4 101.28 160.4H101.92V161H101.17C100.677 161 100.31 160.887 100.07 160.66C99.83 160.427 99.71 160.047 99.71 159.52V156.13H98.95V155.54H99.71V154.17H100.42V155.54H101.92V156.13H100.42ZM107.804 155.54V161H107.104V160.04C106.944 160.38 106.698 160.64 106.364 160.82C106.031 161 105.658 161.09 105.244 161.09C104.591 161.09 104.058 160.89 103.644 160.49C103.231 160.083 103.024 159.497 103.024 158.73V155.54H103.714V158.65C103.714 159.243 103.861 159.697 104.154 160.01C104.454 160.323 104.861 160.48 105.374 160.48C105.901 160.48 106.321 160.313 106.634 159.98C106.948 159.647 107.104 159.157 107.104 158.51V155.54H107.804ZM111.283 161.08C110.656 161.08 110.143 160.937 109.743 160.65C109.349 160.357 109.129 159.96 109.083 159.46H109.803C109.836 159.767 109.979 160.017 110.233 160.21C110.493 160.397 110.839 160.49 111.273 160.49C111.653 160.49 111.949 160.4 112.163 160.22C112.383 160.04 112.493 159.817 112.493 159.55C112.493 159.363 112.433 159.21 112.313 159.09C112.193 158.97 112.039 158.877 111.853 158.81C111.673 158.737 111.426 158.66 111.113 158.58C110.706 158.473 110.376 158.367 110.123 158.26C109.869 158.153 109.653 157.997 109.473 157.79C109.299 157.577 109.213 157.293 109.213 156.94C109.213 156.673 109.293 156.427 109.453 156.2C109.613 155.973 109.839 155.793 110.133 155.66C110.426 155.527 110.759 155.46 111.133 155.46C111.719 155.46 112.193 155.61 112.553 155.91C112.913 156.203 113.106 156.61 113.133 157.13H112.433C112.413 156.81 112.286 156.553 112.053 156.36C111.826 156.16 111.513 156.06 111.113 156.06C110.759 156.06 110.473 156.143 110.253 156.31C110.033 156.477 109.923 156.683 109.923 156.93C109.923 157.143 109.986 157.32 110.113 157.46C110.246 157.593 110.409 157.7 110.603 157.78C110.796 157.853 111.056 157.937 111.383 158.03C111.776 158.137 112.089 158.24 112.323 158.34C112.556 158.44 112.756 158.587 112.923 158.78C113.089 158.973 113.176 159.23 113.183 159.55C113.183 159.843 113.103 160.107 112.943 160.34C112.783 160.567 112.559 160.747 112.273 160.88C111.986 161.013 111.656 161.08 111.283 161.08Z" fill="black"/>
<path d="M47.6108 108.26C47.6108 107.7 47.7241 107.21 47.9508 106.79C48.1774 106.363 48.4874 106.037 48.8808 105.81C49.2808 105.577 49.7308 105.46 50.2308 105.46C50.7108 105.46 51.1441 105.577 51.5308 105.81C51.9174 106.043 52.2008 106.347 52.3808 106.72V103.6H53.0808V111H52.3808V109.78C52.2141 110.16 51.9408 110.473 51.5608 110.72C51.1808 110.96 50.7341 111.08 50.2208 111.08C49.7208 111.08 49.2708 110.963 48.8708 110.73C48.4774 110.497 48.1674 110.167 47.9408 109.74C47.7208 109.313 47.6108 108.82 47.6108 108.26ZM52.3808 108.27C52.3808 107.83 52.2908 107.443 52.1108 107.11C51.9308 106.777 51.6841 106.52 51.3708 106.34C51.0641 106.16 50.7241 106.07 50.3508 106.07C49.9641 106.07 49.6174 106.157 49.3108 106.33C49.0041 106.503 48.7608 106.757 48.5808 107.09C48.4074 107.417 48.3208 107.807 48.3208 108.26C48.3208 108.707 48.4074 109.1 48.5808 109.44C48.7608 109.773 49.0041 110.03 49.3108 110.21C49.6174 110.383 49.9641 110.47 50.3508 110.47C50.7241 110.47 51.0641 110.38 51.3708 110.2C51.6841 110.02 51.9308 109.763 52.1108 109.43C52.2908 109.097 52.3808 108.71 52.3808 108.27ZM54.3588 108.26C54.3588 107.7 54.4688 107.21 54.6888 106.79C54.9155 106.363 55.2255 106.037 55.6188 105.81C56.0188 105.577 56.4688 105.46 56.9688 105.46C57.4888 105.46 57.9355 105.58 58.3088 105.82C58.6888 106.06 58.9621 106.367 59.1288 106.74V105.54H59.8288V111H59.1288V109.79C58.9555 110.163 58.6788 110.473 58.2988 110.72C57.9255 110.96 57.4788 111.08 56.9588 111.08C56.4655 111.08 56.0188 110.963 55.6188 110.73C55.2255 110.497 54.9155 110.167 54.6888 109.74C54.4688 109.313 54.3588 108.82 54.3588 108.26ZM59.1288 108.27C59.1288 107.83 59.0388 107.443 58.8588 107.11C58.6788 106.777 58.4321 106.52 58.1188 106.34C57.8121 106.16 57.4721 106.07 57.0988 106.07C56.7121 106.07 56.3655 106.157 56.0588 106.33C55.7521 106.503 55.5088 106.757 55.3288 107.09C55.1555 107.417 55.0688 107.807 55.0688 108.26C55.0688 108.707 55.1555 109.1 55.3288 109.44C55.5088 109.773 55.7521 110.03 56.0588 110.21C56.3655 110.383 56.7121 110.47 57.0988 110.47C57.4721 110.47 57.8121 110.38 58.1188 110.2C58.4321 110.02 58.6788 109.763 58.8588 109.43C59.0388 109.097 59.1288 108.71 59.1288 108.27ZM62.3369 106.13V109.52C62.3369 109.853 62.4002 110.083 62.5269 110.21C62.6535 110.337 62.8769 110.4 63.1969 110.4H63.8369V111H63.0869C62.5935 111 62.2269 110.887 61.9869 110.66C61.7469 110.427 61.6269 110.047 61.6269 109.52V106.13H60.8669V105.54H61.6269V104.17H62.3369V105.54H63.8369V106.13H62.3369ZM64.6713 108.26C64.6713 107.7 64.7813 107.21 65.0013 106.79C65.228 106.363 65.538 106.037 65.9313 105.81C66.3313 105.577 66.7813 105.46 67.2813 105.46C67.8013 105.46 68.248 105.58 68.6213 105.82C69.0013 106.06 69.2746 106.367 69.4413 106.74V105.54H70.1413V111H69.4413V109.79C69.268 110.163 68.9913 110.473 68.6113 110.72C68.238 110.96 67.7913 111.08 67.2713 111.08C66.778 111.08 66.3313 110.963 65.9313 110.73C65.538 110.497 65.228 110.167 65.0013 109.74C64.7813 109.313 64.6713 108.82 64.6713 108.26ZM69.4413 108.27C69.4413 107.83 69.3513 107.443 69.1713 107.11C68.9913 106.777 68.7446 106.52 68.4313 106.34C68.1246 106.16 67.7846 106.07 67.4113 106.07C67.0246 106.07 66.678 106.157 66.3713 106.33C66.0646 106.503 65.8213 106.757 65.6413 107.09C65.468 107.417 65.3813 107.807 65.3813 108.26C65.3813 108.707 65.468 109.1 65.6413 109.44C65.8213 109.773 66.0646 110.03 66.3713 110.21C66.678 110.383 67.0246 110.47 67.4113 110.47C67.7846 110.47 68.1246 110.38 68.4313 110.2C68.7446 110.02 68.9913 109.763 69.1713 109.43C69.3513 109.097 69.4413 108.71 69.4413 108.27ZM75.1294 107V107.59H71.2394V107H75.1294ZM76.6049 108.26C76.6049 107.7 76.7182 107.21 76.9449 106.79C77.1716 106.363 77.4816 106.037 77.8749 105.81C78.2749 105.577 78.7249 105.46 79.2249 105.46C79.7049 105.46 80.1382 105.577 80.5249 105.81C80.9116 106.043 81.1949 106.347 81.3749 106.72V103.6H82.0749V111H81.3749V109.78C81.2082 110.16 80.9349 110.473 80.5549 110.72C80.1749 110.96 79.7282 111.08 79.2149 111.08C78.7149 111.08 78.2649 110.963 77.8649 110.73C77.4716 110.497 77.1616 110.167 76.9349 109.74C76.7149 109.313 76.6049 108.82 76.6049 108.26ZM81.3749 108.27C81.3749 107.83 81.2849 107.443 81.1049 107.11C80.9249 106.777 80.6782 106.52 80.3649 106.34C80.0582 106.16 79.7182 106.07 79.3449 106.07C78.9582 106.07 78.6116 106.157 78.3049 106.33C77.9982 106.503 77.7549 106.757 77.5749 107.09C77.4016 107.417 77.3149 107.807 77.3149 108.26C77.3149 108.707 77.4016 109.1 77.5749 109.44C77.7549 109.773 77.9982 110.03 78.3049 110.21C78.6116 110.383 78.9582 110.47 79.3449 110.47C79.7182 110.47 80.0582 110.38 80.3649 110.2C80.6782 110.02 80.9249 109.763 81.1049 109.43C81.2849 109.097 81.3749 108.71 81.3749 108.27ZM88.6129 107.99C88.6129 108.23 88.6063 108.413 88.5929 108.54H84.0629C84.0829 108.953 84.1829 109.307 84.3629 109.6C84.5429 109.893 84.7796 110.117 85.0729 110.27C85.3663 110.417 85.6863 110.49 86.0329 110.49C86.4863 110.49 86.8663 110.38 87.1729 110.16C87.4863 109.94 87.6929 109.643 87.7929 109.27H88.5329C88.3996 109.803 88.1129 110.24 87.6729 110.58C87.2396 110.913 86.6929 111.08 86.0329 111.08C85.5196 111.08 85.0596 110.967 84.6529 110.74C84.2463 110.507 83.9263 110.18 83.6929 109.76C83.4663 109.333 83.3529 108.837 83.3529 108.27C83.3529 107.703 83.4663 107.207 83.6929 106.78C83.9196 106.353 84.2363 106.027 84.6429 105.8C85.0496 105.573 85.5129 105.46 86.0329 105.46C86.5529 105.46 87.0063 105.573 87.3929 105.8C87.7863 106.027 88.0863 106.333 88.2929 106.72C88.5063 107.1 88.6129 107.523 88.6129 107.99ZM87.9029 107.97C87.9096 107.563 87.8263 107.217 87.6529 106.93C87.4863 106.643 87.2563 106.427 86.9629 106.28C86.6696 106.133 86.3496 106.06 86.0029 106.06C85.4829 106.06 85.0396 106.227 84.6729 106.56C84.3063 106.893 84.1029 107.363 84.0629 107.97H87.9029ZM93.2837 107V107.59H89.3937V107H93.2837ZM95.4292 104.51C95.2892 104.51 95.1692 104.46 95.0692 104.36C94.9692 104.26 94.9192 104.137 94.9192 103.99C94.9192 103.843 94.9692 103.723 95.0692 103.63C95.1692 103.53 95.2892 103.48 95.4292 103.48C95.5692 103.48 95.6892 103.53 95.7892 103.63C95.8892 103.723 95.9392 103.843 95.9392 103.99C95.9392 104.137 95.8892 104.26 95.7892 104.36C95.6892 104.46 95.5692 104.51 95.4292 104.51ZM95.7792 105.54V111H95.0792V105.54H95.7792ZM99.9244 105.44C100.578 105.44 101.111 105.643 101.524 106.05C101.938 106.45 102.144 107.033 102.144 107.8V111H101.454V107.88C101.454 107.287 101.304 106.833 101.004 106.52C100.711 106.207 100.308 106.05 99.7944 106.05C99.2677 106.05 98.8477 106.217 98.5344 106.55C98.221 106.883 98.0644 107.373 98.0644 108.02V111H97.3644V105.54H98.0644V106.47C98.2377 106.137 98.4877 105.883 98.8144 105.71C99.141 105.53 99.511 105.44 99.9244 105.44ZM104.603 106.13V109.52C104.603 109.853 104.666 110.083 104.793 110.21C104.919 110.337 105.143 110.4 105.463 110.4H106.103V111H105.353C104.859 111 104.493 110.887 104.253 110.66C104.013 110.427 103.893 110.047 103.893 109.52V106.13H103.133V105.54H103.893V104.17H104.603V105.54H106.103V106.13H104.603ZM107.957 106.51C108.11 106.17 108.344 105.907 108.657 105.72C108.977 105.533 109.367 105.44 109.827 105.44V106.17H109.637C109.13 106.17 108.724 106.307 108.417 106.58C108.11 106.853 107.957 107.31 107.957 107.95V111H107.257V105.54H107.957V106.51ZM113.27 111.08C112.757 111.08 112.293 110.967 111.88 110.74C111.473 110.507 111.15 110.18 110.91 109.76C110.677 109.333 110.56 108.837 110.56 108.27C110.56 107.703 110.68 107.21 110.92 106.79C111.16 106.363 111.487 106.037 111.9 105.81C112.313 105.577 112.777 105.46 113.29 105.46C113.803 105.46 114.267 105.577 114.68 105.81C115.1 106.037 115.427 106.363 115.66 106.79C115.9 107.21 116.02 107.703 116.02 108.27C116.02 108.83 115.9 109.323 115.66 109.75C115.42 110.177 115.09 110.507 114.67 110.74C114.25 110.967 113.783 111.08 113.27 111.08ZM113.27 110.47C113.63 110.47 113.963 110.39 114.27 110.23C114.577 110.063 114.823 109.817 115.01 109.49C115.203 109.157 115.3 108.75 115.3 108.27C115.3 107.79 115.207 107.387 115.02 107.06C114.833 106.727 114.587 106.48 114.28 106.32C113.973 106.153 113.64 106.07 113.28 106.07C112.92 106.07 112.587 106.153 112.28 106.32C111.973 106.48 111.727 106.727 111.54 107.06C111.36 107.387 111.27 107.79 111.27 108.27C111.27 108.75 111.36 109.157 111.54 109.49C111.727 109.817 111.97 110.063 112.27 110.23C112.577 110.39 112.91 110.47 113.27 110.47ZM116.976 108.26C116.976 107.7 117.089 107.21 117.316 106.79C117.543 106.363 117.853 106.037 118.246 105.81C118.646 105.577 119.096 105.46 119.596 105.46C120.076 105.46 120.509 105.577 120.896 105.81C121.283 106.043 121.566 106.347 121.746 106.72V103.6H122.446V111H121.746V109.78C121.579 110.16 121.306 110.473 120.926 110.72C120.546 110.96 120.099 111.08 119.586 111.08C119.086 111.08 118.636 110.963 118.236 110.73C117.843 110.497 117.533 110.167 117.306 109.74C117.086 109.313 116.976 108.82 116.976 108.26ZM121.746 108.27C121.746 107.83 121.656 107.443 121.476 107.11C121.296 106.777 121.049 106.52 120.736 106.34C120.429 106.16 120.089 106.07 119.716 106.07C119.329 106.07 118.983 106.157 118.676 106.33C118.369 106.503 118.126 106.757 117.946 107.09C117.773 107.417 117.686 107.807 117.686 108.26C117.686 108.707 117.773 109.1 117.946 109.44C118.126 109.773 118.369 110.03 118.676 110.21C118.983 110.383 119.329 110.47 119.716 110.47C120.089 110.47 120.429 110.38 120.736 110.2C121.049 110.02 121.296 109.763 121.476 109.43C121.656 109.097 121.746 108.71 121.746 108.27ZM128.774 105.54V111H128.074V110.04C127.914 110.38 127.667 110.64 127.334 110.82C127.001 111 126.627 111.09 126.214 111.09C125.561 111.09 125.027 110.89 124.614 110.49C124.201 110.083 123.994 109.497 123.994 108.73V105.54H124.684V108.65C124.684 109.243 124.831 109.697 125.124 110.01C125.424 110.323 125.831 110.48 126.344 110.48C126.871 110.48 127.291 110.313 127.604 109.98C127.917 109.647 128.074 109.157 128.074 108.51V105.54H128.774ZM132.702 110.49C133.162 110.49 133.546 110.38 133.852 110.16C134.166 109.933 134.369 109.62 134.462 109.22H135.212C135.092 109.747 134.832 110.177 134.432 110.51C134.039 110.843 133.539 111.03 132.932 111.07V111.67C133.326 111.657 133.636 111.73 133.862 111.89C134.096 112.057 134.212 112.293 134.212 112.6C134.212 112.9 134.106 113.137 133.892 113.31C133.679 113.49 133.396 113.58 133.042 113.58H132.042V113.11H132.902C133.149 113.11 133.329 113.067 133.442 112.98C133.562 112.9 133.622 112.773 133.622 112.6C133.622 112.28 133.382 112.12 132.902 112.12H132.442V111.07C131.976 111.03 131.562 110.893 131.202 110.66C130.842 110.42 130.559 110.097 130.352 109.69C130.152 109.277 130.052 108.803 130.052 108.27C130.052 107.703 130.166 107.21 130.392 106.79C130.619 106.363 130.932 106.037 131.332 105.81C131.732 105.577 132.189 105.46 132.702 105.46C133.376 105.46 133.929 105.627 134.362 105.96C134.802 106.293 135.086 106.747 135.212 107.32H134.462C134.369 106.927 134.166 106.62 133.852 106.4C133.546 106.173 133.162 106.06 132.702 106.06C132.336 106.06 132.006 106.143 131.712 106.31C131.419 106.477 131.186 106.727 131.012 107.06C130.846 107.387 130.762 107.79 130.762 108.27C130.762 108.75 130.846 109.157 131.012 109.49C131.186 109.823 131.419 110.073 131.712 110.24C132.006 110.407 132.336 110.49 132.702 110.49ZM136.185 108.26C136.185 107.7 136.295 107.21 136.515 106.79C136.742 106.363 137.052 106.037 137.445 105.81C137.845 105.577 138.295 105.46 138.795 105.46C139.315 105.46 139.762 105.58 140.135 105.82C140.515 106.06 140.788 106.367 140.955 106.74V105.54H141.655V111H140.955V109.79C140.782 110.163 140.505 110.473 140.125 110.72C139.752 110.96 139.305 111.08 138.785 111.08C138.292 111.08 137.845 110.963 137.445 110.73C137.052 110.497 136.742 110.167 136.515 109.74C136.295 109.313 136.185 108.82 136.185 108.26ZM140.955 108.27C140.955 107.83 140.865 107.443 140.685 107.11C140.505 106.777 140.258 106.52 139.945 106.34C139.638 106.16 139.298 106.07 138.925 106.07C138.538 106.07 138.192 106.157 137.885 106.33C137.578 106.503 137.335 106.757 137.155 107.09C136.982 107.417 136.895 107.807 136.895 108.26C136.895 108.707 136.982 109.1 137.155 109.44C137.335 109.773 137.578 110.03 137.885 110.21C138.192 110.383 138.538 110.47 138.925 110.47C139.298 110.47 139.638 110.38 139.945 110.2C140.258 110.02 140.505 109.763 140.685 109.43C140.865 109.097 140.955 108.71 140.955 108.27ZM137.775 104.94C137.815 104.64 137.912 104.41 138.065 104.25C138.218 104.09 138.415 104.01 138.655 104.01C138.775 104.01 138.878 104.033 138.965 104.08C139.052 104.12 139.155 104.18 139.275 104.26C139.375 104.333 139.462 104.39 139.535 104.43C139.608 104.463 139.688 104.48 139.775 104.48C139.888 104.48 139.985 104.443 140.065 104.37C140.145 104.29 140.195 104.177 140.215 104.03H140.635C140.608 104.323 140.512 104.553 140.345 104.72C140.185 104.88 139.985 104.96 139.745 104.96C139.618 104.96 139.508 104.94 139.415 104.9C139.328 104.853 139.225 104.787 139.105 104.7C139.012 104.627 138.928 104.573 138.855 104.54C138.788 104.507 138.712 104.49 138.625 104.49C138.385 104.49 138.245 104.64 138.205 104.94H137.775ZM145.643 111.08C145.13 111.08 144.666 110.967 144.253 110.74C143.846 110.507 143.523 110.18 143.283 109.76C143.05 109.333 142.933 108.837 142.933 108.27C142.933 107.703 143.053 107.21 143.293 106.79C143.533 106.363 143.86 106.037 144.273 105.81C144.686 105.577 145.15 105.46 145.663 105.46C146.176 105.46 146.64 105.577 147.053 105.81C147.473 106.037 147.8 106.363 148.033 106.79C148.273 107.21 148.393 107.703 148.393 108.27C148.393 108.83 148.273 109.323 148.033 109.75C147.793 110.177 147.463 110.507 147.043 110.74C146.623 110.967 146.156 111.08 145.643 111.08ZM145.643 110.47C146.003 110.47 146.336 110.39 146.643 110.23C146.95 110.063 147.196 109.817 147.383 109.49C147.576 109.157 147.673 108.75 147.673 108.27C147.673 107.79 147.58 107.387 147.393 107.06C147.206 106.727 146.96 106.48 146.653 106.32C146.346 106.153 146.013 106.07 145.653 106.07C145.293 106.07 144.96 106.153 144.653 106.32C144.346 106.48 144.1 106.727 143.913 107.06C143.733 107.387 143.643 107.79 143.643 108.27C143.643 108.75 143.733 109.157 143.913 109.49C144.1 109.817 144.343 110.063 144.643 110.23C144.95 110.39 145.283 110.47 145.643 110.47Z" fill="black"/>
<path d="M43.5308 133.27C43.5308 132.703 43.6441 132.21 43.8708 131.79C44.0974 131.363 44.4108 131.037 44.8108 130.81C45.2108 130.577 45.6674 130.46 46.1808 130.46C46.8541 130.46 47.4074 130.627 47.8408 130.96C48.2808 131.293 48.5641 131.747 48.6908 132.32H47.9408C47.8474 131.927 47.6441 131.62 47.3308 131.4C47.0241 131.173 46.6408 131.06 46.1808 131.06C45.8141 131.06 45.4841 131.143 45.1908 131.31C44.8974 131.477 44.6641 131.727 44.4908 132.06C44.3241 132.387 44.2408 132.79 44.2408 133.27C44.2408 133.75 44.3241 134.157 44.4908 134.49C44.6641 134.823 44.8974 135.073 45.1908 135.24C45.4841 135.407 45.8141 135.49 46.1808 135.49C46.6408 135.49 47.0241 135.38 47.3308 135.16C47.6441 134.933 47.8474 134.62 47.9408 134.22H48.6908C48.5641 134.78 48.2808 135.23 47.8408 135.57C47.4008 135.91 46.8474 136.08 46.1808 136.08C45.6674 136.08 45.2108 135.967 44.8108 135.74C44.4108 135.507 44.0974 135.18 43.8708 134.76C43.6441 134.333 43.5308 133.837 43.5308 133.27ZM52.3736 136.08C51.8603 136.08 51.3969 135.967 50.9836 135.74C50.5769 135.507 50.2536 135.18 50.0136 134.76C49.7803 134.333 49.6636 133.837 49.6636 133.27C49.6636 132.703 49.7836 132.21 50.0236 131.79C50.2636 131.363 50.5903 131.037 51.0036 130.81C51.4169 130.577 51.8803 130.46 52.3936 130.46C52.9069 130.46 53.3703 130.577 53.7836 130.81C54.2036 131.037 54.5303 131.363 54.7636 131.79C55.0036 132.21 55.1236 132.703 55.1236 133.27C55.1236 133.83 55.0036 134.323 54.7636 134.75C54.5236 135.177 54.1936 135.507 53.7736 135.74C53.3536 135.967 52.8869 136.08 52.3736 136.08ZM52.3736 135.47C52.7336 135.47 53.0669 135.39 53.3736 135.23C53.6803 135.063 53.9269 134.817 54.1136 134.49C54.3069 134.157 54.4036 133.75 54.4036 133.27C54.4036 132.79 54.3103 132.387 54.1236 132.06C53.9369 131.727 53.6903 131.48 53.3836 131.32C53.0769 131.153 52.7436 131.07 52.3836 131.07C52.0236 131.07 51.6903 131.153 51.3836 131.32C51.0769 131.48 50.8303 131.727 50.6436 132.06C50.4636 132.387 50.3736 132.79 50.3736 133.27C50.3736 133.75 50.4636 134.157 50.6436 134.49C50.8303 134.817 51.0736 135.063 51.3736 135.23C51.6803 135.39 52.0136 135.47 52.3736 135.47ZM62.8996 130.44C63.5396 130.44 64.0596 130.643 64.4596 131.05C64.8663 131.45 65.0696 132.033 65.0696 132.8V136H64.3796V132.88C64.3796 132.287 64.2363 131.833 63.9496 131.52C63.6629 131.207 63.2729 131.05 62.7796 131.05C62.2663 131.05 61.8563 131.22 61.5496 131.56C61.2429 131.9 61.0896 132.393 61.0896 133.04V136H60.3996V132.88C60.3996 132.287 60.2563 131.833 59.9696 131.52C59.6829 131.207 59.2896 131.05 58.7896 131.05C58.2763 131.05 57.8663 131.22 57.5596 131.56C57.2529 131.9 57.0996 132.393 57.0996 133.04V136H56.3996V130.54H57.0996V131.48C57.2729 131.14 57.5196 130.883 57.8396 130.71C58.1596 130.53 58.5163 130.44 58.9096 130.44C59.3829 130.44 59.7963 130.553 60.1496 130.78C60.5096 131.007 60.7696 131.34 60.9296 131.78C61.0763 131.347 61.3263 131.017 61.6796 130.79C62.0396 130.557 62.4463 130.44 62.8996 130.44ZM71.5642 132.99C71.5642 133.23 71.5576 133.413 71.5442 133.54H67.0142C67.0342 133.953 67.1342 134.307 67.3142 134.6C67.4942 134.893 67.7309 135.117 68.0242 135.27C68.3176 135.417 68.6376 135.49 68.9842 135.49C69.4376 135.49 69.8176 135.38 70.1242 135.16C70.4376 134.94 70.6442 134.643 70.7442 134.27H71.4842C71.3509 134.803 71.0642 135.24 70.6242 135.58C70.1909 135.913 69.6442 136.08 68.9842 136.08C68.4709 136.08 68.0109 135.967 67.6042 135.74C67.1976 135.507 66.8776 135.18 66.6442 134.76C66.4176 134.333 66.3042 133.837 66.3042 133.27C66.3042 132.703 66.4176 132.207 66.6442 131.78C66.8709 131.353 67.1876 131.027 67.5942 130.8C68.0009 130.573 68.4642 130.46 68.9842 130.46C69.5042 130.46 69.9576 130.573 70.3442 130.8C70.7376 131.027 71.0376 131.333 71.2442 131.72C71.4576 132.1 71.5642 132.523 71.5642 132.99ZM70.8542 132.97C70.8609 132.563 70.7776 132.217 70.6042 131.93C70.4376 131.643 70.2076 131.427 69.9142 131.28C69.6209 131.133 69.3009 131.06 68.9542 131.06C68.4342 131.06 67.9909 131.227 67.6242 131.56C67.2576 131.893 67.0542 132.363 67.0142 132.97H70.8542ZM75.1749 135.49C75.6349 135.49 76.0183 135.38 76.3249 135.16C76.6383 134.933 76.8416 134.62 76.9349 134.22H77.6849C77.5649 134.747 77.3049 135.177 76.9049 135.51C76.5116 135.843 76.0116 136.03 75.4049 136.07V136.67C75.7983 136.657 76.1083 136.73 76.3349 136.89C76.5683 137.057 76.6849 137.293 76.6849 137.6C76.6849 137.9 76.5783 138.137 76.3649 138.31C76.1516 138.49 75.8683 138.58 75.5149 138.58H74.5149V138.11H75.3749C75.6216 138.11 75.8016 138.067 75.9149 137.98C76.0349 137.9 76.0949 137.773 76.0949 137.6C76.0949 137.28 75.8549 137.12 75.3749 137.12H74.9149V136.07C74.4483 136.03 74.0349 135.893 73.6749 135.66C73.3149 135.42 73.0316 135.097 72.8249 134.69C72.6249 134.277 72.5249 133.803 72.5249 133.27C72.5249 132.703 72.6383 132.21 72.8649 131.79C73.0916 131.363 73.4049 131.037 73.8049 130.81C74.2049 130.577 74.6616 130.46 75.1749 130.46C75.8483 130.46 76.4016 130.627 76.8349 130.96C77.2749 131.293 77.5583 131.747 77.6849 132.32H76.9349C76.8416 131.927 76.6383 131.62 76.3249 131.4C76.0183 131.173 75.6349 131.06 75.1749 131.06C74.8083 131.06 74.4783 131.143 74.1849 131.31C73.8916 131.477 73.6583 131.727 73.4849 132.06C73.3183 132.387 73.2349 132.79 73.2349 133.27C73.2349 133.75 73.3183 134.157 73.4849 134.49C73.6583 134.823 73.8916 135.073 74.1849 135.24C74.4783 135.407 74.8083 135.49 75.1749 135.49ZM81.3677 136.08C80.8544 136.08 80.3911 135.967 79.9777 135.74C79.5711 135.507 79.2477 135.18 79.0077 134.76C78.7744 134.333 78.6577 133.837 78.6577 133.27C78.6577 132.703 78.7777 132.21 79.0177 131.79C79.2577 131.363 79.5844 131.037 79.9977 130.81C80.4111 130.577 80.8744 130.46 81.3877 130.46C81.9011 130.46 82.3644 130.577 82.7777 130.81C83.1977 131.037 83.5244 131.363 83.7577 131.79C83.9977 132.21 84.1177 132.703 84.1177 133.27C84.1177 133.83 83.9977 134.323 83.7577 134.75C83.5177 135.177 83.1877 135.507 82.7677 135.74C82.3477 135.967 81.8811 136.08 81.3677 136.08ZM81.3677 135.47C81.7277 135.47 82.0611 135.39 82.3677 135.23C82.6744 135.063 82.9211 134.817 83.1077 134.49C83.3011 134.157 83.3977 133.75 83.3977 133.27C83.3977 132.79 83.3044 132.387 83.1177 132.06C82.9311 131.727 82.6844 131.48 82.3777 131.32C82.0711 131.153 81.7377 131.07 81.3777 131.07C81.0177 131.07 80.6844 131.153 80.3777 131.32C80.0711 131.48 79.8244 131.727 79.6377 132.06C79.4577 132.387 79.3677 132.79 79.3677 133.27C79.3677 133.75 79.4577 134.157 79.6377 134.49C79.8244 134.817 80.0677 135.063 80.3677 135.23C80.6744 135.39 81.0077 135.47 81.3677 135.47ZM88.7838 132V132.59H84.8938V132H88.7838ZM90.2593 133.26C90.2593 132.7 90.3726 132.21 90.5993 131.79C90.826 131.363 91.136 131.037 91.5293 130.81C91.9293 130.577 92.3793 130.46 92.8793 130.46C93.3593 130.46 93.7926 130.577 94.1793 130.81C94.566 131.043 94.8493 131.347 95.0293 131.72V128.6H95.7293V136H95.0293V134.78C94.8626 135.16 94.5893 135.473 94.2093 135.72C93.8293 135.96 93.3826 136.08 92.8693 136.08C92.3693 136.08 91.9193 135.963 91.5193 135.73C91.126 135.497 90.816 135.167 90.5893 134.74C90.3693 134.313 90.2593 133.82 90.2593 133.26ZM95.0293 133.27C95.0293 132.83 94.9393 132.443 94.7593 132.11C94.5793 131.777 94.3326 131.52 94.0193 131.34C93.7126 131.16 93.3726 131.07 92.9993 131.07C92.6126 131.07 92.266 131.157 91.9593 131.33C91.6526 131.503 91.4093 131.757 91.2293 132.09C91.056 132.417 90.9693 132.807 90.9693 133.26C90.9693 133.707 91.056 134.1 91.2293 134.44C91.4093 134.773 91.6526 135.03 91.9593 135.21C92.266 135.383 92.6126 135.47 92.9993 135.47C93.3726 135.47 93.7126 135.38 94.0193 135.2C94.3326 135.02 94.5793 134.763 94.7593 134.43C94.9393 134.097 95.0293 133.71 95.0293 133.27ZM102.267 132.99C102.267 133.23 102.261 133.413 102.247 133.54H97.7173C97.7373 133.953 97.8373 134.307 98.0173 134.6C98.1973 134.893 98.434 135.117 98.7273 135.27C99.0207 135.417 99.3407 135.49 99.6873 135.49C100.141 135.49 100.521 135.38 100.827 135.16C101.141 134.94 101.347 134.643 101.447 134.27H102.187C102.054 134.803 101.767 135.24 101.327 135.58C100.894 135.913 100.347 136.08 99.6873 136.08C99.174 136.08 98.714 135.967 98.3073 135.74C97.9007 135.507 97.5807 135.18 97.3473 134.76C97.1207 134.333 97.0073 133.837 97.0073 133.27C97.0073 132.703 97.1207 132.207 97.3473 131.78C97.574 131.353 97.8907 131.027 98.2973 130.8C98.704 130.573 99.1673 130.46 99.6873 130.46C100.207 130.46 100.661 130.573 101.047 130.8C101.441 131.027 101.741 131.333 101.947 131.72C102.161 132.1 102.267 132.523 102.267 132.99ZM101.557 132.97C101.564 132.563 101.481 132.217 101.307 131.93C101.141 131.643 100.911 131.427 100.617 131.28C100.324 131.133 100.004 131.06 99.6573 131.06C99.1373 131.06 98.694 131.227 98.3273 131.56C97.9607 131.893 97.7573 132.363 97.7173 132.97H101.557ZM106.938 132V132.59H103.048V132H106.938ZM113.674 132.99C113.674 133.23 113.667 133.413 113.654 133.54H109.124C109.144 133.953 109.244 134.307 109.424 134.6C109.604 134.893 109.84 135.117 110.134 135.27C110.427 135.417 110.747 135.49 111.094 135.49C111.547 135.49 111.927 135.38 112.234 135.16C112.547 134.94 112.754 134.643 112.854 134.27H113.594C113.46 134.803 113.174 135.24 112.734 135.58C112.3 135.913 111.754 136.08 111.094 136.08C110.58 136.08 110.12 135.967 109.714 135.74C109.307 135.507 108.987 135.18 108.754 134.76C108.527 134.333 108.414 133.837 108.414 133.27C108.414 132.703 108.527 132.207 108.754 131.78C108.98 131.353 109.297 131.027 109.704 130.8C110.11 130.573 110.574 130.46 111.094 130.46C111.614 130.46 112.067 130.573 112.454 130.8C112.847 131.027 113.147 131.333 113.354 131.72C113.567 132.1 113.674 132.523 113.674 132.99ZM112.964 132.97C112.97 132.563 112.887 132.217 112.714 131.93C112.547 131.643 112.317 131.427 112.024 131.28C111.73 131.133 111.41 131.06 111.064 131.06C110.544 131.06 110.1 131.227 109.734 131.56C109.367 131.893 109.164 132.363 109.124 132.97H112.964ZM116.894 135.32L118.734 130.54H119.474L117.284 136H116.494L114.304 130.54H115.054L116.894 135.32ZM122.813 136.08C122.3 136.08 121.836 135.967 121.423 135.74C121.016 135.507 120.693 135.18 120.453 134.76C120.22 134.333 120.103 133.837 120.103 133.27C120.103 132.703 120.223 132.21 120.463 131.79C120.703 131.363 121.03 131.037 121.443 130.81C121.856 130.577 122.32 130.46 122.833 130.46C123.346 130.46 123.81 130.577 124.223 130.81C124.643 131.037 124.97 131.363 125.203 131.79C125.443 132.21 125.563 132.703 125.563 133.27C125.563 133.83 125.443 134.323 125.203 134.75C124.963 135.177 124.633 135.507 124.213 135.74C123.793 135.967 123.326 136.08 122.813 136.08ZM122.813 135.47C123.173 135.47 123.506 135.39 123.813 135.23C124.12 135.063 124.366 134.817 124.553 134.49C124.746 134.157 124.843 133.75 124.843 133.27C124.843 132.79 124.75 132.387 124.563 132.06C124.376 131.727 124.13 131.48 123.823 131.32C123.516 131.153 123.183 131.07 122.823 131.07C122.463 131.07 122.13 131.153 121.823 131.32C121.516 131.48 121.27 131.727 121.083 132.06C120.903 132.387 120.813 132.79 120.813 133.27C120.813 133.75 120.903 134.157 121.083 134.49C121.27 134.817 121.513 135.063 121.813 135.23C122.12 135.39 122.453 135.47 122.813 135.47ZM127.539 128.6V136H126.839V128.6H127.539ZM133.854 130.54V136H133.154V135.04C132.994 135.38 132.748 135.64 132.414 135.82C132.081 136 131.708 136.09 131.294 136.09C130.641 136.09 130.108 135.89 129.694 135.49C129.281 135.083 129.074 134.497 129.074 133.73V130.54H129.764V133.65C129.764 134.243 129.911 134.697 130.204 135.01C130.504 135.323 130.911 135.48 131.424 135.48C131.951 135.48 132.371 135.313 132.684 134.98C132.998 134.647 133.154 134.157 133.154 133.51V130.54H133.854ZM137.782 135.49C138.242 135.49 138.626 135.38 138.932 135.16C139.246 134.933 139.449 134.62 139.542 134.22H140.292C140.172 134.747 139.912 135.177 139.512 135.51C139.119 135.843 138.619 136.03 138.012 136.07V136.67C138.406 136.657 138.716 136.73 138.942 136.89C139.176 137.057 139.292 137.293 139.292 137.6C139.292 137.9 139.186 138.137 138.972 138.31C138.759 138.49 138.476 138.58 138.122 138.58H137.122V138.11H137.982C138.229 138.11 138.409 138.067 138.522 137.98C138.642 137.9 138.702 137.773 138.702 137.6C138.702 137.28 138.462 137.12 137.982 137.12H137.522V136.07C137.056 136.03 136.642 135.893 136.282 135.66C135.922 135.42 135.639 135.097 135.432 134.69C135.232 134.277 135.132 133.803 135.132 133.27C135.132 132.703 135.246 132.21 135.472 131.79C135.699 131.363 136.012 131.037 136.412 130.81C136.812 130.577 137.269 130.46 137.782 130.46C138.456 130.46 139.009 130.627 139.442 130.96C139.882 131.293 140.166 131.747 140.292 132.32H139.542C139.449 131.927 139.246 131.62 138.932 131.4C138.626 131.173 138.242 131.06 137.782 131.06C137.416 131.06 137.086 131.143 136.792 131.31C136.499 131.477 136.266 131.727 136.092 132.06C135.926 132.387 135.842 132.79 135.842 133.27C135.842 133.75 135.926 134.157 136.092 134.49C136.266 134.823 136.499 135.073 136.792 135.24C137.086 135.407 137.416 135.49 137.782 135.49ZM141.265 133.26C141.265 132.7 141.375 132.21 141.595 131.79C141.822 131.363 142.132 131.037 142.525 130.81C142.925 130.577 143.375 130.46 143.875 130.46C144.395 130.46 144.842 130.58 145.215 130.82C145.595 131.06 145.868 131.367 146.035 131.74V130.54H146.735V136H146.035V134.79C145.862 135.163 145.585 135.473 145.205 135.72C144.832 135.96 144.385 136.08 143.865 136.08C143.372 136.08 142.925 135.963 142.525 135.73C142.132 135.497 141.822 135.167 141.595 134.74C141.375 134.313 141.265 133.82 141.265 133.26ZM146.035 133.27C146.035 132.83 145.945 132.443 145.765 132.11C145.585 131.777 145.338 131.52 145.025 131.34C144.718 131.16 144.378 131.07 144.005 131.07C143.618 131.07 143.272 131.157 142.965 131.33C142.658 131.503 142.415 131.757 142.235 132.09C142.062 132.417 141.975 132.807 141.975 133.26C141.975 133.707 142.062 134.1 142.235 134.44C142.415 134.773 142.658 135.03 142.965 135.21C143.272 135.383 143.618 135.47 144.005 135.47C144.378 135.47 144.718 135.38 145.025 135.2C145.338 135.02 145.585 134.763 145.765 134.43C145.945 134.097 146.035 133.71 146.035 133.27ZM142.855 129.94C142.895 129.64 142.992 129.41 143.145 129.25C143.298 129.09 143.495 129.01 143.735 129.01C143.855 129.01 143.958 129.033 144.045 129.08C144.132 129.12 144.235 129.18 144.355 129.26C144.455 129.333 144.542 129.39 144.615 129.43C144.688 129.463 144.768 129.48 144.855 129.48C144.968 129.48 145.065 129.443 145.145 129.37C145.225 129.29 145.275 129.177 145.295 129.03H145.715C145.688 129.323 145.592 129.553 145.425 129.72C145.265 129.88 145.065 129.96 144.825 129.96C144.698 129.96 144.588 129.94 144.495 129.9C144.408 129.853 144.305 129.787 144.185 129.7C144.092 129.627 144.008 129.573 143.935 129.54C143.868 129.507 143.792 129.49 143.705 129.49C143.465 129.49 143.325 129.64 143.285 129.94H142.855ZM150.723 136.08C150.21 136.08 149.747 135.967 149.333 135.74C148.927 135.507 148.603 135.18 148.363 134.76C148.13 134.333 148.013 133.837 148.013 133.27C148.013 132.703 148.133 132.21 148.373 131.79C148.613 131.363 148.94 131.037 149.353 130.81C149.767 130.577 150.23 130.46 150.743 130.46C151.257 130.46 151.72 130.577 152.133 130.81C152.553 131.037 152.88 131.363 153.113 131.79C153.353 132.21 153.473 132.703 153.473 133.27C153.473 133.83 153.353 134.323 153.113 134.75C152.873 135.177 152.543 135.507 152.123 135.74C151.703 135.967 151.237 136.08 150.723 136.08ZM150.723 135.47C151.083 135.47 151.417 135.39 151.723 135.23C152.03 135.063 152.277 134.817 152.463 134.49C152.657 134.157 152.753 133.75 152.753 133.27C152.753 132.79 152.66 132.387 152.473 132.06C152.287 131.727 152.04 131.48 151.733 131.32C151.427 131.153 151.093 131.07 150.733 131.07C150.373 131.07 150.04 131.153 149.733 131.32C149.427 131.48 149.18 131.727 148.993 132.06C148.813 132.387 148.723 132.79 148.723 133.27C148.723 133.75 148.813 134.157 148.993 134.49C149.18 134.817 149.423 135.063 149.723 135.23C150.03 135.39 150.363 135.47 150.723 135.47Z" fill="black"/>
<path d="M93 173C93 170.239 95.2386 168 98 168C100.761 168 103 170.239 103 173C103 175.761 100.761 178 98 178C95.2386 178 93 175.761 93 173Z" fill="#C4C4C4"/>
<path d="M108 13.75H88C86.6212 13.75 85.5 14.8712 85.5 16.25V33.75C85.5 35.1287 86.6212 36.25 88 36.25H108C109.379 36.25 110.5 35.1287 110.5 33.75V16.25C110.5 14.8712 109.379 13.75 108 13.75ZM88 33.75V18.75H108L108.003 33.75H88Z" fill="black"/>
<path d="M94.6163 21.6162L89.9825 26.25L94.6163 30.8837L96.3838 29.1162L93.5175 26.25L96.3838 23.3837L94.6163 21.6162ZM101.384 21.6162L99.6163 23.3837L102.483 26.25L99.6163 29.1162L101.384 30.8837L106.018 26.25L101.384 21.6162Z" fill="black"/>
</svg>
