<svg width="450" height="290" viewBox="0 0 450 290" fill="none" xmlns="http://www.w3.org/2000/svg">
<path d="M445 0.5H5C2.51472 0.5 0.5 2.51472 0.5 5V285C0.5 287.485 2.51472 289.5 5 289.5H445C447.485 289.5 449.5 287.485 449.5 285V5C449.5 2.51472 447.485 0.5 445 0.5Z" stroke="black"/>
<path d="M124.019 75.88C125.325 75.88 126.392 76.2867 127.219 77.1C128.045 77.9 128.459 79.0667 128.459 80.6V87H127.079V80.76C127.079 79.5733 126.779 78.6667 126.179 78.04C125.592 77.4133 124.785 77.1 123.759 77.1C122.705 77.1 121.865 77.4333 121.239 78.1C120.612 78.7667 120.299 79.7467 120.299 81.04V87H118.899V76.08H120.299V77.94C120.645 77.2733 121.145 76.7667 121.799 76.42C122.452 76.06 123.192 75.88 124.019 75.88ZM136.335 87.16C135.308 87.16 134.382 86.9333 133.555 86.48C132.742 86.0133 132.095 85.36 131.615 84.52C131.148 83.6667 130.915 82.6733 130.915 81.54C130.915 80.4067 131.155 79.42 131.635 78.58C132.115 77.7267 132.768 77.0733 133.595 76.62C134.422 76.1533 135.348 75.92 136.375 75.92C137.402 75.92 138.328 76.1533 139.155 76.62C139.995 77.0733 140.648 77.7267 141.115 78.58C141.595 79.42 141.835 80.4067 141.835 81.54C141.835 82.66 141.595 83.6467 141.115 84.5C140.635 85.3533 139.975 86.0133 139.135 86.48C138.295 86.9333 137.362 87.16 136.335 87.16ZM136.335 85.94C137.055 85.94 137.722 85.78 138.335 85.46C138.948 85.1267 139.442 84.6333 139.815 83.98C140.202 83.3133 140.395 82.5 140.395 81.54C140.395 80.58 140.208 79.7733 139.835 79.12C139.462 78.4533 138.968 77.96 138.355 77.64C137.742 77.3067 137.075 77.14 136.355 77.14C135.635 77.14 134.968 77.3067 134.355 77.64C133.742 77.96 133.248 78.4533 132.875 79.12C132.515 79.7733 132.335 80.58 132.335 81.54C132.335 82.5 132.515 83.3133 132.875 83.98C133.248 84.6333 133.735 85.1267 134.335 85.46C134.948 85.78 135.615 85.94 136.335 85.94ZM157.387 75.88C158.667 75.88 159.707 76.2867 160.507 77.1C161.32 77.9 161.727 79.0667 161.727 80.6V87H160.347V80.76C160.347 79.5733 160.06 78.6667 159.487 78.04C158.914 77.4133 158.134 77.1 157.147 77.1C156.12 77.1 155.3 77.44 154.687 78.12C154.074 78.8 153.767 79.7867 153.767 81.08V87H152.387V80.76C152.387 79.5733 152.1 78.6667 151.527 78.04C150.954 77.4133 150.167 77.1 149.167 77.1C148.14 77.1 147.32 77.44 146.707 78.12C146.094 78.8 145.787 79.7867 145.787 81.08V87H144.387V76.08H145.787V77.96C146.134 77.28 146.627 76.7667 147.267 76.42C147.907 76.06 148.62 75.88 149.407 75.88C150.354 75.88 151.18 76.1067 151.887 76.56C152.607 77.0133 153.127 77.68 153.447 78.56C153.74 77.6933 154.24 77.0333 154.947 76.58C155.667 76.1133 156.48 75.88 157.387 75.88ZM174.716 80.98C174.716 81.46 174.703 81.8267 174.676 82.08H165.616C165.656 82.9067 165.856 83.6133 166.216 84.2C166.576 84.7867 167.05 85.2333 167.636 85.54C168.223 85.8333 168.863 85.98 169.556 85.98C170.463 85.98 171.223 85.76 171.836 85.32C172.463 84.88 172.876 84.2867 173.076 83.54H174.556C174.29 84.6067 173.716 85.48 172.836 86.16C171.97 86.8267 170.876 87.16 169.556 87.16C168.53 87.16 167.61 86.9333 166.796 86.48C165.983 86.0133 165.343 85.36 164.876 84.52C164.423 83.6667 164.196 82.6733 164.196 81.54C164.196 80.4067 164.423 79.4133 164.876 78.56C165.33 77.7067 165.963 77.0533 166.776 76.6C167.59 76.1467 168.516 75.92 169.556 75.92C170.596 75.92 171.503 76.1467 172.276 76.6C173.063 77.0533 173.663 77.6667 174.076 78.44C174.503 79.2 174.716 80.0467 174.716 80.98ZM173.296 80.94C173.31 80.1267 173.143 79.4333 172.796 78.86C172.463 78.2867 172.003 77.8533 171.416 77.56C170.83 77.2667 170.19 77.12 169.496 77.12C168.456 77.12 167.57 77.4533 166.836 78.12C166.103 78.7867 165.696 79.7267 165.616 80.94H173.296ZM184.058 79V80.18H176.278V79H184.058ZM187.009 81.52C187.009 80.4 187.235 79.42 187.689 78.58C188.142 77.7267 188.762 77.0733 189.549 76.62C190.349 76.1533 191.249 75.92 192.249 75.92C193.209 75.92 194.075 76.1533 194.849 76.62C195.622 77.0867 196.189 77.6933 196.549 78.44V72.2H197.949V87H196.549V84.56C196.215 85.32 195.669 85.9467 194.909 86.44C194.149 86.92 193.255 87.16 192.229 87.16C191.229 87.16 190.329 86.9267 189.529 86.46C188.742 85.9933 188.122 85.3333 187.669 84.48C187.229 83.6267 187.009 82.64 187.009 81.52ZM196.549 81.54C196.549 80.66 196.369 79.8867 196.009 79.22C195.649 78.5533 195.155 78.04 194.529 77.68C193.915 77.32 193.235 77.14 192.489 77.14C191.715 77.14 191.022 77.3133 190.409 77.66C189.795 78.0067 189.309 78.5133 188.949 79.18C188.602 79.8333 188.429 80.6133 188.429 81.52C188.429 82.4133 188.602 83.2 188.949 83.88C189.309 84.5467 189.795 85.06 190.409 85.42C191.022 85.7667 191.715 85.94 192.489 85.94C193.235 85.94 193.915 85.76 194.529 85.4C195.155 85.04 195.649 84.5267 196.009 83.86C196.369 83.1933 196.549 82.42 196.549 81.54ZM200.505 81.52C200.505 80.4 200.725 79.42 201.165 78.58C201.618 77.7267 202.238 77.0733 203.025 76.62C203.825 76.1533 204.725 75.92 205.725 75.92C206.765 75.92 207.658 76.16 208.405 76.64C209.165 77.12 209.712 77.7333 210.045 78.48V76.08H211.445V87H210.045V84.58C209.698 85.3267 209.145 85.9467 208.385 86.44C207.638 86.92 206.745 87.16 205.705 87.16C204.718 87.16 203.825 86.9267 203.025 86.46C202.238 85.9933 201.618 85.3333 201.165 84.48C200.725 83.6267 200.505 82.64 200.505 81.52ZM210.045 81.54C210.045 80.66 209.865 79.8867 209.505 79.22C209.145 78.5533 208.652 78.04 208.025 77.68C207.412 77.32 206.732 77.14 205.985 77.14C205.212 77.14 204.518 77.3133 203.905 77.66C203.292 78.0067 202.805 78.5133 202.445 79.18C202.098 79.8333 201.925 80.6133 201.925 81.52C201.925 82.4133 202.098 83.2 202.445 83.88C202.805 84.5467 203.292 85.06 203.905 85.42C204.518 85.7667 205.212 85.94 205.985 85.94C206.732 85.94 207.412 85.76 208.025 85.4C208.652 85.04 209.145 84.5267 209.505 83.86C209.865 83.1933 210.045 82.42 210.045 81.54ZM221.421 79V80.18H213.641V79H221.421ZM226.832 77.26V84.04C226.832 84.7067 226.959 85.1667 227.212 85.42C227.465 85.6733 227.912 85.8 228.552 85.8H229.832V87H228.332C227.345 87 226.612 86.7733 226.132 86.32C225.652 85.8533 225.412 85.0933 225.412 84.04V77.26H223.892V76.08H225.412V73.34H226.832V76.08H229.832V77.26H226.832ZM242.021 80.98C242.021 81.46 242.008 81.8267 241.981 82.08H232.921C232.961 82.9067 233.161 83.6133 233.521 84.2C233.881 84.7867 234.354 85.2333 234.941 85.54C235.528 85.8333 236.168 85.98 236.861 85.98C237.768 85.98 238.528 85.76 239.141 85.32C239.768 84.88 240.181 84.2867 240.381 83.54H241.861C241.594 84.6067 241.021 85.48 240.141 86.16C239.274 86.8267 238.181 87.16 236.861 87.16C235.834 87.16 234.914 86.9333 234.101 86.48C233.288 86.0133 232.648 85.36 232.181 84.52C231.728 83.6667 231.501 82.6733 231.501 81.54C231.501 80.4067 231.728 79.4133 232.181 78.56C232.634 77.7067 233.268 77.0533 234.081 76.6C234.894 76.1467 235.821 75.92 236.861 75.92C237.901 75.92 238.808 76.1467 239.581 76.6C240.368 77.0533 240.968 77.6667 241.381 78.44C241.808 79.2 242.021 80.0467 242.021 80.98ZM240.601 80.94C240.614 80.1267 240.448 79.4333 240.101 78.86C239.768 78.2867 239.308 77.8533 238.721 77.56C238.134 77.2667 237.494 77.12 236.801 77.12C235.761 77.12 234.874 77.4533 234.141 78.12C233.408 78.7867 233.001 79.7267 232.921 80.94H240.601ZM243.942 81.54C243.942 80.4067 244.169 79.42 244.622 78.58C245.076 77.7267 245.702 77.0733 246.502 76.62C247.302 76.1533 248.216 75.92 249.242 75.92C250.589 75.92 251.696 76.2533 252.562 76.92C253.442 77.5867 254.009 78.4933 254.262 79.64H252.762C252.576 78.8533 252.169 78.24 251.542 77.8C250.929 77.3467 250.162 77.12 249.242 77.12C248.509 77.12 247.849 77.2867 247.262 77.62C246.676 77.9533 246.209 78.4533 245.862 79.12C245.529 79.7733 245.362 80.58 245.362 81.54C245.362 82.5 245.529 83.3133 245.862 83.98C246.209 84.6467 246.676 85.1467 247.262 85.48C247.849 85.8133 248.509 85.98 249.242 85.98C250.162 85.98 250.929 85.76 251.542 85.32C252.169 84.8667 252.576 84.24 252.762 83.44H254.262C254.009 84.56 253.442 85.46 252.562 86.14C251.682 86.82 250.576 87.16 249.242 87.16C248.216 87.16 247.302 86.9333 246.502 86.48C245.702 86.0133 245.076 85.36 244.622 84.52C244.169 83.6667 243.942 82.6733 243.942 81.54ZM261.968 75.88C263.275 75.88 264.341 76.2867 265.168 77.1C265.995 77.9 266.408 79.0667 266.408 80.6V87H265.028V80.76C265.028 79.5733 264.728 78.6667 264.128 78.04C263.541 77.4133 262.735 77.1 261.708 77.1C260.655 77.1 259.815 77.4333 259.188 78.1C258.561 78.7667 258.248 79.7467 258.248 81.04V87H256.848V76.08H258.248V77.94C258.595 77.2733 259.095 76.7667 259.748 76.42C260.401 76.06 261.141 75.88 261.968 75.88ZM274.284 87.16C273.258 87.16 272.331 86.9333 271.504 86.48C270.691 86.0133 270.044 85.36 269.564 84.52C269.098 83.6667 268.864 82.6733 268.864 81.54C268.864 80.4067 269.104 79.42 269.584 78.58C270.064 77.7267 270.718 77.0733 271.544 76.62C272.371 76.1533 273.298 75.92 274.324 75.92C275.351 75.92 276.278 76.1533 277.104 76.62C277.944 77.0733 278.598 77.7267 279.064 78.58C279.544 79.42 279.784 80.4067 279.784 81.54C279.784 82.66 279.544 83.6467 279.064 84.5C278.584 85.3533 277.924 86.0133 277.084 86.48C276.244 86.9333 275.311 87.16 274.284 87.16ZM274.284 85.94C275.004 85.94 275.671 85.78 276.284 85.46C276.898 85.1267 277.391 84.6333 277.764 83.98C278.151 83.3133 278.344 82.5 278.344 81.54C278.344 80.58 278.158 79.7733 277.784 79.12C277.411 78.4533 276.918 77.96 276.304 77.64C275.691 77.3067 275.024 77.14 274.304 77.14C273.584 77.14 272.918 77.3067 272.304 77.64C271.691 77.96 271.198 78.4533 270.824 79.12C270.464 79.7733 270.284 80.58 270.284 81.54C270.284 82.5 270.464 83.3133 270.824 83.98C271.198 84.6333 271.684 85.1267 272.284 85.46C272.898 85.78 273.564 85.94 274.284 85.94ZM283.736 72.2V87H282.336V72.2H283.736ZM291.687 87.16C290.66 87.16 289.733 86.9333 288.907 86.48C288.093 86.0133 287.447 85.36 286.967 84.52C286.5 83.6667 286.267 82.6733 286.267 81.54C286.267 80.4067 286.507 79.42 286.987 78.58C287.467 77.7267 288.12 77.0733 288.947 76.62C289.773 76.1533 290.7 75.92 291.727 75.92C292.753 75.92 293.68 76.1533 294.507 76.62C295.347 77.0733 296 77.7267 296.467 78.58C296.947 79.42 297.187 80.4067 297.187 81.54C297.187 82.66 296.947 83.6467 296.467 84.5C295.987 85.3533 295.327 86.0133 294.487 86.48C293.647 86.9333 292.713 87.16 291.687 87.16ZM291.687 85.94C292.407 85.94 293.073 85.78 293.687 85.46C294.3 85.1267 294.793 84.6333 295.167 83.98C295.553 83.3133 295.747 82.5 295.747 81.54C295.747 80.58 295.56 79.7733 295.187 79.12C294.813 78.4533 294.32 77.96 293.707 77.64C293.093 77.3067 292.427 77.14 291.707 77.14C290.987 77.14 290.32 77.3067 289.707 77.64C289.093 77.96 288.6 78.4533 288.227 79.12C287.867 79.7733 287.687 80.58 287.687 81.54C287.687 82.5 287.867 83.3133 288.227 83.98C288.6 84.6333 289.087 85.1267 289.687 85.46C290.3 85.78 290.967 85.94 291.687 85.94ZM304.319 75.92C305.345 75.92 306.239 76.16 306.999 76.64C307.759 77.12 308.305 77.7267 308.639 78.46V76.08H310.039V87.28C310.039 88.28 309.819 89.1667 309.379 89.94C308.952 90.7133 308.352 91.3067 307.579 91.72C306.805 92.1467 305.925 92.36 304.939 92.36C303.539 92.36 302.372 92.0267 301.439 91.36C300.519 90.6933 299.945 89.7867 299.719 88.64H301.099C301.339 89.4 301.792 90.0067 302.459 90.46C303.139 90.9133 303.965 91.14 304.939 91.14C305.645 91.14 306.279 90.9867 306.839 90.68C307.399 90.3867 307.839 89.9467 308.159 89.36C308.479 88.7733 308.639 88.08 308.639 87.28V84.58C308.292 85.3267 307.739 85.9467 306.979 86.44C306.232 86.92 305.345 87.16 304.319 87.16C303.319 87.16 302.419 86.9267 301.619 86.46C300.832 85.9933 300.212 85.3333 299.759 84.48C299.319 83.6267 299.099 82.64 299.099 81.52C299.099 80.4 299.319 79.42 299.759 78.58C300.212 77.7267 300.832 77.0733 301.619 76.62C302.419 76.1533 303.319 75.92 304.319 75.92ZM308.639 81.54C308.639 80.66 308.459 79.8867 308.099 79.22C307.739 78.5533 307.245 78.04 306.619 77.68C306.005 77.32 305.325 77.14 304.579 77.14C303.805 77.14 303.112 77.3133 302.499 77.66C301.885 78.0067 301.399 78.5133 301.039 79.18C300.692 79.8333 300.519 80.6133 300.519 81.52C300.519 82.4133 300.692 83.2 301.039 83.88C301.399 84.5467 301.885 85.06 302.499 85.42C303.112 85.7667 303.805 85.94 304.579 85.94C305.325 85.94 306.005 85.76 306.619 85.4C307.245 85.04 307.739 84.5267 308.099 83.86C308.459 83.1933 308.639 82.42 308.639 81.54ZM313.935 74.02C313.655 74.02 313.415 73.92 313.215 73.72C313.015 73.52 312.915 73.2733 312.915 72.98C312.915 72.6867 313.015 72.4467 313.215 72.26C313.415 72.06 313.655 71.96 313.935 71.96C314.215 71.96 314.455 72.06 314.655 72.26C314.855 72.4467 314.955 72.6867 314.955 72.98C314.955 73.2733 314.855 73.52 314.655 73.72C314.455 73.92 314.215 74.02 313.935 74.02ZM314.635 76.08V87H313.235V76.08H314.635ZM317.165 81.52C317.165 80.4 317.385 79.42 317.825 78.58C318.278 77.7267 318.898 77.0733 319.685 76.62C320.485 76.1533 321.385 75.92 322.385 75.92C323.425 75.92 324.318 76.16 325.065 76.64C325.825 77.12 326.372 77.7333 326.705 78.48V76.08H328.105V87H326.705V84.58C326.358 85.3267 325.805 85.9467 325.045 86.44C324.298 86.92 323.405 87.16 322.365 87.16C321.378 87.16 320.485 86.9267 319.685 86.46C318.898 85.9933 318.278 85.3333 317.825 84.48C317.385 83.6267 317.165 82.64 317.165 81.52ZM326.705 81.54C326.705 80.66 326.525 79.8867 326.165 79.22C325.805 78.5533 325.312 78.04 324.685 77.68C324.072 77.32 323.392 77.14 322.645 77.14C321.872 77.14 321.178 77.3133 320.565 77.66C319.952 78.0067 319.465 78.5133 319.105 79.18C318.758 79.8333 318.585 80.6133 318.585 81.52C318.585 82.4133 318.758 83.2 319.105 83.88C319.465 84.5467 319.952 85.06 320.565 85.42C321.178 85.7667 321.872 85.94 322.645 85.94C323.392 85.94 324.072 85.76 324.685 85.4C325.312 85.04 325.805 84.5267 326.165 83.86C326.525 83.1933 326.705 82.42 326.705 81.54Z" fill="black"/>
<path d="M98.0439 121.52C98.0439 120.4 98.2706 119.42 98.7239 118.58C99.1772 117.727 99.7972 117.073 100.584 116.62C101.384 116.153 102.284 115.92 103.284 115.92C104.244 115.92 105.111 116.153 105.884 116.62C106.657 117.087 107.224 117.693 107.584 118.44V112.2H108.984V127H107.584V124.56C107.251 125.32 106.704 125.947 105.944 126.44C105.184 126.92 104.291 127.16 103.264 127.16C102.264 127.16 101.364 126.927 100.564 126.46C99.7772 125.993 99.1572 125.333 98.7039 124.48C98.2639 123.627 98.0439 122.64 98.0439 121.52ZM107.584 121.54C107.584 120.66 107.404 119.887 107.044 119.22C106.684 118.553 106.191 118.04 105.564 117.68C104.951 117.32 104.271 117.14 103.524 117.14C102.751 117.14 102.057 117.313 101.444 117.66C100.831 118.007 100.344 118.513 99.9839 119.18C99.6372 119.833 99.4639 120.613 99.4639 121.52C99.4639 122.413 99.6372 123.2 99.9839 123.88C100.344 124.547 100.831 125.06 101.444 125.42C102.057 125.767 102.751 125.94 103.524 125.94C104.271 125.94 104.951 125.76 105.564 125.4C106.191 125.04 106.684 124.527 107.044 123.86C107.404 123.193 107.584 122.42 107.584 121.54ZM122.06 120.98C122.06 121.46 122.047 121.827 122.02 122.08H112.96C113 122.907 113.2 123.613 113.56 124.2C113.92 124.787 114.393 125.233 114.98 125.54C115.567 125.833 116.207 125.98 116.9 125.98C117.807 125.98 118.567 125.76 119.18 125.32C119.807 124.88 120.22 124.287 120.42 123.54H121.9C121.633 124.607 121.06 125.48 120.18 126.16C119.313 126.827 118.22 127.16 116.9 127.16C115.873 127.16 114.953 126.933 114.14 126.48C113.327 126.013 112.687 125.36 112.22 124.52C111.767 123.667 111.54 122.673 111.54 121.54C111.54 120.407 111.767 119.413 112.22 118.56C112.673 117.707 113.307 117.053 114.12 116.6C114.933 116.147 115.86 115.92 116.9 115.92C117.94 115.92 118.847 116.147 119.62 116.6C120.407 117.053 121.007 117.667 121.42 118.44C121.847 119.2 122.06 120.047 122.06 120.98ZM120.64 120.94C120.653 120.127 120.487 119.433 120.14 118.86C119.807 118.287 119.347 117.853 118.76 117.56C118.173 117.267 117.533 117.12 116.84 117.12C115.8 117.12 114.913 117.453 114.18 118.12C113.447 118.787 113.04 119.727 112.96 120.94H120.64ZM128.381 127.16C127.128 127.16 126.101 126.873 125.301 126.3C124.515 125.713 124.075 124.92 123.981 123.92H125.421C125.488 124.533 125.775 125.033 126.281 125.42C126.801 125.793 127.495 125.98 128.361 125.98C129.121 125.98 129.715 125.8 130.141 125.44C130.581 125.08 130.801 124.633 130.801 124.1C130.801 123.727 130.681 123.42 130.441 123.18C130.201 122.94 129.895 122.753 129.521 122.62C129.161 122.473 128.668 122.32 128.041 122.16C127.228 121.947 126.568 121.733 126.061 121.52C125.555 121.307 125.121 120.993 124.761 120.58C124.415 120.153 124.241 119.587 124.241 118.88C124.241 118.347 124.401 117.853 124.721 117.4C125.041 116.947 125.495 116.587 126.081 116.32C126.668 116.053 127.335 115.92 128.081 115.92C129.255 115.92 130.201 116.22 130.921 116.82C131.641 117.407 132.028 118.22 132.081 119.26H130.681C130.641 118.62 130.388 118.107 129.921 117.72C129.468 117.32 128.841 117.12 128.041 117.12C127.335 117.12 126.761 117.287 126.321 117.62C125.881 117.953 125.661 118.367 125.661 118.86C125.661 119.287 125.788 119.64 126.041 119.92C126.308 120.187 126.635 120.4 127.021 120.56C127.408 120.707 127.928 120.873 128.581 121.06C129.368 121.273 129.995 121.48 130.461 121.68C130.928 121.88 131.328 122.173 131.661 122.56C131.995 122.947 132.168 123.46 132.181 124.1C132.181 124.687 132.021 125.213 131.701 125.68C131.381 126.133 130.935 126.493 130.361 126.76C129.788 127.027 129.128 127.16 128.381 127.16ZM134.177 121.54C134.177 120.407 134.403 119.42 134.857 118.58C135.31 117.727 135.937 117.073 136.737 116.62C137.537 116.153 138.45 115.92 139.477 115.92C140.823 115.92 141.93 116.253 142.797 116.92C143.677 117.587 144.243 118.493 144.497 119.64H142.997C142.81 118.853 142.403 118.24 141.777 117.8C141.163 117.347 140.397 117.12 139.477 117.12C138.743 117.12 138.083 117.287 137.497 117.62C136.91 117.953 136.443 118.453 136.097 119.12C135.763 119.773 135.597 120.58 135.597 121.54C135.597 122.5 135.763 123.313 136.097 123.98C136.443 124.647 136.91 125.147 137.497 125.48C138.083 125.813 138.743 125.98 139.477 125.98C140.397 125.98 141.163 125.76 141.777 125.32C142.403 124.867 142.81 124.24 142.997 123.44H144.497C144.243 124.56 143.677 125.46 142.797 126.14C141.917 126.82 140.81 127.16 139.477 127.16C138.45 127.16 137.537 126.933 136.737 126.48C135.937 126.013 135.31 125.36 134.857 124.52C134.403 123.667 134.177 122.673 134.177 121.54ZM148.482 118.02C148.789 117.34 149.256 116.813 149.882 116.44C150.522 116.067 151.302 115.88 152.222 115.88V117.34H151.842C150.829 117.34 150.016 117.613 149.402 118.16C148.789 118.707 148.482 119.62 148.482 120.9V127H147.082V116.08H148.482V118.02ZM155.029 114.02C154.749 114.02 154.509 113.92 154.309 113.72C154.109 113.52 154.009 113.273 154.009 112.98C154.009 112.687 154.109 112.447 154.309 112.26C154.509 112.06 154.749 111.96 155.029 111.96C155.309 111.96 155.549 112.06 155.749 112.26C155.949 112.447 156.049 112.687 156.049 112.98C156.049 113.273 155.949 113.52 155.749 113.72C155.549 113.92 155.309 114.02 155.029 114.02ZM155.729 116.08V127H154.329V116.08H155.729ZM163.559 125.98C164.479 125.98 165.245 125.76 165.859 125.32C166.485 124.867 166.892 124.24 167.079 123.44H168.579C168.339 124.493 167.819 125.353 167.019 126.02C166.232 126.687 165.232 127.06 164.019 127.14V128.34C164.805 128.313 165.425 128.46 165.879 128.78C166.345 129.113 166.579 129.587 166.579 130.2C166.579 130.8 166.365 131.273 165.939 131.62C165.512 131.98 164.945 132.16 164.239 132.16H162.239V131.22H163.959C164.452 131.22 164.812 131.133 165.039 130.96C165.279 130.8 165.399 130.547 165.399 130.2C165.399 129.56 164.919 129.24 163.959 129.24H163.039V127.14C162.105 127.06 161.279 126.787 160.559 126.32C159.839 125.84 159.272 125.193 158.859 124.38C158.459 123.553 158.259 122.607 158.259 121.54C158.259 120.407 158.485 119.42 158.939 118.58C159.392 117.727 160.019 117.073 160.819 116.62C161.619 116.153 162.532 115.92 163.559 115.92C164.905 115.92 166.012 116.253 166.879 116.92C167.759 117.587 168.325 118.493 168.579 119.64H167.079C166.892 118.853 166.485 118.24 165.859 117.8C165.245 117.347 164.479 117.12 163.559 117.12C162.825 117.12 162.165 117.287 161.579 117.62C160.992 117.953 160.525 118.453 160.179 119.12C159.845 119.773 159.679 120.58 159.679 121.54C159.679 122.5 159.845 123.313 160.179 123.98C160.525 124.647 160.992 125.147 161.579 125.48C162.165 125.813 162.825 125.98 163.559 125.98ZM170.524 121.52C170.524 120.4 170.744 119.42 171.184 118.58C171.638 117.727 172.258 117.073 173.044 116.62C173.844 116.153 174.744 115.92 175.744 115.92C176.784 115.92 177.678 116.16 178.424 116.64C179.184 117.12 179.731 117.733 180.064 118.48V116.08H181.464V127H180.064V124.58C179.718 125.327 179.164 125.947 178.404 126.44C177.658 126.92 176.764 127.16 175.724 127.16C174.738 127.16 173.844 126.927 173.044 126.46C172.258 125.993 171.638 125.333 171.184 124.48C170.744 123.627 170.524 122.64 170.524 121.52ZM180.064 121.54C180.064 120.66 179.884 119.887 179.524 119.22C179.164 118.553 178.671 118.04 178.044 117.68C177.431 117.32 176.751 117.14 176.004 117.14C175.231 117.14 174.538 117.313 173.924 117.66C173.311 118.007 172.824 118.513 172.464 119.18C172.118 119.833 171.944 120.613 171.944 121.52C171.944 122.413 172.118 123.2 172.464 123.88C172.824 124.547 173.311 125.06 173.924 125.42C174.538 125.767 175.231 125.94 176.004 125.94C176.751 125.94 177.431 125.76 178.044 125.4C178.671 125.04 179.164 124.527 179.524 123.86C179.884 123.193 180.064 122.42 180.064 121.54ZM173.704 114.88C173.784 114.28 173.978 113.82 174.284 113.5C174.591 113.18 174.984 113.02 175.464 113.02C175.704 113.02 175.911 113.067 176.084 113.16C176.258 113.24 176.464 113.36 176.704 113.52C176.904 113.667 177.078 113.78 177.224 113.86C177.371 113.927 177.531 113.96 177.704 113.96C177.931 113.96 178.124 113.887 178.284 113.74C178.444 113.58 178.544 113.353 178.584 113.06H179.424C179.371 113.647 179.178 114.107 178.844 114.44C178.524 114.76 178.124 114.92 177.644 114.92C177.391 114.92 177.171 114.88 176.984 114.8C176.811 114.707 176.604 114.573 176.364 114.4C176.178 114.253 176.011 114.147 175.864 114.08C175.731 114.013 175.578 113.98 175.404 113.98C174.924 113.98 174.644 114.28 174.564 114.88H173.704ZM189.441 127.16C188.414 127.16 187.487 126.933 186.661 126.48C185.847 126.013 185.201 125.36 184.721 124.52C184.254 123.667 184.021 122.673 184.021 121.54C184.021 120.407 184.261 119.42 184.741 118.58C185.221 117.727 185.874 117.073 186.701 116.62C187.527 116.153 188.454 115.92 189.481 115.92C190.507 115.92 191.434 116.153 192.261 116.62C193.101 117.073 193.754 117.727 194.221 118.58C194.701 119.42 194.941 120.407 194.941 121.54C194.941 122.66 194.701 123.647 194.221 124.5C193.741 125.353 193.081 126.013 192.241 126.48C191.401 126.933 190.467 127.16 189.441 127.16ZM189.441 125.94C190.161 125.94 190.827 125.78 191.441 125.46C192.054 125.127 192.547 124.633 192.921 123.98C193.307 123.313 193.501 122.5 193.501 121.54C193.501 120.58 193.314 119.773 192.941 119.12C192.567 118.453 192.074 117.96 191.461 117.64C190.847 117.307 190.181 117.14 189.461 117.14C188.741 117.14 188.074 117.307 187.461 117.64C186.847 117.96 186.354 118.453 185.981 119.12C185.621 119.773 185.441 120.58 185.441 121.54C185.441 122.5 185.621 123.313 185.981 123.98C186.354 124.633 186.841 125.127 187.441 125.46C188.054 125.78 188.721 125.94 189.441 125.94ZM204.273 119V120.18H196.493V119H204.273ZM207.224 121.52C207.224 120.4 207.45 119.42 207.904 118.58C208.357 117.727 208.977 117.073 209.764 116.62C210.564 116.153 211.464 115.92 212.464 115.92C213.424 115.92 214.29 116.153 215.064 116.62C215.837 117.087 216.404 117.693 216.764 118.44V112.2H218.164V127H216.764V124.56C216.43 125.32 215.884 125.947 215.124 126.44C214.364 126.92 213.47 127.16 212.444 127.16C211.444 127.16 210.544 126.927 209.744 126.46C208.957 125.993 208.337 125.333 207.884 124.48C207.444 123.627 207.224 122.64 207.224 121.52ZM216.764 121.54C216.764 120.66 216.584 119.887 216.224 119.22C215.864 118.553 215.37 118.04 214.744 117.68C214.13 117.32 213.45 117.14 212.704 117.14C211.93 117.14 211.237 117.313 210.624 117.66C210.01 118.007 209.524 118.513 209.164 119.18C208.817 119.833 208.644 120.613 208.644 121.52C208.644 122.413 208.817 123.2 209.164 123.88C209.524 124.547 210.01 125.06 210.624 125.42C211.237 125.767 211.93 125.94 212.704 125.94C213.45 125.94 214.13 125.76 214.744 125.4C215.37 125.04 215.864 124.527 216.224 123.86C216.584 123.193 216.764 122.42 216.764 121.54ZM220.72 121.52C220.72 120.4 220.94 119.42 221.38 118.58C221.833 117.727 222.453 117.073 223.24 116.62C224.04 116.153 224.94 115.92 225.94 115.92C226.98 115.92 227.873 116.16 228.62 116.64C229.38 117.12 229.926 117.733 230.26 118.48V116.08H231.66V127H230.26V124.58C229.913 125.327 229.36 125.947 228.6 126.44C227.853 126.92 226.96 127.16 225.92 127.16C224.933 127.16 224.04 126.927 223.24 126.46C222.453 125.993 221.833 125.333 221.38 124.48C220.94 123.627 220.72 122.64 220.72 121.52ZM230.26 121.54C230.26 120.66 230.08 119.887 229.72 119.22C229.36 118.553 228.866 118.04 228.24 117.68C227.626 117.32 226.946 117.14 226.2 117.14C225.426 117.14 224.733 117.313 224.12 117.66C223.506 118.007 223.02 118.513 222.66 119.18C222.313 119.833 222.14 120.613 222.14 121.52C222.14 122.413 222.313 123.2 222.66 123.88C223.02 124.547 223.506 125.06 224.12 125.42C224.733 125.767 225.426 125.94 226.2 125.94C226.946 125.94 227.626 125.76 228.24 125.4C228.866 125.04 229.36 124.527 229.72 123.86C230.08 123.193 230.26 122.42 230.26 121.54ZM241.636 119V120.18H233.856V119H241.636ZM247.047 117.26V124.04C247.047 124.707 247.174 125.167 247.427 125.42C247.68 125.673 248.127 125.8 248.767 125.8H250.047V127H248.547C247.56 127 246.827 126.773 246.347 126.32C245.867 125.853 245.627 125.093 245.627 124.04V117.26H244.107V116.08H245.627V113.34H247.047V116.08H250.047V117.26H247.047ZM262.236 120.98C262.236 121.46 262.223 121.827 262.196 122.08H253.136C253.176 122.907 253.376 123.613 253.736 124.2C254.096 124.787 254.569 125.233 255.156 125.54C255.743 125.833 256.383 125.98 257.076 125.98C257.983 125.98 258.743 125.76 259.356 125.32C259.983 124.88 260.396 124.287 260.596 123.54H262.076C261.809 124.607 261.236 125.48 260.356 126.16C259.489 126.827 258.396 127.16 257.076 127.16C256.049 127.16 255.129 126.933 254.316 126.48C253.503 126.013 252.863 125.36 252.396 124.52C251.943 123.667 251.716 122.673 251.716 121.54C251.716 120.407 251.943 119.413 252.396 118.56C252.849 117.707 253.483 117.053 254.296 116.6C255.109 116.147 256.036 115.92 257.076 115.92C258.116 115.92 259.023 116.147 259.796 116.6C260.583 117.053 261.183 117.667 261.596 118.44C262.023 119.2 262.236 120.047 262.236 120.98ZM260.816 120.94C260.829 120.127 260.663 119.433 260.316 118.86C259.983 118.287 259.523 117.853 258.936 117.56C258.349 117.267 257.709 117.12 257.016 117.12C255.976 117.12 255.089 117.453 254.356 118.12C253.623 118.787 253.216 119.727 253.136 120.94H260.816ZM264.157 121.54C264.157 120.407 264.384 119.42 264.837 118.58C265.291 117.727 265.917 117.073 266.717 116.62C267.517 116.153 268.431 115.92 269.457 115.92C270.804 115.92 271.911 116.253 272.777 116.92C273.657 117.587 274.224 118.493 274.477 119.64H272.977C272.791 118.853 272.384 118.24 271.757 117.8C271.144 117.347 270.377 117.12 269.457 117.12C268.724 117.12 268.064 117.287 267.477 117.62C266.891 117.953 266.424 118.453 266.077 119.12C265.744 119.773 265.577 120.58 265.577 121.54C265.577 122.5 265.744 123.313 266.077 123.98C266.424 124.647 266.891 125.147 267.477 125.48C268.064 125.813 268.724 125.98 269.457 125.98C270.377 125.98 271.144 125.76 271.757 125.32C272.384 124.867 272.791 124.24 272.977 123.44H274.477C274.224 124.56 273.657 125.46 272.777 126.14C271.897 126.82 270.791 127.16 269.457 127.16C268.431 127.16 267.517 126.933 266.717 126.48C265.917 126.013 265.291 125.36 264.837 124.52C264.384 123.667 264.157 122.673 264.157 121.54ZM282.183 115.88C283.49 115.88 284.556 116.287 285.383 117.1C286.21 117.9 286.623 119.067 286.623 120.6V127H285.243V120.76C285.243 119.573 284.943 118.667 284.343 118.04C283.756 117.413 282.95 117.1 281.923 117.1C280.87 117.1 280.03 117.433 279.403 118.1C278.776 118.767 278.463 119.747 278.463 121.04V127H277.063V116.08H278.463V117.94C278.81 117.273 279.31 116.767 279.963 116.42C280.616 116.06 281.356 115.88 282.183 115.88ZM294.499 127.16C293.472 127.16 292.546 126.933 291.719 126.48C290.906 126.013 290.259 125.36 289.779 124.52C289.312 123.667 289.079 122.673 289.079 121.54C289.079 120.407 289.319 119.42 289.799 118.58C290.279 117.727 290.932 117.073 291.759 116.62C292.586 116.153 293.512 115.92 294.539 115.92C295.566 115.92 296.492 116.153 297.319 116.62C298.159 117.073 298.812 117.727 299.279 118.58C299.759 119.42 299.999 120.407 299.999 121.54C299.999 122.66 299.759 123.647 299.279 124.5C298.799 125.353 298.139 126.013 297.299 126.48C296.459 126.933 295.526 127.16 294.499 127.16ZM294.499 125.94C295.219 125.94 295.886 125.78 296.499 125.46C297.112 125.127 297.606 124.633 297.979 123.98C298.366 123.313 298.559 122.5 298.559 121.54C298.559 120.58 298.372 119.773 297.999 119.12C297.626 118.453 297.132 117.96 296.519 117.64C295.906 117.307 295.239 117.14 294.519 117.14C293.799 117.14 293.132 117.307 292.519 117.64C291.906 117.96 291.412 118.453 291.039 119.12C290.679 119.773 290.499 120.58 290.499 121.54C290.499 122.5 290.679 123.313 291.039 123.98C291.412 124.633 291.899 125.127 292.499 125.46C293.112 125.78 293.779 125.94 294.499 125.94ZM303.951 112.2V127H302.551V112.2H303.951ZM311.901 127.16C310.875 127.16 309.948 126.933 309.121 126.48C308.308 126.013 307.661 125.36 307.181 124.52C306.715 123.667 306.481 122.673 306.481 121.54C306.481 120.407 306.721 119.42 307.201 118.58C307.681 117.727 308.335 117.073 309.161 116.62C309.988 116.153 310.915 115.92 311.941 115.92C312.968 115.92 313.895 116.153 314.721 116.62C315.561 117.073 316.215 117.727 316.681 118.58C317.161 119.42 317.401 120.407 317.401 121.54C317.401 122.66 317.161 123.647 316.681 124.5C316.201 125.353 315.541 126.013 314.701 126.48C313.861 126.933 312.928 127.16 311.901 127.16ZM311.901 125.94C312.621 125.94 313.288 125.78 313.901 125.46C314.515 125.127 315.008 124.633 315.381 123.98C315.768 123.313 315.961 122.5 315.961 121.54C315.961 120.58 315.775 119.773 315.401 119.12C315.028 118.453 314.535 117.96 313.921 117.64C313.308 117.307 312.641 117.14 311.921 117.14C311.201 117.14 310.535 117.307 309.921 117.64C309.308 117.96 308.815 118.453 308.441 119.12C308.081 119.773 307.901 120.58 307.901 121.54C307.901 122.5 308.081 123.313 308.441 123.98C308.815 124.633 309.301 125.127 309.901 125.46C310.515 125.78 311.181 125.94 311.901 125.94ZM324.534 115.92C325.56 115.92 326.454 116.16 327.214 116.64C327.974 117.12 328.52 117.727 328.854 118.46V116.08H330.254V127.28C330.254 128.28 330.034 129.167 329.594 129.94C329.167 130.713 328.567 131.307 327.794 131.72C327.02 132.147 326.14 132.36 325.154 132.36C323.754 132.36 322.587 132.027 321.654 131.36C320.734 130.693 320.16 129.787 319.934 128.64H321.314C321.554 129.4 322.007 130.007 322.674 130.46C323.354 130.913 324.18 131.14 325.154 131.14C325.86 131.14 326.494 130.987 327.054 130.68C327.614 130.387 328.054 129.947 328.374 129.36C328.694 128.773 328.854 128.08 328.854 127.28V124.58C328.507 125.327 327.954 125.947 327.194 126.44C326.447 126.92 325.56 127.16 324.534 127.16C323.534 127.16 322.634 126.927 321.834 126.46C321.047 125.993 320.427 125.333 319.974 124.48C319.534 123.627 319.314 122.64 319.314 121.52C319.314 120.4 319.534 119.42 319.974 118.58C320.427 117.727 321.047 117.073 321.834 116.62C322.634 116.153 323.534 115.92 324.534 115.92ZM328.854 121.54C328.854 120.66 328.674 119.887 328.314 119.22C327.954 118.553 327.46 118.04 326.834 117.68C326.22 117.32 325.54 117.14 324.794 117.14C324.02 117.14 323.327 117.313 322.714 117.66C322.1 118.007 321.614 118.513 321.254 119.18C320.907 119.833 320.734 120.613 320.734 121.52C320.734 122.413 320.907 123.2 321.254 123.88C321.614 124.547 322.1 125.06 322.714 125.42C323.327 125.767 324.02 125.94 324.794 125.94C325.54 125.94 326.22 125.76 326.834 125.4C327.46 125.04 327.954 124.527 328.314 123.86C328.674 123.193 328.854 122.42 328.854 121.54ZM334.15 114.02C333.87 114.02 333.63 113.92 333.43 113.72C333.23 113.52 333.13 113.273 333.13 112.98C333.13 112.687 333.23 112.447 333.43 112.26C333.63 112.06 333.87 111.96 334.15 111.96C334.43 111.96 334.67 112.06 334.87 112.26C335.07 112.447 335.17 112.687 335.17 112.98C335.17 113.273 335.07 113.52 334.87 113.72C334.67 113.92 334.43 114.02 334.15 114.02ZM334.85 116.08V127H333.45V116.08H334.85ZM337.38 121.52C337.38 120.4 337.6 119.42 338.04 118.58C338.493 117.727 339.113 117.073 339.9 116.62C340.7 116.153 341.6 115.92 342.6 115.92C343.64 115.92 344.533 116.16 345.28 116.64C346.04 117.12 346.587 117.733 346.92 118.48V116.08H348.32V127H346.92V124.58C346.573 125.327 346.02 125.947 345.26 126.44C344.513 126.92 343.62 127.16 342.58 127.16C341.593 127.16 340.7 126.927 339.9 126.46C339.113 125.993 338.493 125.333 338.04 124.48C337.6 123.627 337.38 122.64 337.38 121.52ZM346.92 121.54C346.92 120.66 346.74 119.887 346.38 119.22C346.02 118.553 345.527 118.04 344.9 117.68C344.287 117.32 343.607 117.14 342.86 117.14C342.087 117.14 341.393 117.313 340.78 117.66C340.167 118.007 339.68 118.513 339.32 119.18C338.973 119.833 338.8 120.613 338.8 121.52C338.8 122.413 338.973 123.2 339.32 123.88C339.68 124.547 340.167 125.06 340.78 125.42C341.393 125.767 342.087 125.94 342.86 125.94C343.607 125.94 344.287 125.76 344.9 125.4C345.527 125.04 346.02 124.527 346.38 123.86C346.74 123.193 346.92 122.42 346.92 121.54Z" fill="black"/>
<path d="M200.46 247.16C199.206 247.16 198.18 246.873 197.38 246.3C196.593 245.713 196.153 244.92 196.06 243.92H197.5C197.566 244.533 197.853 245.033 198.36 245.42C198.88 245.793 199.573 245.98 200.44 245.98C201.2 245.98 201.793 245.8 202.22 245.44C202.66 245.08 202.88 244.633 202.88 244.1C202.88 243.727 202.76 243.42 202.52 243.18C202.28 242.94 201.973 242.753 201.6 242.62C201.24 242.473 200.746 242.32 200.12 242.16C199.306 241.947 198.646 241.733 198.14 241.52C197.633 241.307 197.2 240.993 196.84 240.58C196.493 240.153 196.32 239.587 196.32 238.88C196.32 238.347 196.48 237.853 196.8 237.4C197.12 236.947 197.573 236.587 198.16 236.32C198.746 236.053 199.413 235.92 200.16 235.92C201.333 235.92 202.28 236.22 203 236.82C203.72 237.407 204.106 238.22 204.16 239.26H202.76C202.72 238.62 202.466 238.107 202 237.72C201.546 237.32 200.92 237.12 200.12 237.12C199.413 237.12 198.84 237.287 198.4 237.62C197.96 237.953 197.74 238.367 197.74 238.86C197.74 239.287 197.866 239.64 198.12 239.92C198.386 240.187 198.713 240.4 199.1 240.56C199.486 240.707 200.006 240.873 200.66 241.06C201.446 241.273 202.073 241.48 202.54 241.68C203.006 241.88 203.406 242.173 203.74 242.56C204.073 242.947 204.246 243.46 204.26 244.1C204.26 244.687 204.1 245.213 203.78 245.68C203.46 246.133 203.013 246.493 202.44 246.76C201.866 247.027 201.206 247.16 200.46 247.16ZM208.715 237.26V244.04C208.715 244.707 208.842 245.167 209.095 245.42C209.348 245.673 209.795 245.8 210.435 245.8H211.715V247H210.215C209.228 247 208.495 246.773 208.015 246.32C207.535 245.853 207.295 245.093 207.295 244.04V237.26H205.775V236.08H207.295V233.34H208.715V236.08H211.715V237.26H208.715ZM213.384 241.52C213.384 240.4 213.604 239.42 214.044 238.58C214.497 237.727 215.117 237.073 215.904 236.62C216.704 236.153 217.604 235.92 218.604 235.92C219.644 235.92 220.537 236.16 221.284 236.64C222.044 237.12 222.59 237.733 222.924 238.48V236.08H224.324V247H222.924V244.58C222.577 245.327 222.024 245.947 221.264 246.44C220.517 246.92 219.624 247.16 218.584 247.16C217.597 247.16 216.704 246.927 215.904 246.46C215.117 245.993 214.497 245.333 214.044 244.48C213.604 243.627 213.384 242.64 213.384 241.52ZM222.924 241.54C222.924 240.66 222.744 239.887 222.384 239.22C222.024 238.553 221.53 238.04 220.904 237.68C220.29 237.32 219.61 237.14 218.864 237.14C218.09 237.14 217.397 237.313 216.784 237.66C216.17 238.007 215.684 238.513 215.324 239.18C214.977 239.833 214.804 240.613 214.804 241.52C214.804 242.413 214.977 243.2 215.324 243.88C215.684 244.547 216.17 245.06 216.784 245.42C217.397 245.767 218.09 245.94 218.864 245.94C219.61 245.94 220.29 245.76 220.904 245.4C221.53 245.04 222.024 244.527 222.384 243.86C222.744 243.193 222.924 242.42 222.924 241.54ZM229.34 237.26V244.04C229.34 244.707 229.467 245.167 229.72 245.42C229.973 245.673 230.42 245.8 231.06 245.8H232.34V247H230.84C229.853 247 229.12 246.773 228.64 246.32C228.16 245.853 227.92 245.093 227.92 244.04V237.26H226.4V236.08H227.92V233.34H229.34V236.08H232.34V237.26H229.34ZM244.109 236.08V247H242.709V245.08C242.389 245.76 241.895 246.28 241.229 246.64C240.562 247 239.815 247.18 238.989 247.18C237.682 247.18 236.615 246.78 235.789 245.98C234.962 245.167 234.549 243.993 234.549 242.46V236.08H235.929V242.3C235.929 243.487 236.222 244.393 236.809 245.02C237.409 245.647 238.222 245.96 239.249 245.96C240.302 245.96 241.142 245.627 241.769 244.96C242.395 244.293 242.709 243.313 242.709 242.02V236.08H244.109ZM251.065 247.16C249.812 247.16 248.785 246.873 247.985 246.3C247.198 245.713 246.758 244.92 246.665 243.92H248.105C248.172 244.533 248.458 245.033 248.965 245.42C249.485 245.793 250.178 245.98 251.045 245.98C251.805 245.98 252.398 245.8 252.825 245.44C253.265 245.08 253.485 244.633 253.485 244.1C253.485 243.727 253.365 243.42 253.125 243.18C252.885 242.94 252.578 242.753 252.205 242.62C251.845 242.473 251.352 242.32 250.725 242.16C249.912 241.947 249.252 241.733 248.745 241.52C248.238 241.307 247.805 240.993 247.445 240.58C247.098 240.153 246.925 239.587 246.925 238.88C246.925 238.347 247.085 237.853 247.405 237.4C247.725 236.947 248.178 236.587 248.765 236.32C249.352 236.053 250.018 235.92 250.765 235.92C251.938 235.92 252.885 236.22 253.605 236.82C254.325 237.407 254.712 238.22 254.765 239.26H253.365C253.325 238.62 253.072 238.107 252.605 237.72C252.152 237.32 251.525 237.12 250.725 237.12C250.018 237.12 249.445 237.287 249.005 237.62C248.565 237.953 248.345 238.367 248.345 238.86C248.345 239.287 248.472 239.64 248.725 239.92C248.992 240.187 249.318 240.4 249.705 240.56C250.092 240.707 250.612 240.873 251.265 241.06C252.052 241.273 252.678 241.48 253.145 241.68C253.612 241.88 254.012 242.173 254.345 242.56C254.678 242.947 254.852 243.46 254.865 244.1C254.865 244.687 254.705 245.213 254.385 245.68C254.065 246.133 253.618 246.493 253.045 246.76C252.472 247.027 251.812 247.16 251.065 247.16Z" fill="black"/>
<path d="M122.222 161.52C122.222 160.4 122.448 159.42 122.902 158.58C123.355 157.727 123.975 157.073 124.762 156.62C125.562 156.153 126.462 155.92 127.462 155.92C128.422 155.92 129.288 156.153 130.062 156.62C130.835 157.087 131.402 157.693 131.762 158.44V152.2H133.162V167H131.762V164.56C131.428 165.32 130.882 165.947 130.122 166.44C129.362 166.92 128.468 167.16 127.442 167.16C126.442 167.16 125.542 166.927 124.742 166.46C123.955 165.993 123.335 165.333 122.882 164.48C122.442 163.627 122.222 162.64 122.222 161.52ZM131.762 161.54C131.762 160.66 131.582 159.887 131.222 159.22C130.862 158.553 130.368 158.04 129.742 157.68C129.128 157.32 128.448 157.14 127.702 157.14C126.928 157.14 126.235 157.313 125.622 157.66C125.008 158.007 124.522 158.513 124.162 159.18C123.815 159.833 123.642 160.613 123.642 161.52C123.642 162.413 123.815 163.2 124.162 163.88C124.522 164.547 125.008 165.06 125.622 165.42C126.235 165.767 126.928 165.94 127.702 165.94C128.448 165.94 129.128 165.76 129.742 165.4C130.368 165.04 130.862 164.527 131.222 163.86C131.582 163.193 131.762 162.42 131.762 161.54ZM135.718 161.52C135.718 160.4 135.938 159.42 136.378 158.58C136.831 157.727 137.451 157.073 138.238 156.62C139.038 156.153 139.938 155.92 140.938 155.92C141.978 155.92 142.871 156.16 143.618 156.64C144.378 157.12 144.924 157.733 145.258 158.48V156.08H146.658V167H145.258V164.58C144.911 165.327 144.358 165.947 143.598 166.44C142.851 166.92 141.958 167.16 140.918 167.16C139.931 167.16 139.038 166.927 138.238 166.46C137.451 165.993 136.831 165.333 136.378 164.48C135.938 163.627 135.718 162.64 135.718 161.52ZM145.258 161.54C145.258 160.66 145.078 159.887 144.718 159.22C144.358 158.553 143.864 158.04 143.238 157.68C142.624 157.32 141.944 157.14 141.198 157.14C140.424 157.14 139.731 157.313 139.118 157.66C138.504 158.007 138.018 158.513 137.658 159.18C137.311 159.833 137.138 160.613 137.138 161.52C137.138 162.413 137.311 163.2 137.658 163.88C138.018 164.547 138.504 165.06 139.118 165.42C139.731 165.767 140.424 165.94 141.198 165.94C141.944 165.94 142.624 165.76 143.238 165.4C143.864 165.04 144.358 164.527 144.718 163.86C145.078 163.193 145.258 162.42 145.258 161.54ZM151.674 157.26V164.04C151.674 164.707 151.801 165.167 152.054 165.42C152.307 165.673 152.754 165.8 153.394 165.8H154.674V167H153.174C152.187 167 151.454 166.773 150.974 166.32C150.494 165.853 150.254 165.093 150.254 164.04V157.26H148.734V156.08H150.254V153.34H151.674V156.08H154.674V157.26H151.674ZM156.343 161.52C156.343 160.4 156.563 159.42 157.003 158.58C157.456 157.727 158.076 157.073 158.863 156.62C159.663 156.153 160.563 155.92 161.563 155.92C162.603 155.92 163.496 156.16 164.243 156.64C165.003 157.12 165.549 157.733 165.883 158.48V156.08H167.283V167H165.883V164.58C165.536 165.327 164.983 165.947 164.223 166.44C163.476 166.92 162.583 167.16 161.543 167.16C160.556 167.16 159.663 166.927 158.863 166.46C158.076 165.993 157.456 165.333 157.003 164.48C156.563 163.627 156.343 162.64 156.343 161.52ZM165.883 161.54C165.883 160.66 165.703 159.887 165.343 159.22C164.983 158.553 164.489 158.04 163.863 157.68C163.249 157.32 162.569 157.14 161.823 157.14C161.049 157.14 160.356 157.313 159.743 157.66C159.129 158.007 158.643 158.513 158.283 159.18C157.936 159.833 157.763 160.613 157.763 161.52C157.763 162.413 157.936 163.2 158.283 163.88C158.643 164.547 159.129 165.06 159.743 165.42C160.356 165.767 161.049 165.94 161.823 165.94C162.569 165.94 163.249 165.76 163.863 165.4C164.489 165.04 164.983 164.527 165.343 163.86C165.703 163.193 165.883 162.42 165.883 161.54ZM177.259 159V160.18H169.479V159H177.259ZM180.21 161.52C180.21 160.4 180.437 159.42 180.89 158.58C181.343 157.727 181.963 157.073 182.75 156.62C183.55 156.153 184.45 155.92 185.45 155.92C186.41 155.92 187.277 156.153 188.05 156.62C188.823 157.087 189.39 157.693 189.75 158.44V152.2H191.15V167H189.75V164.56C189.417 165.32 188.87 165.947 188.11 166.44C187.35 166.92 186.457 167.16 185.43 167.16C184.43 167.16 183.53 166.927 182.73 166.46C181.943 165.993 181.323 165.333 180.87 164.48C180.43 163.627 180.21 162.64 180.21 161.52ZM189.75 161.54C189.75 160.66 189.57 159.887 189.21 159.22C188.85 158.553 188.357 158.04 187.73 157.68C187.117 157.32 186.437 157.14 185.69 157.14C184.917 157.14 184.223 157.313 183.61 157.66C182.997 158.007 182.51 158.513 182.15 159.18C181.803 159.833 181.63 160.613 181.63 161.52C181.63 162.413 181.803 163.2 182.15 163.88C182.51 164.547 182.997 165.06 183.61 165.42C184.223 165.767 184.917 165.94 185.69 165.94C186.437 165.94 187.117 165.76 187.73 165.4C188.357 165.04 188.85 164.527 189.21 163.86C189.57 163.193 189.75 162.42 189.75 161.54ZM204.226 160.98C204.226 161.46 204.213 161.827 204.186 162.08H195.126C195.166 162.907 195.366 163.613 195.726 164.2C196.086 164.787 196.559 165.233 197.146 165.54C197.733 165.833 198.373 165.98 199.066 165.98C199.973 165.98 200.733 165.76 201.346 165.32C201.973 164.88 202.386 164.287 202.586 163.54H204.066C203.799 164.607 203.226 165.48 202.346 166.16C201.479 166.827 200.386 167.16 199.066 167.16C198.039 167.16 197.119 166.933 196.306 166.48C195.493 166.013 194.853 165.36 194.386 164.52C193.933 163.667 193.706 162.673 193.706 161.54C193.706 160.407 193.933 159.413 194.386 158.56C194.839 157.707 195.473 157.053 196.286 156.6C197.099 156.147 198.026 155.92 199.066 155.92C200.106 155.92 201.013 156.147 201.786 156.6C202.573 157.053 203.173 157.667 203.586 158.44C204.013 159.2 204.226 160.047 204.226 160.98ZM202.806 160.94C202.819 160.127 202.653 159.433 202.306 158.86C201.973 158.287 201.513 157.853 200.926 157.56C200.339 157.267 199.699 157.12 199.006 157.12C197.966 157.12 197.079 157.453 196.346 158.12C195.613 158.787 195.206 159.727 195.126 160.94H202.806ZM213.568 159V160.18H205.788V159H213.568ZM217.859 154.02C217.579 154.02 217.339 153.92 217.139 153.72C216.939 153.52 216.839 153.273 216.839 152.98C216.839 152.687 216.939 152.447 217.139 152.26C217.339 152.06 217.579 151.96 217.859 151.96C218.139 151.96 218.379 152.06 218.579 152.26C218.779 152.447 218.879 152.687 218.879 152.98C218.879 153.273 218.779 153.52 218.579 153.72C218.379 153.92 218.139 154.02 217.859 154.02ZM218.559 156.08V167H217.159V156.08H218.559ZM226.849 155.88C228.156 155.88 229.222 156.287 230.049 157.1C230.876 157.9 231.289 159.067 231.289 160.6V167H229.909V160.76C229.909 159.573 229.609 158.667 229.009 158.04C228.422 157.413 227.616 157.1 226.589 157.1C225.536 157.1 224.696 157.433 224.069 158.1C223.442 158.767 223.129 159.747 223.129 161.04V167H221.729V156.08H223.129V157.94C223.476 157.273 223.976 156.767 224.629 156.42C225.282 156.06 226.022 155.88 226.849 155.88ZM236.205 157.26V164.04C236.205 164.707 236.332 165.167 236.585 165.42C236.838 165.673 237.285 165.8 237.925 165.8H239.205V167H237.705C236.718 167 235.985 166.773 235.505 166.32C235.025 165.853 234.785 165.093 234.785 164.04V157.26H233.265V156.08H234.785V153.34H236.205V156.08H239.205V157.26H236.205ZM242.914 158.02C243.221 157.34 243.687 156.813 244.314 156.44C244.954 156.067 245.734 155.88 246.654 155.88V157.34H246.274C245.261 157.34 244.447 157.613 243.834 158.16C243.221 158.707 242.914 159.62 242.914 160.9V167H241.514V156.08H242.914V158.02ZM253.54 167.16C252.513 167.16 251.587 166.933 250.76 166.48C249.947 166.013 249.3 165.36 248.82 164.52C248.353 163.667 248.12 162.673 248.12 161.54C248.12 160.407 248.36 159.42 248.84 158.58C249.32 157.727 249.973 157.073 250.8 156.62C251.627 156.153 252.553 155.92 253.58 155.92C254.607 155.92 255.533 156.153 256.36 156.62C257.2 157.073 257.853 157.727 258.32 158.58C258.8 159.42 259.04 160.407 259.04 161.54C259.04 162.66 258.8 163.647 258.32 164.5C257.84 165.353 257.18 166.013 256.34 166.48C255.5 166.933 254.567 167.16 253.54 167.16ZM253.54 165.94C254.26 165.94 254.927 165.78 255.54 165.46C256.153 165.127 256.647 164.633 257.02 163.98C257.407 163.313 257.6 162.5 257.6 161.54C257.6 160.58 257.413 159.773 257.04 159.12C256.667 158.453 256.173 157.96 255.56 157.64C254.947 157.307 254.28 157.14 253.56 157.14C252.84 157.14 252.173 157.307 251.56 157.64C250.947 157.96 250.453 158.453 250.08 159.12C249.72 159.773 249.54 160.58 249.54 161.54C249.54 162.5 249.72 163.313 250.08 163.98C250.453 164.633 250.94 165.127 251.54 165.46C252.153 165.78 252.82 165.94 253.54 165.94ZM260.952 161.52C260.952 160.4 261.179 159.42 261.632 158.58C262.086 157.727 262.706 157.073 263.492 156.62C264.292 156.153 265.192 155.92 266.192 155.92C267.152 155.92 268.019 156.153 268.792 156.62C269.566 157.087 270.132 157.693 270.492 158.44V152.2H271.892V167H270.492V164.56C270.159 165.32 269.612 165.947 268.852 166.44C268.092 166.92 267.199 167.16 266.172 167.16C265.172 167.16 264.272 166.927 263.472 166.46C262.686 165.993 262.066 165.333 261.612 164.48C261.172 163.627 260.952 162.64 260.952 161.52ZM270.492 161.54C270.492 160.66 270.312 159.887 269.952 159.22C269.592 158.553 269.099 158.04 268.472 157.68C267.859 157.32 267.179 157.14 266.432 157.14C265.659 157.14 264.966 157.313 264.352 157.66C263.739 158.007 263.252 158.513 262.892 159.18C262.546 159.833 262.372 160.613 262.372 161.52C262.372 162.413 262.546 163.2 262.892 163.88C263.252 164.547 263.739 165.06 264.352 165.42C264.966 165.767 265.659 165.94 266.432 165.94C267.179 165.94 267.859 165.76 268.472 165.4C269.099 165.04 269.592 164.527 269.952 163.86C270.312 163.193 270.492 162.42 270.492 161.54ZM284.548 156.08V167H283.148V165.08C282.828 165.76 282.335 166.28 281.668 166.64C281.002 167 280.255 167.18 279.428 167.18C278.122 167.18 277.055 166.78 276.228 165.98C275.402 165.167 274.988 163.993 274.988 162.46V156.08H276.368V162.3C276.368 163.487 276.662 164.393 277.248 165.02C277.848 165.647 278.662 165.96 279.688 165.96C280.742 165.96 281.582 165.627 282.208 164.96C282.835 164.293 283.148 163.313 283.148 162.02V156.08H284.548ZM292.405 165.98C293.325 165.98 294.091 165.76 294.705 165.32C295.331 164.867 295.738 164.24 295.925 163.44H297.425C297.185 164.493 296.665 165.353 295.865 166.02C295.078 166.687 294.078 167.06 292.865 167.14V168.34C293.651 168.313 294.271 168.46 294.725 168.78C295.191 169.113 295.425 169.587 295.425 170.2C295.425 170.8 295.211 171.273 294.785 171.62C294.358 171.98 293.791 172.16 293.085 172.16H291.085V171.22H292.805C293.298 171.22 293.658 171.133 293.885 170.96C294.125 170.8 294.245 170.547 294.245 170.2C294.245 169.56 293.765 169.24 292.805 169.24H291.885V167.14C290.951 167.06 290.125 166.787 289.405 166.32C288.685 165.84 288.118 165.193 287.705 164.38C287.305 163.553 287.105 162.607 287.105 161.54C287.105 160.407 287.331 159.42 287.785 158.58C288.238 157.727 288.865 157.073 289.665 156.62C290.465 156.153 291.378 155.92 292.405 155.92C293.751 155.92 294.858 156.253 295.725 156.92C296.605 157.587 297.171 158.493 297.425 159.64H295.925C295.738 158.853 295.331 158.24 294.705 157.8C294.091 157.347 293.325 157.12 292.405 157.12C291.671 157.12 291.011 157.287 290.425 157.62C289.838 157.953 289.371 158.453 289.025 159.12C288.691 159.773 288.525 160.58 288.525 161.54C288.525 162.5 288.691 163.313 289.025 163.98C289.371 164.647 289.838 165.147 290.425 165.48C291.011 165.813 291.671 165.98 292.405 165.98ZM299.37 161.52C299.37 160.4 299.59 159.42 300.03 158.58C300.483 157.727 301.103 157.073 301.89 156.62C302.69 156.153 303.59 155.92 304.59 155.92C305.63 155.92 306.523 156.16 307.27 156.64C308.03 157.12 308.577 157.733 308.91 158.48V156.08H310.31V167H308.91V164.58C308.563 165.327 308.01 165.947 307.25 166.44C306.503 166.92 305.61 167.16 304.57 167.16C303.583 167.16 302.69 166.927 301.89 166.46C301.103 165.993 300.483 165.333 300.03 164.48C299.59 163.627 299.37 162.64 299.37 161.52ZM308.91 161.54C308.91 160.66 308.73 159.887 308.37 159.22C308.01 158.553 307.517 158.04 306.89 157.68C306.277 157.32 305.597 157.14 304.85 157.14C304.077 157.14 303.383 157.313 302.77 157.66C302.157 158.007 301.67 158.513 301.31 159.18C300.963 159.833 300.79 160.613 300.79 161.52C300.79 162.413 300.963 163.2 301.31 163.88C301.67 164.547 302.157 165.06 302.77 165.42C303.383 165.767 304.077 165.94 304.85 165.94C305.597 165.94 306.277 165.76 306.89 165.4C307.517 165.04 308.01 164.527 308.37 163.86C308.73 163.193 308.91 162.42 308.91 161.54ZM302.55 154.88C302.63 154.28 302.823 153.82 303.13 153.5C303.437 153.18 303.83 153.02 304.31 153.02C304.55 153.02 304.757 153.067 304.93 153.16C305.103 153.24 305.31 153.36 305.55 153.52C305.75 153.667 305.923 153.78 306.07 153.86C306.217 153.927 306.377 153.96 306.55 153.96C306.777 153.96 306.97 153.887 307.13 153.74C307.29 153.58 307.39 153.353 307.43 153.06H308.27C308.217 153.647 308.023 154.107 307.69 154.44C307.37 154.76 306.97 154.92 306.49 154.92C306.237 154.92 306.017 154.88 305.83 154.8C305.657 154.707 305.45 154.573 305.21 154.4C305.023 154.253 304.857 154.147 304.71 154.08C304.577 154.013 304.423 153.98 304.25 153.98C303.77 153.98 303.49 154.28 303.41 154.88H302.55ZM318.286 167.16C317.26 167.16 316.333 166.933 315.506 166.48C314.693 166.013 314.046 165.36 313.566 164.52C313.1 163.667 312.866 162.673 312.866 161.54C312.866 160.407 313.106 159.42 313.586 158.58C314.066 157.727 314.72 157.073 315.546 156.62C316.373 156.153 317.3 155.92 318.326 155.92C319.353 155.92 320.28 156.153 321.106 156.62C321.946 157.073 322.6 157.727 323.066 158.58C323.546 159.42 323.786 160.407 323.786 161.54C323.786 162.66 323.546 163.647 323.066 164.5C322.586 165.353 321.926 166.013 321.086 166.48C320.246 166.933 319.313 167.16 318.286 167.16ZM318.286 165.94C319.006 165.94 319.673 165.78 320.286 165.46C320.9 165.127 321.393 164.633 321.766 163.98C322.153 163.313 322.346 162.5 322.346 161.54C322.346 160.58 322.16 159.773 321.786 159.12C321.413 158.453 320.92 157.96 320.306 157.64C319.693 157.307 319.026 157.14 318.306 157.14C317.586 157.14 316.92 157.307 316.306 157.64C315.693 157.96 315.2 158.453 314.826 159.12C314.466 159.773 314.286 160.58 314.286 161.54C314.286 162.5 314.466 163.313 314.826 163.98C315.2 164.633 315.686 165.127 316.286 165.46C316.9 165.78 317.566 165.94 318.286 165.94Z" fill="black"/>
<path d="M113.062 201.54C113.062 200.407 113.288 199.42 113.742 198.58C114.195 197.727 114.822 197.073 115.622 196.62C116.422 196.153 117.335 195.92 118.362 195.92C119.708 195.92 120.815 196.253 121.682 196.92C122.562 197.587 123.128 198.493 123.382 199.64H121.882C121.695 198.853 121.288 198.24 120.662 197.8C120.048 197.347 119.282 197.12 118.362 197.12C117.628 197.12 116.968 197.287 116.382 197.62C115.795 197.953 115.328 198.453 114.982 199.12C114.648 199.773 114.482 200.58 114.482 201.54C114.482 202.5 114.648 203.313 114.982 203.98C115.328 204.647 115.795 205.147 116.382 205.48C116.968 205.813 117.628 205.98 118.362 205.98C119.282 205.98 120.048 205.76 120.662 205.32C121.288 204.867 121.695 204.24 121.882 203.44H123.382C123.128 204.56 122.562 205.46 121.682 206.14C120.802 206.82 119.695 207.16 118.362 207.16C117.335 207.16 116.422 206.933 115.622 206.48C114.822 206.013 114.195 205.36 113.742 204.52C113.288 203.667 113.062 202.673 113.062 201.54ZM130.747 207.16C129.721 207.16 128.794 206.933 127.967 206.48C127.154 206.013 126.507 205.36 126.027 204.52C125.561 203.667 125.327 202.673 125.327 201.54C125.327 200.407 125.567 199.42 126.047 198.58C126.527 197.727 127.181 197.073 128.007 196.62C128.834 196.153 129.761 195.92 130.787 195.92C131.814 195.92 132.741 196.153 133.567 196.62C134.407 197.073 135.061 197.727 135.527 198.58C136.007 199.42 136.247 200.407 136.247 201.54C136.247 202.66 136.007 203.647 135.527 204.5C135.047 205.353 134.387 206.013 133.547 206.48C132.707 206.933 131.774 207.16 130.747 207.16ZM130.747 205.94C131.467 205.94 132.134 205.78 132.747 205.46C133.361 205.127 133.854 204.633 134.227 203.98C134.614 203.313 134.807 202.5 134.807 201.54C134.807 200.58 134.621 199.773 134.247 199.12C133.874 198.453 133.381 197.96 132.767 197.64C132.154 197.307 131.487 197.14 130.767 197.14C130.047 197.14 129.381 197.307 128.767 197.64C128.154 197.96 127.661 198.453 127.287 199.12C126.927 199.773 126.747 200.58 126.747 201.54C126.747 202.5 126.927 203.313 127.287 203.98C127.661 204.633 128.147 205.127 128.747 205.46C129.361 205.78 130.027 205.94 130.747 205.94ZM151.799 195.88C153.079 195.88 154.119 196.287 154.919 197.1C155.733 197.9 156.139 199.067 156.139 200.6V207H154.759V200.76C154.759 199.573 154.473 198.667 153.899 198.04C153.326 197.413 152.546 197.1 151.559 197.1C150.533 197.1 149.713 197.44 149.099 198.12C148.486 198.8 148.179 199.787 148.179 201.08V207H146.799V200.76C146.799 199.573 146.513 198.667 145.939 198.04C145.366 197.413 144.579 197.1 143.579 197.1C142.553 197.1 141.733 197.44 141.119 198.12C140.506 198.8 140.199 199.787 140.199 201.08V207H138.799V196.08H140.199V197.96C140.546 197.28 141.039 196.767 141.679 196.42C142.319 196.06 143.033 195.88 143.819 195.88C144.766 195.88 145.593 196.107 146.299 196.56C147.019 197.013 147.539 197.68 147.859 198.56C148.153 197.693 148.653 197.033 149.359 196.58C150.079 196.113 150.893 195.88 151.799 195.88ZM169.128 200.98C169.128 201.46 169.115 201.827 169.088 202.08H160.028C160.068 202.907 160.268 203.613 160.628 204.2C160.988 204.787 161.462 205.233 162.048 205.54C162.635 205.833 163.275 205.98 163.968 205.98C164.875 205.98 165.635 205.76 166.248 205.32C166.875 204.88 167.288 204.287 167.488 203.54H168.968C168.702 204.607 168.128 205.48 167.248 206.16C166.382 206.827 165.288 207.16 163.968 207.16C162.942 207.16 162.022 206.933 161.208 206.48C160.395 206.013 159.755 205.36 159.288 204.52C158.835 203.667 158.608 202.673 158.608 201.54C158.608 200.407 158.835 199.413 159.288 198.56C159.742 197.707 160.375 197.053 161.188 196.6C162.002 196.147 162.928 195.92 163.968 195.92C165.008 195.92 165.915 196.147 166.688 196.6C167.475 197.053 168.075 197.667 168.488 198.44C168.915 199.2 169.128 200.047 169.128 200.98ZM167.708 200.94C167.722 200.127 167.555 199.433 167.208 198.86C166.875 198.287 166.415 197.853 165.828 197.56C165.242 197.267 164.602 197.12 163.908 197.12C162.868 197.12 161.982 197.453 161.248 198.12C160.515 198.787 160.108 199.727 160.028 200.94H167.708ZM176.35 205.98C177.27 205.98 178.037 205.76 178.65 205.32C179.277 204.867 179.683 204.24 179.87 203.44H181.37C181.13 204.493 180.61 205.353 179.81 206.02C179.023 206.687 178.023 207.06 176.81 207.14V208.34C177.597 208.313 178.217 208.46 178.67 208.78C179.137 209.113 179.37 209.587 179.37 210.2C179.37 210.8 179.157 211.273 178.73 211.62C178.303 211.98 177.737 212.16 177.03 212.16H175.03V211.22H176.75C177.243 211.22 177.603 211.133 177.83 210.96C178.07 210.8 178.19 210.547 178.19 210.2C178.19 209.56 177.71 209.24 176.75 209.24H175.83V207.14C174.897 207.06 174.07 206.787 173.35 206.32C172.63 205.84 172.063 205.193 171.65 204.38C171.25 203.553 171.05 202.607 171.05 201.54C171.05 200.407 171.277 199.42 171.73 198.58C172.183 197.727 172.81 197.073 173.61 196.62C174.41 196.153 175.323 195.92 176.35 195.92C177.697 195.92 178.803 196.253 179.67 196.92C180.55 197.587 181.117 198.493 181.37 199.64H179.87C179.683 198.853 179.277 198.24 178.65 197.8C178.037 197.347 177.27 197.12 176.35 197.12C175.617 197.12 174.957 197.287 174.37 197.62C173.783 197.953 173.317 198.453 172.97 199.12C172.637 199.773 172.47 200.58 172.47 201.54C172.47 202.5 172.637 203.313 172.97 203.98C173.317 204.647 173.783 205.147 174.37 205.48C174.957 205.813 175.617 205.98 176.35 205.98ZM188.735 207.16C187.709 207.16 186.782 206.933 185.955 206.48C185.142 206.013 184.495 205.36 184.015 204.52C183.549 203.667 183.315 202.673 183.315 201.54C183.315 200.407 183.555 199.42 184.035 198.58C184.515 197.727 185.169 197.073 185.995 196.62C186.822 196.153 187.749 195.92 188.775 195.92C189.802 195.92 190.729 196.153 191.555 196.62C192.395 197.073 193.049 197.727 193.515 198.58C193.995 199.42 194.235 200.407 194.235 201.54C194.235 202.66 193.995 203.647 193.515 204.5C193.035 205.353 192.375 206.013 191.535 206.48C190.695 206.933 189.762 207.16 188.735 207.16ZM188.735 205.94C189.455 205.94 190.122 205.78 190.735 205.46C191.349 205.127 191.842 204.633 192.215 203.98C192.602 203.313 192.795 202.5 192.795 201.54C192.795 200.58 192.609 199.773 192.235 199.12C191.862 198.453 191.369 197.96 190.755 197.64C190.142 197.307 189.475 197.14 188.755 197.14C188.035 197.14 187.369 197.307 186.755 197.64C186.142 197.96 185.649 198.453 185.275 199.12C184.915 199.773 184.735 200.58 184.735 201.54C184.735 202.5 184.915 203.313 185.275 203.98C185.649 204.633 186.135 205.127 186.735 205.46C187.349 205.78 188.015 205.94 188.735 205.94ZM203.568 199V200.18H195.788V199H203.568ZM206.519 201.52C206.519 200.4 206.745 199.42 207.199 198.58C207.652 197.727 208.272 197.073 209.059 196.62C209.859 196.153 210.759 195.92 211.759 195.92C212.719 195.92 213.585 196.153 214.359 196.62C215.132 197.087 215.699 197.693 216.059 198.44V192.2H217.459V207H216.059V204.56C215.725 205.32 215.179 205.947 214.419 206.44C213.659 206.92 212.765 207.16 211.739 207.16C210.739 207.16 209.839 206.927 209.039 206.46C208.252 205.993 207.632 205.333 207.179 204.48C206.739 203.627 206.519 202.64 206.519 201.52ZM216.059 201.54C216.059 200.66 215.879 199.887 215.519 199.22C215.159 198.553 214.665 198.04 214.039 197.68C213.425 197.32 212.745 197.14 211.999 197.14C211.225 197.14 210.532 197.313 209.919 197.66C209.305 198.007 208.819 198.513 208.459 199.18C208.112 199.833 207.939 200.613 207.939 201.52C207.939 202.413 208.112 203.2 208.459 203.88C208.819 204.547 209.305 205.06 209.919 205.42C210.532 205.767 211.225 205.94 211.999 205.94C212.745 205.94 213.425 205.76 214.039 205.4C214.665 205.04 215.159 204.527 215.519 203.86C215.879 203.193 216.059 202.42 216.059 201.54ZM230.535 200.98C230.535 201.46 230.521 201.827 230.495 202.08H221.435C221.475 202.907 221.675 203.613 222.035 204.2C222.395 204.787 222.868 205.233 223.455 205.54C224.041 205.833 224.681 205.98 225.375 205.98C226.281 205.98 227.041 205.76 227.655 205.32C228.281 204.88 228.695 204.287 228.895 203.54H230.375C230.108 204.607 229.535 205.48 228.655 206.16C227.788 206.827 226.695 207.16 225.375 207.16C224.348 207.16 223.428 206.933 222.615 206.48C221.801 206.013 221.161 205.36 220.695 204.52C220.241 203.667 220.015 202.673 220.015 201.54C220.015 200.407 220.241 199.413 220.695 198.56C221.148 197.707 221.781 197.053 222.595 196.6C223.408 196.147 224.335 195.92 225.375 195.92C226.415 195.92 227.321 196.147 228.095 196.6C228.881 197.053 229.481 197.667 229.895 198.44C230.321 199.2 230.535 200.047 230.535 200.98ZM229.115 200.94C229.128 200.127 228.961 199.433 228.615 198.86C228.281 198.287 227.821 197.853 227.235 197.56C226.648 197.267 226.008 197.12 225.315 197.12C224.275 197.12 223.388 197.453 222.655 198.12C221.921 198.787 221.515 199.727 221.435 200.94H229.115ZM239.876 199V200.18H232.096V199H239.876ZM253.347 200.98C253.347 201.46 253.334 201.827 253.307 202.08H244.247C244.287 202.907 244.487 203.613 244.847 204.2C245.207 204.787 245.681 205.233 246.267 205.54C246.854 205.833 247.494 205.98 248.187 205.98C249.094 205.98 249.854 205.76 250.467 205.32C251.094 204.88 251.507 204.287 251.707 203.54H253.187C252.921 204.607 252.347 205.48 251.467 206.16C250.601 206.827 249.507 207.16 248.187 207.16C247.161 207.16 246.241 206.933 245.427 206.48C244.614 206.013 243.974 205.36 243.507 204.52C243.054 203.667 242.827 202.673 242.827 201.54C242.827 200.407 243.054 199.413 243.507 198.56C243.961 197.707 244.594 197.053 245.407 196.6C246.221 196.147 247.147 195.92 248.187 195.92C249.227 195.92 250.134 196.147 250.907 196.6C251.694 197.053 252.294 197.667 252.707 198.44C253.134 199.2 253.347 200.047 253.347 200.98ZM251.927 200.94C251.941 200.127 251.774 199.433 251.427 198.86C251.094 198.287 250.634 197.853 250.047 197.56C249.461 197.267 248.821 197.12 248.127 197.12C247.087 197.12 246.201 197.453 245.467 198.12C244.734 198.787 244.327 199.727 244.247 200.94H251.927ZM259.789 205.64L263.469 196.08H264.949L260.569 207H258.989L254.609 196.08H256.109L259.789 205.64ZM271.626 207.16C270.599 207.16 269.673 206.933 268.846 206.48C268.033 206.013 267.386 205.36 266.906 204.52C266.439 203.667 266.206 202.673 266.206 201.54C266.206 200.407 266.446 199.42 266.926 198.58C267.406 197.727 268.059 197.073 268.886 196.62C269.713 196.153 270.639 195.92 271.666 195.92C272.693 195.92 273.619 196.153 274.446 196.62C275.286 197.073 275.939 197.727 276.406 198.58C276.886 199.42 277.126 200.407 277.126 201.54C277.126 202.66 276.886 203.647 276.406 204.5C275.926 205.353 275.266 206.013 274.426 206.48C273.586 206.933 272.653 207.16 271.626 207.16ZM271.626 205.94C272.346 205.94 273.013 205.78 273.626 205.46C274.239 205.127 274.733 204.633 275.106 203.98C275.493 203.313 275.686 202.5 275.686 201.54C275.686 200.58 275.499 199.773 275.126 199.12C274.753 198.453 274.259 197.96 273.646 197.64C273.033 197.307 272.366 197.14 271.646 197.14C270.926 197.14 270.259 197.307 269.646 197.64C269.033 197.96 268.539 198.453 268.166 199.12C267.806 199.773 267.626 200.58 267.626 201.54C267.626 202.5 267.806 203.313 268.166 203.98C268.539 204.633 269.026 205.127 269.626 205.46C270.239 205.78 270.906 205.94 271.626 205.94ZM281.078 192.2V207H279.678V192.2H281.078ZM293.708 196.08V207H292.308V205.08C291.988 205.76 291.495 206.28 290.828 206.64C290.162 207 289.415 207.18 288.588 207.18C287.282 207.18 286.215 206.78 285.388 205.98C284.562 205.167 284.148 203.993 284.148 202.46V196.08H285.528V202.3C285.528 203.487 285.822 204.393 286.408 205.02C287.008 205.647 287.822 205.96 288.848 205.96C289.902 205.96 290.742 205.627 291.368 204.96C291.995 204.293 292.308 203.313 292.308 202.02V196.08H293.708ZM301.565 205.98C302.485 205.98 303.251 205.76 303.865 205.32C304.491 204.867 304.898 204.24 305.085 203.44H306.585C306.345 204.493 305.825 205.353 305.025 206.02C304.238 206.687 303.238 207.06 302.025 207.14V208.34C302.811 208.313 303.431 208.46 303.885 208.78C304.351 209.113 304.585 209.587 304.585 210.2C304.585 210.8 304.371 211.273 303.945 211.62C303.518 211.98 302.951 212.16 302.245 212.16H300.245V211.22H301.965C302.458 211.22 302.818 211.133 303.045 210.96C303.285 210.8 303.405 210.547 303.405 210.2C303.405 209.56 302.925 209.24 301.965 209.24H301.045V207.14C300.111 207.06 299.285 206.787 298.565 206.32C297.845 205.84 297.278 205.193 296.865 204.38C296.465 203.553 296.265 202.607 296.265 201.54C296.265 200.407 296.491 199.42 296.945 198.58C297.398 197.727 298.025 197.073 298.825 196.62C299.625 196.153 300.538 195.92 301.565 195.92C302.911 195.92 304.018 196.253 304.885 196.92C305.765 197.587 306.331 198.493 306.585 199.64H305.085C304.898 198.853 304.491 198.24 303.865 197.8C303.251 197.347 302.485 197.12 301.565 197.12C300.831 197.12 300.171 197.287 299.585 197.62C298.998 197.953 298.531 198.453 298.185 199.12C297.851 199.773 297.685 200.58 297.685 201.54C297.685 202.5 297.851 203.313 298.185 203.98C298.531 204.647 298.998 205.147 299.585 205.48C300.171 205.813 300.831 205.98 301.565 205.98ZM308.53 201.52C308.53 200.4 308.75 199.42 309.19 198.58C309.644 197.727 310.264 197.073 311.05 196.62C311.85 196.153 312.75 195.92 313.75 195.92C314.79 195.92 315.684 196.16 316.43 196.64C317.19 197.12 317.737 197.733 318.07 198.48V196.08H319.47V207H318.07V204.58C317.724 205.327 317.17 205.947 316.41 206.44C315.664 206.92 314.77 207.16 313.73 207.16C312.744 207.16 311.85 206.927 311.05 206.46C310.264 205.993 309.644 205.333 309.19 204.48C308.75 203.627 308.53 202.64 308.53 201.52ZM318.07 201.54C318.07 200.66 317.89 199.887 317.53 199.22C317.17 198.553 316.677 198.04 316.05 197.68C315.437 197.32 314.757 197.14 314.01 197.14C313.237 197.14 312.544 197.313 311.93 197.66C311.317 198.007 310.83 198.513 310.47 199.18C310.124 199.833 309.95 200.613 309.95 201.52C309.95 202.413 310.124 203.2 310.47 203.88C310.83 204.547 311.317 205.06 311.93 205.42C312.544 205.767 313.237 205.94 314.01 205.94C314.757 205.94 315.437 205.76 316.05 205.4C316.677 205.04 317.17 204.527 317.53 203.86C317.89 203.193 318.07 202.42 318.07 201.54ZM311.71 194.88C311.79 194.28 311.984 193.82 312.29 193.5C312.597 193.18 312.99 193.02 313.47 193.02C313.71 193.02 313.917 193.067 314.09 193.16C314.264 193.24 314.47 193.36 314.71 193.52C314.91 193.667 315.084 193.78 315.23 193.86C315.377 193.927 315.537 193.96 315.71 193.96C315.937 193.96 316.13 193.887 316.29 193.74C316.45 193.58 316.55 193.353 316.59 193.06H317.43C317.377 193.647 317.184 194.107 316.85 194.44C316.53 194.76 316.13 194.92 315.65 194.92C315.397 194.92 315.177 194.88 314.99 194.8C314.817 194.707 314.61 194.573 314.37 194.4C314.184 194.253 314.017 194.147 313.87 194.08C313.737 194.013 313.584 193.98 313.41 193.98C312.93 193.98 312.65 194.28 312.57 194.88H311.71ZM327.446 207.16C326.42 207.16 325.493 206.933 324.666 206.48C323.853 206.013 323.206 205.36 322.726 204.52C322.26 203.667 322.026 202.673 322.026 201.54C322.026 200.407 322.266 199.42 322.746 198.58C323.226 197.727 323.88 197.073 324.706 196.62C325.533 196.153 326.46 195.92 327.486 195.92C328.513 195.92 329.44 196.153 330.266 196.62C331.106 197.073 331.76 197.727 332.226 198.58C332.706 199.42 332.946 200.407 332.946 201.54C332.946 202.66 332.706 203.647 332.226 204.5C331.746 205.353 331.086 206.013 330.246 206.48C329.406 206.933 328.473 207.16 327.446 207.16ZM327.446 205.94C328.166 205.94 328.833 205.78 329.446 205.46C330.06 205.127 330.553 204.633 330.926 203.98C331.313 203.313 331.506 202.5 331.506 201.54C331.506 200.58 331.32 199.773 330.946 199.12C330.573 198.453 330.08 197.96 329.466 197.64C328.853 197.307 328.186 197.14 327.466 197.14C326.746 197.14 326.08 197.307 325.466 197.64C324.853 197.96 324.36 198.453 323.986 199.12C323.626 199.773 323.446 200.58 323.446 201.54C323.446 202.5 323.626 203.313 323.986 203.98C324.36 204.633 324.846 205.127 325.446 205.46C326.06 205.78 326.726 205.94 327.446 205.94Z" fill="black"/>
<path d="M235 270C235 264.477 230.523 260 225 260C219.477 260 215 264.477 215 270C215 275.523 219.477 280 225 280C230.523 280 235 275.523 235 270Z" fill="#C4C4C4"/>
<path d="M241.667 16.25H208.333C206.035 16.25 204.167 18.1187 204.167 20.4167V49.5833C204.167 51.8812 206.035 53.75 208.333 53.75H241.667C243.965 53.75 245.833 51.8812 245.833 49.5833V20.4167C245.833 18.1187 243.965 16.25 241.667 16.25ZM208.333 49.5833V24.5833H241.667L241.671 49.5833H208.333Z" fill="black"/>
<path d="M219.36 29.3604L211.638 37.0833L219.36 44.8062L222.306 41.8603L217.529 37.0833L222.306 32.3062L219.36 29.3604ZM230.64 29.3604L227.694 32.3062L232.471 37.0833L227.694 41.8603L230.64 44.8062L238.363 37.0833L230.64 29.3604Z" fill="black"/>
</svg>
