<svg width="450" height="265" viewBox="0 0 450 265" fill="none" xmlns="http://www.w3.org/2000/svg">
<path d="M445 0.5H5C2.51472 0.5 0.5 2.51472 0.5 5V260C0.5 262.485 2.51472 264.5 5 264.5H445C447.485 264.5 449.5 262.485 449.5 260V5C449.5 2.51472 447.485 0.5 445 0.5Z" stroke="black"/>
<path d="M124.019 75.88C125.325 75.88 126.392 76.2867 127.219 77.1C128.045 77.9 128.459 79.0667 128.459 80.6V87H127.079V80.76C127.079 79.5733 126.779 78.6667 126.179 78.04C125.592 77.4133 124.785 77.1 123.759 77.1C122.705 77.1 121.865 77.4333 121.239 78.1C120.612 78.7667 120.299 79.7467 120.299 81.04V87H118.899V76.08H120.299V77.94C120.645 77.2733 121.145 76.7667 121.799 76.42C122.452 76.06 123.192 75.88 124.019 75.88ZM136.335 87.16C135.308 87.16 134.382 86.9333 133.555 86.48C132.742 86.0133 132.095 85.36 131.615 84.52C131.148 83.6667 130.915 82.6733 130.915 81.54C130.915 80.4067 131.155 79.42 131.635 78.58C132.115 77.7267 132.768 77.0733 133.595 76.62C134.422 76.1533 135.348 75.92 136.375 75.92C137.402 75.92 138.328 76.1533 139.155 76.62C139.995 77.0733 140.648 77.7267 141.115 78.58C141.595 79.42 141.835 80.4067 141.835 81.54C141.835 82.66 141.595 83.6467 141.115 84.5C140.635 85.3533 139.975 86.0133 139.135 86.48C138.295 86.9333 137.362 87.16 136.335 87.16ZM136.335 85.94C137.055 85.94 137.722 85.78 138.335 85.46C138.948 85.1267 139.442 84.6333 139.815 83.98C140.202 83.3133 140.395 82.5 140.395 81.54C140.395 80.58 140.208 79.7733 139.835 79.12C139.462 78.4533 138.968 77.96 138.355 77.64C137.742 77.3067 137.075 77.14 136.355 77.14C135.635 77.14 134.968 77.3067 134.355 77.64C133.742 77.96 133.248 78.4533 132.875 79.12C132.515 79.7733 132.335 80.58 132.335 81.54C132.335 82.5 132.515 83.3133 132.875 83.98C133.248 84.6333 133.735 85.1267 134.335 85.46C134.948 85.78 135.615 85.94 136.335 85.94ZM157.387 75.88C158.667 75.88 159.707 76.2867 160.507 77.1C161.32 77.9 161.727 79.0667 161.727 80.6V87H160.347V80.76C160.347 79.5733 160.06 78.6667 159.487 78.04C158.914 77.4133 158.134 77.1 157.147 77.1C156.12 77.1 155.3 77.44 154.687 78.12C154.074 78.8 153.767 79.7867 153.767 81.08V87H152.387V80.76C152.387 79.5733 152.1 78.6667 151.527 78.04C150.954 77.4133 150.167 77.1 149.167 77.1C148.14 77.1 147.32 77.44 146.707 78.12C146.094 78.8 145.787 79.7867 145.787 81.08V87H144.387V76.08H145.787V77.96C146.134 77.28 146.627 76.7667 147.267 76.42C147.907 76.06 148.62 75.88 149.407 75.88C150.354 75.88 151.18 76.1067 151.887 76.56C152.607 77.0133 153.127 77.68 153.447 78.56C153.74 77.6933 154.24 77.0333 154.947 76.58C155.667 76.1133 156.48 75.88 157.387 75.88ZM174.716 80.98C174.716 81.46 174.703 81.8267 174.676 82.08H165.616C165.656 82.9067 165.856 83.6133 166.216 84.2C166.576 84.7867 167.05 85.2333 167.636 85.54C168.223 85.8333 168.863 85.98 169.556 85.98C170.463 85.98 171.223 85.76 171.836 85.32C172.463 84.88 172.876 84.2867 173.076 83.54H174.556C174.29 84.6067 173.716 85.48 172.836 86.16C171.97 86.8267 170.876 87.16 169.556 87.16C168.53 87.16 167.61 86.9333 166.796 86.48C165.983 86.0133 165.343 85.36 164.876 84.52C164.423 83.6667 164.196 82.6733 164.196 81.54C164.196 80.4067 164.423 79.4133 164.876 78.56C165.33 77.7067 165.963 77.0533 166.776 76.6C167.59 76.1467 168.516 75.92 169.556 75.92C170.596 75.92 171.503 76.1467 172.276 76.6C173.063 77.0533 173.663 77.6667 174.076 78.44C174.503 79.2 174.716 80.0467 174.716 80.98ZM173.296 80.94C173.31 80.1267 173.143 79.4333 172.796 78.86C172.463 78.2867 172.003 77.8533 171.416 77.56C170.83 77.2667 170.19 77.12 169.496 77.12C168.456 77.12 167.57 77.4533 166.836 78.12C166.103 78.7867 165.696 79.7267 165.616 80.94H173.296ZM184.058 79V80.18H176.278V79H184.058ZM187.009 81.52C187.009 80.4 187.235 79.42 187.689 78.58C188.142 77.7267 188.762 77.0733 189.549 76.62C190.349 76.1533 191.249 75.92 192.249 75.92C193.209 75.92 194.075 76.1533 194.849 76.62C195.622 77.0867 196.189 77.6933 196.549 78.44V72.2H197.949V87H196.549V84.56C196.215 85.32 195.669 85.9467 194.909 86.44C194.149 86.92 193.255 87.16 192.229 87.16C191.229 87.16 190.329 86.9267 189.529 86.46C188.742 85.9933 188.122 85.3333 187.669 84.48C187.229 83.6267 187.009 82.64 187.009 81.52ZM196.549 81.54C196.549 80.66 196.369 79.8867 196.009 79.22C195.649 78.5533 195.155 78.04 194.529 77.68C193.915 77.32 193.235 77.14 192.489 77.14C191.715 77.14 191.022 77.3133 190.409 77.66C189.795 78.0067 189.309 78.5133 188.949 79.18C188.602 79.8333 188.429 80.6133 188.429 81.52C188.429 82.4133 188.602 83.2 188.949 83.88C189.309 84.5467 189.795 85.06 190.409 85.42C191.022 85.7667 191.715 85.94 192.489 85.94C193.235 85.94 193.915 85.76 194.529 85.4C195.155 85.04 195.649 84.5267 196.009 83.86C196.369 83.1933 196.549 82.42 196.549 81.54ZM200.505 81.52C200.505 80.4 200.725 79.42 201.165 78.58C201.618 77.7267 202.238 77.0733 203.025 76.62C203.825 76.1533 204.725 75.92 205.725 75.92C206.765 75.92 207.658 76.16 208.405 76.64C209.165 77.12 209.712 77.7333 210.045 78.48V76.08H211.445V87H210.045V84.58C209.698 85.3267 209.145 85.9467 208.385 86.44C207.638 86.92 206.745 87.16 205.705 87.16C204.718 87.16 203.825 86.9267 203.025 86.46C202.238 85.9933 201.618 85.3333 201.165 84.48C200.725 83.6267 200.505 82.64 200.505 81.52ZM210.045 81.54C210.045 80.66 209.865 79.8867 209.505 79.22C209.145 78.5533 208.652 78.04 208.025 77.68C207.412 77.32 206.732 77.14 205.985 77.14C205.212 77.14 204.518 77.3133 203.905 77.66C203.292 78.0067 202.805 78.5133 202.445 79.18C202.098 79.8333 201.925 80.6133 201.925 81.52C201.925 82.4133 202.098 83.2 202.445 83.88C202.805 84.5467 203.292 85.06 203.905 85.42C204.518 85.7667 205.212 85.94 205.985 85.94C206.732 85.94 207.412 85.76 208.025 85.4C208.652 85.04 209.145 84.5267 209.505 83.86C209.865 83.1933 210.045 82.42 210.045 81.54ZM221.421 79V80.18H213.641V79H221.421ZM226.832 77.26V84.04C226.832 84.7067 226.959 85.1667 227.212 85.42C227.465 85.6733 227.912 85.8 228.552 85.8H229.832V87H228.332C227.345 87 226.612 86.7733 226.132 86.32C225.652 85.8533 225.412 85.0933 225.412 84.04V77.26H223.892V76.08H225.412V73.34H226.832V76.08H229.832V77.26H226.832ZM242.021 80.98C242.021 81.46 242.008 81.8267 241.981 82.08H232.921C232.961 82.9067 233.161 83.6133 233.521 84.2C233.881 84.7867 234.354 85.2333 234.941 85.54C235.528 85.8333 236.168 85.98 236.861 85.98C237.768 85.98 238.528 85.76 239.141 85.32C239.768 84.88 240.181 84.2867 240.381 83.54H241.861C241.594 84.6067 241.021 85.48 240.141 86.16C239.274 86.8267 238.181 87.16 236.861 87.16C235.834 87.16 234.914 86.9333 234.101 86.48C233.288 86.0133 232.648 85.36 232.181 84.52C231.728 83.6667 231.501 82.6733 231.501 81.54C231.501 80.4067 231.728 79.4133 232.181 78.56C232.634 77.7067 233.268 77.0533 234.081 76.6C234.894 76.1467 235.821 75.92 236.861 75.92C237.901 75.92 238.808 76.1467 239.581 76.6C240.368 77.0533 240.968 77.6667 241.381 78.44C241.808 79.2 242.021 80.0467 242.021 80.98ZM240.601 80.94C240.614 80.1267 240.448 79.4333 240.101 78.86C239.768 78.2867 239.308 77.8533 238.721 77.56C238.134 77.2667 237.494 77.12 236.801 77.12C235.761 77.12 234.874 77.4533 234.141 78.12C233.408 78.7867 233.001 79.7267 232.921 80.94H240.601ZM243.942 81.54C243.942 80.4067 244.169 79.42 244.622 78.58C245.076 77.7267 245.702 77.0733 246.502 76.62C247.302 76.1533 248.216 75.92 249.242 75.92C250.589 75.92 251.696 76.2533 252.562 76.92C253.442 77.5867 254.009 78.4933 254.262 79.64H252.762C252.576 78.8533 252.169 78.24 251.542 77.8C250.929 77.3467 250.162 77.12 249.242 77.12C248.509 77.12 247.849 77.2867 247.262 77.62C246.676 77.9533 246.209 78.4533 245.862 79.12C245.529 79.7733 245.362 80.58 245.362 81.54C245.362 82.5 245.529 83.3133 245.862 83.98C246.209 84.6467 246.676 85.1467 247.262 85.48C247.849 85.8133 248.509 85.98 249.242 85.98C250.162 85.98 250.929 85.76 251.542 85.32C252.169 84.8667 252.576 84.24 252.762 83.44H254.262C254.009 84.56 253.442 85.46 252.562 86.14C251.682 86.82 250.576 87.16 249.242 87.16C248.216 87.16 247.302 86.9333 246.502 86.48C245.702 86.0133 245.076 85.36 244.622 84.52C244.169 83.6667 243.942 82.6733 243.942 81.54ZM261.968 75.88C263.275 75.88 264.341 76.2867 265.168 77.1C265.995 77.9 266.408 79.0667 266.408 80.6V87H265.028V80.76C265.028 79.5733 264.728 78.6667 264.128 78.04C263.541 77.4133 262.735 77.1 261.708 77.1C260.655 77.1 259.815 77.4333 259.188 78.1C258.561 78.7667 258.248 79.7467 258.248 81.04V87H256.848V76.08H258.248V77.94C258.595 77.2733 259.095 76.7667 259.748 76.42C260.401 76.06 261.141 75.88 261.968 75.88ZM274.284 87.16C273.258 87.16 272.331 86.9333 271.504 86.48C270.691 86.0133 270.044 85.36 269.564 84.52C269.098 83.6667 268.864 82.6733 268.864 81.54C268.864 80.4067 269.104 79.42 269.584 78.58C270.064 77.7267 270.718 77.0733 271.544 76.62C272.371 76.1533 273.298 75.92 274.324 75.92C275.351 75.92 276.278 76.1533 277.104 76.62C277.944 77.0733 278.598 77.7267 279.064 78.58C279.544 79.42 279.784 80.4067 279.784 81.54C279.784 82.66 279.544 83.6467 279.064 84.5C278.584 85.3533 277.924 86.0133 277.084 86.48C276.244 86.9333 275.311 87.16 274.284 87.16ZM274.284 85.94C275.004 85.94 275.671 85.78 276.284 85.46C276.898 85.1267 277.391 84.6333 277.764 83.98C278.151 83.3133 278.344 82.5 278.344 81.54C278.344 80.58 278.158 79.7733 277.784 79.12C277.411 78.4533 276.918 77.96 276.304 77.64C275.691 77.3067 275.024 77.14 274.304 77.14C273.584 77.14 272.918 77.3067 272.304 77.64C271.691 77.96 271.198 78.4533 270.824 79.12C270.464 79.7733 270.284 80.58 270.284 81.54C270.284 82.5 270.464 83.3133 270.824 83.98C271.198 84.6333 271.684 85.1267 272.284 85.46C272.898 85.78 273.564 85.94 274.284 85.94ZM283.736 72.2V87H282.336V72.2H283.736ZM291.687 87.16C290.66 87.16 289.733 86.9333 288.907 86.48C288.093 86.0133 287.447 85.36 286.967 84.52C286.5 83.6667 286.267 82.6733 286.267 81.54C286.267 80.4067 286.507 79.42 286.987 78.58C287.467 77.7267 288.12 77.0733 288.947 76.62C289.773 76.1533 290.7 75.92 291.727 75.92C292.753 75.92 293.68 76.1533 294.507 76.62C295.347 77.0733 296 77.7267 296.467 78.58C296.947 79.42 297.187 80.4067 297.187 81.54C297.187 82.66 296.947 83.6467 296.467 84.5C295.987 85.3533 295.327 86.0133 294.487 86.48C293.647 86.9333 292.713 87.16 291.687 87.16ZM291.687 85.94C292.407 85.94 293.073 85.78 293.687 85.46C294.3 85.1267 294.793 84.6333 295.167 83.98C295.553 83.3133 295.747 82.5 295.747 81.54C295.747 80.58 295.56 79.7733 295.187 79.12C294.813 78.4533 294.32 77.96 293.707 77.64C293.093 77.3067 292.427 77.14 291.707 77.14C290.987 77.14 290.32 77.3067 289.707 77.64C289.093 77.96 288.6 78.4533 288.227 79.12C287.867 79.7733 287.687 80.58 287.687 81.54C287.687 82.5 287.867 83.3133 288.227 83.98C288.6 84.6333 289.087 85.1267 289.687 85.46C290.3 85.78 290.967 85.94 291.687 85.94ZM304.319 75.92C305.345 75.92 306.239 76.16 306.999 76.64C307.759 77.12 308.305 77.7267 308.639 78.46V76.08H310.039V87.28C310.039 88.28 309.819 89.1667 309.379 89.94C308.952 90.7133 308.352 91.3067 307.579 91.72C306.805 92.1467 305.925 92.36 304.939 92.36C303.539 92.36 302.372 92.0267 301.439 91.36C300.519 90.6933 299.945 89.7867 299.719 88.64H301.099C301.339 89.4 301.792 90.0067 302.459 90.46C303.139 90.9133 303.965 91.14 304.939 91.14C305.645 91.14 306.279 90.9867 306.839 90.68C307.399 90.3867 307.839 89.9467 308.159 89.36C308.479 88.7733 308.639 88.08 308.639 87.28V84.58C308.292 85.3267 307.739 85.9467 306.979 86.44C306.232 86.92 305.345 87.16 304.319 87.16C303.319 87.16 302.419 86.9267 301.619 86.46C300.832 85.9933 300.212 85.3333 299.759 84.48C299.319 83.6267 299.099 82.64 299.099 81.52C299.099 80.4 299.319 79.42 299.759 78.58C300.212 77.7267 300.832 77.0733 301.619 76.62C302.419 76.1533 303.319 75.92 304.319 75.92ZM308.639 81.54C308.639 80.66 308.459 79.8867 308.099 79.22C307.739 78.5533 307.245 78.04 306.619 77.68C306.005 77.32 305.325 77.14 304.579 77.14C303.805 77.14 303.112 77.3133 302.499 77.66C301.885 78.0067 301.399 78.5133 301.039 79.18C300.692 79.8333 300.519 80.6133 300.519 81.52C300.519 82.4133 300.692 83.2 301.039 83.88C301.399 84.5467 301.885 85.06 302.499 85.42C303.112 85.7667 303.805 85.94 304.579 85.94C305.325 85.94 306.005 85.76 306.619 85.4C307.245 85.04 307.739 84.5267 308.099 83.86C308.459 83.1933 308.639 82.42 308.639 81.54ZM313.935 74.02C313.655 74.02 313.415 73.92 313.215 73.72C313.015 73.52 312.915 73.2733 312.915 72.98C312.915 72.6867 313.015 72.4467 313.215 72.26C313.415 72.06 313.655 71.96 313.935 71.96C314.215 71.96 314.455 72.06 314.655 72.26C314.855 72.4467 314.955 72.6867 314.955 72.98C314.955 73.2733 314.855 73.52 314.655 73.72C314.455 73.92 314.215 74.02 313.935 74.02ZM314.635 76.08V87H313.235V76.08H314.635ZM317.165 81.52C317.165 80.4 317.385 79.42 317.825 78.58C318.278 77.7267 318.898 77.0733 319.685 76.62C320.485 76.1533 321.385 75.92 322.385 75.92C323.425 75.92 324.318 76.16 325.065 76.64C325.825 77.12 326.372 77.7333 326.705 78.48V76.08H328.105V87H326.705V84.58C326.358 85.3267 325.805 85.9467 325.045 86.44C324.298 86.92 323.405 87.16 322.365 87.16C321.378 87.16 320.485 86.9267 319.685 86.46C318.898 85.9933 318.278 85.3333 317.825 84.48C317.385 83.6267 317.165 82.64 317.165 81.52ZM326.705 81.54C326.705 80.66 326.525 79.8867 326.165 79.22C325.805 78.5533 325.312 78.04 324.685 77.68C324.072 77.32 323.392 77.14 322.645 77.14C321.872 77.14 321.178 77.3133 320.565 77.66C319.952 78.0067 319.465 78.5133 319.105 79.18C318.758 79.8333 318.585 80.6133 318.585 81.52C318.585 82.4133 318.758 83.2 319.105 83.88C319.465 84.5467 319.952 85.06 320.565 85.42C321.178 85.7667 321.872 85.94 322.645 85.94C323.392 85.94 324.072 85.76 324.685 85.4C325.312 85.04 325.805 84.5267 326.165 83.86C326.525 83.1933 326.705 82.42 326.705 81.54Z" fill="black"/>
<path d="M207.906 117.26V124.04C207.906 124.707 208.033 125.167 208.286 125.42C208.54 125.673 208.986 125.8 209.626 125.8H210.906V127H209.406C208.42 127 207.686 126.773 207.206 126.32C206.726 125.853 206.486 125.093 206.486 124.04V117.26H204.966V116.08H206.486V113.34H207.906V116.08H210.906V117.26H207.906ZM213.915 114.02C213.635 114.02 213.395 113.92 213.195 113.72C212.995 113.52 212.895 113.273 212.895 112.98C212.895 112.687 212.995 112.447 213.195 112.26C213.395 112.06 213.635 111.96 213.915 111.96C214.195 111.96 214.435 112.06 214.635 112.26C214.835 112.447 214.935 112.687 214.935 112.98C214.935 113.273 214.835 113.52 214.635 113.72C214.435 113.92 214.195 114.02 213.915 114.02ZM214.615 116.08V127H213.215V116.08H214.615ZM219.166 118.48C219.512 117.747 220.059 117.14 220.806 116.66C221.566 116.167 222.466 115.92 223.506 115.92C224.492 115.92 225.379 116.153 226.166 116.62C226.966 117.073 227.586 117.727 228.026 118.58C228.479 119.42 228.706 120.4 228.706 121.52C228.706 122.64 228.479 123.627 228.026 124.48C227.586 125.333 226.966 125.993 226.166 126.46C225.379 126.927 224.492 127.16 223.506 127.16C222.479 127.16 221.586 126.92 220.826 126.44C220.066 125.947 219.512 125.333 219.166 124.6V132.16H217.786V116.08H219.166V118.48ZM227.286 121.52C227.286 120.613 227.106 119.833 226.746 119.18C226.399 118.513 225.919 118.007 225.306 117.66C224.692 117.313 223.999 117.14 223.226 117.14C222.479 117.14 221.792 117.32 221.166 117.68C220.552 118.04 220.066 118.553 219.706 119.22C219.346 119.887 219.166 120.66 219.166 121.54C219.166 122.42 219.346 123.193 219.706 123.86C220.066 124.527 220.552 125.04 221.166 125.4C221.792 125.76 222.479 125.94 223.226 125.94C223.999 125.94 224.692 125.767 225.306 125.42C225.919 125.06 226.399 124.547 226.746 123.88C227.106 123.2 227.286 122.413 227.286 121.52ZM236.062 127.16C235.035 127.16 234.108 126.933 233.282 126.48C232.468 126.013 231.822 125.36 231.342 124.52C230.875 123.667 230.642 122.673 230.642 121.54C230.642 120.407 230.882 119.42 231.362 118.58C231.842 117.727 232.495 117.073 233.322 116.62C234.148 116.153 235.075 115.92 236.102 115.92C237.128 115.92 238.055 116.153 238.882 116.62C239.722 117.073 240.375 117.727 240.842 118.58C241.322 119.42 241.562 120.407 241.562 121.54C241.562 122.66 241.322 123.647 240.842 124.5C240.362 125.353 239.702 126.013 238.862 126.48C238.022 126.933 237.088 127.16 236.062 127.16ZM236.062 125.94C236.782 125.94 237.448 125.78 238.062 125.46C238.675 125.127 239.168 124.633 239.542 123.98C239.928 123.313 240.122 122.5 240.122 121.54C240.122 120.58 239.935 119.773 239.562 119.12C239.188 118.453 238.695 117.96 238.082 117.64C237.468 117.307 236.802 117.14 236.082 117.14C235.362 117.14 234.695 117.307 234.082 117.64C233.468 117.96 232.975 118.453 232.602 119.12C232.242 119.773 232.062 120.58 232.062 121.54C232.062 122.5 232.242 123.313 232.602 123.98C232.975 124.633 233.462 125.127 234.062 125.46C234.675 125.78 235.342 125.94 236.062 125.94Z" fill="black"/>
<path d="M214.46 247.16C213.206 247.16 212.18 246.873 211.38 246.3C210.593 245.713 210.153 244.92 210.06 243.92H211.5C211.566 244.533 211.853 245.033 212.36 245.42C212.88 245.793 213.573 245.98 214.44 245.98C215.2 245.98 215.793 245.8 216.22 245.44C216.66 245.08 216.88 244.633 216.88 244.1C216.88 243.727 216.76 243.42 216.52 243.18C216.28 242.94 215.973 242.753 215.6 242.62C215.24 242.473 214.746 242.32 214.12 242.16C213.306 241.947 212.646 241.733 212.14 241.52C211.633 241.307 211.2 240.993 210.84 240.58C210.493 240.153 210.32 239.587 210.32 238.88C210.32 238.347 210.48 237.853 210.8 237.4C211.12 236.947 211.573 236.587 212.16 236.32C212.746 236.053 213.413 235.92 214.16 235.92C215.333 235.92 216.28 236.22 217 236.82C217.72 237.407 218.106 238.22 218.16 239.26H216.76C216.72 238.62 216.466 238.107 216 237.72C215.546 237.32 214.92 237.12 214.12 237.12C213.413 237.12 212.84 237.287 212.4 237.62C211.96 237.953 211.74 238.367 211.74 238.86C211.74 239.287 211.866 239.64 212.12 239.92C212.386 240.187 212.713 240.4 213.1 240.56C213.486 240.707 214.006 240.873 214.66 241.06C215.446 241.273 216.073 241.48 216.54 241.68C217.006 241.88 217.406 242.173 217.74 242.56C218.073 242.947 218.246 243.46 218.26 244.1C218.26 244.687 218.1 245.213 217.78 245.68C217.46 246.133 217.013 246.493 216.44 246.76C215.866 247.027 215.206 247.16 214.46 247.16ZM222.715 237.26V244.04C222.715 244.707 222.842 245.167 223.095 245.42C223.348 245.673 223.795 245.8 224.435 245.8H225.715V247H224.215C223.228 247 222.495 246.773 222.015 246.32C221.535 245.853 221.295 245.093 221.295 244.04V237.26H219.775V236.08H221.295V233.34H222.715V236.08H225.715V237.26H222.715ZM227.384 241.52C227.384 240.4 227.604 239.42 228.044 238.58C228.497 237.727 229.117 237.073 229.904 236.62C230.704 236.153 231.604 235.92 232.604 235.92C233.644 235.92 234.537 236.16 235.284 236.64C236.044 237.12 236.59 237.733 236.924 238.48V236.08H238.324V247H236.924V244.58C236.577 245.327 236.024 245.947 235.264 246.44C234.517 246.92 233.624 247.16 232.584 247.16C231.597 247.16 230.704 246.927 229.904 246.46C229.117 245.993 228.497 245.333 228.044 244.48C227.604 243.627 227.384 242.64 227.384 241.52ZM236.924 241.54C236.924 240.66 236.744 239.887 236.384 239.22C236.024 238.553 235.53 238.04 234.904 237.68C234.29 237.32 233.61 237.14 232.864 237.14C232.09 237.14 231.397 237.313 230.784 237.66C230.17 238.007 229.684 238.513 229.324 239.18C228.977 239.833 228.804 240.613 228.804 241.52C228.804 242.413 228.977 243.2 229.324 243.88C229.684 244.547 230.17 245.06 230.784 245.42C231.397 245.767 232.09 245.94 232.864 245.94C233.61 245.94 234.29 245.76 234.904 245.4C235.53 245.04 236.024 244.527 236.384 243.86C236.744 243.193 236.924 242.42 236.924 241.54ZM243.34 237.26V244.04C243.34 244.707 243.467 245.167 243.72 245.42C243.973 245.673 244.42 245.8 245.06 245.8H246.34V247H244.84C243.853 247 243.12 246.773 242.64 246.32C242.16 245.853 241.92 245.093 241.92 244.04V237.26H240.4V236.08H241.92V233.34H243.34V236.08H246.34V237.26H243.34ZM258.109 236.08V247H256.709V245.08C256.389 245.76 255.895 246.28 255.229 246.64C254.562 247 253.815 247.18 252.989 247.18C251.682 247.18 250.615 246.78 249.789 245.98C248.962 245.167 248.549 243.993 248.549 242.46V236.08H249.929V242.3C249.929 243.487 250.222 244.393 250.809 245.02C251.409 245.647 252.222 245.96 253.249 245.96C254.302 245.96 255.142 245.627 255.769 244.96C256.395 244.293 256.709 243.313 256.709 242.02V236.08H258.109ZM265.065 247.16C263.812 247.16 262.785 246.873 261.985 246.3C261.198 245.713 260.758 244.92 260.665 243.92H262.105C262.172 244.533 262.458 245.033 262.965 245.42C263.485 245.793 264.178 245.98 265.045 245.98C265.805 245.98 266.398 245.8 266.825 245.44C267.265 245.08 267.485 244.633 267.485 244.1C267.485 243.727 267.365 243.42 267.125 243.18C266.885 242.94 266.578 242.753 266.205 242.62C265.845 242.473 265.352 242.32 264.725 242.16C263.912 241.947 263.252 241.733 262.745 241.52C262.238 241.307 261.805 240.993 261.445 240.58C261.098 240.153 260.925 239.587 260.925 238.88C260.925 238.347 261.085 237.853 261.405 237.4C261.725 236.947 262.178 236.587 262.765 236.32C263.352 236.053 264.018 235.92 264.765 235.92C265.938 235.92 266.885 236.22 267.605 236.82C268.325 237.407 268.712 238.22 268.765 239.26H267.365C267.325 238.62 267.072 238.107 266.605 237.72C266.152 237.32 265.525 237.12 264.725 237.12C264.018 237.12 263.445 237.287 263.005 237.62C262.565 237.953 262.345 238.367 262.345 238.86C262.345 239.287 262.472 239.64 262.725 239.92C262.992 240.187 263.318 240.4 263.705 240.56C264.092 240.707 264.612 240.873 265.265 241.06C266.052 241.273 266.678 241.48 267.145 241.68C267.612 241.88 268.012 242.173 268.345 242.56C268.678 242.947 268.852 243.46 268.865 244.1C268.865 244.687 268.705 245.213 268.385 245.68C268.065 246.133 267.618 246.493 267.045 246.76C266.472 247.027 265.812 247.16 265.065 247.16Z" fill="black"/>
<path d="M122.222 161.52C122.222 160.4 122.448 159.42 122.902 158.58C123.355 157.727 123.975 157.073 124.762 156.62C125.562 156.153 126.462 155.92 127.462 155.92C128.422 155.92 129.288 156.153 130.062 156.62C130.835 157.087 131.402 157.693 131.762 158.44V152.2H133.162V167H131.762V164.56C131.428 165.32 130.882 165.947 130.122 166.44C129.362 166.92 128.468 167.16 127.442 167.16C126.442 167.16 125.542 166.927 124.742 166.46C123.955 165.993 123.335 165.333 122.882 164.48C122.442 163.627 122.222 162.64 122.222 161.52ZM131.762 161.54C131.762 160.66 131.582 159.887 131.222 159.22C130.862 158.553 130.368 158.04 129.742 157.68C129.128 157.32 128.448 157.14 127.702 157.14C126.928 157.14 126.235 157.313 125.622 157.66C125.008 158.007 124.522 158.513 124.162 159.18C123.815 159.833 123.642 160.613 123.642 161.52C123.642 162.413 123.815 163.2 124.162 163.88C124.522 164.547 125.008 165.06 125.622 165.42C126.235 165.767 126.928 165.94 127.702 165.94C128.448 165.94 129.128 165.76 129.742 165.4C130.368 165.04 130.862 164.527 131.222 163.86C131.582 163.193 131.762 162.42 131.762 161.54ZM135.718 161.52C135.718 160.4 135.938 159.42 136.378 158.58C136.831 157.727 137.451 157.073 138.238 156.62C139.038 156.153 139.938 155.92 140.938 155.92C141.978 155.92 142.871 156.16 143.618 156.64C144.378 157.12 144.924 157.733 145.258 158.48V156.08H146.658V167H145.258V164.58C144.911 165.327 144.358 165.947 143.598 166.44C142.851 166.92 141.958 167.16 140.918 167.16C139.931 167.16 139.038 166.927 138.238 166.46C137.451 165.993 136.831 165.333 136.378 164.48C135.938 163.627 135.718 162.64 135.718 161.52ZM145.258 161.54C145.258 160.66 145.078 159.887 144.718 159.22C144.358 158.553 143.864 158.04 143.238 157.68C142.624 157.32 141.944 157.14 141.198 157.14C140.424 157.14 139.731 157.313 139.118 157.66C138.504 158.007 138.018 158.513 137.658 159.18C137.311 159.833 137.138 160.613 137.138 161.52C137.138 162.413 137.311 163.2 137.658 163.88C138.018 164.547 138.504 165.06 139.118 165.42C139.731 165.767 140.424 165.94 141.198 165.94C141.944 165.94 142.624 165.76 143.238 165.4C143.864 165.04 144.358 164.527 144.718 163.86C145.078 163.193 145.258 162.42 145.258 161.54ZM151.674 157.26V164.04C151.674 164.707 151.801 165.167 152.054 165.42C152.307 165.673 152.754 165.8 153.394 165.8H154.674V167H153.174C152.187 167 151.454 166.773 150.974 166.32C150.494 165.853 150.254 165.093 150.254 164.04V157.26H148.734V156.08H150.254V153.34H151.674V156.08H154.674V157.26H151.674ZM156.343 161.52C156.343 160.4 156.563 159.42 157.003 158.58C157.456 157.727 158.076 157.073 158.863 156.62C159.663 156.153 160.563 155.92 161.563 155.92C162.603 155.92 163.496 156.16 164.243 156.64C165.003 157.12 165.549 157.733 165.883 158.48V156.08H167.283V167H165.883V164.58C165.536 165.327 164.983 165.947 164.223 166.44C163.476 166.92 162.583 167.16 161.543 167.16C160.556 167.16 159.663 166.927 158.863 166.46C158.076 165.993 157.456 165.333 157.003 164.48C156.563 163.627 156.343 162.64 156.343 161.52ZM165.883 161.54C165.883 160.66 165.703 159.887 165.343 159.22C164.983 158.553 164.489 158.04 163.863 157.68C163.249 157.32 162.569 157.14 161.823 157.14C161.049 157.14 160.356 157.313 159.743 157.66C159.129 158.007 158.643 158.513 158.283 159.18C157.936 159.833 157.763 160.613 157.763 161.52C157.763 162.413 157.936 163.2 158.283 163.88C158.643 164.547 159.129 165.06 159.743 165.42C160.356 165.767 161.049 165.94 161.823 165.94C162.569 165.94 163.249 165.76 163.863 165.4C164.489 165.04 164.983 164.527 165.343 163.86C165.703 163.193 165.883 162.42 165.883 161.54ZM177.259 159V160.18H169.479V159H177.259ZM180.21 161.52C180.21 160.4 180.437 159.42 180.89 158.58C181.343 157.727 181.963 157.073 182.75 156.62C183.55 156.153 184.45 155.92 185.45 155.92C186.41 155.92 187.277 156.153 188.05 156.62C188.823 157.087 189.39 157.693 189.75 158.44V152.2H191.15V167H189.75V164.56C189.417 165.32 188.87 165.947 188.11 166.44C187.35 166.92 186.457 167.16 185.43 167.16C184.43 167.16 183.53 166.927 182.73 166.46C181.943 165.993 181.323 165.333 180.87 164.48C180.43 163.627 180.21 162.64 180.21 161.52ZM189.75 161.54C189.75 160.66 189.57 159.887 189.21 159.22C188.85 158.553 188.357 158.04 187.73 157.68C187.117 157.32 186.437 157.14 185.69 157.14C184.917 157.14 184.223 157.313 183.61 157.66C182.997 158.007 182.51 158.513 182.15 159.18C181.803 159.833 181.63 160.613 181.63 161.52C181.63 162.413 181.803 163.2 182.15 163.88C182.51 164.547 182.997 165.06 183.61 165.42C184.223 165.767 184.917 165.94 185.69 165.94C186.437 165.94 187.117 165.76 187.73 165.4C188.357 165.04 188.85 164.527 189.21 163.86C189.57 163.193 189.75 162.42 189.75 161.54ZM204.226 160.98C204.226 161.46 204.213 161.827 204.186 162.08H195.126C195.166 162.907 195.366 163.613 195.726 164.2C196.086 164.787 196.559 165.233 197.146 165.54C197.733 165.833 198.373 165.98 199.066 165.98C199.973 165.98 200.733 165.76 201.346 165.32C201.973 164.88 202.386 164.287 202.586 163.54H204.066C203.799 164.607 203.226 165.48 202.346 166.16C201.479 166.827 200.386 167.16 199.066 167.16C198.039 167.16 197.119 166.933 196.306 166.48C195.493 166.013 194.853 165.36 194.386 164.52C193.933 163.667 193.706 162.673 193.706 161.54C193.706 160.407 193.933 159.413 194.386 158.56C194.839 157.707 195.473 157.053 196.286 156.6C197.099 156.147 198.026 155.92 199.066 155.92C200.106 155.92 201.013 156.147 201.786 156.6C202.573 157.053 203.173 157.667 203.586 158.44C204.013 159.2 204.226 160.047 204.226 160.98ZM202.806 160.94C202.819 160.127 202.653 159.433 202.306 158.86C201.973 158.287 201.513 157.853 200.926 157.56C200.339 157.267 199.699 157.12 199.006 157.12C197.966 157.12 197.079 157.453 196.346 158.12C195.613 158.787 195.206 159.727 195.126 160.94H202.806ZM213.568 159V160.18H205.788V159H213.568ZM217.859 154.02C217.579 154.02 217.339 153.92 217.139 153.72C216.939 153.52 216.839 153.273 216.839 152.98C216.839 152.687 216.939 152.447 217.139 152.26C217.339 152.06 217.579 151.96 217.859 151.96C218.139 151.96 218.379 152.06 218.579 152.26C218.779 152.447 218.879 152.687 218.879 152.98C218.879 153.273 218.779 153.52 218.579 153.72C218.379 153.92 218.139 154.02 217.859 154.02ZM218.559 156.08V167H217.159V156.08H218.559ZM226.849 155.88C228.156 155.88 229.222 156.287 230.049 157.1C230.876 157.9 231.289 159.067 231.289 160.6V167H229.909V160.76C229.909 159.573 229.609 158.667 229.009 158.04C228.422 157.413 227.616 157.1 226.589 157.1C225.536 157.1 224.696 157.433 224.069 158.1C223.442 158.767 223.129 159.747 223.129 161.04V167H221.729V156.08H223.129V157.94C223.476 157.273 223.976 156.767 224.629 156.42C225.282 156.06 226.022 155.88 226.849 155.88ZM236.205 157.26V164.04C236.205 164.707 236.332 165.167 236.585 165.42C236.838 165.673 237.285 165.8 237.925 165.8H239.205V167H237.705C236.718 167 235.985 166.773 235.505 166.32C235.025 165.853 234.785 165.093 234.785 164.04V157.26H233.265V156.08H234.785V153.34H236.205V156.08H239.205V157.26H236.205ZM242.914 158.02C243.221 157.34 243.687 156.813 244.314 156.44C244.954 156.067 245.734 155.88 246.654 155.88V157.34H246.274C245.261 157.34 244.447 157.613 243.834 158.16C243.221 158.707 242.914 159.62 242.914 160.9V167H241.514V156.08H242.914V158.02ZM253.54 167.16C252.513 167.16 251.587 166.933 250.76 166.48C249.947 166.013 249.3 165.36 248.82 164.52C248.353 163.667 248.12 162.673 248.12 161.54C248.12 160.407 248.36 159.42 248.84 158.58C249.32 157.727 249.973 157.073 250.8 156.62C251.627 156.153 252.553 155.92 253.58 155.92C254.607 155.92 255.533 156.153 256.36 156.62C257.2 157.073 257.853 157.727 258.32 158.58C258.8 159.42 259.04 160.407 259.04 161.54C259.04 162.66 258.8 163.647 258.32 164.5C257.84 165.353 257.18 166.013 256.34 166.48C255.5 166.933 254.567 167.16 253.54 167.16ZM253.54 165.94C254.26 165.94 254.927 165.78 255.54 165.46C256.153 165.127 256.647 164.633 257.02 163.98C257.407 163.313 257.6 162.5 257.6 161.54C257.6 160.58 257.413 159.773 257.04 159.12C256.667 158.453 256.173 157.96 255.56 157.64C254.947 157.307 254.28 157.14 253.56 157.14C252.84 157.14 252.173 157.307 251.56 157.64C250.947 157.96 250.453 158.453 250.08 159.12C249.72 159.773 249.54 160.58 249.54 161.54C249.54 162.5 249.72 163.313 250.08 163.98C250.453 164.633 250.94 165.127 251.54 165.46C252.153 165.78 252.82 165.94 253.54 165.94ZM260.952 161.52C260.952 160.4 261.179 159.42 261.632 158.58C262.086 157.727 262.706 157.073 263.492 156.62C264.292 156.153 265.192 155.92 266.192 155.92C267.152 155.92 268.019 156.153 268.792 156.62C269.566 157.087 270.132 157.693 270.492 158.44V152.2H271.892V167H270.492V164.56C270.159 165.32 269.612 165.947 268.852 166.44C268.092 166.92 267.199 167.16 266.172 167.16C265.172 167.16 264.272 166.927 263.472 166.46C262.686 165.993 262.066 165.333 261.612 164.48C261.172 163.627 260.952 162.64 260.952 161.52ZM270.492 161.54C270.492 160.66 270.312 159.887 269.952 159.22C269.592 158.553 269.099 158.04 268.472 157.68C267.859 157.32 267.179 157.14 266.432 157.14C265.659 157.14 264.966 157.313 264.352 157.66C263.739 158.007 263.252 158.513 262.892 159.18C262.546 159.833 262.372 160.613 262.372 161.52C262.372 162.413 262.546 163.2 262.892 163.88C263.252 164.547 263.739 165.06 264.352 165.42C264.966 165.767 265.659 165.94 266.432 165.94C267.179 165.94 267.859 165.76 268.472 165.4C269.099 165.04 269.592 164.527 269.952 163.86C270.312 163.193 270.492 162.42 270.492 161.54ZM284.548 156.08V167H283.148V165.08C282.828 165.76 282.335 166.28 281.668 166.64C281.002 167 280.255 167.18 279.428 167.18C278.122 167.18 277.055 166.78 276.228 165.98C275.402 165.167 274.988 163.993 274.988 162.46V156.08H276.368V162.3C276.368 163.487 276.662 164.393 277.248 165.02C277.848 165.647 278.662 165.96 279.688 165.96C280.742 165.96 281.582 165.627 282.208 164.96C282.835 164.293 283.148 163.313 283.148 162.02V156.08H284.548ZM292.405 165.98C293.325 165.98 294.091 165.76 294.705 165.32C295.331 164.867 295.738 164.24 295.925 163.44H297.425C297.185 164.493 296.665 165.353 295.865 166.02C295.078 166.687 294.078 167.06 292.865 167.14V168.34C293.651 168.313 294.271 168.46 294.725 168.78C295.191 169.113 295.425 169.587 295.425 170.2C295.425 170.8 295.211 171.273 294.785 171.62C294.358 171.98 293.791 172.16 293.085 172.16H291.085V171.22H292.805C293.298 171.22 293.658 171.133 293.885 170.96C294.125 170.8 294.245 170.547 294.245 170.2C294.245 169.56 293.765 169.24 292.805 169.24H291.885V167.14C290.951 167.06 290.125 166.787 289.405 166.32C288.685 165.84 288.118 165.193 287.705 164.38C287.305 163.553 287.105 162.607 287.105 161.54C287.105 160.407 287.331 159.42 287.785 158.58C288.238 157.727 288.865 157.073 289.665 156.62C290.465 156.153 291.378 155.92 292.405 155.92C293.751 155.92 294.858 156.253 295.725 156.92C296.605 157.587 297.171 158.493 297.425 159.64H295.925C295.738 158.853 295.331 158.24 294.705 157.8C294.091 157.347 293.325 157.12 292.405 157.12C291.671 157.12 291.011 157.287 290.425 157.62C289.838 157.953 289.371 158.453 289.025 159.12C288.691 159.773 288.525 160.58 288.525 161.54C288.525 162.5 288.691 163.313 289.025 163.98C289.371 164.647 289.838 165.147 290.425 165.48C291.011 165.813 291.671 165.98 292.405 165.98ZM299.37 161.52C299.37 160.4 299.59 159.42 300.03 158.58C300.483 157.727 301.103 157.073 301.89 156.62C302.69 156.153 303.59 155.92 304.59 155.92C305.63 155.92 306.523 156.16 307.27 156.64C308.03 157.12 308.577 157.733 308.91 158.48V156.08H310.31V167H308.91V164.58C308.563 165.327 308.01 165.947 307.25 166.44C306.503 166.92 305.61 167.16 304.57 167.16C303.583 167.16 302.69 166.927 301.89 166.46C301.103 165.993 300.483 165.333 300.03 164.48C299.59 163.627 299.37 162.64 299.37 161.52ZM308.91 161.54C308.91 160.66 308.73 159.887 308.37 159.22C308.01 158.553 307.517 158.04 306.89 157.68C306.277 157.32 305.597 157.14 304.85 157.14C304.077 157.14 303.383 157.313 302.77 157.66C302.157 158.007 301.67 158.513 301.31 159.18C300.963 159.833 300.79 160.613 300.79 161.52C300.79 162.413 300.963 163.2 301.31 163.88C301.67 164.547 302.157 165.06 302.77 165.42C303.383 165.767 304.077 165.94 304.85 165.94C305.597 165.94 306.277 165.76 306.89 165.4C307.517 165.04 308.01 164.527 308.37 163.86C308.73 163.193 308.91 162.42 308.91 161.54ZM302.55 154.88C302.63 154.28 302.823 153.82 303.13 153.5C303.437 153.18 303.83 153.02 304.31 153.02C304.55 153.02 304.757 153.067 304.93 153.16C305.103 153.24 305.31 153.36 305.55 153.52C305.75 153.667 305.923 153.78 306.07 153.86C306.217 153.927 306.377 153.96 306.55 153.96C306.777 153.96 306.97 153.887 307.13 153.74C307.29 153.58 307.39 153.353 307.43 153.06H308.27C308.217 153.647 308.023 154.107 307.69 154.44C307.37 154.76 306.97 154.92 306.49 154.92C306.237 154.92 306.017 154.88 305.83 154.8C305.657 154.707 305.45 154.573 305.21 154.4C305.023 154.253 304.857 154.147 304.71 154.08C304.577 154.013 304.423 153.98 304.25 153.98C303.77 153.98 303.49 154.28 303.41 154.88H302.55ZM318.286 167.16C317.26 167.16 316.333 166.933 315.506 166.48C314.693 166.013 314.046 165.36 313.566 164.52C313.1 163.667 312.866 162.673 312.866 161.54C312.866 160.407 313.106 159.42 313.586 158.58C314.066 157.727 314.72 157.073 315.546 156.62C316.373 156.153 317.3 155.92 318.326 155.92C319.353 155.92 320.28 156.153 321.106 156.62C321.946 157.073 322.6 157.727 323.066 158.58C323.546 159.42 323.786 160.407 323.786 161.54C323.786 162.66 323.546 163.647 323.066 164.5C322.586 165.353 321.926 166.013 321.086 166.48C320.246 166.933 319.313 167.16 318.286 167.16ZM318.286 165.94C319.006 165.94 319.673 165.78 320.286 165.46C320.9 165.127 321.393 164.633 321.766 163.98C322.153 163.313 322.346 162.5 322.346 161.54C322.346 160.58 322.16 159.773 321.786 159.12C321.413 158.453 320.92 157.96 320.306 157.64C319.693 157.307 319.026 157.14 318.306 157.14C317.586 157.14 316.92 157.307 316.306 157.64C315.693 157.96 315.2 158.453 314.826 159.12C314.466 159.773 314.286 160.58 314.286 161.54C314.286 162.5 314.466 163.313 314.826 163.98C315.2 164.633 315.686 165.127 316.286 165.46C316.9 165.78 317.566 165.94 318.286 165.94Z" fill="black"/>
<path d="M113.062 201.54C113.062 200.407 113.288 199.42 113.742 198.58C114.195 197.727 114.822 197.073 115.622 196.62C116.422 196.153 117.335 195.92 118.362 195.92C119.708 195.92 120.815 196.253 121.682 196.92C122.562 197.587 123.128 198.493 123.382 199.64H121.882C121.695 198.853 121.288 198.24 120.662 197.8C120.048 197.347 119.282 197.12 118.362 197.12C117.628 197.12 116.968 197.287 116.382 197.62C115.795 197.953 115.328 198.453 114.982 199.12C114.648 199.773 114.482 200.58 114.482 201.54C114.482 202.5 114.648 203.313 114.982 203.98C115.328 204.647 115.795 205.147 116.382 205.48C116.968 205.813 117.628 205.98 118.362 205.98C119.282 205.98 120.048 205.76 120.662 205.32C121.288 204.867 121.695 204.24 121.882 203.44H123.382C123.128 204.56 122.562 205.46 121.682 206.14C120.802 206.82 119.695 207.16 118.362 207.16C117.335 207.16 116.422 206.933 115.622 206.48C114.822 206.013 114.195 205.36 113.742 204.52C113.288 203.667 113.062 202.673 113.062 201.54ZM130.747 207.16C129.721 207.16 128.794 206.933 127.967 206.48C127.154 206.013 126.507 205.36 126.027 204.52C125.561 203.667 125.327 202.673 125.327 201.54C125.327 200.407 125.567 199.42 126.047 198.58C126.527 197.727 127.181 197.073 128.007 196.62C128.834 196.153 129.761 195.92 130.787 195.92C131.814 195.92 132.741 196.153 133.567 196.62C134.407 197.073 135.061 197.727 135.527 198.58C136.007 199.42 136.247 200.407 136.247 201.54C136.247 202.66 136.007 203.647 135.527 204.5C135.047 205.353 134.387 206.013 133.547 206.48C132.707 206.933 131.774 207.16 130.747 207.16ZM130.747 205.94C131.467 205.94 132.134 205.78 132.747 205.46C133.361 205.127 133.854 204.633 134.227 203.98C134.614 203.313 134.807 202.5 134.807 201.54C134.807 200.58 134.621 199.773 134.247 199.12C133.874 198.453 133.381 197.96 132.767 197.64C132.154 197.307 131.487 197.14 130.767 197.14C130.047 197.14 129.381 197.307 128.767 197.64C128.154 197.96 127.661 198.453 127.287 199.12C126.927 199.773 126.747 200.58 126.747 201.54C126.747 202.5 126.927 203.313 127.287 203.98C127.661 204.633 128.147 205.127 128.747 205.46C129.361 205.78 130.027 205.94 130.747 205.94ZM151.799 195.88C153.079 195.88 154.119 196.287 154.919 197.1C155.733 197.9 156.139 199.067 156.139 200.6V207H154.759V200.76C154.759 199.573 154.473 198.667 153.899 198.04C153.326 197.413 152.546 197.1 151.559 197.1C150.533 197.1 149.713 197.44 149.099 198.12C148.486 198.8 148.179 199.787 148.179 201.08V207H146.799V200.76C146.799 199.573 146.513 198.667 145.939 198.04C145.366 197.413 144.579 197.1 143.579 197.1C142.553 197.1 141.733 197.44 141.119 198.12C140.506 198.8 140.199 199.787 140.199 201.08V207H138.799V196.08H140.199V197.96C140.546 197.28 141.039 196.767 141.679 196.42C142.319 196.06 143.033 195.88 143.819 195.88C144.766 195.88 145.593 196.107 146.299 196.56C147.019 197.013 147.539 197.68 147.859 198.56C148.153 197.693 148.653 197.033 149.359 196.58C150.079 196.113 150.893 195.88 151.799 195.88ZM169.128 200.98C169.128 201.46 169.115 201.827 169.088 202.08H160.028C160.068 202.907 160.268 203.613 160.628 204.2C160.988 204.787 161.462 205.233 162.048 205.54C162.635 205.833 163.275 205.98 163.968 205.98C164.875 205.98 165.635 205.76 166.248 205.32C166.875 204.88 167.288 204.287 167.488 203.54H168.968C168.702 204.607 168.128 205.48 167.248 206.16C166.382 206.827 165.288 207.16 163.968 207.16C162.942 207.16 162.022 206.933 161.208 206.48C160.395 206.013 159.755 205.36 159.288 204.52C158.835 203.667 158.608 202.673 158.608 201.54C158.608 200.407 158.835 199.413 159.288 198.56C159.742 197.707 160.375 197.053 161.188 196.6C162.002 196.147 162.928 195.92 163.968 195.92C165.008 195.92 165.915 196.147 166.688 196.6C167.475 197.053 168.075 197.667 168.488 198.44C168.915 199.2 169.128 200.047 169.128 200.98ZM167.708 200.94C167.722 200.127 167.555 199.433 167.208 198.86C166.875 198.287 166.415 197.853 165.828 197.56C165.242 197.267 164.602 197.12 163.908 197.12C162.868 197.12 161.982 197.453 161.248 198.12C160.515 198.787 160.108 199.727 160.028 200.94H167.708ZM176.35 205.98C177.27 205.98 178.037 205.76 178.65 205.32C179.277 204.867 179.683 204.24 179.87 203.44H181.37C181.13 204.493 180.61 205.353 179.81 206.02C179.023 206.687 178.023 207.06 176.81 207.14V208.34C177.597 208.313 178.217 208.46 178.67 208.78C179.137 209.113 179.37 209.587 179.37 210.2C179.37 210.8 179.157 211.273 178.73 211.62C178.303 211.98 177.737 212.16 177.03 212.16H175.03V211.22H176.75C177.243 211.22 177.603 211.133 177.83 210.96C178.07 210.8 178.19 210.547 178.19 210.2C178.19 209.56 177.71 209.24 176.75 209.24H175.83V207.14C174.897 207.06 174.07 206.787 173.35 206.32C172.63 205.84 172.063 205.193 171.65 204.38C171.25 203.553 171.05 202.607 171.05 201.54C171.05 200.407 171.277 199.42 171.73 198.58C172.183 197.727 172.81 197.073 173.61 196.62C174.41 196.153 175.323 195.92 176.35 195.92C177.697 195.92 178.803 196.253 179.67 196.92C180.55 197.587 181.117 198.493 181.37 199.64H179.87C179.683 198.853 179.277 198.24 178.65 197.8C178.037 197.347 177.27 197.12 176.35 197.12C175.617 197.12 174.957 197.287 174.37 197.62C173.783 197.953 173.317 198.453 172.97 199.12C172.637 199.773 172.47 200.58 172.47 201.54C172.47 202.5 172.637 203.313 172.97 203.98C173.317 204.647 173.783 205.147 174.37 205.48C174.957 205.813 175.617 205.98 176.35 205.98ZM188.735 207.16C187.709 207.16 186.782 206.933 185.955 206.48C185.142 206.013 184.495 205.36 184.015 204.52C183.549 203.667 183.315 202.673 183.315 201.54C183.315 200.407 183.555 199.42 184.035 198.58C184.515 197.727 185.169 197.073 185.995 196.62C186.822 196.153 187.749 195.92 188.775 195.92C189.802 195.92 190.729 196.153 191.555 196.62C192.395 197.073 193.049 197.727 193.515 198.58C193.995 199.42 194.235 200.407 194.235 201.54C194.235 202.66 193.995 203.647 193.515 204.5C193.035 205.353 192.375 206.013 191.535 206.48C190.695 206.933 189.762 207.16 188.735 207.16ZM188.735 205.94C189.455 205.94 190.122 205.78 190.735 205.46C191.349 205.127 191.842 204.633 192.215 203.98C192.602 203.313 192.795 202.5 192.795 201.54C192.795 200.58 192.609 199.773 192.235 199.12C191.862 198.453 191.369 197.96 190.755 197.64C190.142 197.307 189.475 197.14 188.755 197.14C188.035 197.14 187.369 197.307 186.755 197.64C186.142 197.96 185.649 198.453 185.275 199.12C184.915 199.773 184.735 200.58 184.735 201.54C184.735 202.5 184.915 203.313 185.275 203.98C185.649 204.633 186.135 205.127 186.735 205.46C187.349 205.78 188.015 205.94 188.735 205.94ZM203.568 199V200.18H195.788V199H203.568ZM206.519 201.52C206.519 200.4 206.745 199.42 207.199 198.58C207.652 197.727 208.272 197.073 209.059 196.62C209.859 196.153 210.759 195.92 211.759 195.92C212.719 195.92 213.585 196.153 214.359 196.62C215.132 197.087 215.699 197.693 216.059 198.44V192.2H217.459V207H216.059V204.56C215.725 205.32 215.179 205.947 214.419 206.44C213.659 206.92 212.765 207.16 211.739 207.16C210.739 207.16 209.839 206.927 209.039 206.46C208.252 205.993 207.632 205.333 207.179 204.48C206.739 203.627 206.519 202.64 206.519 201.52ZM216.059 201.54C216.059 200.66 215.879 199.887 215.519 199.22C215.159 198.553 214.665 198.04 214.039 197.68C213.425 197.32 212.745 197.14 211.999 197.14C211.225 197.14 210.532 197.313 209.919 197.66C209.305 198.007 208.819 198.513 208.459 199.18C208.112 199.833 207.939 200.613 207.939 201.52C207.939 202.413 208.112 203.2 208.459 203.88C208.819 204.547 209.305 205.06 209.919 205.42C210.532 205.767 211.225 205.94 211.999 205.94C212.745 205.94 213.425 205.76 214.039 205.4C214.665 205.04 215.159 204.527 215.519 203.86C215.879 203.193 216.059 202.42 216.059 201.54ZM230.535 200.98C230.535 201.46 230.521 201.827 230.495 202.08H221.435C221.475 202.907 221.675 203.613 222.035 204.2C222.395 204.787 222.868 205.233 223.455 205.54C224.041 205.833 224.681 205.98 225.375 205.98C226.281 205.98 227.041 205.76 227.655 205.32C228.281 204.88 228.695 204.287 228.895 203.54H230.375C230.108 204.607 229.535 205.48 228.655 206.16C227.788 206.827 226.695 207.16 225.375 207.16C224.348 207.16 223.428 206.933 222.615 206.48C221.801 206.013 221.161 205.36 220.695 204.52C220.241 203.667 220.015 202.673 220.015 201.54C220.015 200.407 220.241 199.413 220.695 198.56C221.148 197.707 221.781 197.053 222.595 196.6C223.408 196.147 224.335 195.92 225.375 195.92C226.415 195.92 227.321 196.147 228.095 196.6C228.881 197.053 229.481 197.667 229.895 198.44C230.321 199.2 230.535 200.047 230.535 200.98ZM229.115 200.94C229.128 200.127 228.961 199.433 228.615 198.86C228.281 198.287 227.821 197.853 227.235 197.56C226.648 197.267 226.008 197.12 225.315 197.12C224.275 197.12 223.388 197.453 222.655 198.12C221.921 198.787 221.515 199.727 221.435 200.94H229.115ZM239.876 199V200.18H232.096V199H239.876ZM253.347 200.98C253.347 201.46 253.334 201.827 253.307 202.08H244.247C244.287 202.907 244.487 203.613 244.847 204.2C245.207 204.787 245.681 205.233 246.267 205.54C246.854 205.833 247.494 205.98 248.187 205.98C249.094 205.98 249.854 205.76 250.467 205.32C251.094 204.88 251.507 204.287 251.707 203.54H253.187C252.921 204.607 252.347 205.48 251.467 206.16C250.601 206.827 249.507 207.16 248.187 207.16C247.161 207.16 246.241 206.933 245.427 206.48C244.614 206.013 243.974 205.36 243.507 204.52C243.054 203.667 242.827 202.673 242.827 201.54C242.827 200.407 243.054 199.413 243.507 198.56C243.961 197.707 244.594 197.053 245.407 196.6C246.221 196.147 247.147 195.92 248.187 195.92C249.227 195.92 250.134 196.147 250.907 196.6C251.694 197.053 252.294 197.667 252.707 198.44C253.134 199.2 253.347 200.047 253.347 200.98ZM251.927 200.94C251.941 200.127 251.774 199.433 251.427 198.86C251.094 198.287 250.634 197.853 250.047 197.56C249.461 197.267 248.821 197.12 248.127 197.12C247.087 197.12 246.201 197.453 245.467 198.12C244.734 198.787 244.327 199.727 244.247 200.94H251.927ZM259.789 205.64L263.469 196.08H264.949L260.569 207H258.989L254.609 196.08H256.109L259.789 205.64ZM271.626 207.16C270.599 207.16 269.673 206.933 268.846 206.48C268.033 206.013 267.386 205.36 266.906 204.52C266.439 203.667 266.206 202.673 266.206 201.54C266.206 200.407 266.446 199.42 266.926 198.58C267.406 197.727 268.059 197.073 268.886 196.62C269.713 196.153 270.639 195.92 271.666 195.92C272.693 195.92 273.619 196.153 274.446 196.62C275.286 197.073 275.939 197.727 276.406 198.58C276.886 199.42 277.126 200.407 277.126 201.54C277.126 202.66 276.886 203.647 276.406 204.5C275.926 205.353 275.266 206.013 274.426 206.48C273.586 206.933 272.653 207.16 271.626 207.16ZM271.626 205.94C272.346 205.94 273.013 205.78 273.626 205.46C274.239 205.127 274.733 204.633 275.106 203.98C275.493 203.313 275.686 202.5 275.686 201.54C275.686 200.58 275.499 199.773 275.126 199.12C274.753 198.453 274.259 197.96 273.646 197.64C273.033 197.307 272.366 197.14 271.646 197.14C270.926 197.14 270.259 197.307 269.646 197.64C269.033 197.96 268.539 198.453 268.166 199.12C267.806 199.773 267.626 200.58 267.626 201.54C267.626 202.5 267.806 203.313 268.166 203.98C268.539 204.633 269.026 205.127 269.626 205.46C270.239 205.78 270.906 205.94 271.626 205.94ZM281.078 192.2V207H279.678V192.2H281.078ZM293.708 196.08V207H292.308V205.08C291.988 205.76 291.495 206.28 290.828 206.64C290.162 207 289.415 207.18 288.588 207.18C287.282 207.18 286.215 206.78 285.388 205.98C284.562 205.167 284.148 203.993 284.148 202.46V196.08H285.528V202.3C285.528 203.487 285.822 204.393 286.408 205.02C287.008 205.647 287.822 205.96 288.848 205.96C289.902 205.96 290.742 205.627 291.368 204.96C291.995 204.293 292.308 203.313 292.308 202.02V196.08H293.708ZM301.565 205.98C302.485 205.98 303.251 205.76 303.865 205.32C304.491 204.867 304.898 204.24 305.085 203.44H306.585C306.345 204.493 305.825 205.353 305.025 206.02C304.238 206.687 303.238 207.06 302.025 207.14V208.34C302.811 208.313 303.431 208.46 303.885 208.78C304.351 209.113 304.585 209.587 304.585 210.2C304.585 210.8 304.371 211.273 303.945 211.62C303.518 211.98 302.951 212.16 302.245 212.16H300.245V211.22H301.965C302.458 211.22 302.818 211.133 303.045 210.96C303.285 210.8 303.405 210.547 303.405 210.2C303.405 209.56 302.925 209.24 301.965 209.24H301.045V207.14C300.111 207.06 299.285 206.787 298.565 206.32C297.845 205.84 297.278 205.193 296.865 204.38C296.465 203.553 296.265 202.607 296.265 201.54C296.265 200.407 296.491 199.42 296.945 198.58C297.398 197.727 298.025 197.073 298.825 196.62C299.625 196.153 300.538 195.92 301.565 195.92C302.911 195.92 304.018 196.253 304.885 196.92C305.765 197.587 306.331 198.493 306.585 199.64H305.085C304.898 198.853 304.491 198.24 303.865 197.8C303.251 197.347 302.485 197.12 301.565 197.12C300.831 197.12 300.171 197.287 299.585 197.62C298.998 197.953 298.531 198.453 298.185 199.12C297.851 199.773 297.685 200.58 297.685 201.54C297.685 202.5 297.851 203.313 298.185 203.98C298.531 204.647 298.998 205.147 299.585 205.48C300.171 205.813 300.831 205.98 301.565 205.98ZM308.53 201.52C308.53 200.4 308.75 199.42 309.19 198.58C309.644 197.727 310.264 197.073 311.05 196.62C311.85 196.153 312.75 195.92 313.75 195.92C314.79 195.92 315.684 196.16 316.43 196.64C317.19 197.12 317.737 197.733 318.07 198.48V196.08H319.47V207H318.07V204.58C317.724 205.327 317.17 205.947 316.41 206.44C315.664 206.92 314.77 207.16 313.73 207.16C312.744 207.16 311.85 206.927 311.05 206.46C310.264 205.993 309.644 205.333 309.19 204.48C308.75 203.627 308.53 202.64 308.53 201.52ZM318.07 201.54C318.07 200.66 317.89 199.887 317.53 199.22C317.17 198.553 316.677 198.04 316.05 197.68C315.437 197.32 314.757 197.14 314.01 197.14C313.237 197.14 312.544 197.313 311.93 197.66C311.317 198.007 310.83 198.513 310.47 199.18C310.124 199.833 309.95 200.613 309.95 201.52C309.95 202.413 310.124 203.2 310.47 203.88C310.83 204.547 311.317 205.06 311.93 205.42C312.544 205.767 313.237 205.94 314.01 205.94C314.757 205.94 315.437 205.76 316.05 205.4C316.677 205.04 317.17 204.527 317.53 203.86C317.89 203.193 318.07 202.42 318.07 201.54ZM311.71 194.88C311.79 194.28 311.984 193.82 312.29 193.5C312.597 193.18 312.99 193.02 313.47 193.02C313.71 193.02 313.917 193.067 314.09 193.16C314.264 193.24 314.47 193.36 314.71 193.52C314.91 193.667 315.084 193.78 315.23 193.86C315.377 193.927 315.537 193.96 315.71 193.96C315.937 193.96 316.13 193.887 316.29 193.74C316.45 193.58 316.55 193.353 316.59 193.06H317.43C317.377 193.647 317.184 194.107 316.85 194.44C316.53 194.76 316.13 194.92 315.65 194.92C315.397 194.92 315.177 194.88 314.99 194.8C314.817 194.707 314.61 194.573 314.37 194.4C314.184 194.253 314.017 194.147 313.87 194.08C313.737 194.013 313.584 193.98 313.41 193.98C312.93 193.98 312.65 194.28 312.57 194.88H311.71ZM327.446 207.16C326.42 207.16 325.493 206.933 324.666 206.48C323.853 206.013 323.206 205.36 322.726 204.52C322.26 203.667 322.026 202.673 322.026 201.54C322.026 200.407 322.266 199.42 322.746 198.58C323.226 197.727 323.88 197.073 324.706 196.62C325.533 196.153 326.46 195.92 327.486 195.92C328.513 195.92 329.44 196.153 330.266 196.62C331.106 197.073 331.76 197.727 332.226 198.58C332.706 199.42 332.946 200.407 332.946 201.54C332.946 202.66 332.706 203.647 332.226 204.5C331.746 205.353 331.086 206.013 330.246 206.48C329.406 206.933 328.473 207.16 327.446 207.16ZM327.446 205.94C328.166 205.94 328.833 205.78 329.446 205.46C330.06 205.127 330.553 204.633 330.926 203.98C331.313 203.313 331.506 202.5 331.506 201.54C331.506 200.58 331.32 199.773 330.946 199.12C330.573 198.453 330.08 197.96 329.466 197.64C328.853 197.307 328.186 197.14 327.466 197.14C326.746 197.14 326.08 197.307 325.466 197.64C324.853 197.96 324.36 198.453 323.986 199.12C323.626 199.773 323.446 200.58 323.446 201.54C323.446 202.5 323.626 203.313 323.986 203.98C324.36 204.633 324.846 205.127 325.446 205.46C326.06 205.78 326.726 205.94 327.446 205.94Z" fill="black"/>
<path d="M199 240C199 234.477 194.523 230 189 230C183.477 230 179 234.477 179 240C179 245.523 183.477 250 189 250C194.523 250 199 245.523 199 240Z" fill="#C4C4C4"/>
<path d="M241.667 16.25H208.333C206.035 16.25 204.167 18.1187 204.167 20.4167V49.5833C204.167 51.8812 206.035 53.75 208.333 53.75H241.667C243.965 53.75 245.833 51.8812 245.833 49.5833V20.4167C245.833 18.1187 243.965 16.25 241.667 16.25ZM208.333 49.5833V24.5833H241.667L241.671 49.5833H208.333Z" fill="black"/>
<path d="M219.36 29.3604L211.638 37.0833L219.36 44.8062L222.306 41.8603L217.529 37.0833L222.306 32.3062L219.36 29.3604ZM230.64 29.3604L227.694 32.3062L232.471 37.0833L227.694 41.8603L230.64 44.8062L238.363 37.0833L230.64 29.3604Z" fill="black"/>
</svg>
