<svg width="128" height="128" viewBox="0 0 128 128" fill="none" xmlns="http://www.w3.org/2000/svg">
<path d="M61.6618 22.7897C60.5696 23.8876 60.507 25.5886 60.6151 51.7461C60.7232 78.6091 60.7687 79.5819 62.0032 80.8107C62.7029 81.5104 63.6302 82.0907 64.0682 82.102C64.5063 82.1134 65.3596 81.6128 65.9626 80.987C66.9696 79.9516 67.0606 77.4656 67.089 51.5356C67.1061 29.5026 66.9354 23.04 66.3097 22.4142C65.8659 21.9705 64.8988 21.6121 64.1649 21.6178C63.4254 21.6235 62.3047 22.1525 61.6618 22.7897ZM94.0032 43.1502C87.2789 46.1881 81.1235 49.3113 80.3214 50.0964L78.865 51.5186C81.0041 54.2777 85.5381 56.6272 94.299 60.49C106.559 65.9001 107.258 66.1276 108.772 65.2174C109.648 64.694 110.364 63.835 110.364 63.3116C110.364 62.7826 110.114 61.8553 109.807 61.2409C109.5 60.6265 105.057 58.2656 99.931 55.99C90.8515 51.9623 90.6581 51.8372 92.3761 51.0578C93.3433 50.614 97.5758 48.714 101.774 46.8309C107.736 44.1515 109.551 43.0421 110.046 41.7735C110.564 40.4594 110.444 39.8962 109.409 38.821C108.709 38.0928 107.708 37.5239 107.184 37.5637C106.655 37.5979 100.727 40.1124 94.0032 43.1502ZM17.1747 58.6581C16.2133 60.0235 16.2361 60.416 17.4933 64.2617C18.2385 66.5372 19.8542 70.4057 21.083 72.8576C22.3175 75.3038 24.2005 78.5977 25.2757 80.1735C26.3509 81.7493 29.4001 85.2139 32.0512 87.8819C34.6965 90.5443 39.1566 94.208 41.9555 96.0228C44.7545 97.8432 49.2657 100.17 51.9793 101.205C54.6929 102.235 58.6979 103.509 60.8881 104.027C63.0727 104.545 67.0151 105.165 69.6377 105.404C73.9897 105.802 74.5358 105.717 75.8442 104.459C76.6293 103.703 77.2721 102.65 77.2721 102.127C77.2721 101.604 76.6293 100.779 75.8442 100.289C75.0535 99.8059 71.8336 99.1004 68.6819 98.7193C65.536 98.3381 60.9507 97.4108 58.4988 96.6599C56.0526 95.9147 52.3264 94.4412 50.2272 93.3888C48.128 92.3364 44.6919 90.2656 42.5927 88.7808C40.4935 87.3017 37.0574 84.2183 34.9582 81.9371C32.859 79.6501 30.0601 75.958 28.7459 73.728C27.4261 71.498 25.617 67.6693 24.7125 65.2174C23.8137 62.7712 22.7328 60.0462 22.3175 59.1758C21.8453 58.1859 20.918 57.509 19.8769 57.3838C18.705 57.2473 17.8972 57.6284 17.1747 58.6581Z" fill="black"/>
<rect x="2.5" y="2.5" width="123" height="123" rx="61.5" stroke="black" stroke-width="5"/>
</svg>
