<svg width="510" height="510" viewBox="0 0 510 510" fill="none" xmlns="http://www.w3.org/2000/svg">
<path d="M0 255V50C0 22.3858 22.3858 0 50 0H255H460C487.614 0 510 22.3858 510 50V255V460C510 487.614 487.614 510 460 510H255H50C22.3858 510 0 487.614 0 460V255ZM292.4 403.467C297.857 398.01 297.946 396.854 293.405 390.371C290.808 386.663 287.595 385.333 281.235 385.333C266.863 385.333 234.488 378.878 218.206 372.765C165.397 352.941 122.163 307.167 105.208 253.13C100.536 238.241 95.387 233.888 86.98 237.718C80.1898 240.812 79.9677 248.413 86.143 266.361C111.34 339.599 178.252 393.939 257.459 405.492C280.33 408.828 287.452 408.415 292.4 403.467ZM260.123 216.943C260.646 127.383 260.308 115.565 257.128 112.385C252.078 107.335 245.665 107.932 241.529 113.838C238.47 118.204 238 131.626 238 214.557C238 269.018 238.921 312.661 240.138 315.861C242.675 322.535 248.718 324.49 255 320.671C259.41 317.99 259.549 315.159 260.123 216.943ZM412.579 260.581C417.481 251.422 413.385 248.01 378.44 232.141C359.772 223.664 345.271 216.073 346.216 215.272C347.161 214.471 361.432 207.88 377.931 200.626C412.034 185.631 416.822 181.907 412.942 173.391C411.14 169.437 408.561 167.733 404.377 167.733C398.681 167.733 321.838 200.552 311.1 207.571C305.522 211.217 304.278 220.174 308.833 223.889C315.07 228.974 398.21 264.986 403.954 265.089C407.903 265.158 410.993 263.545 412.579 260.581Z" fill="black"/>
</svg>
