<svg width="128" height="128" viewBox="0 0 128 128" fill="none" xmlns="http://www.w3.org/2000/svg">
<path d="M63.9998 0C46.6038 0 44.4358 0.084 37.6278 0.372C30.7918 0.708 26.1678 1.768 22.0878 3.352C17.8798 5 14.2958 7.188 10.7558 10.748C7.19181 14.288 4.98381 17.872 3.35981 22.08C1.77581 26.16 0.715813 30.784 0.379813 37.62C0.0718125 44.432 0.0078125 46.596 0.0078125 63.992C0.0078125 81.388 0.0918125 83.556 0.379813 90.364C0.715813 97.18 1.77581 101.824 3.35981 105.904C5.00781 110.112 7.19581 113.696 10.7558 117.236C14.2958 120.8 17.8798 123.008 22.0878 124.632C26.1678 126.196 30.8118 127.276 37.6278 127.612C44.4398 127.92 46.6038 127.984 63.9998 127.984C81.3958 127.984 83.5638 127.9 90.3718 127.612C97.1878 127.276 101.832 126.192 105.912 124.632C110.12 122.984 113.704 120.796 117.244 117.236C120.808 113.696 123.016 110.132 124.64 105.904C126.204 101.824 127.284 97.18 127.62 90.364C127.928 83.552 127.992 81.388 127.992 63.992C127.992 46.596 127.908 44.428 127.62 37.62C127.284 30.804 126.2 26.136 124.64 22.08C122.992 17.872 120.804 14.288 117.244 10.748C113.704 7.184 110.14 4.976 105.912 3.352C101.832 1.768 97.1878 0.708 90.3718 0.372C83.5598 0.064 81.3958 0 63.9998 0V0ZM63.9998 11.52C81.0838 11.52 83.1238 11.604 89.8758 11.892C96.1038 12.184 99.4958 13.224 101.748 14.104C104.752 15.268 106.852 16.644 109.124 18.892C111.352 21.12 112.728 23.244 113.892 26.248C114.772 28.5 115.812 31.892 116.104 38.12C116.392 44.872 116.476 46.916 116.476 63.996C116.476 81.076 116.392 83.12 116.08 89.872C115.744 96.1 114.704 99.492 113.828 101.744C112.616 104.748 111.264 106.848 109.032 109.12C106.78 111.348 104.636 112.724 101.656 113.888C99.4318 114.768 95.9918 115.808 89.7398 116.1C82.9518 116.388 80.9518 116.472 63.8238 116.472C46.6958 116.472 44.6998 116.388 37.9038 116.076C31.6758 115.74 28.2398 114.7 25.9878 113.824C22.9478 112.612 20.8638 111.26 18.6318 109.028C16.3798 106.776 14.9478 104.632 13.8438 101.652C12.9478 99.428 11.9238 95.988 11.5918 89.736C11.3638 83.028 11.2558 80.948 11.2558 63.9C11.2558 46.86 11.3638 44.776 11.5918 37.984C11.9238 31.732 12.9478 28.3 13.8438 26.068C14.9478 23.024 16.3838 20.944 18.6318 18.692C20.8598 16.464 22.9478 15.024 25.9878 13.896C28.2398 13.02 31.5918 11.98 37.8438 11.668C44.6318 11.424 46.6318 11.336 63.7358 11.336L63.9998 11.52ZM63.9998 31.148C45.8358 31.148 31.1478 45.856 31.1478 64C31.1478 82.164 45.8558 96.852 63.9998 96.852C82.1638 96.852 96.8518 82.144 96.8518 64C96.8518 45.836 82.1438 31.148 63.9998 31.148V31.148ZM63.9998 85.332C52.2078 85.332 42.6678 75.792 42.6678 64C42.6678 52.208 52.2078 42.668 63.9998 42.668C75.7918 42.668 85.3318 52.208 85.3318 64C85.3318 75.792 75.7918 85.332 63.9998 85.332V85.332ZM105.856 29.836C105.856 34.088 102.396 37.52 98.1638 37.52C93.9118 37.52 90.4798 34.084 90.4798 29.836C90.4798 25.608 93.9358 22.168 98.1638 22.168C102.392 22.168 105.856 25.608 105.856 29.836V29.836Z" fill="black"/>
</svg>
