<svg width="100" height="100" viewBox="0 0 100 100" fill="none" xmlns="http://www.w3.org/2000/svg">
<path d="M92.3418 23.5667C89.1608 24.9737 85.7874 25.8978 82.3334 26.3083C85.9741 24.131 88.6989 20.7042 90.0001 16.6667C86.5834 18.7 82.8376 20.125 78.9334 20.8958C76.311 18.0899 72.8349 16.229 69.0457 15.6024C65.2566 14.9759 61.3665 15.6187 57.9804 17.4311C54.5942 19.2434 51.9017 22.1237 50.3214 25.6241C48.7411 29.1246 48.3615 33.0491 49.2418 36.7875C42.313 36.4402 35.5348 34.6397 29.3471 31.5028C23.1594 28.3659 17.7006 23.9627 13.3251 18.5792C11.7763 21.2394 10.9624 24.2635 10.9668 27.3417C10.9668 33.3833 14.0418 38.7208 18.7168 41.8458C15.9501 41.7587 13.2444 41.0116 10.8251 39.6667V39.8833C10.8259 43.9071 12.2183 47.8067 14.7661 50.9211C17.314 54.0354 20.8604 56.1728 24.8043 56.9708C22.236 57.6668 19.543 57.7694 16.9293 57.2708C18.0412 60.7343 20.2085 63.7633 23.1276 65.9338C26.0467 68.1043 29.5715 69.3075 33.2084 69.375C29.5938 72.2139 25.455 74.3124 21.0288 75.5507C16.6025 76.789 11.9756 77.1427 7.4126 76.5917C15.378 81.7143 24.6505 84.4339 34.1209 84.425C66.1751 84.425 83.7043 57.8708 83.7043 34.8417C83.7043 34.0917 83.6834 33.3333 83.6501 32.5917C87.062 30.1257 90.0068 27.0709 92.3459 23.5708L92.3418 23.5667Z" fill="black"/>
</svg>
