<svg version="1.2" baseProfile="tiny-ps" xmlns="http://www.w3.org/2000/svg" viewBox="0 0 1891 1891" width="100" height="100">
	<title>foto-rosto</title>
	<style>
		tspan { white-space:pre }
		.shp0 { fill:  #FFFFFF;stroke: #000000;stroke-width: 4.38 } 
	</style>
	<path id="Forma 3" class="shp0" d="M787.21 134.38C778.97 134.73 765.99 135.54 758.36 136.19C750.73 136.84 738.9 138.02 732.07 138.8C725.24 139.59 714.4 141.05 707.97 142.06C701.55 143.06 691.69 144.73 686.07 145.76C680.44 146.79 672.39 148.44 668.18 149.43C663.96 150.42 653.94 152.87 645.9 154.88C637.87 156.88 624.4 160.68 615.96 163.31C607.53 165.95 595.53 170 589.31 172.32C583.08 174.63 573.72 178.24 568.5 180.33C563.28 182.42 554.07 186.37 548.05 189.09C542.02 191.82 532 196.6 525.78 199.71C519.55 202.82 509.53 208.17 503.5 211.59C497.48 215.01 487.79 220.76 481.96 224.38C476.14 227.99 466.61 234.24 460.78 238.27C454.96 242.3 446.91 248.07 442.89 251.1C438.88 254.12 431.5 259.9 426.51 263.94C421.51 267.97 412.81 275.38 407.16 280.4C401.51 285.42 391.46 294.95 384.83 301.58C378.2 308.21 368.67 318.25 363.65 323.9C358.64 329.54 351.21 338.25 347.15 343.25C343.1 348.25 335.9 357.59 331.17 364.02C326.44 370.45 319.55 380.3 315.86 385.93C312.17 391.55 306.58 400.42 303.43 405.64C300.29 410.86 295.54 419.08 292.86 423.9C290.19 428.72 285.84 436.93 283.19 442.16C280.54 447.38 275.91 457.07 272.89 463.7C269.88 470.33 265.22 481.17 262.54 487.8C259.86 494.42 255.54 505.92 252.93 513.36C250.32 520.79 246.61 532.12 244.67 538.55C242.73 544.97 239.48 556.8 237.44 564.84C235.4 572.87 232.76 584.04 231.56 589.67C230.36 595.29 228.38 605.48 227.17 612.3C225.95 619.13 224.14 630.8 223.15 638.23C222.16 645.66 220.99 655.02 220.56 659.04C220.13 663.06 219.27 672.42 218.66 679.85C218.04 687.28 217.35 704.7 217.11 718.56C216.86 733.49 217.04 751.78 217.54 763.47C218.01 774.31 218.88 788.77 219.47 795.6C220.07 802.42 221.06 812.45 221.67 817.87C222.29 823.29 223.62 833.31 224.63 840.14C225.65 846.97 227.92 859.95 229.69 868.99C231.47 878.02 234.38 891.33 236.17 898.56C237.96 905.79 240.94 916.96 242.8 923.39C244.65 929.82 248.17 940.99 250.61 948.22C253.05 955.45 256.94 966.29 259.25 972.32C261.56 978.34 265.44 987.87 267.86 993.49C270.28 999.12 274.53 1008.48 277.3 1014.31C280.08 1020.13 285.07 1029.99 288.4 1036.21C291.73 1042.44 297.27 1052.3 300.71 1058.12C304.15 1063.95 310.09 1073.48 313.91 1079.3C317.73 1085.12 323.8 1094 327.4 1099.02C330.99 1104.04 336.25 1111.1 339.08 1114.72C341.91 1118.33 347.36 1125.07 351.18 1129.69C355.01 1134.31 362.96 1143.34 368.83 1149.77C374.71 1156.19 384.1 1165.89 389.69 1171.31C395.27 1176.73 403.78 1184.65 408.59 1188.89C413.4 1193.14 422.43 1200.71 428.65 1205.72C434.88 1210.72 443.75 1217.55 448.37 1220.9C452.99 1224.25 462.35 1230.69 469.18 1235.22C476.01 1239.74 488.17 1247.28 496.2 1251.96C504.23 1256.65 517.87 1264.02 526.51 1268.34C535.14 1272.67 546.32 1278.04 551.34 1280.28C556.36 1282.53 563.91 1285.75 568.13 1287.44C572.35 1289.13 582.04 1292.78 589.67 1295.56C597.3 1298.34 609.96 1302.6 617.79 1305.02C625.62 1307.45 639.09 1311.23 647.73 1313.42C656.36 1315.61 669.84 1318.69 677.67 1320.27C685.5 1321.84 695.69 1323.79 700.31 1324.58C704.93 1325.38 711.33 1326.39 714.55 1326.83C717.76 1327.27 724 1328.1 728.42 1328.68C732.84 1329.26 744.01 1330.39 753.25 1331.19C762.49 1331.99 778.26 1333.03 788.3 1333.5C799.29 1334.01 815.72 1334.17 829.56 1333.9C842.21 1333.65 858.97 1332.95 866.8 1332.34C874.64 1331.73 885.81 1330.74 891.63 1330.13C897.46 1329.51 905.84 1328.51 910.25 1327.9C914.67 1327.29 923.05 1325.97 928.87 1324.97C934.7 1323.97 944.39 1322.15 950.42 1320.93C956.44 1319.71 969.26 1316.73 978.9 1314.31C988.54 1311.89 1004.97 1307.11 1015.41 1303.7C1025.85 1300.28 1039.65 1295.42 1046.08 1292.89C1052.51 1290.36 1061.21 1286.79 1065.43 1284.96L1073.1 1281.63L1073.46 1756.24L1361.18 1756.24L1361.15 993.49C1367.82 977.65 1371.9 967.3 1374.52 960.27C1377.14 953.24 1380.63 943.22 1382.28 938L1385.27 928.5L1385.28 891.62L1673 891.62L1673 661.6C1226.75 660.96 1021.45 660.88 928.87 661L760.55 661.23C760.25 836.25 760.43 872.03 760.92 872.27C761.35 872.49 761.65 876.53 761.65 882.13L761.65 891.62L1073.46 891.62L1073.46 972.32C1061.19 987.03 1053.06 995.79 1047.47 1001.26C1041.89 1006.74 1035.02 1013.17 1032.21 1015.56C1029.39 1017.94 1023.97 1022.2 1020.16 1025.02C1016.34 1027.84 1009.93 1032.27 1005.92 1034.88C1001.9 1037.48 996.97 1040.55 994.96 1041.7C992.95 1042.84 988.03 1045.47 984.01 1047.53C979.99 1049.6 972.76 1053.03 967.94 1055.17C963.12 1057.3 954.58 1060.67 948.96 1062.65C943.33 1064.64 933.8 1067.54 927.78 1069.11C921.75 1070.68 913.7 1072.61 909.89 1073.39C906.07 1074.17 896.87 1075.66 889.44 1076.69C882.01 1077.73 869.85 1078.94 862.42 1079.4C854.34 1079.89 841 1080.05 829.2 1079.78C818.35 1079.54 805.54 1078.99 800.72 1078.58C795.9 1078.16 787.02 1077.15 781 1076.34C774.97 1075.53 765.61 1074.04 760.19 1073.04C754.76 1072.03 744.91 1069.87 738.28 1068.25C731.65 1066.62 720.97 1063.55 714.55 1061.41C708.12 1059.27 698.43 1055.73 693 1053.53C687.58 1051.34 678.71 1047.32 673.29 1044.61C667.87 1041.9 659.81 1037.55 655.4 1034.93C650.98 1032.31 644.9 1028.51 641.89 1026.48C638.87 1024.45 634.6 1021.45 632.38 1019.83C630.17 1018.2 625.07 1014.24 621.06 1011.04C617.05 1007.83 609.71 1001.26 604.75 996.43C599.78 991.6 592.7 984.2 589 979.98C585.31 975.77 580.14 969.52 577.5 966.11C574.87 962.7 570.42 956.45 567.62 952.24C564.82 948.02 560.93 941.94 558.97 938.73C557.02 935.51 552.42 926.97 548.75 919.74C545.08 912.51 540.01 901.34 537.48 894.91C534.94 888.48 531.48 878.95 529.78 873.73C528.08 868.51 525.19 858.33 523.36 851.1C521.54 843.87 519.2 833.68 518.18 828.46C517.15 823.24 515.67 814.69 514.89 809.47C514.1 804.25 512.95 795.05 512.33 789.02C511.7 783 510.85 772.48 510.44 765.66C510.03 758.83 509.67 743.55 509.64 731.7C509.62 719.85 509.97 705.56 510.41 699.93C510.86 694.31 511.73 685.44 512.33 680.22C512.94 675 514.26 665.79 515.26 659.77C516.26 653.75 518.08 644.22 519.31 638.59C520.54 632.97 522.85 623.77 524.44 618.15C526.04 612.52 528.5 604.47 529.92 600.25C531.34 596.04 533.65 589.63 535.05 586.01C536.45 582.4 539.69 574.84 542.24 569.22C544.8 563.6 548.26 556.37 549.93 553.15C551.6 549.94 554.79 544.19 557.01 540.37C559.23 536.56 564.16 528.84 567.97 523.21C571.78 517.59 578.04 509.05 581.89 504.23C585.73 499.41 594.81 489.54 602.06 482.3C609.64 474.72 619.04 466.2 624.22 462.22C629.16 458.41 636.23 453.22 639.92 450.68C643.61 448.14 650.58 443.73 655.4 440.87C660.22 438.02 668.43 433.57 673.65 430.99C678.87 428.41 686.43 424.98 690.45 423.38C694.46 421.78 700.87 419.33 704.69 417.93C708.5 416.54 716.72 413.94 722.94 412.14C729.17 410.35 739.85 407.77 746.68 406.4C753.51 405.04 764.51 403.24 771.14 402.41C777.77 401.58 790.26 400.54 798.89 400.11C807.53 399.68 820.01 399.53 826.64 399.78C833.27 400.03 842.63 400.55 847.45 400.95C852.27 401.34 859.99 402.16 864.61 402.77C869.23 403.37 877.28 404.69 882.5 405.69C887.73 406.69 896.1 408.53 901.13 409.77C906.15 411.02 913.87 413.26 918.29 414.75C922.7 416.24 929.77 418.85 933.99 420.54C938.2 422.23 945.93 425.71 951.15 428.28C956.37 430.84 963.43 434.63 966.85 436.7C970.26 438.77 976.83 443.11 981.45 446.35C986.07 449.59 991.99 454.06 994.6 456.29C997.21 458.51 1001.29 462.16 1003.68 464.39C1006.06 466.62 1010.99 471.57 1014.64 475.38C1018.29 479.2 1023.09 484.62 1025.32 487.43C1027.55 490.24 1031.68 495.83 1034.5 499.85C1037.32 503.86 1041.41 510.18 1043.59 513.89L1047.54 520.62C1346.73 520.66 1364.83 520.53 1364.83 519.56C1364.83 518.96 1363.66 514.44 1362.22 509.52C1360.78 504.6 1358.11 495.81 1356.29 489.99C1354.46 484.16 1350.9 473.81 1348.37 466.98C1345.84 460.16 1342.97 452.6 1342 450.19C1341.02 447.78 1338.89 442.69 1337.26 438.87C1335.63 435.05 1331.86 426.84 1328.89 420.61C1325.91 414.39 1320.41 403.71 1316.66 396.88C1312.91 390.05 1307.39 380.52 1304.38 375.7C1301.37 370.88 1295.68 362.17 1291.73 356.35C1287.78 350.53 1280.84 340.95 1276.31 335.07C1271.78 329.19 1264.47 320.15 1260.06 314.99C1255.66 309.82 1246.62 300.05 1239.98 293.27C1233.34 286.48 1222.16 275.84 1215.13 269.62C1208.1 263.4 1197.59 254.63 1191.77 250.14C1185.94 245.64 1177.89 239.63 1173.87 236.79C1169.86 233.95 1161.48 228.34 1155.25 224.33C1149.03 220.31 1138.68 214.02 1132.25 210.33C1125.82 206.65 1113.99 200.4 1105.96 196.44C1097.93 192.47 1085.6 186.79 1078.58 183.8C1071.55 180.81 1059.55 176.05 1051.92 173.22C1044.29 170.4 1032.79 166.42 1026.36 164.39C1019.94 162.36 1008.44 159.04 1000.8 157.01C993.17 154.99 981.01 152.04 973.79 150.47C966.56 148.9 956.2 146.78 950.78 145.76C945.36 144.74 937.8 143.42 933.99 142.83C930.17 142.23 921.96 141.07 915.73 140.25C909.51 139.42 897.84 138.1 889.81 137.31C881.77 136.52 869.45 135.54 862.42 135.14C855.39 134.74 838.96 134.26 825.91 134.08C812.86 133.9 795.44 134.03 787.21 134.38Z" />
</svg>